<svg xmlns="http://www.w3.org/2000/svg" width="154" height="48" viewBox="0 0 154 48" fill="none">
<rect width="153.922" height="48" rx="24" fill="#0C513F"/>
<g clip-path="url(#clip0_4_3529)">
<path d="M33.0445 26.3361C32.5405 26.5989 31.9597 26.6677 31.4087 26.5301C30.8562 26.3911 30.3732 26.056 30.0494 25.5873C29.7225 25.1351 29.5588 24.5853 29.5851 24.0279C29.6115 23.4705 29.8262 22.9386 30.1943 22.5191C30.5626 22.0869 31.0748 21.8024 31.6364 21.7182C32.1981 21.6339 32.7712 21.7556 33.2501 22.0608C34.2299 22.6741 35.3212 23.0818 36.4595 23.2585C37.3654 23.3859 38.2843 23.425 39.2069 23.5032C39.0968 20.619 36.6217 16.9179 32.2096 16.763C30.8418 16.7272 29.4921 17.0805 28.3173 17.7818C27.1366 18.4873 26.1774 19.5099 25.5489 20.7334C24.917 21.9622 24.6383 23.3422 24.7438 24.7199C24.8492 26.0977 25.3348 27.4192 26.1463 28.5374L26.0261 28.4462L24 34.1379L28.6634 30.7055C29.6083 31.198 30.6503 31.4755 31.715 31.518C35.815 31.6867 38.7681 28.4462 39.1323 25.4099C39.0957 25.3921 39.057 25.3787 39.0172 25.3701C36.9461 25.1782 34.9424 25.3701 33.0452 26.3368" fill="#FFC501"/>
</g>
<path d="M51.784 30.192C50.9413 30.192 50.1573 30.0373 49.432 29.728C48.7173 29.4187 48.0933 28.992 47.56 28.448C47.0373 27.8933 46.6267 27.2427 46.328 26.496C46.0293 25.7493 45.88 24.928 45.88 24.032C45.88 23.1467 46.024 22.3307 46.312 21.584C46.6107 20.8267 47.0267 20.176 47.56 19.632C48.0933 19.0773 48.7173 18.6507 49.432 18.352C50.1467 18.0427 50.9307 17.888 51.784 17.888C52.6267 17.888 53.3787 18.032 54.04 18.32C54.712 18.608 55.2773 18.9867 55.736 19.456C56.1947 19.9147 56.5253 20.416 56.728 20.96L55.032 21.76C54.776 21.12 54.3653 20.6027 53.8 20.208C53.2453 19.8027 52.5733 19.6 51.784 19.6C50.9947 19.6 50.296 19.7867 49.688 20.16C49.08 20.5333 48.6053 21.0507 48.264 21.712C47.9333 22.3733 47.768 23.1467 47.768 24.032C47.768 24.9173 47.9333 25.696 48.264 26.368C48.6053 27.0293 49.08 27.5467 49.688 27.92C50.296 28.2827 50.9947 28.464 51.784 28.464C52.5733 28.464 53.2453 28.2667 53.8 27.872C54.3653 27.4773 54.776 26.96 55.032 26.32L56.728 27.12C56.5253 27.6533 56.1947 28.1547 55.736 28.624C55.2773 29.0933 54.712 29.472 54.04 29.76C53.3787 30.048 52.6267 30.192 51.784 30.192ZM58.4935 30V17.888H60.3015V23.04L60.0135 22.816C60.2268 22.272 60.5682 21.8613 61.0375 21.584C61.5068 21.296 62.0508 21.152 62.6695 21.152C63.3095 21.152 63.8748 21.2907 64.3655 21.568C64.8562 21.8453 65.2402 22.2293 65.5175 22.72C65.7948 23.2107 65.9335 23.7707 65.9335 24.4V30H64.1415V24.896C64.1415 24.4587 64.0562 24.0907 63.8855 23.792C63.7255 23.4827 63.5015 23.248 63.2135 23.088C62.9255 22.9173 62.5948 22.832 62.2215 22.832C61.8588 22.832 61.5282 22.9173 61.2295 23.088C60.9415 23.248 60.7122 23.4827 60.5415 23.792C60.3815 24.1013 60.3015 24.4693 60.3015 24.896V30H58.4935ZM72.0445 30.192C71.2125 30.192 70.4498 29.9947 69.7565 29.6C69.0738 29.2053 68.5298 28.6667 68.1245 27.984C67.7192 27.3013 67.5165 26.528 67.5165 25.664C67.5165 24.7893 67.7192 24.016 68.1245 23.344C68.5298 22.6613 69.0738 22.128 69.7565 21.744C70.4392 21.3493 71.2018 21.152 72.0445 21.152C72.8978 21.152 73.6605 21.3493 74.3325 21.744C75.0152 22.128 75.5538 22.6613 75.9485 23.344C76.3538 24.016 76.5565 24.7893 76.5565 25.664C76.5565 26.5387 76.3538 27.3173 75.9485 28C75.5432 28.6827 74.9992 29.2213 74.3165 29.616C73.6338 30 72.8765 30.192 72.0445 30.192ZM72.0445 28.512C72.5565 28.512 73.0098 28.3893 73.4045 28.144C73.7992 27.8987 74.1085 27.5627 74.3325 27.136C74.5672 26.6987 74.6845 26.208 74.6845 25.664C74.6845 25.12 74.5672 24.6347 74.3325 24.208C74.1085 23.7813 73.7992 23.4453 73.4045 23.2C73.0098 22.9547 72.5565 22.832 72.0445 22.832C71.5432 22.832 71.0898 22.9547 70.6845 23.2C70.2898 23.4453 69.9752 23.7813 69.7405 24.208C69.5165 24.6347 69.4045 25.12 69.4045 25.664C69.4045 26.208 69.5165 26.6987 69.7405 27.136C69.9752 27.5627 70.2898 27.8987 70.6845 28.144C71.0898 28.3893 71.5432 28.512 72.0445 28.512ZM80.2614 30L77.2854 21.344H79.2054L81.4774 28.24H80.8054L83.1254 21.344H84.7734L87.0774 28.24H86.4054L88.6934 21.344H90.6134L87.6214 30H85.9894L83.6534 22.944H84.2454L81.9094 30H80.2614ZM95.6966 30.192C94.8646 30.192 94.118 29.9947 93.4566 29.6C92.806 29.1947 92.2886 28.6507 91.9046 27.968C91.5313 27.2853 91.3446 26.5173 91.3446 25.664C91.3446 24.8107 91.5366 24.0427 91.9206 23.36C92.3046 22.6773 92.822 22.1387 93.4726 21.744C94.1233 21.3493 94.8593 21.152 95.6806 21.152C96.374 21.152 96.9873 21.2907 97.5206 21.568C98.054 21.8453 98.4753 22.2293 98.7846 22.72L98.5126 23.136V17.888H100.305V30H98.5926V28.24L98.8006 28.576C98.502 29.0987 98.0753 29.4987 97.5206 29.776C96.966 30.0533 96.358 30.192 95.6966 30.192ZM95.8726 28.512C96.374 28.512 96.822 28.3893 97.2166 28.144C97.622 27.8987 97.9366 27.5627 98.1606 27.136C98.3953 26.6987 98.5126 26.208 98.5126 25.664C98.5126 25.12 98.3953 24.6347 98.1606 24.208C97.9366 23.7813 97.622 23.4453 97.2166 23.2C96.822 22.9547 96.374 22.832 95.8726 22.832C95.3713 22.832 94.918 22.9547 94.5126 23.2C94.1073 23.4453 93.7926 23.7813 93.5686 24.208C93.3446 24.6347 93.2326 25.12 93.2326 25.664C93.2326 26.208 93.3446 26.6987 93.5686 27.136C93.7926 27.5627 94.102 27.8987 94.4966 28.144C94.902 28.3893 95.3606 28.512 95.8726 28.512ZM106.479 30.192C105.615 30.192 104.847 29.9947 104.175 29.6C103.514 29.1947 102.997 28.6507 102.623 27.968C102.25 27.2747 102.063 26.5013 102.063 25.648C102.063 24.7733 102.25 24 102.623 23.328C103.007 22.656 103.519 22.128 104.159 21.744C104.799 21.3493 105.525 21.152 106.335 21.152C106.986 21.152 107.567 21.264 108.079 21.488C108.591 21.712 109.023 22.0213 109.375 22.416C109.727 22.8 109.994 23.2427 110.175 23.744C110.367 24.2453 110.463 24.7787 110.463 25.344C110.463 25.4827 110.458 25.6267 110.447 25.776C110.437 25.9253 110.415 26.064 110.383 26.192H103.487V24.752H109.359L108.495 25.408C108.602 24.8853 108.565 24.4213 108.383 24.016C108.213 23.6 107.946 23.2747 107.583 23.04C107.231 22.7947 106.815 22.672 106.335 22.672C105.855 22.672 105.429 22.7947 105.055 23.04C104.682 23.2747 104.394 23.616 104.191 24.064C103.989 24.5013 103.909 25.0347 103.951 25.664C103.898 26.2507 103.978 26.7627 104.191 27.2C104.415 27.6373 104.725 27.9787 105.119 28.224C105.525 28.4693 105.983 28.592 106.495 28.592C107.018 28.592 107.461 28.4747 107.823 28.24C108.197 28.0053 108.49 27.7013 108.703 27.328L110.175 28.048C110.005 28.4533 109.738 28.8213 109.375 29.152C109.023 29.472 108.597 29.728 108.095 29.92C107.605 30.1013 107.066 30.192 106.479 30.192ZM116.34 30.192C115.476 30.192 114.708 29.9947 114.036 29.6C113.375 29.1947 112.847 28.6507 112.452 27.968C112.068 27.2853 111.876 26.512 111.876 25.648C111.876 24.7947 112.068 24.0267 112.452 23.344C112.836 22.6613 113.364 22.128 114.036 21.744C114.708 21.3493 115.476 21.152 116.34 21.152C116.927 21.152 117.476 21.2587 117.988 21.472C118.5 21.6747 118.943 21.9573 119.316 22.32C119.7 22.6827 119.983 23.104 120.164 23.584L118.58 24.32C118.399 23.872 118.105 23.5147 117.7 23.248C117.305 22.9707 116.852 22.832 116.34 22.832C115.849 22.832 115.407 22.9547 115.012 23.2C114.628 23.4347 114.324 23.7707 114.1 24.208C113.876 24.6347 113.764 25.12 113.764 25.664C113.764 26.208 113.876 26.6987 114.1 27.136C114.324 27.5627 114.628 27.8987 115.012 28.144C115.407 28.3893 115.849 28.512 116.34 28.512C116.863 28.512 117.316 28.3787 117.7 28.112C118.095 27.8347 118.388 27.4667 118.58 27.008L120.164 27.76C119.993 28.2187 119.716 28.6347 119.332 29.008C118.959 29.3707 118.516 29.6587 118.004 29.872C117.492 30.0853 116.937 30.192 116.34 30.192ZM121.931 30V17.888H123.739V26L123.035 25.824L127.371 21.344H129.627L126.363 24.816L129.771 30H127.691L124.651 25.408L125.723 25.264L123.163 27.984L123.739 26.784V30H121.931Z" fill="white"/>
<defs>
<clipPath id="clip0_4_3529">
<rect width="21" height="24" fill="white" transform="translate(24 12)"/>
</clipPath>
</defs>
</svg>