<svg xmlns="http://www.w3.org/2000/svg" width="1458" height="1449" viewBox="0 0 1458 1449" fill="none">
<rect width="1457.68" height="1447.96" rx="97.1784" fill="#990038"/>
<mask id="mask0_3099_274" style="mask-type:alpha" maskUnits="userSpaceOnUse" x="0" y="0" width="1458" height="1449">
<rect x="0.32373" y="0.427734" width="1457.68" height="1447.96" rx="97.1784" fill="#990038"/>
</mask>
<g mask="url(#mask0_3099_274)">
<path d="M-500.14 539.834L341.894 305.342C362.734 299.572 383.664 318.474 378.431 340.129L292.232 734.45C290.299 745.313 281.679 753.089 271.906 756.693L-570.127 991.184C-590.968 996.954 -611.898 978.052 -606.665 956.397L-520.466 562.076C-518.533 551.213 -511.208 542 -500.14 539.834Z" fill="#FFB3CE"/>
<path d="M-43.9895 634.701L798.044 400.21C818.885 394.439 839.814 413.341 834.582 434.996L748.383 829.318C746.449 840.181 737.83 847.956 728.057 851.56L-113.977 1086.05C-134.818 1091.82 -155.747 1072.92 -150.515 1051.26L-64.3157 656.943C-62.3824 646.08 -55.0573 636.867 -43.9895 634.701Z" fill="#FFB3CE"/>
<path d="M1304.12 539.834L2146.15 305.342C2166.99 299.572 2187.92 318.474 2182.69 340.129L2096.49 734.45C2094.56 745.313 2085.94 753.089 2076.17 756.693L1234.13 991.184C1213.29 996.954 1192.36 978.052 1197.59 956.397L1283.79 562.076C1285.73 551.213 1293.05 542 1304.12 539.834Z" fill="#FFB3CE"/>
<path d="M692.014 568.421L1534.05 333.93C1554.89 328.16 1575.82 347.062 1570.59 368.717L1484.39 763.038C1482.45 773.901 1473.83 781.677 1464.06 785.281L622.027 1019.77C601.186 1025.54 580.257 1006.64 585.489 984.985L671.688 590.664C673.621 579.801 680.947 570.588 692.014 568.421Z" fill="#FFB3CE"/>
</g>
</svg>