<svg xmlns="http://www.w3.org/2000/svg" width="1458" height="1449" viewBox="0 0 1458 1449" fill="none">
<rect x="0.32373" y="0.584961" width="1457.68" height="1447.96" rx="97.1784" fill="#FFE1EB"/>
<mask id="mask0_3095_256" style="mask-type:alpha" maskUnits="userSpaceOnUse" x="0" y="0" width="1458" height="1449">
<rect x="0.32373" y="0.584961" width="1457.68" height="1447.96" rx="97.1784" fill="#990038"/>
</mask>
<g mask="url(#mask0_3095_256)">
<path d="M659.739 1251.35L660.206 1251.26L660.664 1251.13L2060.7 861.248C2060.7 861.248 2060.7 861.247 2060.7 861.247C2086.96 853.977 2112.79 878.066 2106.4 904.528L2106.37 904.657L2106.34 904.787L1963.02 1560.43L1962.97 1560.66L1962.92 1560.89C1960.71 1573.35 1950.62 1583.4 1937.32 1588.44L537.796 1978.18C537.795 1978.18 537.793 1978.18 537.792 1978.18C511.528 1985.45 485.7 1961.36 492.093 1934.9L492.124 1934.77L492.153 1934.64L635.476 1279.01L635.527 1278.77L635.569 1278.54C638.103 1264.3 647.288 1253.79 659.739 1251.35Z" stroke="#FFB3CE" stroke-width="24.2946"/>
<path d="M1388.58 -332.658L1389.04 -332.75L1389.5 -332.877L2789.54 -722.761C2789.54 -722.761 2789.54 -722.762 2789.54 -722.762C2815.8 -730.031 2841.63 -705.943 2835.24 -679.481L2835.21 -679.352L2835.18 -679.222L2691.85 -23.5838L2691.8 -23.3518L2691.76 -23.118C2689.54 -10.655 2679.46 -0.607473 2666.16 4.43098L1266.63 394.174C1266.63 394.175 1266.63 394.175 1266.63 394.176C1240.37 401.444 1214.54 377.356 1220.93 350.894L1220.96 350.765L1220.99 350.635L1364.31 -305.003L1364.37 -305.235L1364.41 -305.469C1366.94 -319.711 1376.13 -330.221 1388.58 -332.658Z" stroke="white" stroke-width="24.2946"/>
<path d="M-404.365 -196.608L-403.898 -196.7L-403.439 -196.827L996.593 -586.711C996.594 -586.711 996.595 -586.712 996.596 -586.712C1022.86 -593.982 1048.69 -569.893 1042.3 -543.431L1042.26 -543.302L1042.24 -543.172L898.913 112.466L898.862 112.698L898.821 112.932C896.603 125.395 886.514 135.442 873.221 140.481L-526.308 530.224C-526.309 530.225 -526.31 530.225 -526.312 530.225C-552.576 537.494 -578.404 513.406 -572.01 486.944L-571.979 486.815L-571.951 486.685L-428.627 -168.953L-428.576 -169.185L-428.535 -169.419C-426 -183.662 -416.815 -194.171 -404.365 -196.608Z" stroke="#FFB3CE" stroke-width="24.2946"/>
</g>
</svg>