<svg xmlns="http://www.w3.org/2000/svg" width="1458" height="1449" viewBox="0 0 1458 1449" fill="none">
<rect x="0.32373" y="0.705078" width="1457.68" height="1447.96" rx="97.1784" fill="#990038"/>
<mask id="mask0_3095_255" style="mask-type:alpha" maskUnits="userSpaceOnUse" x="0" y="0" width="1458" height="1449">
<rect x="0.32373" y="0.705078" width="1457.68" height="1447.96" rx="97.1784" fill="#990038"/>
</mask>
<g mask="url(#mask0_3095_255)">
<path d="M-404.365 -196.488L-403.898 -196.58L-403.439 -196.707L996.593 -586.591C996.595 -586.592 996.597 -586.592 996.599 -586.593C1022.86 -593.86 1048.69 -569.772 1042.3 -543.311L1042.26 -543.182L1042.24 -543.052L898.913 112.586L898.862 112.818L898.821 113.052C896.603 125.515 886.514 135.562 873.221 140.601L-526.308 530.344C-552.573 537.617 -578.404 513.528 -572.01 487.064L-571.979 486.935L-571.951 486.805L-428.627 -168.833L-428.576 -169.065L-428.535 -169.299C-426 -183.542 -416.815 -194.051 -404.365 -196.488Z" stroke="#FFB3CE" stroke-width="24.2946"/>
<path d="M810.365 1280.62L810.832 1280.53L811.291 1280.41L2211.32 890.521C2211.33 890.521 2211.33 890.52 2211.33 890.52C2237.59 883.252 2263.42 907.34 2257.03 933.802L2256.99 933.931L2256.97 934.06L2113.64 1589.7L2113.59 1589.93L2113.55 1590.16C2111.33 1602.63 2101.24 1612.67 2087.95 1617.71L688.422 2007.46C662.157 2014.73 636.326 1990.64 642.72 1964.18L642.751 1964.05L642.779 1963.92L786.103 1308.28L786.153 1308.05L786.195 1307.81C788.73 1293.57 797.915 1283.06 810.365 1280.62Z" stroke="#FFB3CE" stroke-width="24.2946"/>
</g>
</svg>