<svg xmlns="http://www.w3.org/2000/svg" width="1458" height="1449" viewBox="0 0 1458 1449" fill="none">
<rect x="0.32373" y="0.62207" width="1457.68" height="1447.96" rx="97.1784" fill="#FFF0F5"/>
<g clip-path="url(#clip0_3075_1443)">
<mask id="path-2-inside-1_3075_1443" fill="white">
<path d="M-121.714 551.417L663.583 332.727C683.019 327.345 702.538 344.973 697.658 365.17L617.268 732.921C615.465 743.052 607.426 750.303 598.311 753.664L-186.985 972.355C-206.422 977.737 -225.941 960.108 -221.061 939.912L-140.67 572.161C-138.867 562.03 -132.036 553.438 -121.714 551.417Z"/>
</mask>
<path d="M-121.714 551.417L663.583 332.727C683.019 327.345 702.538 344.973 697.658 365.17L617.268 732.921C615.465 743.052 607.426 750.303 598.311 753.664L-186.985 972.355C-206.422 977.737 -225.941 960.108 -221.061 939.912L-140.67 572.161C-138.867 562.03 -132.036 553.438 -121.714 551.417Z" stroke="#FFB3CE" stroke-width="38.8714" mask="url(#path-2-inside-1_3075_1443)"/>
<mask id="path-3-inside-2_3075_1443" fill="white">
<path d="M428.537 488.394L1213.83 269.703C1233.27 264.322 1252.79 281.95 1247.91 302.146L1167.52 669.897C1165.72 680.028 1157.68 687.28 1148.56 690.641L363.265 909.332C343.829 914.713 324.31 897.085 329.189 876.889L409.58 509.138C411.383 499.006 418.215 490.414 428.537 488.394Z"/>
</mask>
<path d="M428.537 488.394L1213.83 269.703C1233.27 264.322 1252.79 281.95 1247.91 302.146L1167.52 669.897C1165.72 680.028 1157.68 687.28 1148.56 690.641L363.265 909.332C343.829 914.713 324.31 897.085 329.189 876.889L409.58 509.138C411.383 499.006 418.215 490.414 428.537 488.394Z" stroke="#FFB3CE" stroke-width="38.8714" mask="url(#path-3-inside-2_3075_1443)"/>
<mask id="path-4-inside-3_3075_1443" fill="white">
<path d="M860.015 628.99L1645.31 410.299C1664.75 404.917 1684.27 422.546 1679.39 442.742L1599 810.493C1597.19 820.624 1589.15 827.875 1580.04 831.237L794.743 1049.93C775.307 1055.31 755.788 1037.68 760.667 1017.48L841.058 649.733C842.861 639.602 849.693 631.01 860.015 628.99Z"/>
</mask>
<path d="M860.015 628.99L1645.31 410.299C1664.75 404.917 1684.27 422.546 1679.39 442.742L1599 810.493C1597.19 820.624 1589.15 827.875 1580.04 831.237L794.743 1049.93C775.307 1055.31 755.788 1037.68 760.667 1017.48L841.058 649.733C842.861 639.602 849.693 631.01 860.015 628.99Z" stroke="#FFB3CE" stroke-width="38.8714" mask="url(#path-4-inside-3_3075_1443)"/>
</g>
<defs>
<clipPath id="clip0_3075_1443">
<rect width="1457.68" height="826.017" fill="white" transform="translate(0.32373 248.427)"/>
</clipPath>
</defs>
</svg>