<svg xmlns="http://www.w3.org/2000/svg" width="1458" height="1448" viewBox="0 0 1458 1448" fill="none">
<rect x="0.32373" y="0.0415039" width="1457.68" height="1447.96" rx="97.1784" fill="#FFE1EB"/>
<mask id="mask0_3075_1558" style="mask-type:alpha" maskUnits="userSpaceOnUse" x="0" y="0" width="1458" height="1448">
<rect x="0.32373" y="0.0415039" width="1457.68" height="1447.96" rx="97.1784" fill="#990038"/>
</mask>
<g mask="url(#mask0_3075_1558)">
<path d="M-500.14 735.914L341.893 501.423C362.734 495.653 383.663 514.555 378.431 536.21L292.232 930.531C290.299 941.394 281.679 949.169 271.906 952.773L-570.128 1187.26C-590.969 1193.03 -611.898 1174.13 -606.666 1152.48L-520.467 758.156C-518.533 747.293 -511.208 738.08 -500.14 735.914Z" fill="#FFB3CE"/>
<path d="M-43.99 830.782L798.044 596.291C818.884 590.52 839.813 609.422 834.581 631.077L748.382 1025.4C746.449 1036.26 737.829 1044.04 728.056 1047.64L-113.977 1282.13C-134.818 1287.9 -155.748 1269 -150.515 1247.35L-64.3162 853.024C-62.3829 842.161 -55.0577 832.948 -43.99 830.782Z" fill="#FFB3CE"/>
<path d="M1304.12 735.914L2146.15 501.423C2166.99 495.653 2187.92 514.555 2182.69 536.21L2096.49 930.531C2094.56 941.394 2085.94 949.169 2076.17 952.773L1234.13 1187.26C1213.29 1193.03 1192.36 1174.13 1197.59 1152.48L1283.79 758.156C1285.73 747.293 1293.05 738.08 1304.12 735.914Z" fill="#FFB3CE"/>
<path d="M692.014 764.503L1534.05 530.012C1554.89 524.241 1575.82 543.143 1570.59 564.799L1484.39 959.12C1482.45 969.983 1473.83 977.758 1464.06 981.362L622.027 1215.85C601.186 1221.62 580.257 1202.72 585.489 1181.07L671.688 786.745C673.621 775.882 680.947 766.669 692.014 764.503Z" fill="#FFB3CE"/>
</g>
</svg>