<svg width="21" height="24" fill="#ffffff" xmlns="http://www.w3.org/2000/svg" viewBox="0 0 142 170" color="#99C8FF"><path d="M147.088 74.442a55.722 55.722 0 0 1-2.791 17.472 73.102 73.102 0 0 1-26.43 39.198h-.015L73.823 168l-48.089-40.248C12.806 114.703 1.991 97.022 1 76.475a72.934 72.934 0 0 1 144.595-16.647c.078.427.04.868-.111 1.275a55.929 55.929 0 0 1 1.605 13.34Z" fill="currentColor"></path><path d="M74.248 89.583c15.853 0 28.703-12.85 28.703-28.703 0-15.852-12.85-28.703-28.703-28.703-15.852 0-28.703 12.85-28.703 28.703 0 15.852 12.85 28.703 28.703 28.703Z" fill="color"></path></svg>