<svg xmlns="http://www.w3.org/2000/svg" width="701" height="448" viewBox="0 0 701 448" fill="none">
<path d="M9.1084 195.104L9.4347 322.758L157.083 447.966L156.654 280.075L9.1084 195.104Z" fill="#B30041"/>
<path d="M156.656 280.075L691.412 191.871L691.787 338.6L157.085 447.966L156.656 280.075Z" fill="#990038"/>
<path d="M156.655 280.075L156.515 225.366L0.0153809 144.66L0.132881 190.644L156.655 280.075Z" fill="#B20041"/>
<path d="M156.514 225.365L700.411 152.278L700.517 193.763L156.654 280.074L156.514 225.365Z" fill="#990038"/>
<path d="M0.0171967 144.66C5.5764 144.406 527.612 99.14 527.612 99.14L700.395 152.295L156.516 225.383L0 144.66H0.0171967Z" fill="#CC004A"/>
<path d="M691.424 195.207L156.676 280.058L156.715 295.368C156.715 295.368 540.943 233.416 605.366 232.105C669.789 230.794 691.528 235.905 691.528 235.905L691.424 195.19V195.207Z" fill="#660025"/>
<path d="M156.676 280.725L8.40967 195.002L9.13717 205.231L156.696 295.386L156.676 280.725Z" fill="#80002E"/>
<path d="M264.076 193.955C277.577 195.118 291.083 191.73 303.747 186.942C322.393 179.88 339.851 169.691 355.181 156.907C360.063 152.823 364.91 148.397 370.892 146.226C379.865 142.97 389.982 145.373 398.563 149.56C407.145 153.746 414.79 159.629 423.337 163.901C441.58 172.99 463.07 174.132 483.041 170.078C490.632 168.536 499.348 164.955 500.783 157.356C501.762 152.221 498.772 146.977 494.607 143.823C490.441 140.669 485.271 139.193 480.221 137.872C468.084 134.704 455.828 132.049 443.556 129.446C418.172 124.054 392.258 118.834 366.432 121.432C337.733 124.328 310.992 136.696 283.402 145.149C273.317 148.237 263.025 150.847 253.456 155.285C248.074 157.78 242.915 160.906 238.443 164.818C236.053 166.911 233.852 169.226 231.977 171.78C229.608 175.02 229.524 175.79 232.218 178.862C240.162 187.977 252.184 192.925 264.076 193.955Z" fill="#6748A3"/>
<path d="M337.462 158.8L350.134 156.8C350.134 156.8 375.764 164.826 376.791 165.132C377.802 165.454 458.738 172.569 457.573 172.213C456.426 171.874 375.41 146.711 375.41 146.711C375.41 146.711 352.704 145.041 352.123 145.231C351.542 145.42 337.462 158.783 337.462 158.783V158.8Z" fill="#AA7F2B"/>
<path d="M491.929 86.075C487.042 74.984 469.383 73.079 446.629 79.536C434.971 82.85 388.331 100.983 377.743 108.178C372.602 111.664 367.583 115.475 363.712 120.343C359.841 125.195 357.17 131.24 357.306 137.45C357.344 139.092 357.605 140.836 358.669 142.1C359.51 143.107 360.76 143.685 361.976 144.178C368.432 146.762 375.432 147.788 382.395 147.838C391.616 147.918 400.764 146.337 409.861 144.757C429.133 141.406 448.644 137.986 466.414 129.832C473.95 126.374 481.261 121.959 486.462 115.496C496.233 103.359 496.094 95.559 491.912 86.092L491.929 86.075Z" fill="#D1A033"/>
<path d="M427.191 117.77C449.141 111.623 493.743 99.5171 488.959 81.7721C497.751 88.0961 502.315 106.646 504.465 117.675C506.545 128.362 507.071 140.25 501.073 149.349C496.812 155.81 489.707 160.019 482.27 162.125C474.817 164.231 466.982 164.457 459.232 164.357C430.816 164.019 402.458 159.643 375.253 151.45C370.768 150.093 366.231 148.599 362.494 145.803C357.266 141.882 353.917 136.758 359.88 133.869C366.134 130.842 375.628 130.612 382.467 129.072C397.461 125.681 412.369 121.913 427.174 117.787L427.191 117.77Z" fill="#F4BE38"/>
<path d="M266.789 25.4941C275.818 17.4131 292.683 22.947 310.753 38.212C320.011 46.024 355.018 81.791 361.701 92.706C364.948 98.001 367.939 103.553 369.459 109.571C370.98 115.589 370.929 122.192 368.257 127.793C367.543 129.284 366.588 130.74 365.102 131.462C363.906 132.03 362.537 132.051 361.22 131.986C354.273 131.678 347.477 129.728 341.106 126.905C332.662 123.18 324.985 117.965 317.359 112.783C301.181 101.791 284.815 90.6271 271.981 75.8621C266.542 69.6151 261.7 62.562 259.626 54.544C255.722 39.465 259.074 32.4081 266.789 25.5111V25.4941Z" fill="#D1A033"/>
<path d="M312.712 81.0421C295.242 66.3921 259.601 36.9721 271.266 22.7781C260.665 24.9091 248.831 39.9421 242.336 49.0941C236.029 57.9721 230.65 68.5751 232.371 79.3491C233.588 86.9921 238.327 93.7551 244.242 98.7351C250.157 103.732 257.214 107.17 264.304 110.266C290.337 121.661 317.968 129.391 346.136 133.117C350.774 133.738 355.531 134.239 360.096 133.235C366.473 131.833 371.648 128.535 367.393 123.431C362.948 118.088 354.384 113.987 348.796 109.742C336.524 100.484 324.507 90.9001 312.729 81.0251L312.712 81.0421Z" fill="#EFC335"/>
<path d="M223.92 116.495C225.789 104.532 242.332 98.1261 265.993 98.4931C278.105 98.6851 327.85 104.169 339.922 108.38C345.795 110.418 351.617 112.816 356.605 116.515C361.593 120.215 365.746 125.353 367.216 131.389C367.613 132.979 367.789 134.74 367.091 136.23C366.53 137.429 365.471 138.304 364.43 139.094C358.863 143.248 352.352 146.053 345.651 147.901C336.762 150.353 327.509 151.198 318.324 152.008C298.843 153.752 279.106 155.479 259.834 152.192C251.653 150.793 243.453 148.419 236.769 143.526C224.188 134.32 222.321 126.764 223.92 116.529V116.495Z" fill="#D1A033"/>
<path d="M294.645 130.41C271.857 130.143 225.632 129.953 225.671 111.58C218.815 119.963 219.189 139.071 219.953 150.274C220.7 161.153 223.261 172.745 231.406 179.995C237.184 185.146 245.127 187.367 252.877 187.484C260.61 187.601 268.253 185.786 275.706 183.696C303.058 176.031 329.34 164.502 353.491 149.54C357.471 147.083 361.468 144.455 364.367 140.787C368.408 135.662 370.326 129.84 363.805 128.574C356.993 127.257 347.761 129.504 340.747 129.779C325.386 130.383 310.007 130.593 294.645 130.41Z" fill="#F4BE38"/>
<path d="M347.592 124.816C346.287 129.747 347.07 135.065 348.998 139.782C350.1 142.465 351.578 145.061 353.756 146.989C358.917 151.543 366.563 151.438 373.44 151.096C375.184 151.006 376.997 150.898 378.586 150.141C381.577 148.731 383.074 145.391 384.229 142.292C385.554 138.73 386.725 135.083 386.972 131.285C387.219 127.503 386.473 123.536 384.225 120.48C379.813 114.504 370.503 113.244 363.574 112.869C356.097 112.477 349.506 117.575 347.592 124.799V124.816Z" fill="#EFC335"/>
<path d="M385.75 121.674C384.703 120.257 383.365 119.097 381.875 118.16C382.204 119.819 382.294 121.546 382.178 123.24C381.931 127.021 380.743 130.685 379.435 134.247C378.28 137.347 376.783 140.686 373.793 142.097C372.204 142.854 370.407 142.944 368.646 143.051C362.265 143.375 355.2 143.496 350.093 139.848C350.231 140.224 350.369 140.6 350.524 140.976C351.625 143.659 353.103 146.255 355.281 148.183C360.442 152.737 368.089 152.632 374.965 152.29C376.71 152.2 378.523 152.092 380.112 151.336C383.102 149.925 384.599 146.585 385.754 143.486C387.079 139.924 388.251 136.277 388.497 132.479C388.744 128.698 387.999 124.731 385.75 121.674Z" fill="#E0B036"/>
<path d="M355.139 119.1C353.996 120.215 353.23 121.637 352.549 123.076C351.63 125.028 350.831 127.117 350.854 129.273C350.877 131.428 351.909 133.701 353.827 134.671C356.054 135.795 359.114 134.675 360.117 132.38C360.491 131.506 360.591 130.531 360.863 129.607C361.677 126.884 364.186 124.74 367.008 124.373C368.958 124.111 371.302 124.499 372.53 122.99C373.707 121.55 372.931 119.243 371.423 118.152C367.104 115.049 359.047 115.326 355.139 119.1Z" fill="#F2D927"/>
<path opacity="0.39" d="M224.471 130.982C225.613 142.441 227.643 153.83 230.529 164.976C231.358 168.173 232.29 171.438 234.23 174.119C237.2 178.2 242.15 180.412 247.063 181.511C249.219 182.002 251.905 182.115 253.184 180.298C254.701 178.121 252.914 175.252 251.352 173.117C247.919 168.387 245.339 163.04 243.785 157.398C242.818 153.876 242.244 150.114 243.261 146.605C244.278 143.095 247.213 139.957 250.839 139.657C253.302 139.445 255.717 140.534 258.197 140.493C260.678 140.47 263.512 138.393 262.753 136.034C262.098 134 259.497 133.561 257.375 133.379C249.76 132.68 242.125 130.646 235.274 127.208C233.304 126.221 230.166 123.269 227.806 123.618C224.385 124.122 224.208 128.331 224.471 130.948V130.982Z" fill="white"/>
<path opacity="0.39" d="M357.554 40.024C357.272 43.497 357.007 47.108 358.247 50.389C358.506 51.056 358.867 51.756 359.518 52.028C360.322 52.368 361.296 51.921 361.825 51.218C362.354 50.515 362.522 49.608 362.674 48.753C363.112 46.254 363.431 43.721 363.647 41.206C364.095 35.816 358.035 34.292 357.571 40.041L357.554 40.024Z" fill="white"/>
<path opacity="0.39" d="M259.05 39.66C249.032 49.061 241.93 61.533 238.936 74.953C238.564 76.63 238.364 78.667 239.667 79.775C240.696 80.645 242.303 80.521 243.448 79.8C244.592 79.095 245.376 77.93 246.092 76.782C249.976 70.442 252.967 62.822 259.596 59.452C262.313 58.076 265.528 57.504 267.764 55.428C270.136 53.215 270.879 49.638 270.187 46.475C269.027 41.174 264.409 34.634 259.05 39.66Z" fill="white"/>
<path opacity="0.39" d="M470.669 114.46C474.292 112.722 477.982 110.951 481.967 110.342C483.728 110.064 485.661 110.059 487.101 111.116C489.483 112.855 489.287 116.362 489.397 119.304C489.508 122.606 490.304 125.888 491.714 128.896C492.075 129.665 492.522 130.468 493.293 130.825C494.338 131.335 495.654 130.819 496.404 129.91C497.138 129.002 497.425 127.82 497.593 126.674C498.906 117.98 495.616 109.332 492.379 101.163C491.931 100.018 491.346 98.753 490.199 98.346C489.514 98.108 488.745 98.23 488.027 98.386C486.009 98.853 484.078 99.696 482.319 100.812C480.713 101.843 479.263 103.113 477.743 104.28C474.072 107.078 469.989 109.278 465.768 111.136C462.419 112.616 457.391 113.416 455.038 116.45C452.719 119.415 453.871 121.363 457.615 120.669C461.907 119.854 466.74 116.386 470.687 114.494L470.669 114.46Z" fill="white"/>
<path d="M78.8389 26.162C82.7049 26.084 475.578 0 475.578 0L594.904 34.269L216.602 71.641L78.8389 26.162Z" fill="#CC004A"/>
<path d="M573.676 133.838L613.661 149.269L215.818 211.685L75.3669 138.482L272.535 120.546L573.676 133.838Z" fill="#80002E"/>
<path d="M84.599 56.7531L82.959 138.086L214.5 206.111L216.089 104.694L84.599 56.7531Z" fill="#B20041"/>
<path d="M216.091 104.694L588.211 58.066L586.829 146.703L214.502 206.11L216.091 104.694Z" fill="#990038"/>
<path d="M216.09 104.695L216.605 71.6431L78.842 26.1641L78.387 55.2651L216.09 104.695Z" fill="#B20041"/>
<path d="M216.606 71.6411L594.908 34.2531L594.51 59.3161L216.091 104.694L216.606 71.6411Z" fill="#990038"/>
<path d="M588.182 60.0851L216.091 104.694L215.944 113.95C215.944 113.95 483.317 81.3101 528.036 81.3151C572.754 81.3211 587.8 84.6871 587.8 84.6871L588.182 60.0851Z" fill="#660025"/>
<path d="M216.091 104.695L84.6011 56.754L84.4971 62.862L215.944 113.933L216.091 104.695Z" fill="#80002E"/>
</svg>