<svg xmlns="http://www.w3.org/2000/svg" width="44" height="53" viewBox="0 0 44 53" fill="none">
<path d="M40.934 1.25024H4.31686C2.62308 1.25024 1.25 2.62334 1.25 4.31712V48.9948C1.25 50.6885 2.62308 52.0616 4.31686 52.0616H40.934C42.6278 52.0616 44.0009 50.6885 44.0009 48.9948V4.31712C44.0009 2.62334 42.6278 1.25024 40.934 1.25024Z" fill="black"/>
<path d="M39.684 0H3.06685C1.37308 0 0 1.37307 0 3.06685V47.7445C0 49.4383 1.37308 50.8113 3.06685 50.8113H39.684C41.3778 50.8113 42.7509 49.4383 42.7509 47.7445V3.06685C42.7509 1.37307 41.3778 0 39.684 0Z" fill="#8C77EC"/>
<path d="M37.188 3.53442H5.169C3.68201 3.53442 2.47656 4.73988 2.47656 6.22687V13.0042C2.47656 14.4912 3.68201 15.6967 5.169 15.6967H37.188C38.675 15.6967 39.8804 14.4912 39.8804 13.0042V6.22687C39.8804 4.73988 38.675 3.53442 37.188 3.53442Z" fill="#DDD7F9"/>
<path d="M36.013 4.70093H6.33731C5.0571 4.70093 4.01929 5.73875 4.01929 7.01895V12.2103C4.01929 13.4905 5.0571 14.5283 6.33731 14.5283H36.013C37.2932 14.5283 38.3311 13.4905 38.3311 12.2103V7.01895C38.3311 5.73875 37.2932 4.70093 36.013 4.70093Z" fill="white"/>
<path d="M34.7653 6.2981H33.3644C33.0995 6.2981 32.8848 6.51188 32.8848 6.77559C32.8848 7.0393 33.0995 7.25308 33.3644 7.25308H34.7653C35.0301 7.25308 35.2449 7.0393 35.2449 6.77559C35.2449 6.51188 35.0301 6.2981 34.7653 6.2981Z" fill="#271386"/>
<path d="M34.7653 12.0999H33.3644C33.0995 12.0999 32.8848 12.3136 32.8848 12.5773C32.8848 12.841 33.0995 13.0548 33.3644 13.0548H34.7653C35.0301 13.0548 35.2449 12.841 35.2449 12.5773C35.2449 12.3136 35.0301 12.0999 34.7653 12.0999Z" fill="#271386"/>
<path d="M32.9434 11.767V10.3661C32.9434 10.1012 32.7296 9.88647 32.4659 9.88647C32.2022 9.88647 31.9884 10.1012 31.9884 10.3661V11.767C31.9884 12.0318 32.2022 12.2466 32.4659 12.2466C32.7296 12.2466 32.9434 12.0318 32.9434 11.767Z" fill="#271386"/>
<path d="M36.1777 11.767V10.3661C36.1777 10.1012 35.964 9.88647 35.7002 9.88647C35.4365 9.88647 35.2228 10.1012 35.2228 10.3661V11.767C35.2228 12.0318 35.4365 12.2466 35.7002 12.2466C35.964 12.2466 36.1777 12.0318 36.1777 11.767Z" fill="#271386"/>
<path d="M32.9375 9.14124V7.74033C32.9375 7.47546 32.7237 7.26074 32.46 7.26074C32.1963 7.26074 31.9825 7.47546 31.9825 7.74033V9.14124C31.9825 9.40611 32.1963 9.62083 32.46 9.62083C32.7237 9.62083 32.9375 9.40611 32.9375 9.14124Z" fill="#271386"/>
<path d="M36.1719 9.14124V7.74034C36.1719 7.47547 35.9581 7.26074 35.6944 7.26074C35.4307 7.26074 35.2169 7.47547 35.2169 7.74034V9.14124C35.2169 9.40611 35.4307 9.62084 35.6944 9.62084C35.9581 9.62084 36.1719 9.40611 36.1719 9.14124Z" fill="#271386"/>
<path d="M37.3054 20.4731H34.7686C33.493 20.4731 32.459 21.5072 32.459 22.7827V22.787C32.459 24.0625 33.493 25.0966 34.7686 25.0966H37.3054C38.5809 25.0966 39.615 24.0625 39.615 22.787V22.7827C39.615 21.5072 38.5809 20.4731 37.3054 20.4731Z" fill="#271386"/>
<path d="M27.653 20.4731H25.1162C23.8407 20.4731 22.8066 21.5072 22.8066 22.7827V22.787C22.8066 24.0625 23.8407 25.0966 25.1162 25.0966H27.653C28.9286 25.0966 29.9626 24.0625 29.9626 22.787V22.7827C29.9626 21.5072 28.9286 20.4731 27.653 20.4731Z" fill="#271386"/>
<path d="M17.9987 20.4731H15.4619C14.1864 20.4731 13.1523 21.5072 13.1523 22.7827V22.787C13.1523 24.0625 14.1864 25.0966 15.4619 25.0966H17.9987C19.2743 25.0966 20.3083 24.0625 20.3083 22.787V22.7827C20.3083 21.5072 19.2743 20.4731 17.9987 20.4731Z" fill="#271386"/>
<path d="M8.34639 20.4731H5.8096C4.53404 20.4731 3.5 21.5072 3.5 22.7827V22.787C3.5 24.0625 4.53404 25.0966 5.8096 25.0966H8.34639C9.62195 25.0966 10.656 24.0625 10.656 22.787V22.7827C10.656 21.5072 9.62195 20.4731 8.34639 20.4731Z" fill="#271386"/>
<path d="M37.3054 26.8967H34.7686C33.493 26.8967 32.459 27.9308 32.459 29.2063V29.2105C32.459 30.4861 33.493 31.5201 34.7686 31.5201H37.3054C38.5809 31.5201 39.615 30.4861 39.615 29.2105V29.2063C39.615 27.9308 38.5809 26.8967 37.3054 26.8967Z" fill="#271386"/>
<path d="M27.653 26.8967H25.1162C23.8407 26.8967 22.8066 27.9308 22.8066 29.2063V29.2105C22.8066 30.4861 23.8407 31.5201 25.1162 31.5201H27.653C28.9286 31.5201 29.9626 30.4861 29.9626 29.2105V29.2063C29.9626 27.9308 28.9286 26.8967 27.653 26.8967Z" fill="#271386"/>
<path d="M17.9987 26.8967H15.4619C14.1864 26.8967 13.1523 27.9308 13.1523 29.2063V29.2105C13.1523 30.4861 14.1864 31.5201 15.4619 31.5201H17.9987C19.2743 31.5201 20.3083 30.4861 20.3083 29.2105V29.2063C20.3083 27.9308 19.2743 26.8967 17.9987 26.8967Z" fill="#271386"/>
<path d="M8.34639 26.8967H5.8096C4.53404 26.8967 3.5 27.9308 3.5 29.2063V29.2105C3.5 30.4861 4.53404 31.5201 5.8096 31.5201H8.34639C9.62195 31.5201 10.656 30.4861 10.656 29.2105V29.2063C10.656 27.9308 9.62195 26.8967 8.34639 26.8967Z" fill="#271386"/>
<path d="M36.0912 33.314H35.9734C34.4887 33.314 33.2852 34.5175 33.2852 36.0022V41.8414C33.2852 43.3261 34.4887 44.5296 35.9734 44.5296H36.0912C37.5759 44.5296 38.7794 43.3261 38.7794 41.8414V36.0022C38.7794 34.5175 37.5759 33.314 36.0912 33.314Z" fill="#271386"/>
<path d="M27.653 33.314H25.1162C23.8407 33.314 22.8066 34.348 22.8066 35.6236V35.6278C22.8066 36.9033 23.8407 37.9374 25.1162 37.9374H27.653C28.9286 37.9374 29.9626 36.9033 29.9626 35.6278V35.6236C29.9626 34.348 28.9286 33.314 27.653 33.314Z" fill="#271386"/>
<path d="M17.9987 33.314H15.4619C14.1864 33.314 13.1523 34.348 13.1523 35.6236V35.6278C13.1523 36.9033 14.1864 37.9374 15.4619 37.9374H17.9987C19.2743 37.9374 20.3083 36.9033 20.3083 35.6278V35.6236C20.3083 34.348 19.2743 33.314 17.9987 33.314Z" fill="#271386"/>
<path d="M8.34639 33.314H5.8096C4.53404 33.314 3.5 34.348 3.5 35.6236V35.6278C3.5 36.9033 4.53404 37.9374 5.8096 37.9374H8.34639C9.62195 37.9374 10.656 36.9033 10.656 35.6278V35.6236C10.656 34.348 9.62195 33.314 8.34639 33.314Z" fill="#271386"/>
<path d="M27.653 39.738H25.1162C23.8407 39.738 22.8066 40.7721 22.8066 42.0476V42.0519C22.8066 43.3274 23.8407 44.3615 25.1162 44.3615H27.653C28.9286 44.3615 29.9626 43.3274 29.9626 42.0519V42.0476C29.9626 40.7721 28.9286 39.738 27.653 39.738Z" fill="#271386"/>
<path d="M17.9987 39.738H15.4619C14.1864 39.738 13.1523 40.7721 13.1523 42.0476V42.0519C13.1523 43.3274 14.1864 44.3615 15.4619 44.3615H17.9987C19.2743 44.3615 20.3083 43.3274 20.3083 42.0519V42.0476C20.3083 40.7721 19.2743 39.738 17.9987 39.738Z" fill="#271386"/>
<path d="M8.34639 39.738H5.8096C4.53404 39.738 3.5 40.7721 3.5 42.0476V42.0519C3.5 43.3274 4.53404 44.3615 5.8096 44.3615H8.34639C9.62195 44.3615 10.656 43.3274 10.656 42.0519V42.0476C10.656 40.7721 9.62195 39.738 8.34639 39.738Z" fill="#271386"/>
</svg>