<svg xmlns="http://www.w3.org/2000/svg" width="428" height="878" viewBox="0 0 428 878" fill="none">
<path d="M24.1074 219.215C29.1373 219.215 33.2149 215.137 33.2149 210.107C33.2149 205.078 29.1373 201 24.1074 201C19.0775 201 15 205.078 15 210.107C15 215.137 19.0775 219.215 24.1074 219.215Z" fill="#9076F4"/>
<path d="M183.107 18.2149C188.137 18.2149 192.215 14.1374 192.215 9.10748C192.215 4.07757 188.137 0 183.107 0C178.078 0 174 4.07757 174 9.10748C174 14.1374 178.078 18.2149 183.107 18.2149Z" fill="white"/>
<path d="M287.107 466.215C292.137 466.215 296.215 462.137 296.215 457.107C296.215 452.078 292.137 448 287.107 448C282.078 448 278 452.078 278 457.107C278 462.137 282.078 466.215 287.107 466.215Z" fill="white"/>
<path d="M32.5537 775.107C35.0687 775.107 37.1074 773.069 37.1074 770.554C37.1074 768.039 35.0687 766 32.5537 766C30.0388 766 28 768.039 28 770.554C28 773.069 30.0388 775.107 32.5537 775.107Z" fill="#9076F4"/>
<path d="M359.554 576.107C362.069 576.107 364.107 574.069 364.107 571.554C364.107 569.039 362.069 567 359.554 567C357.039 567 355 569.039 355 571.554C355 574.069 357.039 576.107 359.554 576.107Z" fill="#9076F4"/>
<path d="M82.5537 678.107C85.0687 678.107 87.1074 676.069 87.1074 673.554C87.1074 671.039 85.0687 669 82.5537 669C80.0388 669 78 671.039 78 673.554C78 676.069 80.0388 678.107 82.5537 678.107Z" fill="#9076F4"/>
<path d="M338.107 629.215C343.137 629.215 347.215 625.137 347.215 620.107C347.215 615.078 343.137 611 338.107 611C333.078 611 329 615.078 329 620.107C329 625.137 333.078 629.215 338.107 629.215Z" fill="#9076F4"/>
<path d="M364.27 200.54C367.733 200.54 370.54 197.733 370.54 194.27C370.54 190.807 367.733 188 364.27 188C360.807 188 358 190.807 358 194.27C358 197.733 360.807 200.54 364.27 200.54Z" fill="#9076F4"/>
</svg>