<svg xmlns="http://www.w3.org/2000/svg" width="1301" height="640" viewBox="0 0 1301 640" fill="none">
<path d="M58.1074 307.215C63.1373 307.215 67.2149 303.137 67.2149 298.107C67.2149 293.078 63.1373 289 58.1074 289C53.0775 289 49 293.078 49 298.107C49 303.137 53.0775 307.215 58.1074 307.215Z" fill="#9076F4"/>
<path d="M228.107 24.2149C233.137 24.2149 237.215 20.1374 237.215 15.1075C237.215 10.0776 233.137 6 228.107 6C223.078 6 219 10.0776 219 15.1075C219 20.1374 223.078 24.2149 228.107 24.2149Z" fill="white"/>
<path d="M1072.11 165.215C1077.14 165.215 1081.21 161.137 1081.21 156.107C1081.21 151.078 1077.14 147 1072.11 147C1067.08 147 1063 151.078 1063 156.107C1063 161.137 1067.08 165.215 1072.11 165.215Z" fill="white"/>
<path d="M15.5537 91.1075C18.0687 91.1075 20.1074 89.0687 20.1074 86.5537C20.1074 84.0388 18.0687 82 15.5537 82C13.0388 82 11 84.0388 11 86.5537C11 89.0687 13.0388 91.1075 15.5537 91.1075Z" fill="#5A34EC"/>
<path d="M173.554 639.107C176.069 639.107 178.107 637.069 178.107 634.554C178.107 632.039 176.069 630 173.554 630C171.039 630 169 632.039 169 634.554C169 637.069 171.039 639.107 173.554 639.107Z" fill="#9076F4"/>
<path d="M1085.55 520.107C1088.07 520.107 1090.11 518.069 1090.11 515.554C1090.11 513.039 1088.07 511 1085.55 511C1083.04 511 1081 513.039 1081 515.554C1081 518.069 1083.04 520.107 1085.55 520.107Z" fill="#9076F4"/>
<path d="M15.5537 609.107C18.0687 609.107 20.1074 607.069 20.1074 604.554C20.1074 602.039 18.0687 600 15.5537 600C13.0388 600 11 602.039 11 604.554C11 607.069 13.0388 609.107 15.5537 609.107Z" fill="#9076F4"/>
<path d="M1157.11 396.215C1162.14 396.215 1166.21 392.137 1166.21 387.107C1166.21 382.078 1162.14 378 1157.11 378C1152.08 378 1148 382.078 1148 387.107C1148 392.137 1152.08 396.215 1157.11 396.215Z" fill="#9076F4"/>
<path d="M1212.27 227.54C1215.73 227.54 1218.54 224.733 1218.54 221.27C1218.54 217.807 1215.73 215 1212.27 215C1208.81 215 1206 217.807 1206 221.27C1206 224.733 1208.81 227.54 1212.27 227.54Z" fill="#9076F4"/>
<path d="M163.27 164.54C166.733 164.54 169.54 161.733 169.54 158.27C169.54 154.807 166.733 152 163.27 152C159.807 152 157 154.807 157 158.27C157 161.733 159.807 164.54 163.27 164.54Z" fill="#9076F4"/>
<path d="M952.689 11.3776C955.831 11.3776 958.378 8.83061 958.378 5.68878C958.378 2.54696 955.831 0 952.689 0C949.547 0 947 2.54696 947 5.68878C947 8.83061 949.547 11.3776 952.689 11.3776Z" fill="#9076F4"/>
<path d="M5.68889 545.378C8.83072 545.378 11.3776 542.831 11.3776 539.689C11.3776 536.547 8.83072 534 5.68889 534C2.54707 534 0 536.547 0 539.689C0 542.831 2.54707 545.378 5.68889 545.378Z" fill="#9076F4"/>
<path d="M1294.69 608.378C1297.83 608.378 1300.38 605.831 1300.38 602.689C1300.38 599.547 1297.83 597 1294.69 597C1291.55 597 1289 599.547 1289 602.689C1289 605.831 1291.55 608.378 1294.69 608.378Z" fill="#9076F4"/>
<path d="M1248.27 81.5396C1251.73 81.5396 1254.54 78.7325 1254.54 75.2698C1254.54 71.8071 1251.73 69 1248.27 69C1244.81 69 1242 71.8071 1242 75.2698C1242 78.7325 1244.81 81.5396 1248.27 81.5396Z" fill="#9076F4"/>
</svg>