<svg width="24" height="24" fill="none" xmlns="http://www.w3.org/2000/svg"><g clip-path="url(#Avatar_svg__a)"><path d="M24 0H0v24h24V0Z" fill="#ED5E3B"></path><path d="M21.189 24.177H2.81s.748-8.785 9.189-8.785c8.44 0 9.189 8.785 9.189 8.785Z" fill="#0C513F" stroke="#000" stroke-width="0.267" stroke-miterlimit="10"></path><path d="M12.046 18.718c2.016 0 3.65-1.045 3.65-2.333 0-1.288-1.634-2.332-3.65-2.332s-3.65 1.044-3.65 2.332c0 1.288 1.634 2.333 3.65 2.333Z" fill="#FFC501" stroke="#000" stroke-width="0.267" stroke-miterlimit="10"></path><path d="M12.058 3.756c-.076 0-.152.014-.228.017-.075.003-.152.01-.227.016-.076.005-.15.03-.225.038-.075.008-.152.006-.227.016-.075.01-.153.006-.228.019-.075.012-.146.048-.22.063-.073.015-.15.026-.223.044-.073.018-.145.042-.218.063-.073.02-.153.02-.225.043-.073.023-.138.067-.21.092-.071.026-.148.036-.22.064-.07.028-.13.082-.199.113-.069.03-.153.029-.222.062-.068.032-.131.077-.199.112-.067.035-.126.085-.192.122-.067.038-.139.065-.204.104-.064.04-.135.07-.198.113-.064.041-.127.083-.19.127-.062.044-.105.113-.166.158-.06.046-.127.084-.186.132-.06.047-.131.08-.188.13-.057.05-.111.104-.167.156-.055.052-.101.114-.155.167-.054.054-.122.095-.173.15-.052.056-.1.115-.15.173-.051.057-.075.136-.123.194-.048.059-.122.098-.168.158-.045.06-.07.136-.114.199-.044.062-.08.128-.122.192-.042.063-.096.119-.136.184-.04.065-.084.126-.12.193-.038.066-.046.148-.081.215s-.089.125-.121.193c-.033.069-.075.133-.105.203s-.053.142-.081.213c-.028.072-.065.139-.09.21-.026.072-.029.15-.052.224-.023.073-.035.147-.056.22a7.22 7.22 0 0 0-.058.22c-.019.074-.03.148-.045.222-.015.075-.047.145-.06.22-.013.076-.036.148-.047.224-.01.076-.005.152-.013.228-.007.076-.021.15-.027.226-.005.076-.006.152-.009.228-.003.076.006.151.006.228 0 .076-.002.152 0 .227.003.076.003.152.007.228.005.075.03.15.038.225.007.076-.012.154-.002.23.01.075.025.15.038.224.013.075.042.147.057.221.015.075.035.148.053.222.017.073.007.155.027.228.02.073.055.143.078.215.023.073.066.138.091.21.026.07.054.141.082.212a7.327 7.327 0 0 0 .184.416c.032.068.048.145.083.212.035.068.067.137.104.203.037.066.067.137.107.202.04.064.11.11.152.173.042.063.073.134.117.195.043.062.071.137.117.197.046.06.105.111.153.17.047.059.112.104.162.16.05.058.086.127.138.183.052.055.094.12.148.174.053.054.132.082.187.134.056.052.09.126.148.176.058.05.119.096.178.144.058.048.127.083.188.129.06.046.11.106.172.15.062.044.129.081.192.123.064.042.13.08.195.119.065.04.141.058.207.096.066.037.127.083.194.118.068.035.141.057.21.09.068.032.121.1.19.13.07.03.149.04.22.068.07.028.146.041.217.066.072.026.14.06.212.084.073.023.139.067.212.088.074.02.151.024.225.042.074.018.152.014.226.029.075.015.143.061.218.074.075.013.15.024.226.034.076.01.15.027.226.034.075.008.151.013.227.018.076.005.153-.018.23-.015.075.003.15.023.227.023.076 0 .152-.003.228-.006.075-.003.153.003.228-.002.076-.005.152-.016.227-.024.075-.007.15-.033.225-.043.075-.01.149-.032.223-.044.075-.012.154-.004.228-.02.075-.015.147-.04.22-.058.074-.018.152-.024.225-.045.073-.02.143-.052.215-.075.072-.023.14-.06.212-.085.071-.025.138-.063.209-.09l.21-.088c.068-.03.14-.055.209-.088.068-.033.147-.045.215-.08.067-.035.136-.068.202-.105.066-.038.122-.093.187-.133.065-.04.142-.06.206-.101.063-.041.12-.095.181-.139.062-.044.112-.104.172-.15.06-.047.139-.07.197-.119.059-.048.109-.107.166-.157.058-.05.11-.104.166-.156.055-.052.127-.088.18-.142.054-.054.08-.134.132-.19.052-.055.103-.11.154-.167.05-.058.116-.1.164-.16.048-.058.075-.134.12-.194.046-.06.114-.105.158-.167.044-.062.085-.127.126-.19.041-.064.093-.122.132-.187.039-.065.05-.146.087-.213.037-.066.076-.13.111-.198s.07-.135.103-.203c.033-.068.072-.134.102-.204.03-.07.037-.148.065-.22.028-.07.096-.125.121-.197.025-.071.03-.15.053-.223.023-.073.04-.146.061-.22.02-.073.036-.147.054-.22.018-.075.033-.148.049-.223.015-.075.016-.15.03-.226.012-.075.055-.145.065-.22.01-.075.01-.152.017-.227.008-.076.007-.152.012-.228.005-.076.001-.152.004-.228.003-.076-.002-.15-.002-.227 0-.077.03-.153.027-.228-.003-.076-.026-.151-.03-.227-.006-.075.003-.153-.004-.228-.008-.076-.003-.154-.013-.229-.01-.075-.027-.15-.04-.225a7.436 7.436 0 0 0-.043-.224c-.015-.074-.039-.148-.056-.221-.018-.074-.054-.143-.075-.216-.02-.073-.038-.147-.061-.22-.023-.071-.025-.152-.05-.223-.026-.071-.07-.136-.098-.207-.028-.07-.075-.133-.105-.203s-.04-.148-.073-.217a7.054 7.054 0 0 0-.101-.204c-.035-.068-.08-.13-.117-.196-.037-.066-.063-.139-.103-.204a6.757 6.757 0 0 0-.122-.192c-.042-.064-.094-.12-.138-.182-.044-.062-.083-.127-.13-.188-.046-.06-.106-.11-.154-.168-.047-.059-.092-.12-.142-.178-.05-.057-.106-.108-.158-.164-.051-.055-.102-.111-.156-.165-.053-.054-.093-.122-.149-.173-.055-.052-.132-.08-.19-.13-.057-.05-.11-.104-.169-.152-.058-.048-.11-.104-.171-.15-.06-.046-.112-.104-.174-.148-.063-.043-.134-.074-.197-.116-.064-.042-.133-.073-.198-.113-.065-.04-.134-.07-.2-.107-.067-.037-.129-.08-.196-.115s-.132-.075-.201-.107c-.068-.033-.136-.069-.205-.1-.07-.03-.135-.07-.206-.097-.07-.028-.144-.048-.216-.073a6.464 6.464 0 0 0-.216-.073c-.072-.023-.144-.05-.217-.07-.074-.02-.148-.034-.223-.052-.074-.017-.149-.028-.223-.043-.074-.015-.146-.048-.22-.06-.076-.013-.15-.032-.226-.042-.075-.01-.151-.016-.227-.024-.075-.007-.151-.015-.227-.02-.076-.005-.152-.006-.229-.008-.076-.002-.152-.006-.228-.006l.002.001Zm0 8.418c-.077 0-.153.008-.227-.002a1.759 1.759 0 0 1-.225-.04c-.073-.02-.154-.027-.223-.056-.07-.029-.136-.074-.202-.111-.066-.038-.12-.095-.181-.14-.06-.047-.133-.082-.186-.135-.054-.054-.1-.117-.147-.177a1.711 1.711 0 0 1-.132-.188c-.039-.066-.052-.144-.081-.215-.03-.07-.074-.136-.094-.21-.02-.074-.017-.151-.027-.227-.01-.076-.042-.15-.042-.227 0-.078.04-.152.05-.227.01-.074.014-.152.033-.225.02-.073.03-.152.059-.222.029-.07.075-.134.113-.2.038-.065.09-.122.136-.182.046-.06.097-.116.15-.17.055-.054.093-.127.153-.173.06-.046.132-.08.198-.118.065-.039.142-.053.213-.082.071-.03.14-.057.214-.077.074-.02.144-.045.22-.056.077-.01.151.006.229.006.077 0 .15.001.225.01.075.01.158-.006.23.014.074.02.136.076.206.106.07.029.149.04.215.078.065.038.134.076.194.122s.108.11.162.163c.054.054.098.115.145.176.047.06.116.106.154.173.038.066.053.144.082.215.03.07.043.145.063.22.02.073.04.145.05.221.01.076.004.15.004.227 0 .077.018.154.008.229-.01.075-.016.154-.036.228-.02.073-.046.148-.075.217-.029.07-.06.143-.098.21-.038.065-.096.12-.142.18-.046.06-.106.11-.16.164-.053.053-.101.114-.162.16-.06.047-.127.083-.193.121a1.727 1.727 0 0 1-.204.103c-.07.03-.14.064-.213.084-.074.02-.15.03-.226.04-.077.01-.151-.007-.229-.007Z" fill="#FFC501"></path><path d="M12.058 3.756c-.076 0-.152.014-.228.017-.075.003-.152.01-.227.016-.076.005-.15.03-.225.038-.075.008-.152.006-.227.016-.075.01-.153.006-.228.019-.075.012-.146.048-.22.063-.073.015-.15.026-.223.044-.073.018-.145.042-.218.063-.073.02-.153.02-.225.043-.073.023-.138.067-.21.092-.071.026-.148.036-.22.064-.07.028-.13.082-.199.113-.069.03-.153.029-.222.062-.068.032-.131.077-.199.112-.067.035-.126.085-.192.122-.067.038-.139.065-.204.104-.064.04-.135.07-.198.113-.064.041-.127.083-.19.127-.062.044-.105.113-.166.158-.06.046-.127.084-.186.132-.06.047-.131.08-.188.13-.057.05-.111.104-.167.156-.055.052-.101.114-.155.167-.054.054-.122.095-.173.15-.052.056-.1.115-.15.173-.051.057-.075.136-.123.194-.048.059-.122.098-.168.158-.045.06-.07.136-.114.199-.044.062-.08.128-.122.192-.042.063-.096.119-.136.184-.04.065-.084.126-.12.193-.038.066-.046.148-.081.215s-.089.125-.121.193c-.033.069-.075.133-.105.203s-.053.142-.081.213c-.028.072-.065.139-.09.21-.026.072-.029.15-.052.224-.023.073-.035.147-.056.22a7.22 7.22 0 0 0-.058.22c-.019.074-.03.148-.045.222-.015.075-.047.145-.06.22-.013.076-.036.148-.047.224-.01.076-.005.152-.013.228-.007.076-.021.15-.027.226-.005.076-.006.152-.009.228-.003.076.006.151.006.228 0 .076-.002.152 0 .227.003.076.003.152.007.228.005.075.03.15.038.225.007.076-.012.154-.002.23.01.075.025.15.038.224.013.075.042.147.057.221.015.075.035.148.053.222.017.073.007.155.027.228.02.073.055.143.078.215.023.073.066.138.091.21.026.07.054.141.082.212a7.327 7.327 0 0 0 .184.416c.032.068.048.145.083.212.035.068.067.137.104.203.037.066.067.137.107.202.04.064.11.11.152.173.042.063.073.134.117.195.043.062.071.137.117.197.046.06.105.111.153.17.047.059.112.104.162.16.05.058.086.127.138.183.052.055.094.12.148.174.053.054.132.082.187.134.056.052.09.126.148.176.058.05.119.096.178.144.058.048.127.083.188.129.06.046.11.106.172.15.062.044.129.081.192.123.064.042.13.08.195.119.065.04.141.058.207.096.066.037.127.083.194.118.068.035.141.057.21.09.068.032.121.1.19.13.07.03.149.04.22.068.07.028.146.041.217.066.072.026.14.06.212.084.073.023.139.067.212.088.074.02.151.024.225.042.074.018.152.014.226.029.075.015.143.061.218.074.075.013.15.024.226.034.076.01.15.027.226.034.075.008.151.013.227.018.076.005.153-.018.23-.015.075.003.15.023.227.023.076 0 .152-.003.228-.006.075-.003.153.003.228-.002.076-.005.152-.016.227-.024.075-.007.15-.033.225-.043.075-.01.149-.032.223-.044.075-.012.154-.004.228-.02.075-.015.147-.04.22-.058.074-.018.152-.024.225-.045.073-.02.143-.052.215-.075.072-.023.14-.06.212-.085.071-.025.138-.063.209-.09l.21-.088c.068-.03.14-.055.209-.088.068-.033.147-.045.215-.08.067-.035.136-.068.202-.105.066-.038.122-.093.187-.133.065-.04.142-.06.206-.101.063-.041.12-.095.181-.139.062-.044.112-.104.172-.15.06-.047.139-.07.197-.119.059-.048.109-.107.166-.157.058-.05.11-.104.166-.156.055-.052.127-.088.18-.142.054-.054.08-.134.132-.19.052-.055.103-.11.154-.167.05-.058.116-.1.164-.16.048-.058.075-.134.12-.194.046-.06.114-.105.158-.167.044-.062.085-.127.126-.19.041-.064.093-.122.132-.187.039-.065.05-.146.087-.213.037-.066.076-.13.111-.198s.07-.135.103-.203c.033-.068.072-.134.102-.204.03-.07.037-.148.065-.22.028-.07.096-.125.121-.197.025-.071.03-.15.053-.223.023-.073.04-.146.061-.22.02-.073.036-.147.054-.22.018-.075.033-.148.049-.223.015-.075.016-.15.03-.226.012-.075.055-.145.065-.22.01-.075.01-.152.017-.227.008-.076.007-.152.012-.228.005-.076.001-.152.004-.228.003-.076-.002-.15-.002-.227 0-.077.03-.153.027-.228-.003-.076-.026-.151-.03-.227-.006-.075.003-.153-.004-.228-.008-.076-.003-.154-.013-.229-.01-.075-.027-.15-.04-.225a7.436 7.436 0 0 0-.043-.224c-.015-.074-.039-.148-.056-.221-.018-.074-.054-.143-.075-.216-.02-.073-.038-.147-.061-.22-.023-.071-.025-.152-.05-.223-.026-.071-.07-.136-.098-.207-.028-.07-.075-.133-.105-.203s-.04-.148-.073-.217a7.054 7.054 0 0 0-.101-.204c-.035-.068-.08-.13-.117-.196-.037-.066-.063-.139-.103-.204a6.757 6.757 0 0 0-.122-.192c-.042-.064-.094-.12-.138-.182-.044-.062-.083-.127-.13-.188-.046-.06-.106-.11-.154-.168-.047-.059-.092-.12-.142-.178-.05-.057-.106-.108-.158-.164-.051-.055-.102-.111-.156-.165-.053-.054-.093-.122-.149-.173-.055-.052-.132-.08-.19-.13-.057-.05-.11-.104-.169-.152-.058-.048-.11-.104-.171-.15-.06-.046-.112-.104-.174-.148-.063-.043-.134-.074-.197-.116-.064-.042-.133-.073-.198-.113-.065-.04-.134-.07-.2-.107-.067-.037-.129-.08-.196-.115s-.132-.075-.201-.107c-.068-.033-.136-.069-.205-.1-.07-.03-.135-.07-.206-.097-.07-.028-.144-.048-.216-.073a6.464 6.464 0 0 0-.216-.073c-.072-.023-.144-.05-.217-.07-.074-.02-.148-.034-.223-.052-.074-.017-.149-.028-.223-.043-.074-.015-.146-.048-.22-.06-.076-.013-.15-.032-.226-.042-.075-.01-.151-.016-.227-.024-.075-.007-.151-.015-.227-.02-.076-.005-.152-.006-.229-.008-.076-.002-.152-.006-.228-.006l.002.001Zm0 8.418c-.077 0-.153.008-.227-.002a1.759 1.759 0 0 1-.225-.04c-.073-.02-.154-.027-.223-.056-.07-.029-.136-.074-.202-.111-.066-.038-.12-.095-.181-.14-.06-.047-.133-.082-.186-.135-.054-.054-.1-.117-.147-.177a1.711 1.711 0 0 1-.132-.188c-.039-.066-.052-.144-.081-.215-.03-.07-.074-.136-.094-.21-.02-.074-.017-.151-.027-.227-.01-.076-.042-.15-.042-.227 0-.078.04-.152.05-.227.01-.074.014-.152.033-.225.02-.073.03-.152.059-.222.029-.07.075-.134.113-.2.038-.065.09-.122.136-.182.046-.06.097-.116.15-.17.055-.054.093-.127.153-.173.06-.046.132-.08.198-.118.065-.039.142-.053.213-.082.071-.03.14-.057.214-.077.074-.02.144-.045.22-.056.077-.01.151.006.229.006.077 0 .15.001.225.01.075.01.158-.006.23.014.074.02.136.076.206.106.07.029.149.04.215.078.065.038.134.076.194.122s.108.11.162.163c.054.054.098.115.145.176.047.06.116.106.154.173.038.066.053.144.082.215.03.07.043.145.063.22.02.073.04.145.05.221.01.076.004.15.004.227 0 .077.018.154.008.229-.01.075-.016.154-.036.228-.02.073-.046.148-.075.217-.029.07-.06.143-.098.21-.038.065-.096.12-.142.18-.046.06-.106.11-.16.164-.053.053-.101.114-.162.16-.06.047-.127.083-.193.121a1.727 1.727 0 0 1-.204.103c-.07.03-.14.064-.213.084-.074.02-.15.03-.226.04-.077.01-.151-.007-.229-.007Z" stroke="#000" stroke-width="0.267" stroke-miterlimit="10"></path><path d="M9 8.176a2.105 2.105 0 1 0 0-4.211 2.105 2.105 0 0 0 0 4.21Z" fill="#fff" stroke="#000" stroke-width="0.267" stroke-miterlimit="10"></path><path d="M9.318 7.393a.798.798 0 1 0 0-1.596.798.798 0 0 0 0 1.596Z" fill="#000"></path><path d="M7.11 3.224s.74-1.146 1.838-.645" stroke="#000" stroke-width="0.267" stroke-linecap="round" stroke-linejoin="round"></path><path d="M15.116 8.176a2.105 2.105 0 1 0 0-4.211 2.105 2.105 0 0 0 0 4.21Z" fill="#fff" stroke="#000" stroke-width="0.267" stroke-miterlimit="10"></path><path d="M14.799 7.393a.798.798 0 1 0 0-1.596.798.798 0 0 0 0 1.596Z" fill="#000"></path><path d="M16.874 3.184s-.74-1.145-1.838-.644" stroke="#000" stroke-width="0.267" stroke-linecap="round" stroke-linejoin="round"></path><path d="M6.265 20.474s-.691 2.188.058 3.685M17.665 20.474s.69 2.188-.058 3.685" stroke="#000" stroke-width="0.267" stroke-miterlimit="10"></path></g><defs><clipPath id="Avatar_svg__a"><rect width="24" height="24" rx="12" fill="#fff"></rect></clipPath></defs></svg>