<svg width="22" height="25" fill="none" xmlns="http://www.w3.org/2000/svg"><path d="m5.169.764 13.579 2.788a.8.8 0 0 1 .627.642c.378 2.07.589 10.693 1.225 14.25.104.59 1.12 2.748 1.12 2.748a.278.278 0 0 1-.252.4l-2.41-.136a1.23 1.23 0 0 0-.91.373l-1.861 1.913a1.244 1.244 0 0 1-1.1.21L1.371 19.884a.512.512 0 0 1-.331-.692l1.156-2.766c.272-.653.039-1.474.162-5.139.149-4.407 2.346-10.203 2.346-10.203a.388.388 0 0 1 .465-.32Z" fill="#B5865C" stroke="#000" stroke-width="0.269" stroke-miterlimit="10"></path><path d="M21.555 21.484a.276.276 0 0 1-.21.094l-2.287-.121a1.232 1.232 0 0 0-.91.373l-1.861 1.913c-.136.105-.233-.013-.393.027l2.22-3.848v-.037l3.44 1.599Z" fill="#421E0B" stroke="#000" stroke-width="0.269" stroke-miterlimit="10"></path><path d="M20.564 18.227c.016.64 1.15 2.966 1.15 2.966.053.104-.035.209-.105.29l-3.497-1.596.824-15.494.104-.71a.799.799 0 0 1 .337.517c.375 2.064 1.09 10.061 1.187 14.027Z" fill="#5B2A0E" stroke="#000" stroke-width="0.269" stroke-miterlimit="10"></path><path d="m4.15 16.887 9.574 2.532" stroke="#5B2A0E" stroke-width="0.269" stroke-miterlimit="10" stroke-linecap="round"></path><path d="m18.935 4.394-.819 15.497v.038l-2.27 3.919-.081.016c-.055-1.093.412-2.88.617-3.644.048-.183.068-.373.059-.562-.014-.34.068-.843.203-.916.177-.097.322-.378.352-.579l1.94-13.77Z" fill="#825C43" stroke="#000" stroke-width="0.269" stroke-miterlimit="10"></path><path d="m5.228 1.075 12.977 2.51a.977.977 0 0 1 .775 1.146l-.26 1.347a1.707 1.707 0 0 1-1.997 1.353L5.173 5.197a1.705 1.705 0 0 1-1.35-2l.259-1.346a.98.98 0 0 1 1.146-.776Z" fill="#CC966A" style="mix-blend-mode:multiply"></path><path d="m5.187.19 13.538 2.617a.997.997 0 0 1 .79 1.17l-.25 1.296A1.74 1.74 0 0 1 17.23 6.65L5.147 4.315A1.738 1.738 0 0 1 3.77 2.276L4.02.977A.999.999 0 0 1 5.188.19Z" fill="#CC966A" stroke="#000" stroke-width="0.269" stroke-miterlimit="10"></path><path d="M10.738 7.818a1.804 1.804 0 1 0 0-3.608 1.804 1.804 0 0 0 0 3.608Z" fill="#0C513F" stroke="#000" stroke-width="0.269" stroke-miterlimit="10"></path></svg>