<svg xmlns="http://www.w3.org/2000/svg" width="1440" height="573" viewBox="0 0 1440 573" fill="none">
<path d="M0 0.151367H7.49931C10.9686 0.151367 14.2978 0.998244 16.8209 2.51372L965.512 572.621H14.6833C6.69348 572.621 0.210465 568.498 0.210465 563.417L0 0.151367Z" fill="#271386"/>
<path d="M1440 0.151367H1432.5C1429.03 0.151367 1425.7 0.998244 1423.18 2.51372L474.488 572.621H1425.32C1433.31 572.621 1439.79 568.498 1439.79 563.417L1440 0.151367Z" fill="#271386"/>
<g style="mix-blend-mode:multiply" opacity="0.7">
<path d="M474.145 276.988L1 571.5L525.694 307.788L474.145 276.988Z" fill="#9076F4"/>
</g>
<g style="mix-blend-mode:multiply" opacity="0.7">
<path d="M969.805 275.482L1439.5 573L928 300.5L969.805 275.482Z" fill="#9076F4"/>
</g>
<path d="M27.063 572H1413.95C1421.41 572 1424.85 565.561 1419.17 562.208L783.676 184.826C745.791 162.327 689.892 162.4 652.112 184.996L21.806 562.208C16.1636 565.586 19.5981 572 27.063 572Z" fill="#271386"/>
</svg>