<svg width="14" height="16" fill="none" xmlns="http://www.w3.org/2000/svg"><path d="M11.802 8.509a3.648 3.648 0 0 1 1.774-3.051 3.885 3.885 0 0 0-3.004-1.585c-1.264-.13-2.489.738-3.133.738-.656 0-1.648-.726-2.716-.704-1.391.044-2.689.816-3.366 2.004-1.455 2.46-.37 6.076 1.025 8.065.697.974 1.512 2.062 2.58 2.023 1.043-.042 1.433-.65 2.693-.65 1.248 0 1.614.65 2.703.626 1.12-.018 1.825-.979 2.499-1.962a7.976 7.976 0 0 0 1.142-2.272c-1.316-.543-2.195-1.837-2.197-3.232ZM9.747 2.565c.61-.716.911-1.636.838-2.565a3.761 3.761 0 0 0-2.414 1.22 3.387 3.387 0 0 0-.86 2.47 3.151 3.151 0 0 0 2.436-1.125Z" fill="currentColor"></path></svg>