<svg xmlns="http://www.w3.org/2000/svg" width="1127" height="455" viewBox="0 0 1127 455" fill="none">
<path d="M572.733 224.309C570.87 224.801 493.061 241.925 473.982 251.225C464.535 255.829 454.011 261.27 445.788 265.595C436.554 270.451 429.396 278.474 425.644 288.2L385.303 393.511L426.535 387.497L492.17 392.646L571.309 367.738L611.77 347.794C614.192 346.597 616.374 344.96 618.197 342.964L639.072 320.119C642.625 316.221 647.375 313.626 652.564 312.708C652.564 312.708 898.271 268.149 983.451 243.095C1036.72 227.422 1127 192.775 1127 192.775V0.00976562L641.893 203.353C637.276 205.295 632.553 206.959 627.736 208.356L572.759 224.309H572.733Z" fill="#59271C"/>
<path d="M429.687 387.696L421.198 413.003C418.498 421.039 411.087 426.534 402.611 426.774C388.268 427.186 378.076 412.95 383.092 399.511L386.379 390.703L429.7 387.696H429.687Z" fill="#4C1B12"/>
<path d="M489.122 281.108L481.339 300.64L481.299 300.68L435.037 382.573C434.292 383.877 433.733 385.221 433.307 386.565L426.522 387.483L385.315 393.497L417.288 310.02C417.288 310.02 417.288 309.98 417.328 309.954C418.246 308.251 432.788 281.374 448.063 278.647C463.869 275.853 485.876 268.748 489.242 273.697C490.2 275.108 489.947 277.875 489.136 281.121L489.122 281.108Z" fill="#54231A"/>
<path d="M632.807 310.007C632.554 316.62 631.676 323.419 630.652 329.286V329.326L618.171 342.977C616.362 344.96 614.18 346.583 611.732 347.794L571.297 367.738L527.403 373.712L530.264 344.388L540.309 333.597L540.349 333.557C540.349 333.557 578.974 322.98 587.929 315.409C596.91 307.798 609.683 290.369 613.821 291.313C617.998 292.271 633.525 292.271 632.82 309.994L632.807 310.007Z" fill="#54231A"/>
<path d="M23.4421 367.524L525.886 300.878C525.886 300.878 546.815 295.769 551.671 335.019C556.727 375.879 532.765 377.689 532.765 377.689L31.0925 454.114C27.4469 454.673 23.6949 453.901 20.6613 451.812C13.8091 447.102 2.9388 435.806 0.597084 410.859C-1.73132 386.058 10.9086 374.19 17.1753 369.892C19.0381 368.615 21.1935 367.83 23.4421 367.537V367.524Z" fill="#FA0050"/>
<path d="M532.774 377.689L31.1022 454.114C27.4566 454.659 23.7046 453.901 20.671 451.812C15.0828 447.967 6.83359 439.758 2.70898 423.366L552.333 342.763C553.61 376.132 532.774 377.689 532.774 377.689Z" fill="#E50354"/>
<path d="M483.946 373.181C492.448 375.349 496.533 385.035 492.142 392.646L486.501 402.399L486.221 401.933L480.074 412.644C476.708 418.525 470.175 421.851 463.443 421.146L462.778 421.079C452.2 419.802 445.521 409.051 449.02 399.006L464.8 376.999C467.98 372.568 473.541 370.533 478.824 371.877L483.959 373.181H483.946Z" fill="#4C1B12"/>
<path d="M572.731 323.286C545.243 336.631 509.212 336.365 504.316 341.753C499.42 347.142 499.42 359.369 494.523 372.089C491.41 380.192 476.641 396.424 466.356 407.121C460.342 413.362 451.002 415.025 443.205 411.246C432.827 406.203 428.862 393.457 434.53 383.412L481.311 300.68L489.84 279.325L502.52 249.987L592.011 304.033L572.731 323.286Z" fill="#59271C"/>
<path d="M569.139 360.514C568.394 372.502 567.051 388.428 565.002 393.125C562.633 398.5 549.222 402.252 541.052 404.088C537.167 404.94 533.096 403.769 530.262 400.935C538.218 392.486 546.813 382.082 548.343 375.496C551.284 362.763 544.911 357.813 544.911 357.813C545.336 355.085 546.68 352.69 548.596 350.881C550.512 349.071 552.987 347.914 555.701 347.621C556.127 347.581 556.553 347.555 556.978 347.555C563.91 347.555 569.605 353.396 569.153 360.501L569.139 360.514Z" fill="#4C1B12"/>
<path d="M548.331 375.507C546.814 382.093 538.219 392.484 530.249 400.946L528.693 402.609C528.52 402.782 528.373 402.969 528.2 403.142C525.153 406.189 521.122 408.065 516.851 408.45L501.324 409.861C495.35 410.393 489.615 407.492 486.502 402.397L500.898 377.489L509.773 365.102C513.698 359.687 520.071 356.613 526.75 356.933L544.898 357.811C544.898 357.811 551.258 362.76 548.331 375.494V375.507Z" fill="#4C1B12"/>
<path d="M708.698 302.237C708.538 301.439 708.352 300.641 708.165 299.816C706.329 291.966 703.415 283.277 699.61 274.216C695.791 265.156 691.095 255.709 685.666 246.315C675.168 228.127 662.435 211.07 650.301 199.801C638.26 188.611 626.791 183.103 618.648 187.813C611.956 191.671 610.119 200.918 611.716 212.986L620.817 210.338C619.925 202.222 621.043 197.179 623.305 195.876C623.824 195.583 624.462 195.436 625.221 195.436C628.467 195.436 633.909 198.111 640.708 203.805C642.398 205.216 644.181 206.826 646.03 208.622C655.304 217.643 666.374 231.533 677.603 250.972C687.995 268.988 695.632 287.083 699.091 301.931C699.251 302.623 699.397 303.288 699.53 303.954C702.231 316.74 700.861 323.991 698.173 325.548C695.352 327.171 687.808 324.404 677.271 314.531C675.488 312.855 673.678 311.059 671.869 309.129C667.651 309.914 664.032 310.58 661.118 311.112C664.405 314.877 667.678 318.31 670.897 321.33C680.77 330.577 689.405 335.301 696.324 335.301C698.705 335.301 700.874 334.742 702.83 333.611C710.095 329.406 712.104 318.589 708.698 302.237Z" fill="#FA0050"/>
</svg>