<svg xmlns="http://www.w3.org/2000/svg" width="1440" height="334" viewBox="0 0 1440 334" fill="none">
<g clip-path="url(#clip0_3817_24823)">
<mask id="mask0_3817_24823" style="mask-type:luminance" maskUnits="userSpaceOnUse" x="-36" y="-199" width="1527" height="776">
<path d="M1490.14 59.8124L58.1016 -198.563L-35.1684 318.383L1396.87 576.758L1490.14 59.8124Z" fill="white"/>
</mask>
<g mask="url(#mask0_3817_24823)">
<path d="M916.177 111.042L875.132 155.728L893.372 196.345L926.07 200.026L925.1 143.939L916.177 111.042Z" fill="#82351A"/>
<path d="M874.365 95.0979L816.89 160.961L873.352 213.516C880.327 219.59 889.847 221.862 899.744 218.852L943.766 207.634C945.553 207.176 946.77 205.558 946.731 203.723C946.654 200.392 945.449 195.123 939.475 190.954C933.501 186.785 910.935 186.308 901.531 186.357C898.837 186.374 896.276 185.203 894.497 183.168L881.439 168.181L926.122 139.072L917.965 110.183L874.356 95.0961L874.365 95.0979Z" fill="#8E4224"/>
<path d="M907.94 111.229L881.464 141.241L896.836 153.76L926.447 151.503L931.42 129.461L907.94 111.229Z" fill="#82351A"/>
<g style="mix-blend-mode:multiply">
<path d="M874.365 95.0979L816.89 160.961L873.352 213.516C880.327 219.59 889.847 221.862 899.744 218.852L943.766 207.634C945.553 207.176 946.77 205.558 946.731 203.723C946.654 200.392 945.449 195.123 939.475 190.954C933.327 186.672 910.935 186.308 901.531 186.357C898.837 186.374 896.276 185.203 894.497 183.168L881.439 168.181L926.122 139.072L917.965 110.183L874.356 95.0961L874.365 95.0979Z" fill="#8C77EC"/>
</g>
<path d="M784.136 156.9L818.482 203.297C819.291 204.388 820.672 204.873 821.994 204.547C825.251 203.738 830.944 201.439 831.818 195.117C833.31 184.286 828.308 160.331 828.308 160.331L822.013 120.719L787.36 121.049L784.136 156.9Z" fill="#944B2A"/>
<g style="mix-blend-mode:multiply" opacity="0.3">
<path d="M792.54 164.444C792.54 164.444 825.838 178.06 828.356 186.072C830.874 194.084 826.892 202.494 826.892 202.494C826.892 202.494 834.571 199.146 832.176 183.168C829.781 167.189 828.761 159.581 828.761 159.581L792.53 164.442L792.54 164.444Z" fill="#FF884D"/>
</g>
<path d="M1028.29 108.001L913.709 48.9649C908.509 46.1989 902.388 45.7516 896.839 47.7078L796.848 83.032C792.308 84.6362 789.181 88.8162 788.931 93.6177L787.435 121.945L821.973 121.174L822.621 119.915C823.675 117.887 825.252 116.549 827.389 115.743L857.982 104.002C859.867 103.284 861.92 103.121 863.903 103.509L892.552 109.202C892.552 109.202 915.489 119.974 916.548 125.772C916.548 125.772 1033.97 110.915 1028.29 107.991L1028.29 108.001Z" fill="#944B2A"/>
<path d="M833.937 113.249L857.986 104.024C859.872 103.306 861.924 103.143 863.908 103.531L892.556 109.224C892.556 109.224 915.493 119.996 916.552 125.793C916.723 126.728 940.89 137.28 972.831 150.508C1030.16 174.242 1047.38 114.156 1047.38 114.156C1041 113.735 1033.98 110.948 1028.3 108.023L913.714 48.9868C908.514 46.2208 902.392 45.7735 896.844 47.7297L796.853 83.0539C793.2 84.3459 790.471 87.2934 789.409 90.9012L812.871 98.9951L833.955 113.263L833.937 113.249Z" fill="#944B2A"/>
<path d="M854.398 37.5727L666.559 61.5437L684.718 203.844L872.558 179.873L854.398 37.5727Z" fill="#FFEDB3"/>
<path d="M750.594 102.473L766.08 111.747L770.83 94.408L780.804 96.8955L776.053 114.234L793.107 113.337L793.814 123.589L776.69 124.648L783.206 141.011L773.634 144.829L767.119 128.466L753.951 139.47L747.425 131.536L760.431 120.462L745.057 111.137L750.594 102.473Z" fill="url(#paint0_linear_3817_24823)"/>
<path d="M784.875 159.128C763.676 167.574 739.561 157.185 731.115 135.987C722.669 114.789 733.058 90.6736 754.256 82.2275C775.454 73.7814 799.569 84.1702 808.016 105.368C816.462 126.567 806.073 150.682 784.875 159.128ZM757.323 89.9278C740.363 96.6843 732.057 115.969 738.814 132.93C745.57 149.89 764.855 158.196 781.816 151.439C798.776 144.683 807.082 125.398 800.325 108.437C793.569 91.4769 774.284 83.1712 757.323 89.9278Z" fill="url(#paint1_linear_3817_24823)"/>
<g style="mix-blend-mode:multiply">
<path d="M776.397 147.042C776.397 147.042 776.915 164.15 792.954 170.186C807.204 175.55 826.948 177.891 831.158 178.291C831.683 178.344 832.214 178.358 832.739 178.35L886.151 184.978C889.027 185.199 891.876 185.744 894.624 186.62L946.759 203.851C946.759 203.851 946.53 199.887 945.52 198.144C941.196 190.69 927.067 178.17 927.067 178.17L892.804 157.776L776.386 147.05L776.397 147.042Z" fill="#8C77EC"/>
</g>
<path d="M892.55 109.212C892.55 109.212 915.486 119.984 916.545 125.781C917.019 128.393 915.621 130.163 913.933 131.327C911.857 132.76 909.265 133.237 906.771 132.89L848.729 123.865C845.912 123.429 843.068 123.203 840.215 123.192L798.098 122.996C786.706 122.512 776.974 131.148 776.093 142.52C775.253 153.376 782.792 163.095 793.51 164.988L824.08 170.391C826.67 170.889 829.3 171.168 831.941 171.213L856.85 171.621L885.986 174.444C890.387 174.868 894.683 175.982 898.74 177.741L969.782 208.559C996.329 218.791 1035.93 221.284 1050.98 216.833L1078.57 209.674C1082.66 208.615 1104.94 206.165 1126.1 207.271C1126.99 207.32 1127.89 207.4 1128.78 207.52L1239.26 221.734L1241.14 106.223L1091.89 119.507C1088.18 119.762 1081.38 118.812 1077.68 118.452L1047.36 114.122C1040.99 113.702 1033.97 110.915 1028.28 107.989L913.7 48.9529C908.501 46.1869 902.379 45.7397 896.83 47.6958L892.551 109.202L892.55 109.212Z" fill="#944B2A"/>
<path d="M1076.51 111.628C1078.2 109.737 1080.59 108.627 1083.12 108.55C1098.26 108.099 1508.48 62.1663 1508.48 62.1663L1465.6 290.749C1379.28 282.752 1123.77 239.916 1098.08 236.576C1094.53 236.11 1091.05 235.347 1089.51 232.112L1078.8 209.654L1083.99 208.444L1082.12 119.233L1073.64 117.807L1076.49 111.636L1076.51 111.628Z" fill="#DDD7F9"/>
<path d="M1089.22 119.538C1085.47 119.397 1080.61 118.755 1077.69 118.475L1075.45 118.153C1076.77 114.437 1078.5 112.224 1080.62 111.929C1083.33 111.554 1086.3 114.36 1089.22 119.538Z" fill="#4E4493"/>
<path d="M1105.59 207.165C1105 222.011 1102.18 231.924 1097.52 232.582C1092.72 233.256 1087.08 223.911 1082.34 209.02C1087.24 208.323 1095.78 207.511 1105.58 207.164L1105.59 207.165Z" fill="#4E4493"/>
<path d="M1105.59 207.166C1095.79 207.503 1087.25 208.325 1082.35 209.022C1079.28 199.369 1076.59 187.373 1074.75 174.268C1071.32 149.857 1071.82 128.353 1075.45 118.153L1077.69 118.476C1080.61 118.756 1085.47 119.407 1089.22 119.538C1094.86 129.521 1100.33 148.324 1103.4 170.246C1105.32 183.962 1106.01 196.767 1105.59 207.156L1105.59 207.166Z" fill="#944B2A"/>
<path d="M225.756 180.206C225.756 180.206 225.876 251.08 243.904 235.901C252.936 228.299 255.144 202.4 255.144 202.4L225.756 180.206Z" fill="#BAADF4"/>
<path d="M229.713 141.593C229.713 141.593 230.044 114.205 242.334 113.588C254.624 112.972 259.974 131.239 259.974 131.239L229.713 141.593Z" fill="#038B5C"/>
<path d="M530.777 126.662L580.651 187.557C582.594 189.931 582.402 193.387 580.209 195.528L579.574 196.142C572.828 202.74 561.984 202.518 555.523 195.643L529.389 164.004L492.897 133.772L450.742 132.081L463.393 107.491L505.488 106.614L530.757 126.658L530.777 126.662Z" fill="#944B2A"/>
<g style="mix-blend-mode:multiply">
<path d="M571.828 177.556C571.828 177.556 540.326 144.65 529.436 146.957C518.546 149.264 515.598 152.798 515.598 152.798L492.907 133.774L450.753 132.083L466.183 116.959L530.757 126.659L571.808 177.552L571.828 177.556Z" fill="#9076F4"/>
</g>
<path d="M531.259 90.1928L587.214 137.984C590.861 141.106 593.972 144.81 596.409 148.946L616.445 182.966C618.448 186.377 617.545 190.753 614.363 193.085L612.445 194.495C605.441 199.618 595.677 198.472 590.05 191.871L566.854 164.664L526.877 134.799C525.954 134.109 524.866 133.707 523.711 133.622C518.499 133.257 502.977 132.212 495.067 132.058C485.468 131.877 450.678 121.862 450.678 121.862L473.477 98.682L531.271 90.1847L531.259 90.1928Z" fill="#944B2A"/>
<g style="mix-blend-mode:multiply">
<path d="M581.007 132.419C581.007 132.419 555.401 112.427 543.194 118.901C530.987 125.375 528.117 132.805 514.403 133.062C510.282 133.14 495.821 132.585 491.428 131.895C469.909 128.516 455.779 122.485 455.779 122.485L478.642 100.261L536.61 94.1572L581.009 132.409L581.007 132.419Z" fill="#9076F4"/>
</g>
<path d="M444.102 135.925L465.028 127.45L493.178 146.094C495.977 147.944 498.326 150.401 500.065 153.282L522.029 189.765C523.239 191.77 522.186 194.362 519.921 194.96L510.648 197.415C505.04 198.898 499.071 197.041 495.297 192.633L474.9 168.806C474.039 167.829 473.013 167.028 471.87 166.421L431.138 144.891L444.102 135.925Z" fill="#944B2A"/>
<g style="mix-blend-mode:multiply">
<path d="M515.965 179.943C515.965 179.943 499.67 176.694 495.314 181.484C490.663 186.601 494.668 191.893 494.668 191.893L475.184 169.155C474.306 168.103 473.486 167.298 472.267 166.657L429.183 143.707L464.055 126.802L492.339 145.501C494.869 147.128 498.504 150.772 500.051 153.351L515.957 179.931L515.965 179.943Z" fill="#9076F4"/>
</g>
<path d="M-31.8995 138.648C-31.8995 138.648 149.019 125.966 194.912 122.078C236.027 118.601 380.077 88.4128 409.605 82.178C413.117 81.4357 416.745 81.3613 420.289 81.9801L431.244 83.8643C436.323 84.7396 441.536 84.5301 446.541 83.2562L518.201 64.4355C524.28 62.8419 530.686 63.0222 536.661 64.9628L631.928 95.9419C634.12 96.6557 635.268 99.0602 634.45 101.203L633.302 104.209C630.465 111.625 622.943 116.151 615.057 115.18L536.324 105.421C533.331 105.046 530.287 105.297 527.382 106.149L479.964 120.082C476.256 121.169 473.05 123.517 470.836 126.68C467.198 131.877 460.014 139.935 448.678 143.692C431.225 149.476 421.467 150.005 421.467 150.005L412.183 160.314C409.731 163.034 408.035 166.343 407.257 169.919L405.042 180.147C404.526 182.55 406.031 184.906 408.42 185.439C413.199 186.497 420.871 188.199 425.801 189.273C432.162 190.668 461.542 196.461 471.462 197.368C473.462 197.554 475.442 197.963 477.33 198.653L510.695 210.7C519.67 213.942 524.995 223.189 523.279 232.583L523.198 233.031C521.271 243.599 511.506 250.77 500.924 249.436C486.455 247.616 466.605 244.548 461.683 243.773C460.923 243.657 460.195 243.484 459.465 243.26C452.991 241.239 419.363 230.818 413.179 230.144C401.185 228.843 329.696 244.891 294.963 232.628C260.228 220.374 264.932 213.994 251.319 212.154C237.706 210.314 2.78542 274.566 -34.5936 281.52C-71.9727 288.474 -91.094 289.45 -91.094 289.45L-31.8895 138.65L-31.8995 138.648Z" fill="#944B2A"/>
<path d="M-17.2483 134.905L241.414 113.731C241.414 113.731 237.116 112.513 233.713 125.854C229.747 141.404 228.485 225.059 243.714 235.354C251.942 240.915 -51.479 315.522 -51.479 315.522L-17.2465 134.895L-17.2483 134.905Z" fill="#8C77EC"/>
<path d="M679.284 255.97C677.358 247.56 668.965 242.301 660.554 244.227C668.965 242.301 674.224 233.908 672.298 225.497C674.224 233.908 682.617 239.167 691.027 237.24C682.617 239.167 677.358 247.56 679.284 255.97Z" fill="#FFEDB3"/>
</g>
</g>
<defs>
<linearGradient id="paint0_linear_3817_24823" x1="759.47" y1="96.3246" x2="781.777" y2="149.887" gradientUnits="userSpaceOnUse">
<stop stop-color="#FFC200"/>
<stop offset="0.8" stop-color="#F9AA26"/>
</linearGradient>
<linearGradient id="paint1_linear_3817_24823" x1="753.528" y1="80.4495" x2="784.305" y2="157.276" gradientUnits="userSpaceOnUse">
<stop stop-color="#FFC200"/>
<stop offset="1" stop-color="#F9AA26"/>
</linearGradient>
<clipPath id="clip0_3817_24823">
<rect width="1440" height="334" fill="white"/>
</clipPath>
</defs>
</svg>