<svg xmlns="http://www.w3.org/2000/svg" width="136" height="136" viewBox="0 0 136 136" fill="none">
<path d="M74.466 12.413C78.7018 15.6053 84.0354 16.9839 89.2879 16.2457C100.229 14.708 110.341 22.3288 111.878 33.265C112.616 38.512 115.416 43.2527 119.646 46.4457C128.467 53.0937 130.23 65.6334 123.583 74.4553C120.391 78.6973 119.013 84.0313 119.752 89.2901C121.289 100.226 113.669 110.339 102.734 111.876C97.4755 112.615 92.7285 115.41 89.5307 119.647C82.8835 128.469 70.3448 130.231 61.5234 123.584C57.2884 120.397 51.9666 119.017 46.7133 119.749C35.778 121.286 25.6598 113.666 24.1228 102.73C23.3846 97.477 20.5902 92.7355 16.3535 89.5374C7.5321 82.8895 5.76976 70.3497 12.417 61.5278C15.603 57.2925 16.983 51.9704 16.2507 46.7166C14.7137 35.7804 22.3337 25.6675 33.269 24.1307C38.5156 23.3933 43.2558 20.5929 46.4485 16.3627C53.089 7.5357 65.6269 5.76759 74.4542 12.4147L74.4601 12.4139L74.466 12.413Z" fill="#FFC500" stroke="black" stroke-width="4"/>
<path d="M59.8442 96.5227C59.7993 97.016 60.2172 97.2518 60.6001 97.3243C61.0007 97.3942 61.4707 97.3162 61.5696 96.7792C61.7589 95.7306 59.4439 96.3265 59.7142 94.8276C59.8335 94.1796 60.432 93.861 61.1861 94.0075C61.8231 94.1344 62.2608 94.5538 62.2436 95.1154L61.7384 95.1142C61.7646 94.7017 61.4502 94.4754 61.1111 94.4148C60.7475 94.3517 60.3263 94.4349 60.2377 94.9163C60.0688 95.8539 62.3847 95.2639 62.0931 96.868C62.0044 97.3494 61.6208 97.9564 60.5234 97.7619C59.4806 97.5718 59.29 96.9854 59.3264 96.5173L59.8442 96.5227Z" fill="black"/>
<path d="M62.8085 94.3058L63.3346 94.3701L62.9001 98.0804L62.3749 98.022L62.8093 94.3117L62.8085 94.3058Z" fill="black"/>
<path d="M66.0552 94.5482L66.5822 94.5763L66.391 98.3066L65.864 98.2784L64.1222 95.2527L63.9749 98.1832L63.4479 98.1551L63.6391 94.4248L64.1661 94.453L65.9104 97.4964L66.0611 94.5474L66.0552 94.5482Z" fill="black"/>
<path d="M67.4796 96.4263C67.5395 97.4519 68.0472 97.8555 68.7326 97.8133C69.3044 97.775 69.7311 97.4746 69.8497 96.7786L70.3589 96.8513C70.2138 97.7434 69.5745 98.2 68.7594 98.2604C67.7826 98.3256 66.9992 97.7563 66.9196 96.4629C66.8459 95.1687 67.5521 94.5043 68.5323 94.4627C69.3448 94.4267 70.0352 94.8046 70.2892 95.6707L69.7905 95.8009C69.5933 95.1252 69.1316 94.8775 68.5641 94.9032C67.8778 94.9395 67.4255 95.3998 67.4855 96.4255L67.4796 96.4263Z" fill="black"/>
<path d="M72.9475 94.4213L71.0424 94.7251L71.2267 95.8655L72.8379 95.609L72.916 96.079L71.3048 96.3355L71.4899 97.4818L73.3951 97.178L73.4732 97.6479L71.0508 98.0365L70.4598 94.344L72.8821 93.9555L72.9484 94.4272L72.9475 94.4213Z" fill="black"/>
<path d="M77.3682 96.1481L77.4985 96.6048L75.1404 97.2789L75.1137 97.1744C74.6125 95.4052 76.5102 95.0483 76.2621 94.1814C76.131 93.7188 75.8324 93.6045 75.4162 93.7231C75.0118 93.8401 74.8285 94.0763 74.9084 94.5159L74.4157 94.5611C74.3077 93.921 74.6682 93.4916 75.2984 93.3128C75.9749 93.1216 76.5461 93.3359 76.7474 94.041C77.0774 95.191 75.4822 95.4333 75.5526 96.6618L77.3674 96.1423L77.3682 96.1481Z" fill="black"/>
<path d="M79.6855 93.8038C79.9248 94.4374 80.3002 95.6111 79.171 96.0464C78.041 96.4757 77.5342 95.3506 77.2948 94.7169C77.0554 94.0832 76.6801 92.9095 77.8093 92.4743C78.9393 92.0449 79.4461 93.1701 79.6855 93.8038ZM79.195 93.9929C78.9105 93.2514 78.5304 92.6435 77.9599 92.8619C77.3894 93.0804 77.5066 93.7853 77.792 94.5328C78.0765 95.2743 78.4566 95.8823 79.0271 95.6638C79.5976 95.4454 79.4804 94.7404 79.195 93.9929Z" fill="black"/>
<path d="M82.8333 93.8273L83.0378 94.2554L80.832 95.329L80.7825 95.2337C79.9788 93.5791 81.7889 92.8979 81.3984 92.0871C81.1872 91.6538 80.8724 91.5959 80.4839 91.7827C80.1071 91.9679 79.9634 92.2286 80.1249 92.6508L79.6506 92.7836C79.4322 92.171 79.7129 91.6867 80.3037 91.3992C80.9401 91.0934 81.5385 91.2017 81.8603 91.8659C82.384 92.9405 80.8573 93.4557 81.1341 94.6553L82.8341 93.8332L82.8333 93.8273Z" fill="black"/>
<path d="M82.4794 90.2687L84.3193 93.5211L83.8682 93.7769L82.3798 91.1424C82.4423 91.4162 82.3921 91.6577 82.0911 91.8263L81.8362 91.3812C82.1034 91.2294 82.3093 91.0261 82.0284 90.5245L82.4794 90.2687Z" fill="black"/>
<path d="M41.2958 58.3815C41.899 62.6734 39.282 65.0973 35.7627 65.5919L31.4888 66.1926L29.7148 53.5703L33.9887 52.9697C37.5022 52.4759 40.6926 54.0896 41.295 58.3756L41.2958 58.3815ZM35.5522 64.0945C38.0576 63.7424 39.917 62.0442 39.4389 58.6425C38.9608 55.2408 36.6877 54.1234 34.2 54.473L31.7123 54.8226L33.0654 64.45L35.5531 64.1004L35.5522 64.0945Z" fill="black"/>
<path d="M51.1576 59.5825L44.2009 60.5602C44.672 62.2014 45.8907 62.7877 47.1675 62.5902C48.2439 62.4209 49.2196 61.7487 49.5356 60.4899L51.1723 60.8851C50.6991 62.7371 49.1551 63.8138 47.3771 64.0818C45.0155 64.4317 42.7863 63.1999 42.348 60.0812C41.9097 56.9624 43.713 55.1639 46.0796 54.8494C48.4462 54.5348 50.6704 55.7312 51.1087 58.8499C51.1444 59.1034 51.1598 59.3417 51.1568 59.5766L51.1576 59.5825ZM43.9904 59.0628L49.2551 58.3229C48.7536 56.722 47.5601 56.1864 46.296 56.346C45.0318 56.5056 44.0305 57.3798 43.9963 59.062L43.9904 59.0628Z" fill="black"/>
<path d="M50.9883 50.5898L52.7746 50.3388L54.5486 62.9611L52.7622 63.2121L50.9883 50.5898Z" fill="black"/>
<path d="M54.2262 52.1783L53.9453 50.1797L55.8024 49.9187L56.0833 51.9173L54.2262 52.1783ZM55.7538 62.7911L57.5401 62.5401L56.2733 53.5258L54.4869 53.7769L55.7538 62.7911Z" fill="black"/>
<path d="M63.6233 52.4922L65.5158 52.2263L63.4104 61.7144L61.8422 61.9348L57.2031 53.3945L59.0956 53.1286L62.3049 59.4951L63.6174 52.4931L63.6233 52.4922Z" fill="black"/>
<path d="M74.9076 56.2427L67.9509 57.2204C68.422 58.8616 69.6407 59.4478 70.9175 59.2503C71.9939 59.081 72.9696 58.4088 73.2856 57.15L74.9223 57.5452C74.4491 59.3973 72.9051 60.474 71.1271 60.7419C68.7655 61.0918 66.5363 59.8601 66.098 56.7413C65.6597 53.6226 67.463 51.8241 69.8296 51.5095C72.1962 51.195 74.4204 52.3914 74.8587 55.5101C74.8944 55.7636 74.9098 56.0019 74.9068 56.2368L74.9076 56.2427ZM67.7404 55.7229L73.0051 54.983C72.5036 53.3822 71.3101 52.8465 70.046 53.0062C68.7818 53.1658 67.7805 54.04 67.7463 55.7221L67.7404 55.7229Z" fill="black"/>
<path d="M80.0367 50.03L80.2595 51.6159C78.1843 51.9075 77.3029 52.9512 77.7661 56.2468L78.24 59.619L76.436 59.8726L75.1692 50.8583L76.9732 50.6048L77.206 52.2614C77.6065 50.9186 78.5207 50.237 80.0004 50.029L80.0358 50.0241L80.0367 50.03Z" fill="black"/>
<path d="M80.7262 48.4556L80.4453 46.457L82.3024 46.196L82.5833 48.1946L80.7262 48.4556ZM82.2538 59.0685L84.0401 58.8174L82.7733 49.8032L80.9869 50.0542L82.2538 59.0685Z" fill="black"/>
<path d="M92.0932 52.4933L92.8074 57.5752L91.0034 57.8287L90.2892 52.7468C90.1044 51.4321 89.6736 50.2061 88.5416 50.3652C87.7693 50.4737 85.8942 50.9056 86.4742 55.0324L86.9481 58.4047L85.1618 58.6557L83.8949 49.6415L85.6812 49.3904L85.9878 51.5718C86.4792 49.8494 87.6422 48.9705 88.9982 48.78C91.5215 48.4254 91.8562 50.8071 92.094 52.4991L92.0932 52.4933Z" fill="black"/>
<path d="M99.4285 47.4656L101.233 47.2121L102.482 56.1025C102.92 59.2212 100.987 61.038 98.4792 61.3724C96.655 61.6107 94.9979 60.9419 94.0378 59.2011L95.5248 58.4029C96.1502 59.6016 97.1638 60.0122 98.2687 59.8749C99.8571 59.6697 100.987 58.555 100.678 56.356L100.477 54.9293C99.9913 56.176 98.9593 56.832 97.5385 57.0317C95.1567 57.3665 93.3957 56.0869 92.9574 52.9682C92.5191 49.8494 93.8617 48.1518 96.241 47.7993C97.6652 47.5811 98.8355 47.9517 99.6456 49.0102L99.4277 47.4597L99.4285 47.4656ZM100.062 51.9757C99.7226 49.5585 98.3475 48.9281 96.9056 49.1488C95.3045 49.3919 94.4311 50.6208 94.7269 52.7255C95.0227 54.8302 96.2035 55.7885 97.807 55.5631C99.2514 55.3601 100.401 54.3869 100.062 51.9757Z" fill="black"/>
<path d="M37.4129 69.0407L39.1991 68.7897L40.9731 81.412L39.1869 81.663L38.4113 76.1448L32.3159 77.0015L33.0914 82.5197L31.3052 82.7707L29.5312 70.1484L31.3174 69.8974L32.0905 75.3979L38.186 74.5412L37.4129 69.0407Z" fill="black"/>
<path d="M49.1098 74.62L49.8878 80.1559L48.0661 80.4119L47.8482 78.8614C46.7733 81.6938 41.9731 81.8033 41.5398 78.7199C40.9548 74.5577 47.4554 76.0669 47.2176 74.3749C47.0627 73.2724 45.9562 72.971 44.9835 73.1077C44.0814 73.2345 43.0838 73.5791 43.0477 75.0331L41.3833 74.9544C41.3908 72.783 43.0279 71.8555 44.7755 71.628C46.7058 71.3747 48.7303 71.9198 49.1098 74.62ZM47.5184 76.515L47.4041 75.7014C46.3723 76.6159 43.14 76.2465 43.4491 78.4456C43.7582 80.6446 48.0122 80.0287 47.5184 76.515Z" fill="black"/>
<path d="M59.1655 74.2689C59.6038 77.3876 58.2637 79.103 55.8819 79.4378C54.4552 79.6383 53.2874 79.2854 52.4773 78.2269L53.2023 83.3855L51.4337 83.634L49.6243 71.0167L51.4284 70.7632L51.6463 72.3137C52.1324 71.067 53.1619 70.3933 54.5852 70.2113C56.9695 69.8942 58.728 71.1561 59.1663 74.2748L59.1655 74.2689ZM57.3968 74.5175C57.1002 72.4069 55.9228 71.4722 54.3167 71.6799C52.8698 71.8652 51.7225 72.8561 52.0614 75.2673C52.4003 77.6786 53.7738 78.2972 55.2182 78.0942C56.8217 77.8688 57.6926 76.6222 57.3968 74.5175Z" fill="black"/>
<path d="M69.0014 72.8861C69.4397 76.0048 68.0997 77.7202 65.7179 78.0549C64.2912 78.2555 63.1233 77.9026 62.3133 76.8441L63.0383 82.0026L61.2696 82.2512L59.4603 69.6339L61.2643 69.3804L61.4822 70.9309C61.9683 69.6842 62.9979 69.0105 64.4212 68.8285C66.8055 68.5114 68.5639 69.7733 69.0023 72.892L69.0014 72.8861ZM67.2328 73.1347C66.9361 71.0241 65.7587 70.0894 64.1526 70.2971C62.7057 70.4824 61.5585 71.4733 61.8973 73.8845C62.2362 76.2958 63.6097 76.9144 65.0541 76.7114C66.6577 76.486 67.5286 75.2394 67.2328 73.1347Z" fill="black"/>
<path d="M69.0778 66.6314L68.7969 64.6328L70.654 64.3718L70.9348 66.3704L69.0778 66.6314ZM70.6054 77.2442L72.3917 76.9932L71.1248 67.9789L69.3385 68.23L70.6054 77.2442Z" fill="black"/>
<path d="M80.4447 70.6769L81.159 75.7588L79.3549 76.0123L78.6407 70.9304C78.456 69.6157 78.0251 68.3897 76.8932 68.5488C76.1209 68.6573 74.2457 69.0892 74.8257 73.216L75.2997 76.5883L73.5133 76.8393L72.2464 67.8251L74.0328 67.574L74.3394 69.7554C74.8308 68.033 75.9938 67.1541 77.3498 66.9636C79.873 66.609 80.2078 68.9907 80.4456 70.6827L80.4447 70.6769Z" fill="black"/>
<path d="M90.1263 70.645L83.1696 71.6227C83.6408 73.2639 84.8594 73.8502 86.1363 73.6527C87.2126 73.4834 88.1883 72.8112 88.5044 71.5524L90.1411 71.9476C89.6679 73.7996 88.1238 74.8763 86.3459 75.1443C83.9843 75.4942 81.7551 74.2624 81.3168 71.1437C80.8784 68.025 82.6818 66.2264 85.0484 65.9119C87.4149 65.5973 89.6392 66.7937 90.0775 69.9125C90.1131 70.166 90.1286 70.4043 90.1255 70.6392L90.1263 70.645ZM82.9592 70.1253L88.2239 69.3854C87.7223 67.7846 86.5288 67.2489 85.2647 67.4085C84.0006 67.5681 82.9992 68.4423 82.9651 70.1245L82.9592 70.1253Z" fill="black"/>
<path d="M92.7144 71.2885C93.0187 72.2558 93.9811 72.6015 94.9951 72.459C96.0092 72.3165 96.9872 71.7041 96.8348 70.6193C96.5506 68.5971 91.1955 71.6884 90.6636 67.9035C90.299 65.3094 92.9489 64.7867 93.904 64.6525C94.806 64.5257 97.1286 64.3255 97.8112 66.2737L96.2554 66.9673C95.9055 66.0606 95.1053 65.8424 94.0972 65.984C93.089 66.1257 92.2906 66.6047 92.4381 67.6541C92.7322 69.747 98.0699 66.5319 98.6093 70.3699C98.9971 73.129 96.2004 73.7625 95.2099 73.9017C94.3079 74.0285 91.6832 74.1749 91.0679 71.8927L92.7271 71.2928L92.7144 71.2885Z" fill="black"/>
<path d="M101.105 70.1089C101.409 71.0761 102.372 71.4218 103.386 71.2793C104.4 71.1368 105.378 70.5244 105.225 69.4396C104.941 67.4174 99.5861 70.5087 99.0542 66.7238C98.6896 64.1297 101.34 63.607 102.295 63.4728C103.197 63.346 105.519 63.1459 106.202 65.094L104.646 65.7876C104.296 64.8809 103.496 64.6627 102.488 64.8044C101.48 64.946 100.681 65.425 100.829 66.4744C101.123 68.5673 106.461 65.3522 107 69.1902C107.388 71.9493 104.591 72.5828 103.601 72.722C102.699 72.8488 100.074 72.9952 99.4585 70.713L101.118 70.1131L101.105 70.1089Z" fill="black"/>
</svg>