
<svg xmlns="http://www.w3.org/2000/svg" width="53" height="47" viewBox="0 0 53 47" fill="none">
<path d="M10.0206 20.8559L8.79883 20.8072C8.81406 20.4477 9.21318 11.9413 14.4809 6.85938L15.3279 7.73683C10.4136 12.4836 10.0206 20.7737 10.0206 20.8559Z" fill="#271386"/>
<path d="M10.3883 21.2443L8.41406 21.1681L8.4293 20.7934C8.44453 20.4278 8.86498 11.763 14.2241 6.59271L14.4922 6.33374L15.8602 7.75045L15.589 8.00943C10.7753 12.6587 10.3975 20.7873 10.3944 20.8665L10.3822 21.2443H10.3883ZM9.20011 20.4491L9.6754 20.4674C9.81554 18.7795 10.6382 12.0037 14.806 7.73218L14.477 7.39399C10.1172 11.8452 9.32807 18.7521 9.20011 20.4491Z" fill="#271386"/>
<path d="M45.6483 20.8559L46.867 20.8072C46.8517 20.4477 46.4526 11.9413 41.1849 6.85938L40.3379 7.73683C45.2522 12.4836 45.6453 20.7737 45.6483 20.8559Z" fill="#271386"/>
<path d="M45.2935 21.2504L45.2783 20.8756C45.2752 20.7934 44.8792 12.6435 40.0837 8.00943L39.8125 7.75045L41.1805 6.33374L41.4486 6.59271C46.8077 11.766 47.2282 20.4278 47.2434 20.7934L47.2586 21.1681L45.2905 21.2473L45.2935 21.2504ZM40.8697 7.73522C45.062 12.028 45.8663 18.81 46.0034 20.4704L46.4756 20.4522C46.3446 18.7551 45.5586 11.8483 41.1987 7.39704L40.8697 7.73522Z" fill="#271386"/>
<path d="M42.7519 9.37269C42.3223 9.84797 41.5972 9.73829 41.1036 9.18379C33.7093 0.820598 22.1501 0.820598 14.7527 9.18379C14.2591 9.73829 13.534 9.84797 13.1044 9.37269C12.6749 8.8974 12.7541 7.95902 13.3116 7.32835C21.5164 -1.9519 34.34 -1.9519 42.5447 7.32835C43.1023 7.95597 43.1815 8.90045 42.7519 9.37269Z" fill="#8C77EC"/>
<path d="M13.7758 10.0541C13.4071 10.0541 13.072 9.90482 12.8252 9.63062C12.2555 9.003 12.3469 7.86049 13.0293 7.08663C17.0693 2.51658 22.3614 0 27.9277 0C33.494 0 38.7861 2.51658 42.8261 7.08663C43.4994 7.84526 43.5908 9.01214 43.0302 9.63367C42.7834 9.90787 42.4452 10.0572 42.0796 10.0572H42.0735C41.6257 10.0572 41.1687 9.8317 40.8244 9.44172C37.3207 5.47797 32.7415 3.29653 27.9308 3.29653C23.12 3.29653 18.5408 5.47797 15.0371 9.44172C14.6928 9.8317 14.2358 10.0572 13.788 10.0572H13.7819L13.7758 10.0541ZM27.9247 0.749486C22.5746 0.749486 17.4836 3.17467 13.5869 7.58324C13.1329 8.09814 13.1025 8.82324 13.3767 9.12791C13.4833 9.24674 13.6265 9.29853 13.7758 9.30463C14.0073 9.30463 14.2663 9.16753 14.4674 8.94207C18.1173 4.81684 22.8946 2.544 27.9247 2.544C32.9517 2.544 37.732 4.81684 41.3789 8.94207C41.58 9.16753 41.8389 9.30463 42.0705 9.30463C42.2259 9.30463 42.3599 9.24369 42.4666 9.12791C42.7438 8.82324 42.7133 8.09509 42.2563 7.58324C38.3596 3.17771 33.2686 0.749486 27.9186 0.749486H27.9247Z" fill="#8C77EC"/>
<path d="M47.133 15.0272C47.3128 14.9724 47.5047 15.0516 47.5931 15.2192L49.3754 17.949C49.8964 18.7686 50.2224 19.7192 50.2224 20.6941V23.1802C50.2224 23.1802 52.6262 25.0448 52.6262 27.7594C52.6262 30.474 50.9627 34.1362 48.8575 34.7455C48.7447 34.9953 48.632 35.2025 48.5528 35.3762C48.3212 35.8819 47.8612 36.1744 47.3128 36.083L46.8984 36.0007V15.466C46.9015 15.2649 46.9411 15.0912 47.1361 15.0333L47.133 15.0272Z" fill="#8C77EC"/>
<path d="M47.5128 36.4777C47.4275 36.4777 47.3391 36.4716 47.2477 36.4563L46.5195 36.3101V15.4676C46.5287 14.9344 46.7998 14.7425 47.0222 14.6755C47.3726 14.5688 47.7535 14.7242 47.9241 15.0502L49.6881 17.7496C50.2822 18.688 50.596 19.7056 50.596 20.6988V23.0082C51.1414 23.4774 52.9999 25.2658 52.9999 27.7641C52.9999 30.5488 51.3211 34.2627 49.1275 35.0548C49.0879 35.1401 49.0483 35.2194 49.0087 35.2955C48.966 35.3839 48.9264 35.4631 48.8929 35.5362C48.6218 36.1334 48.1069 36.4777 47.5128 36.4777ZM47.269 35.6947L47.3848 35.719C47.7352 35.7769 48.0429 35.5971 48.2105 35.2254C48.247 35.1432 48.2897 35.0579 48.3384 34.9604C48.3933 34.8507 48.4542 34.7288 48.5151 34.5917L48.5852 34.4333L48.7497 34.3846C50.6874 33.824 52.2473 30.302 52.2473 27.758C52.2473 25.214 50.0111 23.4926 49.9897 23.4743L49.8465 23.3616V20.6927C49.8465 19.8427 49.5723 18.9622 49.0574 18.1487L47.2721 15.4067C47.2721 15.4219 47.2721 15.4432 47.2721 15.4676V35.6855L47.269 35.6947ZM47.1319 15.035L47.2386 15.3945C47.2386 15.3945 47.2507 15.3884 47.2599 15.3823L47.1319 15.035Z" fill="#8C77EC"/>
<path d="M44.6611 18.4397H44.5696C43.3329 18.4397 42.3303 19.4423 42.3303 20.679V36.141C42.3303 37.3778 43.3329 38.3804 44.5696 38.3804H44.6611C45.8978 38.3804 46.9004 37.3778 46.9004 36.141V20.679C46.9004 19.4423 45.8978 18.4397 44.6611 18.4397Z" fill="black"/>
<path d="M44.6684 38.753H44.577C43.1359 38.753 41.9629 37.58 41.9629 36.1389V20.6739C41.9629 19.2328 43.1359 18.0598 44.577 18.0598H44.6684C46.1095 18.0598 47.2824 19.2328 47.2824 20.6739V36.1389C47.2824 37.58 46.1095 38.753 44.6684 38.753ZM44.577 18.8124C43.5502 18.8124 42.7124 19.6471 42.7124 20.6769V36.142C42.7124 37.1687 43.5472 38.0066 44.577 38.0066H44.6684C45.6951 38.0066 46.5329 37.1718 46.5329 36.142V20.6769C46.5329 19.6502 45.6981 18.8124 44.6684 18.8124H44.577Z" fill="black"/>
<path d="M24.4497 45.0546C24.1054 45.0455 15.9098 44.8139 8.66477 41.8556C5.53276 40.576 3.29343 37.8553 2.19053 33.9921C1.68782 32.2219 1.44409 30.3878 1.46846 28.5476L2.68714 28.5994C2.67191 30.3208 2.90346 32.0361 3.37265 33.6904C4.38415 37.2155 6.32185 39.5828 9.12482 40.7283C16.1566 43.6014 24.3949 43.836 24.4771 43.839L24.4467 45.0577L24.4497 45.0546Z" fill="#271386"/>
<path d="M24.8181 45.4374L24.4434 45.4282C24.096 45.4191 15.8456 45.1906 8.52434 42.2018C5.27961 40.8765 2.96716 38.0735 1.83074 34.0915C1.31585 32.2848 1.06907 30.4171 1.09344 28.5373L1.09954 28.1504L3.0677 28.2326V28.5952C3.04942 30.2831 3.27488 31.9588 3.73798 33.5826C4.71597 36.9889 6.5775 39.2739 9.27079 40.3768C16.1259 43.1767 24.1539 43.4479 24.4921 43.457L24.8638 43.4692L24.8181 45.4374ZM1.84293 28.9334C1.85512 30.6091 2.09276 32.2726 2.55281 33.8873C3.6222 37.6378 5.78536 40.2732 8.80769 41.5071C15.221 44.1273 22.3686 44.5904 24.0869 44.6665L24.0991 44.1943C22.3807 44.109 15.2149 43.6154 8.98744 41.0714C6.07175 39.8802 4.06093 37.4276 3.01591 33.7898C2.56804 32.2147 2.33345 30.5878 2.31517 28.9547L1.84293 28.9334Z" fill="#271386"/>
<path d="M30.5198 42.6694H25.6207C24.7558 42.6694 24.0547 43.3706 24.0547 44.2354V44.4274C24.0547 45.2923 24.7558 45.9934 25.6207 45.9934H30.5198C31.3847 45.9934 32.0858 45.2923 32.0858 44.4274V44.2354C32.0858 43.3706 31.3847 42.6694 30.5198 42.6694Z" fill="black"/>
<path d="M30.5137 46.3719H25.6176C24.5452 46.3719 23.6738 45.5005 23.6738 44.4281V44.2392C23.6738 43.1668 24.5452 42.2954 25.6176 42.2954H30.5137C31.5831 42.2954 32.4544 43.1668 32.4544 44.2392V44.4281C32.4544 45.5005 31.5831 46.3719 30.5137 46.3719ZM25.6176 43.048C24.9595 43.048 24.4264 43.5842 24.4264 44.2392V44.4281C24.4264 45.0862 24.9626 45.6194 25.6176 45.6194H30.5137C31.1718 45.6194 31.7049 45.0831 31.7049 44.4281V44.2392C31.7049 43.5811 31.1687 43.048 30.5137 43.048H25.6176Z" fill="black"/>
<path d="M4.36313 27.0227H1.92577C1.0693 27.0227 0.375 27.717 0.375 28.5735V28.7959C0.375 29.6524 1.0693 30.3466 1.92577 30.3466H4.36313C5.2196 30.3466 5.9139 29.6524 5.9139 28.7959V28.5735C5.9139 27.717 5.2196 27.0227 4.36313 27.0227Z" fill="black"/>
<path d="M4.35983 30.7191H1.92551C0.862214 30.7191 0 29.8538 0 28.7936V28.5742C0 27.5109 0.865261 26.6487 1.92551 26.6487H4.35983C5.42313 26.6487 6.28534 27.5139 6.28534 28.5742V28.7936C6.28534 29.8569 5.42008 30.7191 4.35983 30.7191ZM1.92551 27.3951C1.27657 27.3951 0.749486 27.9222 0.749486 28.5712V28.7905C0.749486 29.4395 1.27657 29.9665 1.92551 29.9665H4.35983C5.00878 29.9665 5.53586 29.4395 5.53586 28.7905V28.5712C5.53586 27.9222 5.00878 27.3951 4.35983 27.3951H1.92551Z" fill="black"/>
<path d="M8.53508 15.2316C8.34923 15.1768 8.14815 15.256 8.05065 15.4235L6.3049 18.1534C5.78086 18.9729 5.50056 19.9235 5.49752 20.8985V23.3815C5.49752 23.3815 3.04492 25.2431 3.04492 27.9577C3.04492 30.6723 4.68405 34.3344 6.78628 34.9438C6.899 35.1936 6.99954 35.4008 7.07876 35.5744C7.29203 36.0802 7.8252 36.3696 8.36446 36.2782L8.82147 36.1959V15.6673C8.82147 15.4662 8.72702 15.2895 8.53508 15.2346V15.2316Z" fill="#8C77EC"/>
<path d="M8.16617 36.6752C7.54465 36.6752 6.981 36.3096 6.73422 35.7247L6.51486 35.2524C4.66551 34.5669 2.66992 31.3984 2.66992 27.9617C2.66992 25.4634 4.56497 23.678 5.12252 23.2088V20.9055C5.12556 19.8575 5.42719 18.8399 5.99083 17.9594L7.73659 15.2295C7.91634 14.9249 8.29109 14.7756 8.6445 14.8792C8.98269 14.9766 9.19901 15.2874 9.19901 15.6713V36.5138L8.43428 36.6539C8.34593 36.6692 8.25757 36.6752 8.16922 36.6752H8.16617ZM8.41296 15.5951C8.39772 15.5951 8.37944 15.6043 8.3703 15.6195L6.6154 18.3615C6.12793 19.1232 5.86896 20.0007 5.86591 20.9055V23.5714L5.71662 23.6841C5.69225 23.7024 3.41332 25.4725 3.41332 27.9617C3.41332 30.4508 4.96104 34.0307 6.88351 34.5883L7.04803 34.637L7.41364 35.4261C7.56293 35.7795 7.92548 35.9776 8.29718 35.9166L8.44037 35.8892V15.6713C8.44037 15.6256 8.42819 15.6012 8.42514 15.5982C8.42209 15.5982 8.416 15.5982 8.40991 15.5982L8.41296 15.5951Z" fill="#8C77EC"/>
<path d="M11.153 18.7083H11.0616C9.82485 18.7083 8.82227 19.7108 8.82227 20.9476V36.4096C8.82227 37.6463 9.82485 38.6489 11.0616 38.6489H11.153C12.3897 38.6489 13.3923 37.6463 13.3923 36.4096V20.9476C13.3923 19.7108 12.3897 18.7083 11.153 18.7083Z" fill="black"/>
<path d="M11.1488 39.0277H11.0574C9.61634 39.0277 8.44336 37.8547 8.44336 36.4136V20.9485C8.44336 19.5075 9.61634 18.3345 11.0574 18.3345H11.1488C12.5899 18.3345 13.7629 19.5075 13.7629 20.9485V36.4136C13.7629 37.8547 12.5899 39.0277 11.1488 39.0277ZM11.0574 19.087C10.0307 19.087 9.19285 19.9218 9.19285 20.9516V36.4167C9.19285 37.4434 10.0276 38.2812 11.0574 38.2812H11.1488C12.1756 38.2812 13.0134 37.4464 13.0134 36.4167V20.9516C13.0134 19.9248 12.1786 19.087 11.1488 19.087H11.0574Z" fill="black"/>
<path d="M36.5497 38.5199C36.6259 38.7149 36.5284 38.9312 36.3334 39.0074C36.2146 39.0531 36.0805 39.0348 35.977 38.9617L32.8084 36.6736C26.8978 39.2907 19.9818 36.6218 17.3647 30.7112C14.7475 24.8006 17.4165 17.8846 23.3271 15.2675C29.2377 12.6504 36.1537 15.3193 38.7708 21.2299C40.9431 26.1381 39.502 31.8933 35.2732 35.196L36.5497 38.5199Z" fill="#8C77EC"/>
<path d="M36.195 39.4132C36.0397 39.4132 35.8873 39.3644 35.7563 39.27L32.7614 37.1068C29.864 38.3316 26.6589 38.3803 23.7158 37.2439C20.7056 36.0831 18.3292 33.8164 17.0222 30.8672C15.7151 27.918 15.6359 24.6336 16.7967 21.6235C17.9575 18.6133 20.2242 16.2369 23.1734 14.9299C26.1257 13.6228 29.407 13.5436 32.4171 14.7044C35.4273 15.8652 37.8037 18.132 39.1107 21.0812C41.3196 26.0686 39.9212 31.8817 35.7167 35.3214L36.8958 38.3895C37.0451 38.7764 36.8501 39.2121 36.4632 39.3614C36.3748 39.3949 36.2834 39.4132 36.192 39.4132H36.195ZM32.8528 36.2476L36.195 38.6606L34.821 35.0747L35.0403 34.904C39.1412 31.702 40.5336 26.1417 38.4283 21.3858C37.2035 18.6194 34.9733 16.4928 32.149 15.4052C29.3247 14.3144 26.2476 14.3906 23.4781 15.6154C20.7117 16.8402 18.5851 19.0703 17.4974 21.8946C16.4067 24.7189 16.4829 27.7961 17.7077 30.5655C18.9324 33.332 21.1626 35.4585 23.9869 36.5462C26.8112 37.6369 29.8884 37.5608 32.6578 36.336L32.8559 36.2476H32.8528Z" fill="#8C77EC"/>
<path d="M26.6244 22.8918L28.0716 24.7899L29.5036 22.8918L30.6065 23.684L29.1745 25.5821L31.3133 26.3072L30.8989 27.602L28.7419 26.8952V29.2229H27.38V26.8952L25.2229 27.602L24.8086 26.3072L26.9474 25.5821L25.5154 23.684L26.6183 22.8918H26.6244Z" fill="#6B5BD8"/>
<path d="M28.0656 31.5277C25.0494 31.5277 22.5938 29.0721 22.5938 26.0559C22.5938 23.0396 25.0494 20.584 28.0656 20.584C31.0819 20.584 33.5375 23.0396 33.5375 26.0559C33.5375 29.0721 31.0819 31.5277 28.0656 31.5277ZM28.0656 21.6808C25.6526 21.6808 23.6906 23.6429 23.6906 26.0559C23.6906 28.4688 25.6526 30.4309 28.0656 30.4309C30.4786 30.4309 32.4407 28.4688 32.4407 26.0559C32.4407 23.6429 30.4786 21.6808 28.0656 21.6808Z" fill="#6B5BD8"/>
</svg>