<svg xmlns="http://www.w3.org/2000/svg" width="1440" height="976" viewBox="0 0 1440 976" fill="none">
<g clip-path="url(#clip0_2921_10298)">
<path d="M1189.65 283.507L1189.88 283.462L1190.11 283.399L1774.38 120.689C1774.39 120.688 1774.39 120.687 1774.39 120.686C1784.71 117.837 1794.8 127.325 1792.3 137.636L1792.29 137.699L1792.27 137.763L1732.46 411.381L1732.44 411.495L1732.42 411.611C1731.57 416.387 1727.68 420.358 1722.36 422.386L1138.34 585.026C1128.02 587.883 1117.92 578.392 1120.42 568.079L1120.43 568.015L1120.44 567.951L1180.26 294.334L1180.28 294.219L1180.3 294.104C1181.31 288.452 1184.91 284.435 1189.65 283.507Z" stroke="#FFE1EB" stroke-width="12"/>
<path d="M1189.65 283.507L1189.88 283.462L1190.11 283.399L1774.38 120.689C1774.39 120.688 1774.39 120.687 1774.39 120.686C1784.71 117.837 1794.8 127.325 1792.3 137.636L1792.29 137.699L1792.28 137.763L1732.46 411.381L1732.44 411.495L1732.42 411.611C1731.57 416.387 1727.68 420.358 1722.36 422.386L1138.34 585.026C1128.02 587.883 1117.92 578.392 1120.42 568.079L1120.43 568.015L1120.44 567.951L1180.26 294.334L1180.28 294.219L1180.3 294.104C1181.31 288.452 1184.91 284.435 1189.65 283.507Z" stroke="#FFE1EB" stroke-width="12"/>
<path d="M1305.65 -226.493L1305.88 -226.538L1306.11 -226.601L1890.38 -389.311C1890.39 -389.312 1890.39 -389.313 1890.39 -389.314C1900.71 -392.163 1910.79 -382.675 1908.3 -372.364L1908.29 -372.301L1908.27 -372.237L1848.46 -98.6191L1848.44 -98.5046L1848.42 -98.3891C1847.57 -93.6132 1843.68 -89.6419 1838.36 -87.6142L1254.33 75.0257C1244.02 77.8828 1233.92 68.3919 1236.41 58.0789L1236.43 58.0151L1236.44 57.9511L1296.26 -215.666L1296.28 -215.781L1296.3 -215.896C1297.31 -221.548 1300.91 -225.565 1305.65 -226.493Z" stroke="#FFC2D8" stroke-width="12"/>
<path d="M-289.348 21.5068L-289.117 21.4617L-288.891 21.3986L295.383 -141.311C295.386 -141.312 295.389 -141.313 295.392 -141.314C305.708 -144.163 315.795 -134.675 313.304 -124.364L313.288 -124.301L313.274 -124.237L253.461 149.381L253.436 149.495L253.416 149.611C252.566 154.387 248.676 158.358 243.358 160.386L-340.665 323.026C-350.984 325.883 -361.077 316.392 -358.586 306.079L-358.57 306.015L-358.556 305.951L-298.743 32.3337L-298.718 32.2191L-298.697 32.1037C-297.692 26.4523 -294.088 22.4346 -289.348 21.5068Z" stroke="#FFE1EB" stroke-width="12"/>
<path d="M-394.347 558.507L-394.117 558.462L-393.89 558.399L190.384 395.689C190.387 395.688 190.39 395.687 190.393 395.686C200.708 392.837 210.795 402.325 208.304 412.636L208.289 412.699L208.275 412.763L148.462 686.381L148.437 686.495L148.416 686.611C147.566 691.387 143.676 695.358 138.358 697.386L-445.665 860.026C-455.983 862.883 -466.077 853.392 -463.585 843.079L-463.57 843.015L-463.556 842.951L-403.742 569.334L-403.717 569.219L-403.697 569.104C-402.691 563.452 -399.087 559.435 -394.347 558.507Z" stroke="#FFC2D8" stroke-width="12"/>
</g>
<defs>
<clipPath id="clip0_2921_10298">
<rect width="1440" height="976" fill="white"/>
</clipPath>
</defs>
</svg>