<svg xmlns="http://www.w3.org/2000/svg" width="24" height="24" viewBox="0 0 24 24" fill="none">
<path d="M8.84068 5.05396L12.017 9.21419L15.1559 5.05396L17.5757 6.79446L14.4368 10.9547L19.1264 12.5429L18.2174 15.3796L13.4904 13.8289V18.9355H10.5013V13.8289L5.77419 15.3796L4.86523 12.5429L9.55486 10.9547L6.41596 6.79446L8.83568 5.05396H8.84068Z" fill="url(#paint0_linear_3817_24887)"/>
<path d="M11.9988 24C5.38383 24 0 18.6162 0 12.0012C0 5.38633 5.38383 0 11.9988 0C18.6137 0 23.9975 5.38383 23.9975 11.9988C23.9975 18.6137 18.6137 23.9975 11.9988 23.9975V24ZM11.9988 2.40225C6.70482 2.40225 2.39975 6.70731 2.39975 12.0012C2.39975 17.2952 6.70482 21.6003 11.9988 21.6003C17.2927 21.6003 21.5977 17.2952 21.5977 12.0012C21.5977 6.70731 17.2927 2.40225 11.9988 2.40225Z" fill="url(#paint1_linear_3817_24887)"/>
<defs>
<linearGradient id="paint0_linear_3817_24887" x1="11.981" y1="4.72753" x2="12.0091" y2="18.6077" gradientUnits="userSpaceOnUse">
<stop stop-color="#9076F4"/>
<stop offset="1" stop-color="#5A34EC"/>
</linearGradient>
<linearGradient id="paint1_linear_3817_24887" x1="11.9738" y1="-0.564353" x2="12.0237" y2="23.4331" gradientUnits="userSpaceOnUse">
<stop stop-color="#9076F4"/>
<stop offset="1" stop-color="#5A34EC"/>
</linearGradient>
</defs>
</svg>