<svg xmlns="http://www.w3.org/2000/svg" id="Layer_2" viewBox="0 0 192.95 211.11"><defs><style>.cls-1,.cls-2{fill:#fffeff;}.cls-2{opacity:.4;}</style></defs><g id="Layer_1-2"><g><path class="cls-2" d="M.03,21.28C22.33,.16,56.8-3.26,86.98,2.48c13.47,2.56,26.75,7.03,38.12,14.69,11.37,7.66,22.55,20.82,26.65,33.9-4.66,3.25-8.22,3.71-15.79,7.65,14.12,3.69,28.39,8.4,39.71,17.62,11.32,9.22,19.23,23.84,16.86,38.24-1.47,8.96-6.93,17.19-14.62,22.03-8.13,5.12-18.95,6.96-24.16,15.03-1.89,2.92-2.8,6.36-4.38,9.46-4.67,9.1-15.69,14.45-25.72,12.48-5.93,17.4-27.72,27.42-44.79,20.6-3.62,7.57-13.28,11.64-21.23,8.95-1.58,4.63-7.33,6.05-12.19,6.57-16.34,1.76-28.93,2.1-45.17-.38C-.12,186.4,.03,21.28,.03,21.28Z"/><path class="cls-1" d="M.68,30.46C16.69,10.6,42.8-.67,68.23,1.31c25.44,1.98,49.48,17.14,62.23,39.24,.95,1.64,1.86,3.43,1.75,5.32-.11,1.79-7.03,10.61-12.16,14.77,28.27-3.53,56.89,8.07,61.16,47.6,.83,7.71-2.43,15.57-8.52,20.38-6.09,4.81-13.88,6.91-21.57,7.96-5.56,.76-11.24,1.04-16.61,2.69-5.37,1.64-10.56,4.91-12.96,9.99-2.61,5.53-1.78,12.79-6.2,17.03-3.22,3.1-8.1,3.42-12.5,4.21-4.4,.79-9.34,2.89-10.36,7.25-.65,2.8,.41,6.25-1.63,8.28-1.1,1.1-2.77,1.35-4.32,1.55l-17.87,2.27c2.66,.01,5.3,1.2,7.07,3.19-9.39,4.41-21.83-.73-30.2,5.39,2.79,.9,5.36,2.43,7.48,4.45-5.25,3.66-12.3,3.04-18.6,1.89-11.27-2.06-33.2-4.25-33.2-4.25,0,0-.3-170.52-.16-169.61"/></g></g></svg>