
<svg xmlns="http://www.w3.org/2000/svg" width="173" height="126" viewBox="0 0 173 126" fill="none">
<path d="M126.587 0L396.175 69.4634L243.944 125.622C242.702 126.081 240.34 126.101 238.833 125.673L1.47317 57.8692C-0.145334 57.4111 -0.471081 56.6884 0.699536 56.1693L126.597 0.010179L126.587 0Z" fill="#271386"/>
<path d="M4.86409 56.8182L245.461 47.4023L241.736 124.449C241.695 125.233 238.54 125.579 236.565 125.019L3.34739 58.396C1.41332 57.8463 2.31928 56.92 4.87428 56.8182H4.86409Z" fill="#271386"/>
<g style="mix-blend-mode:multiply">
<path d="M387.35 72.7832L376.061 77.0076L183.704 80.3158C163.742 80.6619 145.867 75.9591 144.564 70.0144L140.676 52.333L387.36 72.7832H387.35Z" fill="#9076F4"/>
</g>
<g style="mix-blend-mode:multiply">
<path d="M228.951 49.5017L228.269 45.2671L6.1875 56.7595L228.951 49.5017Z" fill="#9076F4"/>
</g>
<path d="M116.09 4.63157L147.859 66.5419C150.903 72.4765 169.083 76.9452 189.147 76.6907L382.512 74.2375L396.163 69.4634L126.585 0L116.09 4.63157Z" fill="#8C77EC"/>
</svg>