<svg xmlns="http://www.w3.org/2000/svg" width="240" height="197" viewBox="0 0 240 197" fill="none">
<path d="M-322 16.0627L-7.66397 0.0217285L239.158 49.0692C240.167 49.2733 240.311 50.6661 239.362 51.0623L-108.244 196.476C-109.505 197.004 -110.946 196.776 -111.978 195.887L-321.988 16.0627H-322Z" fill="#271386"/>
<g style="mix-blend-mode:multiply">
<path d="M6.13281 39.5237L221.785 52.9112L7.24943 56.6213L6.13281 39.5237Z" fill="#9076F4"/>
</g>
<path d="M-29.627 48.7805L-107.851 194.182C-108.343 195.106 -107.407 196.127 -106.446 195.731L236.97 52.0703C237.499 51.8542 237.343 51.0618 236.766 51.0498L-29.627 48.7805Z" fill="#271386"/>
<g style="mix-blend-mode:multiply">
<path d="M8.02835 3.14453L13.3354 4.20113L22.1363 75.0528C24.4536 95.3442 5.01467 109.788 -14.7004 104.433L-61.4785 91.7181L8.02835 3.15655V3.14453Z" fill="#9076F4"/>
</g>
<path d="M-306.897 29.0803L-35.4608 98.3951C-13.1884 104.086 16.4322 96.8342 16.4322 73.8413L8.44775 3.20579L-7.30508 0.0480188L-7.92944 0L-321.197 15.2245C-321.917 15.2605 -322.229 16.1611 -321.677 16.6293L-306.897 29.0803Z" fill="#8C77EC"/>
</svg>