<svg xmlns="http://www.w3.org/2000/svg" width="107" height="127" viewBox="0 0 107 127" fill="none">
<g clip-path="url(#clip0_2921_10623)">
<path d="M77.8584 11.0547L77.8837 16.1333L80.6067 14.9103L80.39 11.957L77.8584 11.0547Z" fill="#160906"/>
<path d="M52.8552 106.161L51.0528 115.124C49.5873 122.226 49.0027 127.793 49.0636 133.358L49.4575 138.706L100.33 128.62C100.33 128.62 99.1862 122.231 96.9027 108.424L52.8552 106.166L52.8552 106.161Z" fill="#0E0D19"/>
<path d="M97.7078 102.64L97.6722 108.097C97.6679 108.748 97.2137 109.311 96.577 109.451C94.1903 109.972 87.4511 111.001 72.309 110.672C52.2781 110.237 53.9765 108.802 53.9765 108.802L53.3817 104.02L97.7078 102.64Z" fill="black"/>
<path d="M61.2 104.187L61.1625 109.936C61.1619 110.034 61.1807 110.129 61.2192 110.212C61.3229 110.452 61.5637 110.622 61.8426 110.623L67.5763 110.661L67.573 111.17L60.7998 111.126C60.4214 111.123 60.1192 110.813 60.1217 110.435L60.1664 103.583C60.1689 103.205 60.4771 102.898 60.8535 102.901L67.6267 102.945L67.6228 103.542L61.8891 103.505C61.6687 103.503 61.4691 103.607 61.3432 103.77C61.2527 103.883 61.1991 104.027 61.1981 104.185L61.2 104.187Z" fill="#1E1E1E"/>
<path d="M64.412 40.1509L65.3658 37.1506L66.4102 40.8995L64.412 40.1509Z" fill="#532315"/>
<path d="M98.1503 66.1377L98.7867 102.181C98.7867 102.181 98.9206 103.78 97.462 104.933C96.0015 106.086 79.3965 107.271 73.4323 107.287C66.5456 107.304 46.2245 105.917 46.2245 105.917L36.0298 66.8571L98.1503 66.1396L98.1503 66.1377Z" fill="#161522"/>
<path d="M78.8242 32.3065L83.2251 32.1733L82.7175 34.9404L80.5989 35.0085L78.8242 32.3065Z" fill="#5F50C9"/>
<path d="M35.9143 66.9695L42.1573 55.0316C45.2738 49.0724 50.6934 44.652 57.1552 42.796L72.2204 38.4698L82.5855 36.2141L94.5557 39.6401C103.028 42.0639 105.454 47.1542 105.817 59.3362C105.817 59.3362 105.046 74.9658 101.113 77.5368C87.2885 86.5689 35.9143 66.9695 35.9143 66.9695Z" fill="#161522"/>
<path d="M101.683 75.3058C101.769 76.0985 101.376 77.2645 101.189 77.4896L101.187 77.4896C100.785 77.7523 100.353 77.9895 99.85 78.232L101.683 75.3058Z" fill="black"/>
<path d="M84.2915 36.8454C84.2915 36.8454 79.1984 29.8024 79.3288 21.1821L65.6952 27.57L65.0956 40.8441L67.3739 45.867L71.7649 43.3615L84.2914 36.8473L84.2915 36.8454Z" fill="#77402B"/>
<path d="M65.2678 36.5843C65.2678 36.5843 64.9092 36.8493 64.6054 37.3818C64.4061 37.7317 64.2295 38.1968 64.1945 38.776C64.1183 39.9909 59.3017 41.6802 57.652 42.2254C57.396 42.3095 57.3256 42.6368 57.5253 42.8196C58.0914 43.3344 59.2678 43.584 60.2294 43.5689C61.8912 43.5427 63.1121 42.3547 63.6011 42.4399C64.09 42.525 66.893 46.9485 66.893 46.9485L68.468 44.6919C68.468 44.6919 64.8385 41.4003 65.0884 39.2715C65.2846 37.6028 65.2698 36.5843 65.2698 36.5843L65.2678 36.5843Z" fill="#FFCCDE"/>
<path d="M66.4289 46.731C65.3806 48.0723 65.1292 48.3418 63.9748 53.0887C62.8204 57.8355 62.8063 59.9951 62.8063 59.9951L66.7809 60.0211C66.7809 60.0211 67.6121 51.9009 69.5274 49.4943C71.4447 47.0857 78.2111 42.8087 78.2111 42.8087L73.9788 42.5215L69.6522 43.5311C69.7253 43.3911 67.3887 45.5024 66.4269 46.731L66.4289 46.731Z" fill="#FFB3CE"/>
<path d="M103.466 73.7299C103.742 71.5487 103.525 67.1889 97.9469 65.3595C92.0831 63.4366 87.6425 65.7818 85.9303 66.945C85.9241 66.7031 85.9238 66.4534 85.9274 66.1978C87.9485 64.9234 92.3988 62.8787 98.1439 64.7618C102.579 66.217 103.847 69.2297 104.092 71.6465C103.904 72.375 103.697 73.0759 103.468 73.7299L103.466 73.7299Z" fill="#FFCCDE"/>
<path d="M1.3799 87.7324L1.28484 102.29L17.9869 116.721L18.1119 97.575L1.3799 87.7324Z" fill="#FFB3CE"/>
<path d="M18.1111 97.5733L79.1637 88.0699L79.0545 104.802L17.9861 116.719L18.1111 97.5733Z" fill="#FF99BD"/>
<path d="M18.1118 97.575L18.1525 91.3362L0.395508 81.9707L0.361266 87.2146L18.1118 97.575Z" fill="#FFB3CE"/>
<path d="M18.1527 91.336L80.2315 83.5659L80.2006 88.2966L18.1119 97.5747L18.1527 91.336Z" fill="#FF99BD"/>
<path d="M0.395819 81.9706C1.02982 81.9474 60.5877 77.3272 60.5877 77.3272L80.2296 83.5678L18.1528 91.3378L0.393867 81.9706L0.395819 81.9706Z" fill="#FFCCDE"/>
<path d="M79.1617 88.4517L18.1136 97.5727L18.1022 99.3186C18.1022 99.3186 61.9675 92.6526 69.313 92.57C76.6584 92.4873 79.1314 93.0927 79.1314 93.0927L79.1617 88.4497L79.1617 88.4517Z" fill="#660025"/>
<path d="M18.1131 97.6487L1.29982 87.7197L1.37216 88.8868L18.1002 99.3205L18.1131 97.6487Z" fill="#B20041"/>
<path d="M30.4459 87.8652C31.9838 88.0119 33.5269 87.6396 34.9756 87.1067C37.1085 86.3208 39.1092 85.177 40.8701 83.7351C41.4309 83.2744 41.988 82.7748 42.6722 82.5334C43.6985 82.1714 44.8493 82.456 45.8232 82.9423C46.7971 83.4285 47.6625 84.1073 48.6325 84.6033C50.7027 85.6586 53.1513 85.8112 55.4322 85.3696C56.2992 85.2016 57.2965 84.8024 57.4679 83.9373C57.5849 83.3528 57.2494 82.7517 56.7779 82.3877C56.3063 82.0237 55.7185 81.8501 55.1441 81.6942C53.7638 81.3203 52.3694 81.0049 50.9731 80.6953C48.0849 80.0541 45.1362 79.432 42.1895 79.7014C38.9149 80.0019 35.8536 81.3846 32.6996 82.3199C31.5467 82.6616 30.3708 82.9485 29.2753 83.4446C28.6592 83.7235 28.0679 84.0747 27.554 84.5161C27.2794 84.7523 27.0261 85.014 26.8097 85.3033C26.5362 85.6702 26.5259 85.758 26.8298 86.1111C27.7259 87.1588 29.0913 87.7354 30.4459 87.8652Z" fill="#6748A3"/>
<path d="M38.8483 83.9324L40.2949 83.7175C40.2949 83.7175 43.2084 84.6594 43.3252 84.6952C43.44 84.7331 52.6592 85.6284 52.5268 85.5865C52.3964 85.5467 43.1868 82.5932 43.1868 82.5932C43.1868 82.5932 40.6001 82.3793 40.5337 82.4003C40.4672 82.4213 38.8483 83.9305 38.8483 83.9305L38.8483 83.9324Z" fill="#AA7F2B"/>
<path d="M56.5345 75.8012C55.9889 74.5315 53.9777 74.296 51.3772 75.0086C50.0447 75.3744 44.7091 77.3938 43.4946 78.2033C42.905 78.5955 42.3288 79.0248 41.8825 79.5759C41.4361 80.1251 41.1255 80.8117 41.1345 81.52C41.1372 81.7073 41.1651 81.9065 41.2851 82.0516C41.3799 82.1673 41.5218 82.2346 41.6599 82.2921C42.3933 82.5934 43.1901 82.7176 43.9838 82.7306C45.0349 82.7492 46.0795 82.5785 47.1182 82.4078C49.3185 82.0457 51.5463 81.6759 53.5806 80.7645C54.4432 80.378 55.2812 79.8821 55.8808 79.1506C57.0073 77.7767 56.9994 76.887 56.5326 75.8032L56.5345 75.8012Z" fill="#D1A033"/>
<path d="M49.1217 79.3487C51.6303 78.6706 56.7274 77.3364 56.2004 75.3079C57.1962 76.0382 57.6972 78.1582 57.9308 79.4181C58.1569 80.6389 58.2046 81.9951 57.5114 83.0265C57.019 83.7587 56.2046 84.2314 55.3547 84.4638C54.5028 84.6962 53.6094 84.7138 52.7261 84.6944C49.487 84.6263 46.2588 84.098 43.166 83.1354C42.656 82.976 42.1403 82.801 41.7173 82.4783C41.1254 82.0257 40.7489 81.4379 41.4317 81.1147C42.1477 80.776 43.2302 80.7597 44.0115 80.5911C45.7243 80.22 47.4277 79.8058 49.1197 79.3506L49.1217 79.3487Z" fill="#F4BE38"/>
<path d="M30.9304 68.6585C31.9681 67.7465 33.885 68.395 35.9291 70.1545C36.9764 71.0548 40.9302 75.1698 41.6807 76.4214C42.0454 77.0285 42.3806 77.6648 42.5477 78.3526C42.7149 79.0404 42.7022 79.7934 42.3918 80.4293C42.3088 80.5985 42.1985 80.7636 42.0283 80.8444C41.8914 80.9079 41.7353 80.9088 41.5852 80.9C40.7936 80.8578 40.0209 80.6284 39.2975 80.2998C38.3388 79.8663 37.469 79.2636 36.605 78.6649C34.7722 77.3945 32.918 76.1045 31.4702 74.4075C30.8567 73.6895 30.3119 72.8802 30.0839 71.9637C29.6544 70.2402 30.0438 69.439 30.9304 68.6605L30.9304 68.6585Z" fill="#D1A033"/>
<path d="M36.1088 75.0406C34.1324 73.3519 30.0998 69.9601 31.4443 68.3536C30.2336 68.5856 28.869 70.2876 28.1191 71.3245C27.3909 72.3303 26.7668 73.5339 26.9518 74.7641C27.0827 75.637 27.6159 76.4131 28.285 76.9871C28.9541 77.5631 29.755 77.9625 30.5601 78.3228C33.516 79.6493 36.6579 80.5594 39.8652 81.0135C40.3932 81.0892 40.935 81.1513 41.4564 81.0415C42.1849 80.8883 42.7783 80.5176 42.2984 79.9311C41.7973 79.3172 40.8252 78.8407 40.1926 78.3507C38.8032 77.2823 37.4432 76.177 36.1107 75.0387L36.1088 75.0406Z" fill="#EFC335"/>
<path d="M25.95 78.9905C26.1754 77.6283 28.068 76.915 30.7648 76.9814C32.1455 77.0158 37.8106 77.6928 39.1824 78.1856C39.8498 78.424 40.5111 78.7034 41.0758 79.1305C41.6406 79.5575 42.1087 80.1478 42.27 80.8375C42.3137 81.0192 42.3319 81.2203 42.2508 81.3895C42.1856 81.5256 42.064 81.6243 41.9444 81.7133C41.3056 82.1812 40.5605 82.4943 39.7946 82.6981C38.7787 82.9684 37.723 83.0552 36.6751 83.1381C34.4525 83.3166 32.2007 83.4931 30.0072 83.0983C29.076 82.9303 28.1437 82.6511 27.3867 82.0862C25.9621 81.0234 25.7571 80.1598 25.95 78.9944L25.95 78.9905Z" fill="#D1A033"/>
<path d="M33.9991 80.6511C31.4016 80.5971 26.1323 80.5275 26.1557 78.4324C25.3655 79.3812 25.3883 81.5605 25.4638 82.8388C25.5376 84.0801 25.8176 85.4046 26.7386 86.2398C27.392 86.8332 28.2952 87.0947 29.1786 87.1161C30.06 87.1375 30.9331 86.9383 31.7849 86.7078C34.911 85.8621 37.919 84.5747 40.6877 82.8936C41.1439 82.6176 41.6023 82.3221 41.9365 81.9068C42.4025 81.3265 42.6272 80.6647 41.8852 80.5135C41.1099 80.3563 40.0552 80.603 39.2554 80.627C37.5036 80.6799 35.7502 80.688 33.9991 80.6511Z" fill="#F4BE38"/>
<path d="M40.0396 80.068C39.8858 80.6289 39.9696 81.2362 40.1845 81.776C40.3074 82.0832 40.4731 82.3808 40.7194 82.6029C41.303 83.1276 42.1749 83.1235 42.9592 83.0916C43.1581 83.0832 43.365 83.0728 43.5469 82.9881C43.8892 82.8304 44.0634 82.4511 44.1983 82.0989C44.3531 81.6941 44.4903 81.2794 44.5224 80.8465C44.5545 80.4155 44.4736 79.9624 44.2204 79.6115C43.7236 78.9254 42.6636 78.7722 41.874 78.7221C41.022 78.6697 40.2654 79.2442 40.0397 80.066L40.0396 80.068Z" fill="#EFC335"/>
<path d="M44.3929 79.7488C44.275 79.5861 44.1237 79.4525 43.9547 79.3441C43.9905 79.5335 43.999 79.7307 43.9841 79.9237C43.952 80.3547 43.8128 80.7713 43.66 81.1761C43.525 81.5283 43.3509 81.9076 43.0086 82.0653C42.8266 82.15 42.6218 82.1584 42.4208 82.1688C41.6931 82.1992 40.8876 82.2056 40.3091 81.7843C40.3244 81.8273 40.3398 81.8703 40.357 81.9134C40.4798 82.2205 40.6456 82.5181 40.8919 82.7402C41.4755 83.2649 42.3474 83.2609 43.1317 83.2289C43.3306 83.2205 43.5375 83.2101 43.7194 83.1255C44.0617 82.9677 44.2359 82.5884 44.3708 82.2362C44.5256 81.8314 44.6628 81.4167 44.6949 80.9838C44.727 80.5529 44.6461 80.0997 44.3929 79.7488Z" fill="#E0B036"/>
<path d="M40.9062 79.4244C40.7747 79.5503 40.6859 79.7117 40.6068 79.875C40.5001 80.0967 40.4068 80.3341 40.4072 80.58C40.4075 80.8258 40.5229 81.086 40.7406 81.1987C40.9933 81.3291 41.3432 81.2046 41.46 80.9439C41.5035 80.8447 41.516 80.7336 41.5478 80.6284C41.6435 80.3188 41.9318 80.0768 42.2538 80.038C42.4764 80.0102 42.7433 80.0568 42.8848 79.886C43.0205 79.723 42.9344 79.4591 42.7636 79.3331C42.2744 78.9748 41.3556 78.9981 40.9062 79.4244Z" fill="#F2D927"/>
<path opacity="0.39" d="M25.9977 80.6428C26.1159 81.9508 26.3356 83.2516 26.653 84.5257C26.7442 84.8911 26.8471 85.2644 27.0655 85.5722C27.3999 86.0406 27.9619 86.2979 28.5208 86.4284C28.7661 86.4866 29.0722 86.5023 29.2199 86.2964C29.3951 86.0498 29.1944 85.7207 29.0185 85.4757C28.632 84.9327 28.3434 84.3202 28.1721 83.6753C28.0655 83.2727 28.0039 82.843 28.1235 82.4439C28.2432 82.0447 28.581 81.6899 28.9946 81.6594C29.2756 81.6378 29.5498 81.7645 29.8326 81.7624C30.1154 81.7623 30.4407 81.5284 30.3567 81.2586C30.2841 81.026 29.988 80.9733 29.7463 80.9503C28.8789 80.8627 28.0106 80.6229 27.2331 80.2237C27.0095 80.109 26.6548 79.7692 26.3854 79.8065C25.995 79.8605 25.9704 80.3403 25.9977 80.639L25.9977 80.6428Z" fill="white"/>
<path opacity="0.39" d="M41.2628 70.4083C41.2271 70.8042 41.1932 71.2156 41.3311 71.5911C41.3599 71.6674 41.4003 71.7476 41.4742 71.7793C41.5657 71.8189 41.6772 71.7689 41.7381 71.6893C41.7991 71.6098 41.8193 71.5065 41.8375 71.4091C41.8901 71.1246 41.929 70.8361 41.9562 70.5495C42.0129 69.9353 41.3236 69.7552 41.2647 70.4103L41.2628 70.4083Z" fill="white"/>
<path opacity="0.39" d="M30.0347 70.2655C28.8828 71.3271 28.0603 72.742 27.7051 74.2692C27.6609 74.4602 27.636 74.6922 27.7834 74.8199C27.8998 74.9202 28.0832 74.9077 28.2144 74.8266C28.3456 74.7475 28.4362 74.6155 28.519 74.4853C28.9683 73.7664 29.3173 72.9004 30.0765 72.523C30.3876 72.369 30.7547 72.307 31.0117 72.0726C31.2844 71.8227 31.3729 71.4155 31.2973 71.0541C31.1705 70.4485 30.6508 69.6979 30.0347 70.2655Z" fill="white"/>
<path opacity="0.39" d="M54.0816 79.0142C54.4964 78.8199 54.9189 78.6217 55.3738 78.5564C55.5749 78.5265 55.7953 78.528 55.9583 78.65C56.2281 78.8507 56.2021 79.2505 56.2116 79.5862C56.2209 79.9628 56.3081 80.3379 56.4658 80.6823C56.5062 80.7704 56.5563 80.8624 56.6438 80.9039C56.7624 80.9632 56.9129 80.9057 56.9994 80.8029C57.084 80.7 57.118 80.5656 57.1384 80.435C57.2969 79.445 56.9309 78.4554 56.5703 77.5205C56.5205 77.3894 56.4551 77.2446 56.3247 77.1969C56.2469 77.1691 56.159 77.1822 56.077 77.1992C55.8465 77.2504 55.6255 77.3445 55.4238 77.47C55.2397 77.5859 55.073 77.7292 54.8986 77.8607C54.4772 78.176 54.0094 78.4226 53.5263 78.6302C53.143 78.7954 52.569 78.8814 52.2976 79.225C52.0301 79.5607 52.1594 79.784 52.587 79.7088C53.0771 79.6203 53.6316 79.2298 54.0835 79.0182L54.0816 79.0142Z" fill="white"/>
<path d="M59.5388 91.0715C59.5388 91.0715 62.4097 93.7572 62.0549 97.3134C61.7001 100.87 53.5385 108.263 54.1963 109.379C54.854 110.496 60.4253 108.53 60.4253 108.53L68.2571 100.579L66.0941 91.3388L59.5388 91.0735L59.5388 91.0715Z" fill="black" fill-opacity="0.2"/>
<path d="M101.663 75.3104L97.1567 82.6769C96.6245 83.5474 95.9291 84.3037 95.108 84.9051L74.7781 99.7962C74.3136 100.137 73.9189 100.551 73.6018 101.031C72.3017 103.005 68.7267 108.378 68.1707 108.71C67.4893 109.113 63.5449 108.951 62.3148 109.758C61.0867 110.567 60.6824 109.747 59.8664 109.879C59.0503 110.01 57.4197 109.726 57.4197 109.726C57.4197 109.726 55.1051 110.255 54.1505 110.384C53.1979 110.516 53.2068 109.154 53.891 108.614C54.5733 108.073 62.7866 100.235 63.2014 99.422C63.6144 98.6092 62.9579 95.2025 62.419 94.1104C61.8819 93.0202 58.8938 92.4563 57.5389 91.7666C56.1821 91.0788 56.7422 88.634 56.7422 88.634L61.2272 89.3423L65.8188 89.2631C66.5542 89.2484 67.2825 89.4229 67.9355 89.7647L68.7383 90.1855C70.2641 90.9856 72.1099 90.8533 73.4955 89.8322C75.3886 88.438 78.0514 86.2548 80.0337 83.751C83.4633 79.419 86.3416 75.9008 86.3416 75.9008L86.8165 70.3808C87.9198 69.5745 90.3209 68.3416 94.1628 68.9715C94.9148 69.0955 95.721 69.29 96.5831 69.5726C100.267 70.7829 101.397 72.8114 101.622 74.5044C101.657 74.7855 101.671 75.0548 101.665 75.3104L101.663 75.3104Z" fill="#77402B"/>
<path d="M101.684 75.3631L101.071 76.3014C101.142 75.3284 97.9326 71.8582 94.3064 70.145C90.6802 68.4317 86.8156 70.3808 86.8156 70.3808C87.917 69.5745 90.32 68.3416 94.1619 68.9715C94.914 69.0954 95.7182 69.288 96.5823 69.5726C100.266 70.7829 101.396 72.8114 101.621 74.5043C101.654 74.7621 101.685 75.1271 101.682 75.3631L101.684 75.3631Z" fill="#532315"/>
<path d="M67.2176 105.385L67.2178 105.354" stroke="#FF22B0" stroke-width="0.63133" stroke-miterlimit="10"/>
<path d="M67.2739 45.7594C67.2739 45.7594 69.144 42.5116 71.9133 42.5297C74.6827 42.5478 75.4255 41.0856 75.4255 41.0856L83.2226 32.1721C83.2226 32.1721 84.6854 34.2672 85.8099 35.2851C86.6029 36.0043 87.2876 36.5746 87.728 36.9306C88.0462 37.1882 88.1564 37.626 87.998 38.0034C87.6275 38.8789 86.7563 40.5881 84.8647 42.9383C83.8816 44.1609 83.05 44.8637 82.5699 45.2156C82.3426 45.3838 82.0248 45.3622 81.8213 45.1658C81.2011 44.5648 79.5727 43.3621 76.3016 43.1222C73.859 42.9424 72.9169 43.2523 71.7655 43.3598C70.2785 43.4984 67.2758 45.7594 67.2758 45.7594L67.2739 45.7594Z" fill="#FFCCDE"/>
<path d="M66.4367 52.9625C67.0097 52.9663 67.4771 52.5239 67.4807 51.9744C67.4843 51.4249 67.0227 50.9764 66.4497 50.9726C65.8766 50.9689 65.4092 51.4113 65.4056 51.9608C65.402 52.5103 65.8636 52.9588 66.4367 52.9625Z" fill="white"/>
<path d="M58.2773 7.12892L78.7802 7.26301L78.6618 25.3941C78.6273 30.6751 74.3127 34.935 69.0334 34.9005L67.6604 34.8915C62.3811 34.857 58.1225 30.541 58.157 25.26L58.2754 7.12891L58.2773 7.12892Z" fill="#77402B"/>
<path d="M78.7106 24.8107C79.9462 29.4366 76.5002 34.1801 72.5004 35.3187C69.9016 36.0587 67.7338 35.3246 66.5344 34.7217C67.1226 34.8329 67.7308 34.8915 68.349 34.8955C73.4703 34.929 77.7386 31.1994 78.5332 26.2961L78.7106 24.8107Z" fill="#532315"/>
<path d="M77.8324 12.9975C77.8324 12.9975 72.7025 14.275 70.8071 14.2294C68.9838 14.1843 65.4531 12.1908 60.8576 11.6711C60.7797 11.6608 60.7017 11.6525 60.6238 11.6442C59.8227 11.5628 59.0252 11.5323 58.2488 11.5643C58.0966 11.5691 57.9445 11.5798 57.7923 11.5905C57.5035 11.614 57.2302 11.6493 56.9704 11.7022L56.9713 11.5735C57.3624 11.4102 57.7925 11.2511 58.2519 11.0961C60.5935 10.3056 63.7122 9.68614 66.8248 10.0089C72.471 10.594 77.8324 12.9975 77.8324 12.9975Z" fill="#720029"/>
<path d="M58.2489 11.5645L58.216 16.6076C58.216 16.6076 55.4228 19.0319 53.7325 19.2218C52.0891 19.4062 48.9722 13.4548 56.2594 11.8812C56.4898 11.832 56.7225 11.7477 56.9705 11.7025C57.2302 11.6495 57.5035 11.6142 57.7923 11.5908C57.9426 11.58 58.0948 11.5693 58.2489 11.5645Z" fill="#330013"/>
<path d="M60.8569 11.6711C58.7301 12.6951 58.2317 14.0537 58.2317 14.0537L58.2479 11.5643C59.0244 11.5323 59.8219 11.5648 60.623 11.6442C60.7009 11.6525 60.7789 11.6608 60.8569 11.6711Z" fill="#330013"/>
<path d="M81.28 15.3932C81.28 15.3932 80.3067 14.2104 78.74 13.3964C78.4563 13.2482 78.1529 13.1136 77.8318 13.0003C77.8318 13.0003 72.4705 10.5968 66.8242 10.0117C63.7117 9.69085 60.5929 10.3104 58.2513 11.0988C57.792 11.2519 57.3638 11.413 56.9707 11.5762L56.9842 9.51419C56.99 8.63241 57.2764 7.77002 57.8076 7.06336C59.3678 4.98413 61.7812 0.680565 67.7994 0.448746C72.9047 0.249974 79.168 3.7109 79.9724 6.26992C80.7748 8.82893 81.28 15.3951 81.28 15.3951L81.28 15.3932Z" fill="#80002E"/>
<path d="M79.3211 22.2158C80.7805 22.2253 81.9755 20.4172 81.9901 18.1773C82.0048 15.9373 80.8335 14.1137 79.374 14.1042C77.9146 14.0947 76.7196 15.9028 76.705 18.1427C76.6903 20.3827 77.8616 22.2063 79.3211 22.2158Z" fill="#77402B"/>
<path d="M88.1048 49.5745C88.1048 49.5745 84.272 68.1535 86.7628 70.8036L86.6136 72.4394C86.6136 72.4394 84.8023 69.9753 84.9634 66.8061C85.1558 63.0225 85.6871 58.1272 86.5812 53.5211C86.8355 52.2098 87.2222 50.9305 87.9512 49.8116L88.1068 49.5746L88.1048 49.5745Z" fill="black"/>
<path d="M9.50355 68.5394C9.94436 68.5345 54.7581 65.9677 54.7581 65.9677L68.3255 69.9992L25.161 73.8682L9.50355 68.5394Z" fill="#FFCCDE"/>
<path d="M65.8037 81.3316L70.346 83.1327L24.928 89.8372L8.9927 81.3442L31.488 79.5034L65.8037 81.3316Z" fill="#0C513F"/>
<path d="M10.1294 72.0345L9.85822 81.3074L24.7833 89.2009L25.0694 77.6377L10.1294 72.0345Z" fill="#FFB3CE"/>
<path d="M25.069 77.6377L67.5383 72.7067L67.289 82.8127L24.7829 89.2007L25.069 77.6377Z" fill="#FF99BD"/>
<path d="M25.0693 77.6378L25.1622 73.8693L9.50461 68.5403L9.42249 71.8583L25.0693 77.6378Z" fill="#FFB3CE"/>
<path d="M25.1621 73.8694L68.3265 69.9984L68.2552 72.856L25.0692 77.6378L25.1621 73.8694Z" fill="#FF99BD"/>
<path d="M67.5337 72.9368L25.0698 77.6375L25.0434 78.6928C25.0434 78.6928 55.5573 75.2483 60.6551 75.2953C65.7529 75.3423 67.4647 75.7417 67.4647 75.7417L67.5337 72.9368Z" fill="#660025"/>
<path d="M25.0696 77.6383L10.1297 72.0351L10.1115 72.7315L25.0433 78.6917L25.0696 77.6383Z" fill="#B30041"/>
</g>
<defs>
<clipPath id="clip0_2921_10623">
<rect width="106.265" height="127" fill="white"/>
</clipPath>
</defs>
</svg>