<svg xmlns="http://www.w3.org/2000/svg" width="623" height="800" viewBox="0 0 623 800" fill="none">
<g clip-path="url(#clip0_3817_24644)">
<path d="M591.168 13.4825L404.676 126.489L532.034 144.981C533.073 145.134 534.852 144.689 535.889 144.014L698.56 38.7851C699.668 38.0655 699.748 37.381 698.747 37.1638L591.177 13.4803L591.168 13.4825Z" fill="#271386"/>
<path d="M695.757 38.565L512.815 77.7896L533.422 143.545C533.629 144.21 536.086 143.892 537.437 143.02L697.265 39.6261C698.584 38.7707 697.696 38.1425 695.757 38.565Z" fill="#271386"/>
<g style="mix-blend-mode:multiply">
<path d="M412.066 127.611L421.526 129.033L566.821 94.0301C581.904 90.3959 594.242 82.8232 593.849 77.4383L592.686 61.4158L412.066 127.611Z" fill="#9076F4"/>
</g>
<g style="mix-blend-mode:multiply">
<path d="M525.702 76.353L525.233 72.561L694.744 38.7684L525.702 76.353Z" fill="#9076F4"/>
</g>
<g style="mix-blend-mode:multiply">
<path d="M517.507 89.179L506.078 92.8714L533.176 142.723L517.507 89.179Z" fill="#9076F4"/>
</g>
<path d="M600.122 15.4161L590.559 75.0959C589.639 80.8254 577.017 88.252 561.878 91.9826L416.032 127.927L404.675 126.488L591.168 13.4823L600.122 15.4161Z" fill="#8C77EC"/>
<path d="M536.312 114.482L538.538 120.735C539.46 123.331 542.426 124.562 544.919 123.38L550.911 120.529C554.866 118.649 558.991 122.773 557.11 126.728L554.26 132.721C553.077 135.208 554.302 138.18 556.904 139.102L563.158 141.328C567.282 142.796 567.282 148.624 563.158 150.092L556.904 152.318C554.308 153.24 553.077 156.206 554.26 158.699L557.11 164.692C558.991 168.647 554.866 172.771 550.911 170.891L544.919 168.04C542.432 166.857 539.46 168.083 538.538 170.685L536.312 176.938C534.844 181.063 529.015 181.063 527.547 176.938L525.321 170.685C524.399 168.089 521.433 166.857 518.94 168.04L512.947 170.891C508.992 172.771 504.868 168.647 506.748 164.692L509.599 158.699C510.782 156.213 509.557 153.24 506.954 152.318L500.701 150.092C496.576 148.624 496.576 142.796 500.701 141.328L506.954 139.102C509.55 138.18 510.782 135.214 509.599 132.721L506.748 126.728C504.868 122.773 508.992 118.649 512.947 120.529L518.94 123.38C521.427 124.562 524.399 123.337 525.321 120.735L527.547 114.482C529.015 110.357 534.844 110.357 536.312 114.482Z" fill="#02C27F"/>
<path d="M515.75 142.799H520.588V143.755H514.379V143.017L519.125 136.128H514.655V135.172H520.484V135.91L515.75 142.799ZM523.259 143.755V135.172H528.834V136.128H524.353V138.974H528.604V139.93H524.353V142.799H528.834V143.755H523.259ZM531.855 143.755V135.172H534.919C536.671 135.172 537.869 136.209 537.869 137.822C537.869 139.008 537.224 139.896 536.152 140.264L538.157 143.755H536.889L535.023 140.46H532.95V143.755H531.855ZM532.95 139.504H534.919C536.014 139.504 536.74 138.824 536.74 137.81C536.74 136.808 536.014 136.128 534.919 136.128H532.95V139.504ZM544.833 143.893C542.414 143.893 540.49 142.038 540.49 139.458C540.49 136.889 542.414 135.034 544.833 135.034C547.264 135.034 549.188 136.9 549.188 139.458C549.188 142.027 547.264 143.893 544.833 143.893ZM544.833 142.879C546.734 142.879 548.093 141.37 548.093 139.458C548.093 137.568 546.745 136.048 544.833 136.048C542.932 136.048 541.584 137.568 541.584 139.458C541.584 141.37 542.944 142.879 544.833 142.879ZM516.372 156.755V148.172H521.971V149.128H517.467V152.02H521.671V152.976H517.467V156.755H516.372ZM524.755 156.755V148.172H530.331V149.128H525.849V151.974H530.1V152.93H525.849V155.799H530.331V156.755H524.755ZM533.351 156.755V148.172H538.927V149.128H534.446V151.974H538.697V152.93H534.446V155.799H538.927V156.755H533.351ZM544.943 156.893C543.261 156.893 541.959 155.868 541.545 154.566L542.512 154.14C542.916 155.315 543.803 155.937 544.943 155.937C546.026 155.937 546.74 155.384 546.74 154.589C546.74 153.863 546.326 153.472 545.473 153.218L543.872 152.734C542.501 152.331 541.81 151.467 541.81 150.407C541.81 149.013 542.962 148.034 544.609 148.034C546.187 148.034 547.374 148.967 547.766 150.108L546.809 150.557C546.452 149.543 545.669 148.99 544.621 148.99C543.584 148.99 542.904 149.532 542.904 150.338C542.904 150.995 543.353 151.502 544.194 151.743L545.726 152.204C547.132 152.631 547.835 153.356 547.835 154.508C547.835 155.925 546.66 156.893 544.943 156.893Z" fill="black"/>
<path d="M517.225 515.203L731.997 434L652.148 594.126C650.973 596.475 648.654 598.048 646.036 598.267L371.89 620.991C370.119 621.14 369.292 618.851 370.746 617.836L517.215 515.203H517.225Z" fill="#271386"/>
<g style="mix-blend-mode:multiply">
<path d="M544.74 554.361L559.193 545.881L645.9 596.157L633.368 593.967L544.74 554.361Z" fill="#9076F4"/>
</g>
<path d="M373.245 618.653L547.674 549.932L645.898 596.157C646.923 596.635 646.654 598.208 645.519 598.298L373.742 620.823C372.448 620.932 372.02 619.121 373.235 618.643L373.245 618.653Z" fill="#271386"/>
<g style="mix-blend-mode:multiply">
<path d="M710.526 447.009L725.835 446.313L720.758 456.515L550.878 584.351C542.367 590.901 522.898 592.035 517.533 577.533L511.879 563.617L710.526 447.009Z" fill="#9076F4"/>
</g>
<path d="M517.228 515.203L504.856 523.723L510.32 559.775C514.66 578.15 536.429 586.033 551.529 574.686L725.62 446.78L732 434L517.228 515.203Z" fill="#8C77EC"/>
<path d="M502.065 549.766C526.287 549.766 545.923 530.13 545.923 505.908C545.923 481.686 526.287 462.05 502.065 462.05C477.843 462.05 458.207 481.686 458.207 505.908C458.207 530.13 477.843 549.766 502.065 549.766Z" fill="#02C27F"/>
<path d="M469.946 497.721V489.183H472.995C474.737 489.183 475.929 490.214 475.929 491.819C475.929 492.999 475.287 493.882 474.221 494.248L476.216 497.721H474.955L473.098 494.443H471.035V497.721H469.946ZM471.035 493.492H472.995C474.084 493.492 474.806 492.816 474.806 491.807C474.806 490.81 474.084 490.134 472.995 490.134H471.035V493.492ZM479.047 497.721V489.183H484.595V490.134H480.136V492.965H484.365V493.916H480.136V496.77H484.595V497.721H479.047ZM487.6 497.721V489.183H490.408C492.987 489.183 494.66 490.867 494.66 493.446C494.66 496.014 492.987 497.721 490.408 497.721H487.6ZM488.689 496.77H490.408C492.31 496.77 493.537 495.452 493.537 493.446C493.537 491.44 492.299 490.134 490.408 490.134H488.689V496.77ZM502.765 489.183H503.865V494.936C503.865 496.678 502.628 497.859 500.736 497.859C498.845 497.859 497.607 496.69 497.607 494.936V489.183H498.708V494.936C498.708 496.071 499.567 496.896 500.736 496.896C501.894 496.896 502.765 496.071 502.765 494.936V489.183ZM511.008 497.859C508.59 497.859 506.814 496.002 506.814 493.458C506.814 490.902 508.579 489.045 511.008 489.045C512.762 489.045 514.046 490.1 514.481 491.211L513.507 491.681C513.106 490.684 512.212 490.008 511.008 490.008C509.186 490.008 507.902 491.429 507.902 493.458C507.902 495.486 509.186 496.896 511.008 496.896C512.212 496.896 513.106 496.231 513.507 495.234L514.481 495.704C514.046 496.816 512.762 497.859 511.008 497.859ZM517.365 497.721V489.183H522.912V490.134H518.454V492.965H522.683V493.916H518.454V496.77H522.912V497.721H517.365ZM525.918 497.721V489.183H528.726C531.305 489.183 532.978 490.867 532.978 493.446C532.978 496.014 531.305 497.721 528.726 497.721H525.918ZM527.007 496.77H528.726C530.628 496.77 531.855 495.452 531.855 493.446C531.855 491.44 530.617 490.134 528.726 490.134H527.007V496.77ZM476.586 510.859C474.913 510.859 473.618 509.839 473.205 508.544L474.168 508.12C474.569 509.289 475.452 509.908 476.586 509.908C477.664 509.908 478.374 509.357 478.374 508.567C478.374 507.844 477.962 507.455 477.114 507.203L475.52 506.721C474.157 506.32 473.469 505.461 473.469 504.406C473.469 503.019 474.615 502.045 476.254 502.045C477.824 502.045 479.005 502.973 479.394 504.108L478.443 504.555C478.088 503.546 477.308 502.996 476.265 502.996C475.234 502.996 474.558 503.535 474.558 504.337C474.558 504.991 475.005 505.495 475.841 505.736L477.366 506.194C478.764 506.618 479.463 507.34 479.463 508.486C479.463 509.896 478.294 510.859 476.586 510.859ZM482.349 510.721V502.183H487.896V503.134H483.438V505.965H487.667V506.916H483.438V509.77H487.896V510.721H482.349ZM490.902 510.721V502.183H493.95C495.693 502.183 496.885 503.214 496.885 504.819C496.885 505.999 496.243 506.882 495.177 507.248L497.171 510.721H495.91L494.054 507.443H491.991V510.721H490.902ZM491.991 506.492H493.95C495.039 506.492 495.761 505.816 495.761 504.807C495.761 503.81 495.039 503.134 493.95 503.134H491.991V506.492ZM505.361 502.183H506.53L503.481 510.721H502.197L499.148 502.183H500.318L502.839 509.483L505.361 502.183ZM509.126 510.721V502.183H510.215V510.721H509.126ZM517.356 510.859C514.938 510.859 513.161 509.002 513.161 506.458C513.161 503.902 514.926 502.045 517.356 502.045C519.11 502.045 520.393 503.1 520.829 504.211L519.855 504.681C519.453 503.684 518.56 503.008 517.356 503.008C515.534 503.008 514.25 504.429 514.25 506.458C514.25 508.486 515.534 509.896 517.356 509.896C518.56 509.896 519.453 509.231 519.855 508.234L520.829 508.704C520.393 509.816 519.11 510.859 517.356 510.859ZM523.713 510.721V502.183H529.26V503.134H524.802V505.965H529.031V506.916H524.802V509.77H529.26V510.721H523.713ZM478.915 523.859C476.497 523.859 474.72 522.002 474.72 519.458C474.72 516.902 476.485 515.045 478.915 515.045C480.669 515.045 481.952 516.1 482.388 517.211L481.414 517.681C481.013 516.684 480.119 516.008 478.915 516.008C477.093 516.008 475.809 517.429 475.809 519.458C475.809 521.486 477.093 522.896 478.915 522.896C480.119 522.896 481.013 522.231 481.414 521.234L482.388 521.704C481.952 522.816 480.669 523.859 478.915 523.859ZM485.272 523.721V515.183H486.361V519.171H490.693V515.183H491.782V523.721H490.693V520.122H486.361V523.721H485.272ZM498.724 515.183L501.819 523.721H500.673L499.962 521.681H496.237L495.527 523.721H494.38L497.475 515.183H498.724ZM496.57 520.73H499.63L498.105 516.363L496.57 520.73ZM504.425 523.721V515.183H507.474C509.216 515.183 510.408 516.214 510.408 517.819C510.408 518.999 509.766 519.882 508.7 520.248L510.694 523.721H509.434L507.577 520.443H505.514V523.721H504.425ZM505.514 519.492H507.474C508.563 519.492 509.285 518.816 509.285 517.807C509.285 516.81 508.563 516.134 507.474 516.134H505.514V519.492ZM517.325 523.859C514.85 523.859 513.016 521.968 513.016 519.458C513.016 516.948 514.827 515.045 517.211 515.045C518.827 515.045 520.19 515.939 520.683 517.211L519.709 517.681C519.285 516.638 518.38 516.008 517.211 516.008C515.388 516.008 514.105 517.44 514.105 519.458C514.105 521.486 515.411 522.896 517.325 522.896C518.517 522.896 519.503 522.346 519.881 521.452V520.191H517.314V519.24H520.913V521.567C520.431 522.93 519.056 523.859 517.325 523.859ZM523.802 523.721V515.183H529.35V516.134H524.891V518.965H529.12V519.916H524.891V522.77H529.35V523.721H523.802Z" fill="black"/>
<path d="M-162 688.663L105.386 675.018L315.342 716.74C316.2 716.914 316.323 718.098 315.516 718.435L19.8287 842.13C18.7563 842.579 17.5306 842.385 16.6523 841.629L-161.99 688.663H-162Z" fill="#271386"/>
<g style="mix-blend-mode:multiply">
<path d="M65.0854 731.508L20.9023 838.851L72.6024 750.495L65.0854 731.508Z" fill="#9076F4"/>
</g>
<g style="mix-blend-mode:multiply">
<path d="M117.121 708.62L300.563 720.008L118.071 723.164L117.121 708.62Z" fill="#9076F4"/>
</g>
<path d="M86.7042 716.494L20.1641 840.178C19.7453 840.965 20.542 841.833 21.3591 841.496L313.482 719.293C313.931 719.109 313.799 718.435 313.308 718.425L86.7042 716.494Z" fill="#271386"/>
<g style="mix-blend-mode:multiply">
<path d="M118.735 677.675L123.249 678.574L130.735 738.843C132.706 756.103 116.171 768.39 99.4006 763.835L59.6094 753.019L118.735 677.685V677.675Z" fill="#9076F4"/>
</g>
<path d="M-149.152 699.737L81.7413 758.698C100.687 763.54 125.883 757.371 125.883 737.812L119.092 677.727L105.692 675.041L105.161 675L-161.317 687.95C-161.929 687.981 -162.195 688.747 -161.725 689.145L-149.152 699.737Z" fill="#8C77EC"/>
<path d="M244.868 761.554L239.959 739.949C234.536 716.081 249.49 692.343 273.351 686.921C297.213 681.5 320.957 696.452 326.379 720.314L331.288 741.919L244.868 761.554Z" fill="#02C27F"/>
<path d="M263.42 724.418L261.231 714.787L267.514 713.36L267.758 714.433L262.703 715.581L263.44 718.826L268.159 717.754L268.403 718.827L263.684 719.899L264.648 724.139L263.42 724.418ZM272.826 722.281L270.638 712.65L274.076 711.869C276.041 711.422 277.65 712.28 278.061 714.09C278.364 715.422 277.866 716.581 276.758 717.268L279.897 720.674L278.475 720.997L275.541 717.776L273.214 718.305L274.054 722.002L272.826 722.281ZM272.97 717.232L275.181 716.729C276.409 716.45 277.05 715.503 276.791 714.365C276.536 713.24 275.548 712.663 274.32 712.942L272.11 713.444L272.97 717.232ZM283.091 719.948L280.902 710.318L287.159 708.896L287.403 709.969L282.374 711.112L283.1 714.305L287.87 713.221L288.114 714.294L283.344 715.378L284.075 718.596L289.103 717.454L289.347 718.527L283.091 719.948ZM292.737 717.757L290.549 708.126L296.805 706.705L297.049 707.778L292.02 708.92L292.746 712.113L297.516 711.029L297.76 712.102L292.99 713.186L293.721 716.405L298.75 715.262L298.993 716.335L292.737 717.757ZM249.193 744.058L247.005 734.427L250.172 733.708C253.081 733.047 255.4 734.518 256.061 737.427C256.719 740.323 255.269 742.677 252.36 743.338L249.193 744.058ZM250.178 742.706L252.117 742.265C254.263 741.778 255.308 739.977 254.794 737.715C254.28 735.453 252.549 734.296 250.416 734.781L248.477 735.221L250.178 742.706ZM260.481 741.493L258.293 731.863L264.549 730.441L264.793 731.514L259.764 732.657L260.49 735.85L265.26 734.766L265.504 735.839L260.734 736.923L261.465 740.141L266.493 738.999L266.737 740.072L260.481 741.493ZM270.127 739.302L267.939 729.671L269.167 729.392L271.111 737.95L275.39 736.978L275.634 738.05L270.127 739.302ZM278.763 737.339L276.575 727.709L277.803 727.43L279.991 737.06L278.763 737.339ZM287.745 725.171L289.063 724.872L287.813 735.283L286.365 735.612L280.738 726.763L282.057 726.463L286.772 734.052L287.745 725.171ZM294.18 733.837L291.992 724.206L298.248 722.785L298.492 723.858L293.464 725L294.189 728.193L298.959 727.109L299.203 728.182L294.433 729.266L295.164 732.485L300.193 731.342L300.436 732.415L294.18 733.837ZM303.826 731.645L301.638 722.015L305.076 721.233C307.041 720.787 308.65 721.645 309.061 723.455C309.364 724.786 308.866 725.946 307.758 726.633L310.897 730.038L309.475 730.362L306.541 727.14L304.214 727.669L305.054 731.366L303.826 731.645ZM303.97 726.596L306.181 726.094C307.409 725.815 308.05 724.867 307.791 723.729C307.536 722.605 306.548 722.027 305.32 722.306L303.11 722.808L303.97 726.596ZM317.215 718.475L318.572 718.167L316.434 724.131L317.438 728.552L316.21 728.831L315.206 724.41L310.674 719.961L312.031 719.653L315.552 723.122L317.215 718.475Z" fill="black"/>
<path d="M86.1074 571.215C91.1373 571.215 95.2149 567.137 95.2149 562.107C95.2149 557.078 91.1373 553 86.1074 553C81.0775 553 77 557.078 77 562.107C77 567.137 81.0775 571.215 86.1074 571.215Z" fill="#271386"/>
<path d="M453.554 373.107C456.069 373.107 458.107 371.069 458.107 368.554C458.107 366.039 456.069 364 453.554 364C451.039 364 449 366.039 449 368.554C449 371.069 451.039 373.107 453.554 373.107Z" fill="#5A34EC"/>
<path d="M565.554 673.107C568.069 673.107 570.107 671.069 570.107 668.554C570.107 666.039 568.069 664 565.554 664C563.039 664 561 666.039 561 668.554C561 671.069 563.039 673.107 565.554 673.107Z" fill="#5A34EC"/>
<path d="M311.101 78.4369C314.243 78.4369 316.79 75.8899 316.79 72.7481C316.79 69.6063 314.243 67.0593 311.101 67.0593C307.959 67.0593 305.412 69.6063 305.412 72.7481C305.412 75.8899 307.959 78.4369 311.101 78.4369Z" fill="#9076F4"/>
<path d="M287.689 607.378C290.831 607.378 293.378 604.831 293.378 601.689C293.378 598.547 290.831 596 287.689 596C284.547 596 282 598.547 282 601.689C282 604.831 284.547 607.378 287.689 607.378Z" fill="#9076F4"/>
<path d="M36.6889 315.378C39.8307 315.378 42.3776 312.831 42.3776 309.689C42.3776 306.547 39.8307 304 36.6889 304C33.5471 304 31 306.547 31 309.689C31 312.831 33.5471 315.378 36.6889 315.378Z" fill="#9076F4"/>
<path d="M589.689 434.378C592.831 434.378 595.378 431.831 595.378 428.689C595.378 425.547 592.831 423 589.689 423C586.547 423 584 425.547 584 428.689C584 431.831 586.547 434.378 589.689 434.378Z" fill="#9076F4"/>
<path d="M463.689 746.378C466.831 746.378 469.378 743.831 469.378 740.689C469.378 737.547 466.831 735 463.689 735C460.547 735 458 737.547 458 740.689C458 743.831 460.547 746.378 463.689 746.378Z" fill="#9076F4"/>
<path d="M389.107 487.215C394.137 487.215 398.215 483.137 398.215 478.107C398.215 473.078 394.137 469 389.107 469C384.078 469 380 473.078 380 478.107C380 483.137 384.078 487.215 389.107 487.215Z" fill="#9076F4"/>
</g>
<defs>
<clipPath id="clip0_3817_24644">
<rect width="623" height="800" rx="24" fill="white"/>
</clipPath>
</defs>
</svg>