<svg xmlns="http://www.w3.org/2000/svg" width="287" height="354" viewBox="0 0 287 354" fill="none">
<g clip-path="url(#clip0_2921_10920)">
<g style="mix-blend-mode:color">
<path d="M209.729 334.187L112.8 347.557L499.221 353.458V322.01L209.729 334.187Z" fill="#FFB3CE"/>
</g>
<path d="M27.3344 96.6088V143.342C27.3344 144.207 28.0345 144.913 28.905 144.913H177.518C178.382 144.913 179.088 144.213 179.088 143.342V98.9647C179.088 98.1672 178.492 97.4976 177.7 97.4063L134.346 92.3476C134.273 92.3415 134.199 92.3354 134.12 92.3354L28.8624 95.0322C28.0101 95.0565 27.3344 95.7505 27.3344 96.6028V96.6088Z" fill="#00533E"/>
<path d="M1.91956 190.259L2.07783 194.252H174.012L194.441 187.66L174.511 184.038H22.5073L1.91956 190.259Z" fill="#5A34EC"/>
<path d="M1.40766 156.132L43.2832 143.714C43.3867 143.683 43.4901 143.665 43.5997 143.665H193.333C193.947 143.665 194.44 144.164 194.44 144.773V186.545C194.44 187.16 193.941 187.653 193.333 187.653H44.7685C44.7137 187.653 44.6528 187.653 44.5981 187.665L3.30085 194.057C2.64341 194.16 2.04684 193.667 2.02249 193.004L0.610204 157.234C0.591941 156.729 0.914568 156.272 1.40156 156.126L1.40766 156.132Z" fill="#DBD2FC"/>
<path d="M43.8858 143.672L44.7685 187.66L3.30084 194.064C2.64948 194.168 2.04682 193.675 2.02247 193.011L0.610191 157.241C0.591929 156.736 0.920649 156.28 1.40764 156.133L43.2831 143.715C43.3866 143.685 43.4901 143.672 43.5997 143.672H43.8858Z" fill="#9076F4"/>
<path d="M21.8744 150.065L23.3537 167.743L34.7615 165.935V146.242L21.8744 150.065Z" fill="white"/>
<path d="M194.442 144.78V177.08L179.236 143.672H193.334C193.943 143.672 194.442 144.172 194.442 144.78Z" fill="#D1C8FC"/>
<path d="M25.1327 193.497L31.6828 339.924C31.7376 341.215 32.7603 342.25 34.0448 342.335L113.431 347.546C113.565 347.552 113.705 347.552 113.839 347.54L228.058 336.582C229.33 336.461 230.31 335.414 230.346 334.135L234.407 189.528C234.449 188.085 233.275 186.898 231.826 186.929L27.5981 190.855C26.1737 190.879 25.0536 192.079 25.1206 193.497H25.1327Z" fill="#FA0050"/>
<path d="M234.413 189.528L230.353 334.141C230.316 335.414 229.336 336.467 228.064 336.588L113.839 347.546C113.772 347.552 113.705 347.558 113.638 347.558C113.608 346.499 110.217 221.998 109.06 189.291L231.838 186.929C233.281 186.898 234.456 188.085 234.413 189.528Z" fill="#FFAECF"/>
<path d="M166.817 187.66V210.981H181.427V187.897L166.817 187.66Z" fill="white"/>
<path d="M234.412 189.528L232.16 269.675L206.83 187.41L231.837 186.929C233.28 186.898 234.455 188.085 234.412 189.528Z" fill="#FF9FCB"/>
<path d="M139.903 34.7487L196.316 0.330322C197.375 -0.314947 198.757 0.0137746 199.402 1.0669L390.511 310.674C391.181 311.764 390.816 313.188 389.702 313.815L331.847 346.487C330.793 347.083 329.454 346.736 328.821 345.707L139.161 37.8533C138.509 36.7941 138.838 35.4001 139.903 34.7487Z" fill="#FA0050"/>
<path d="M155.615 25.1686L171.857 47.4729L188.542 37.9339L175.558 12.9998L155.615 25.1686Z" fill="white"/>
</g>
<defs>
<clipPath id="clip0_2921_10920">
<rect width="310.161" height="354" fill="white" transform="translate(0.610352)"/>
</clipPath>
</defs>
</svg>