<svg xmlns="http://www.w3.org/2000/svg" width="51" height="51" viewBox="0 0 51 51" fill="none">
<path d="M26.6808 50.155C40.112 50.155 51.0002 39.2668 51.0002 25.8356C51.0002 12.4043 40.112 1.51611 26.6808 1.51611C13.2495 1.51611 2.36133 12.4043 2.36133 25.8356C2.36133 39.2668 13.2495 50.155 26.6808 50.155Z" fill="black"/>
<path d="M24.3195 48.6389C37.7507 48.6389 48.6389 37.7507 48.6389 24.3195C48.6389 10.8882 37.7507 0 24.3195 0C10.8882 0 0 10.8882 0 24.3195C0 37.7507 10.8882 48.6389 24.3195 48.6389Z" fill="#8C77EC"/>
<path d="M44.1199 10.1975L9.97185 43.9584L9.96653 43.9552C8.60073 42.9553 7.34237 41.815 6.21484 40.5577L40.7629 6.4043C42.0095 7.54778 43.1349 8.8189 44.1199 10.1985V10.1975Z" fill="#8C77EC"/>
<path d="M24.3216 44.2212C35.312 44.2212 44.2214 35.3117 44.2214 24.3214C44.2214 13.3311 35.312 4.42163 24.3216 4.42163C13.3313 4.42163 4.42188 13.3311 4.42188 24.3214C4.42188 35.3117 13.3313 44.2212 24.3216 44.2212Z" fill="#6656DB"/>
<path d="M25.4549 29.7577L19.6524 36.8036C19.3418 37.1823 19.3673 37.7344 19.713 38.0822C20.1949 38.5683 20.865 39.1565 21.2894 39.1651C22.0128 39.181 22.6914 38.095 22.6914 38.095L28.1386 30.9448L25.456 29.7566L25.4549 29.7577Z" fill="#271386"/>
<path d="M25.7779 29.363L25.1992 30.0693C25.1992 30.0693 25.8417 30.2704 26.6203 30.6661C27.399 31.0618 27.7776 31.4181 27.7776 31.4181L28.3637 30.665L25.7789 29.3641L25.7779 29.363Z" fill="black"/>
<path d="M20.1182 12.2115C19.9969 12.1509 21.2095 15.3622 23.7316 17.5471C26.2547 19.7319 29.3586 21.7413 29.3586 21.7413L35.1792 24.7611C35.1792 24.7611 38.3713 26.0269 36.9853 29.5595C35.4025 33.592 31.3743 31.2189 31.3743 31.2189L26.0653 28.7862C26.0653 28.7862 21.5446 26.7651 17.7504 26.8002L13.9551 26.8343C13.9551 26.8343 16.6654 25.1387 18.479 20.6382C20.2926 16.1387 20.1182 12.2115 20.1182 12.2115Z" fill="#DDD7F9"/>
<path d="M36.9851 29.5568C35.4023 33.5893 31.374 31.2162 31.374 31.2162L30.4082 30.7726C30.6231 30.7279 32.4165 30.2939 33.5429 28.3601C34.3854 26.9145 34.0482 24.6659 34.0482 24.6659C34.0482 24.6659 34.0503 24.6605 34.0546 24.6488C34.0546 24.6488 34.2248 24.5318 35.4342 24.8829C36.1628 25.2764 38.1264 26.6475 36.984 29.5568H36.9851Z" fill="#271386"/>
<path d="M20.1216 12.2816C20.1088 12.2306 20.1078 12.2061 20.1195 12.2114C20.1195 12.2114 20.1205 12.2359 20.1216 12.2816Z" fill="#CCF3E5"/>
<path d="M31.5575 31.2568C31.5927 31.2717 31.6012 31.3175 31.5746 31.3451C31.4129 31.51 30.9204 31.978 30.5279 31.978C30.0524 31.978 29.2791 31.6472 29.2791 31.6472C29.2791 31.6472 28.8642 31.6834 28.7143 31.3866C28.6834 31.326 28.6877 31.2515 28.7207 31.1919L29.2536 30.2229L31.5575 31.2568Z" fill="#271386"/>
<path d="M23.9316 28.7102L23.9806 29.2442L29.3193 31.4694C29.3193 31.4694 29.6469 31.5418 30.0086 31.2258C30.3702 30.9099 30.4383 30.7514 30.4383 30.7514L25.2708 28.4155L23.9327 28.7091L23.9316 28.7102Z" fill="#DDD7F9"/>
<path d="M23.2661 27.7642C23.2661 27.7642 23.2235 29.1427 23.9787 29.2438C24.734 29.3438 25.2882 28.4237 25.2882 28.4237L23.2661 27.7642Z" fill="#C3BDEF"/>
<path d="M29.1186 21.9765L34.1159 24.6836L35.202 25.1197C35.202 25.1197 35.8519 24.4081 35.2222 23.3157L29.0176 19.9512L29.1176 21.9765H29.1186Z" fill="#DDD7F9"/>
<path d="M35.4334 24.8844C35.41 24.9653 35.3845 25.0355 35.36 25.095C35.3111 25.212 35.1707 25.2599 35.059 25.1993L34.0527 24.6504C34.0698 24.6068 34.1219 24.4749 34.2038 24.2547C34.2506 24.1292 34.308 23.9728 34.374 23.7877C34.5112 23.4016 34.3282 22.9921 34.1878 22.7549L35.2196 23.3144C35.5855 23.9484 35.5366 24.5185 35.4334 24.8834V24.8844Z" fill="#271386"/>
<path d="M27.707 20.6157C27.707 20.6157 28.4878 19.5711 29.0111 19.9519C29.5345 20.3328 29.1388 21.99 29.1388 21.99L27.707 20.6168V20.6157Z" fill="#C3BDEF"/>
<path opacity="0.3" d="M36.4017 26.886C36.3666 26.8903 36.3283 26.886 36.2932 26.8733L35.2349 26.4659C35.12 26.4212 35.0625 26.2925 35.1072 26.1776C35.1519 26.0617 35.2817 26.0053 35.3955 26.05L36.4539 26.4574C36.5687 26.502 36.6262 26.6307 36.5815 26.7456C36.5506 26.8254 36.4794 26.8765 36.4007 26.8871L36.4017 26.886Z" fill="#DDD7F9"/>
<path opacity="0.3" d="M36.4017 27.6644C36.3666 27.6687 36.3283 27.6644 36.2932 27.6517L35.2349 27.2432C35.12 27.1985 35.0625 27.0688 35.1072 26.955C35.1519 26.839 35.2806 26.7826 35.3955 26.8273L36.4539 27.2358C36.5687 27.2804 36.6262 27.4102 36.5815 27.524C36.5506 27.6038 36.4794 27.6549 36.4007 27.6655L36.4017 27.6644Z" fill="#DDD7F9"/>
<path opacity="0.3" d="M36.4642 28.3932C36.4291 28.3975 36.3908 28.3932 36.3557 28.3804L35.2974 27.972C35.1825 27.9273 35.125 27.7975 35.1697 27.6837C35.2144 27.5678 35.3442 27.5114 35.458 27.5561L36.5164 27.9645C36.6312 28.0092 36.6887 28.139 36.644 28.2528C36.6131 28.3326 36.5419 28.3836 36.4632 28.3943L36.4642 28.3932Z" fill="#DDD7F9"/>
<path opacity="0.3" d="M36.5912 29.1417C36.5561 29.146 36.5178 29.1417 36.4827 29.129L35.4243 28.7205C35.3094 28.6758 35.252 28.5461 35.2967 28.4322C35.3413 28.3163 35.4711 28.2599 35.5849 28.3046L36.6433 28.7131C36.7582 28.7577 36.8156 28.8875 36.7709 29.0013C36.7401 29.0811 36.6688 29.1322 36.5901 29.1428L36.5912 29.1417Z" fill="#DDD7F9"/>
<path opacity="0.3" d="M36.0619 29.715C36.0268 29.7192 35.9885 29.715 35.9534 29.7022L34.895 29.2938C34.7801 29.2491 34.7227 29.1193 34.7674 29.0055C34.812 28.8895 34.9407 28.8332 35.0556 28.8778L36.114 29.2863C36.2289 29.331 36.2863 29.4608 36.2417 29.5746C36.2108 29.6544 36.1395 29.7054 36.0608 29.716L36.0619 29.715Z" fill="#DDD7F9"/>
<path opacity="0.3" d="M35.5128 30.2252C35.4777 30.2295 35.4394 30.2252 35.4043 30.2125L34.3459 29.804C34.2311 29.7593 34.1736 29.6296 34.2183 29.5157C34.263 29.3998 34.3917 29.3434 34.5066 29.3881L35.5649 29.7966C35.6798 29.8412 35.7373 29.971 35.6926 30.0848C35.6617 30.1646 35.5905 30.2157 35.5118 30.2263L35.5128 30.2252Z" fill="#DDD7F9"/>
<path opacity="0.3" d="M34.9152 30.7206C34.8801 30.7248 34.8418 30.7206 34.8067 30.7078L33.7483 30.2994C33.6334 30.2547 33.576 30.1249 33.6206 30.0111C33.6653 29.8952 33.7951 29.8388 33.9089 29.8835L34.9673 30.2919C35.0822 30.3366 35.1396 30.4664 35.0949 30.5802C35.0641 30.66 34.9928 30.711 34.9141 30.7217L34.9152 30.7206Z" fill="#DDD7F9"/>
<path opacity="0.3" d="M34.2823 31.2444C34.2472 31.2487 34.2089 31.2444 34.1738 31.2317L33.1155 30.8243C33.0006 30.7796 32.9431 30.6509 32.9878 30.536C33.0325 30.4201 33.1623 30.3637 33.2761 30.4084L34.3345 30.8158C34.4493 30.8604 34.5068 30.9891 34.4621 31.104C34.4313 31.1838 34.36 31.2349 34.2813 31.2455L34.2823 31.2444Z" fill="#DDD7F9"/>
<path opacity="0.3" d="M20.0913 16.128C20.0913 16.128 22.308 18.8288 25.5587 21.0455C28.6307 23.14 33.5631 25.3748 35.3075 26.4279C35.85 26.7555 37.3275 27.6937 37.3275 27.6937C37.3275 27.6937 37.3339 27.8819 37.3328 27.9447C37.3265 28.1628 37.3179 28.1947 37.3179 28.1947C37.3179 28.1947 35.4426 27.0086 35.1054 26.7959C32.6323 25.2418 28.3445 23.4272 25.2545 21.3561C22.2165 19.3191 19.8594 16.7609 19.8594 16.7609L20.0913 16.127V16.128Z" fill="#ECE9FF"/>
<path d="M19.1135 21.1063C16.9052 25.8994 13.2876 28.9416 11.0325 27.9034C8.77747 26.8642 8.97532 22.3487 11.1825 17.5568C13.3908 12.7637 16.7712 9.50983 19.0273 10.548C21.2824 11.5872 21.3217 16.3143 19.1135 21.1074V21.1063Z" fill="#271386"/>
<path d="M18.0088 20.4644C19.984 16.176 20.1807 12.0526 18.4481 11.2546C16.7155 10.4566 13.7098 13.2862 11.7346 17.5746C9.75941 21.8631 9.56273 25.9865 11.2953 26.7845C13.0279 27.5825 16.0336 24.7529 18.0088 20.4644Z" fill="#DDD7F9"/>
<path d="M18.8939 18.2047C18.6556 18.9419 18.3599 19.7014 18.0078 20.4651L17.8876 20.7225L17.8855 20.7278C17.5356 21.4618 17.1558 22.15 16.7591 22.7829C15.8315 22.3319 14.2125 21.4756 14.0817 20.9523C13.8966 20.2141 14.5093 19.0334 14.5093 19.0334C14.5093 19.0334 14.8582 18.3366 15.5996 17.6123C16.1155 17.107 17.8749 17.7612 18.896 18.2058L18.8939 18.2047Z" fill="#97CEB7"/>
<path d="M18.8939 18.2055C18.6556 18.9427 18.3599 19.7021 18.0078 20.4659L17.8876 20.7233L17.8855 20.7286C17.5356 21.4626 17.1558 22.1508 16.7591 22.7837C15.8315 22.3327 14.2125 21.4764 14.0817 20.9531C13.8966 20.2148 14.5093 19.0341 14.5093 19.0341C14.5093 19.0341 14.8529 18.3076 15.5943 17.5832C16.1102 17.078 17.8738 17.7609 18.896 18.2055H18.8939Z" fill="#C3BDEF"/>
<path d="M15.682 19.5436C16.1837 18.5603 16.3354 17.6331 16.0209 17.4727C15.7064 17.3122 15.0447 17.9793 14.5431 18.9625C14.0414 19.9458 13.8897 20.873 14.2042 21.0334C14.5187 21.1939 15.1803 20.5269 15.682 19.5436Z" fill="#DDD7F9"/>
<path opacity="0.3" d="M18.0073 20.4645L17.8871 20.7219L17.885 20.7272C17.5765 20.6134 17.0223 20.4071 16.7819 20.2996C16.4416 20.1475 15.6172 19.6561 15.6172 19.6561L15.748 19.4019C15.748 19.4019 16.4128 19.8444 16.8426 20.0241C17.0925 20.1273 17.685 20.3464 18.0073 20.4645Z" fill="#ECE9FF"/>
<path d="M44.1199 10.1975L9.97185 43.9584L9.96653 43.9552L6.21484 40.5577L40.7629 6.4043C42.0095 7.54778 43.1349 8.8189 44.1199 10.1985V10.1975Z" fill="#271386"/>
</svg>