<svg xmlns="http://www.w3.org/2000/svg" width="130" height="129" viewBox="0 0 130 129" fill="none">
<g clip-path="url(#clip0_4_2612)">
<path d="M64.9998 128.133C100.545 128.133 129.36 99.6961 129.36 64.6172C129.36 29.5382 100.545 1.10107 64.9998 1.10107C29.4544 1.10107 0.63916 29.5382 0.63916 64.6172C0.63916 99.6961 29.4544 128.133 64.9998 128.133Z" fill="#08664B" stroke="#FFEDB3" stroke-width="1.26036" stroke-miterlimit="10"/>
<path d="M64.9997 108.981C89.8265 108.981 109.953 89.1186 109.953 64.6171C109.953 40.1157 89.8265 20.2533 64.9997 20.2533C40.1729 20.2533 20.0469 40.1157 20.0469 64.6171C20.0469 89.1186 40.1729 108.981 64.9997 108.981Z" fill="#0C513F"/>
<path d="M80.1763 66.3236C66.0872 66.3236 54.6616 77.5976 54.6616 91.5048C54.6616 105.412 66.0872 116.686 80.1763 116.686C94.2655 116.686 105.695 105.412 105.695 91.5048C105.695 77.5976 94.2699 66.3236 80.1763 66.3236ZM81.6446 97.4558C77.9025 97.4558 74.8707 94.463 74.8707 90.7685C74.8707 87.0741 77.9025 84.0813 81.6446 84.0813C85.3867 84.0813 88.4228 87.0784 88.4228 90.7685C88.4228 94.4587 85.3867 97.4558 81.6446 97.4558Z" fill="#FF884D"/>
<path d="M84.1174 78.6804C84.2562 78.6804 84.3686 78.6242 84.3686 78.5548C84.3686 78.4854 84.2562 78.4292 84.1174 78.4292C83.9787 78.4292 83.8662 78.4854 83.8662 78.5548C83.8662 78.6242 83.9787 78.6804 84.1174 78.6804Z" fill="white"/>
<path d="M82.03 82.2015C82.1688 82.2015 82.2812 82.1453 82.2812 82.0759C82.2812 82.0065 82.1688 81.9503 82.03 81.9503C81.8913 81.9503 81.7788 82.0065 81.7788 82.0759C81.7788 82.1453 81.8913 82.2015 82.03 82.2015Z" fill="white"/>
<path d="M71.8821 82.6044C72.0208 82.6044 72.1333 82.5481 72.1333 82.4788C72.1333 82.4094 72.0208 82.3531 71.8821 82.3531C71.7433 82.3531 71.6309 82.4094 71.6309 82.4788C71.6309 82.5481 71.7433 82.6044 71.8821 82.6044Z" fill="white"/>
<path d="M60.3874 86.2425C60.5262 86.2425 60.6386 86.1863 60.6386 86.1169C60.6386 86.0476 60.5262 85.9913 60.3874 85.9913C60.2487 85.9913 60.1362 86.0476 60.1362 86.1169C60.1362 86.1863 60.2487 86.2425 60.3874 86.2425Z" fill="white"/>
<path d="M75.6369 78.9446C75.7757 78.9446 75.8882 78.8883 75.8882 78.819C75.8882 78.7496 75.7757 78.6934 75.6369 78.6934C75.4982 78.6934 75.3857 78.7496 75.3857 78.819C75.3857 78.8883 75.4982 78.9446 75.6369 78.9446Z" fill="white"/>
<path d="M77.9934 73.8512C78.1321 73.8512 78.2446 73.7949 78.2446 73.7256C78.2446 73.6562 78.1321 73.6 77.9934 73.6C77.8547 73.6 77.7422 73.6562 77.7422 73.7256C77.7422 73.7949 77.8547 73.8512 77.9934 73.8512Z" fill="white"/>
<path d="M83.342 69.546C83.4808 69.546 83.5932 69.4898 83.5932 69.4204C83.5932 69.351 83.4808 69.2948 83.342 69.2948C83.2033 69.2948 83.0908 69.351 83.0908 69.4204C83.0908 69.4898 83.2033 69.546 83.342 69.546Z" fill="white"/>
<path d="M85.9714 75.3411C86.1102 75.3411 86.2226 75.2558 86.2226 75.1505C86.2226 75.0453 86.1102 74.96 85.9714 74.96C85.8327 74.96 85.7202 75.0453 85.7202 75.1505C85.7202 75.2558 85.8327 75.3411 85.9714 75.3411Z" fill="white"/>
<path d="M91.697 72.4869C91.8357 72.4869 91.9482 72.4015 91.9482 72.2963C91.9482 72.191 91.8357 72.1057 91.697 72.1057C91.5583 72.1057 91.4458 72.191 91.4458 72.2963C91.4458 72.4015 91.5583 72.4869 91.697 72.4869Z" fill="white"/>
<path d="M89.0378 78.819C89.1766 78.819 89.289 78.7337 89.289 78.6284C89.289 78.5232 89.1766 78.4379 89.0378 78.4379C88.8991 78.4379 88.7866 78.5232 88.7866 78.6284C88.7866 78.7337 88.8991 78.819 89.0378 78.819Z" fill="white"/>
<path d="M97.8254 79.3993C97.9642 79.3993 98.0766 79.314 98.0766 79.2088C98.0766 79.1035 97.9642 79.0182 97.8254 79.0182C97.6867 79.0182 97.5742 79.1035 97.5742 79.2088C97.5742 79.314 97.6867 79.3993 97.8254 79.3993Z" fill="white"/>
<path d="M71.0373 76.3329C71.1761 76.3329 71.2885 76.2476 71.2885 76.1424C71.2885 76.0371 71.1761 75.9518 71.0373 75.9518C70.8986 75.9518 70.7861 76.0371 70.7861 76.1424C70.7861 76.2476 70.8986 76.3329 71.0373 76.3329Z" fill="white"/>
<path d="M73.8225 69.8189C73.9612 69.8189 74.0737 69.7336 74.0737 69.6283C74.0737 69.5231 73.9612 69.4377 73.8225 69.4377C73.6838 69.4377 73.5713 69.5231 73.5713 69.6283C73.5713 69.7336 73.6838 69.8189 73.8225 69.8189Z" fill="white"/>
<path d="M66.49 81.0885C66.6287 81.0885 66.7412 81.0032 66.7412 80.898C66.7412 80.7927 66.6287 80.7074 66.49 80.7074C66.3512 80.7074 66.2388 80.7927 66.2388 80.898C66.2388 81.0032 66.3512 81.0885 66.49 81.0885Z" fill="white"/>
<path d="M63.2546 77.8921C63.3934 77.8921 63.5058 77.8068 63.5058 77.7016C63.5058 77.5963 63.3934 77.511 63.2546 77.511C63.1159 77.511 63.0034 77.5963 63.0034 77.7016C63.0034 77.8068 63.1159 77.8921 63.2546 77.8921Z" fill="white"/>
<path d="M81.7659 74.9556C81.9046 74.9556 82.0171 74.8703 82.0171 74.765C82.0171 74.6598 81.9046 74.5745 81.7659 74.5745C81.6271 74.5745 81.5146 74.6598 81.5146 74.765C81.5146 74.8703 81.6271 74.9556 81.7659 74.9556Z" fill="white"/>
<path d="M72.7786 91.847C72.9173 91.847 73.0298 91.7616 73.0298 91.6564C73.0298 91.5511 72.9173 91.4658 72.7786 91.4658C72.6398 91.4658 72.5273 91.5511 72.5273 91.6564C72.5273 91.7616 72.6398 91.847 72.7786 91.847Z" fill="white"/>
<path d="M75.8972 98.7032C76.0359 98.7032 76.1484 98.6178 76.1484 98.5126C76.1484 98.4073 76.0359 98.322 75.8972 98.322C75.7585 98.322 75.646 98.4073 75.646 98.5126C75.646 98.6178 75.7585 98.7032 75.8972 98.7032Z" fill="white"/>
<path d="M69.6384 100.527C69.7772 100.527 69.8896 100.441 69.8896 100.336C69.8896 100.231 69.7772 100.146 69.6384 100.146C69.4997 100.146 69.3872 100.231 69.3872 100.336C69.3872 100.441 69.4997 100.527 69.6384 100.527Z" fill="white"/>
<path d="M78.1579 106.3C78.2967 106.3 78.4092 106.215 78.4092 106.109C78.4092 106.004 78.2967 105.919 78.1579 105.919C78.0192 105.919 77.9067 106.004 77.9067 106.109C77.9067 106.215 78.0192 106.3 78.1579 106.3Z" fill="white"/>
<path d="M77.7336 112.004C77.8724 112.004 77.9848 111.919 77.9848 111.814C77.9848 111.708 77.8724 111.623 77.7336 111.623C77.5949 111.623 77.4824 111.708 77.4824 111.814C77.4824 111.919 77.5949 112.004 77.7336 112.004Z" fill="white"/>
<path d="M72.0813 106.504C72.22 106.504 72.3325 106.418 72.3325 106.313C72.3325 106.208 72.22 106.122 72.0813 106.122C71.9425 106.122 71.8301 106.208 71.8301 106.313C71.8301 106.418 71.9425 106.504 72.0813 106.504Z" fill="white"/>
<path d="M72.3845 86.5717C72.5232 86.5717 72.6357 86.4864 72.6357 86.3811C72.6357 86.2759 72.5232 86.1906 72.3845 86.1906C72.2458 86.1906 72.1333 86.2759 72.1333 86.3811C72.1333 86.4864 72.2458 86.5717 72.3845 86.5717Z" fill="white"/>
<path d="M67.8196 93.1637C67.9583 93.1637 68.0708 93.0784 68.0708 92.9732C68.0708 92.8679 67.9583 92.7826 67.8196 92.7826C67.6808 92.7826 67.5684 92.8679 67.5684 92.9732C67.5684 93.0784 67.6808 93.1637 67.8196 93.1637Z" fill="white"/>
<path d="M64.6101 96.5247C64.7488 96.5247 64.8613 96.4394 64.8613 96.3341C64.8613 96.2289 64.7488 96.1436 64.6101 96.1436C64.4714 96.1436 64.3589 96.2289 64.3589 96.3341C64.3589 96.4394 64.4714 96.5247 64.6101 96.5247Z" fill="white"/>
<path d="M66.1911 89.0967C66.3299 89.0967 66.4424 89.0114 66.4424 88.9061C66.4424 88.8009 66.3299 88.7156 66.1911 88.7156C66.0524 88.7156 65.9399 88.8009 65.9399 88.9061C65.9399 89.0114 66.0524 89.0967 66.1911 89.0967Z" fill="white"/>
<path d="M71.8562 95.4418C71.9949 95.4418 72.1074 95.3565 72.1074 95.2512C72.1074 95.146 71.9949 95.0607 71.8562 95.0607C71.7174 95.0607 71.605 95.146 71.605 95.2512C71.605 95.3565 71.7174 95.4418 71.8562 95.4418Z" fill="white"/>
<path d="M61.6907 102.164C61.8294 102.164 61.9419 102.078 61.9419 101.973C61.9419 101.868 61.8294 101.783 61.6907 101.783C61.5519 101.783 61.4395 101.868 61.4395 101.973C61.4395 102.078 61.5519 102.164 61.6907 102.164Z" fill="white"/>
<path d="M58.1697 93.7441C58.3084 93.7441 58.4209 93.6587 58.4209 93.5535C58.4209 93.4482 58.3084 93.3629 58.1697 93.3629C58.0309 93.3629 57.9185 93.4482 57.9185 93.5535C57.9185 93.6587 58.0309 93.7441 58.1697 93.7441Z" fill="white"/>
<path d="M65.9958 84.5447C66.1346 84.5447 66.247 84.4594 66.247 84.3541C66.247 84.2489 66.1346 84.1636 65.9958 84.1636C65.8571 84.1636 65.7446 84.2489 65.7446 84.3541C65.7446 84.4594 65.8571 84.5447 65.9958 84.5447Z" fill="white"/>
<path d="M66.6369 72.8766C66.7757 72.8766 66.8882 72.7913 66.8882 72.6861C66.8882 72.5808 66.7757 72.4955 66.6369 72.4955C66.4982 72.4955 66.3857 72.5808 66.3857 72.6861C66.3857 72.7913 66.4982 72.8766 66.6369 72.8766Z" fill="white"/>
<path d="M86.9935 81.9287C87.2016 81.9287 87.3703 81.8162 87.3703 81.6775C87.3703 81.5387 87.2016 81.4263 86.9935 81.4263C86.7854 81.4263 86.6167 81.5387 86.6167 81.6775C86.6167 81.8162 86.7854 81.9287 86.9935 81.9287Z" fill="white"/>
<path d="M75.6327 84.1549C75.8408 84.1549 76.0095 84.0424 76.0095 83.9037C76.0095 83.7649 75.8408 83.6525 75.6327 83.6525C75.4246 83.6525 75.2559 83.7649 75.2559 83.9037C75.2559 84.0424 75.4246 84.1549 75.6327 84.1549Z" fill="white"/>
<path d="M80.4491 100.73C80.6572 100.73 80.8259 100.618 80.8259 100.479C80.8259 100.34 80.6572 100.228 80.4491 100.228C80.241 100.228 80.0723 100.34 80.0723 100.479C80.0723 100.618 80.241 100.73 80.4491 100.73Z" fill="white"/>
<path d="M83.1039 104.732C83.312 104.732 83.4807 104.62 83.4807 104.481C83.4807 104.342 83.312 104.23 83.1039 104.23C82.8958 104.23 82.7271 104.342 82.7271 104.481C82.7271 104.62 82.8958 104.732 83.1039 104.732Z" fill="white"/>
<path d="M87.3832 111.017C87.5913 111.017 87.76 110.904 87.76 110.765C87.76 110.627 87.5913 110.514 87.3832 110.514C87.1751 110.514 87.0063 110.627 87.0063 110.765C87.0063 110.904 87.1751 111.017 87.3832 111.017Z" fill="white"/>
<path d="M95.2093 109.726C95.4174 109.726 95.5861 109.613 95.5861 109.475C95.5861 109.336 95.4174 109.224 95.2093 109.224C95.0012 109.224 94.8325 109.336 94.8325 109.475C94.8325 109.613 95.0012 109.726 95.2093 109.726Z" fill="white"/>
<path d="M92.4984 83.5225C92.7065 83.5225 92.8752 83.4101 92.8752 83.2713C92.8752 83.1326 92.7065 83.0201 92.4984 83.0201C92.2903 83.0201 92.1216 83.1326 92.1216 83.2713C92.1216 83.4101 92.2903 83.5225 92.4984 83.5225Z" fill="white"/>
<path d="M93.9837 79.8194C94.1918 79.8194 94.3606 79.707 94.3606 79.5682C94.3606 79.4295 94.1918 79.317 93.9837 79.317C93.7756 79.317 93.6069 79.4295 93.6069 79.5682C93.6069 79.707 93.7756 79.8194 93.9837 79.8194Z" fill="white"/>
<path d="M98.995 92.2412C99.2031 92.2412 99.3718 92.1287 99.3718 91.99C99.3718 91.8512 99.2031 91.7388 98.995 91.7388C98.7869 91.7388 98.6182 91.8512 98.6182 91.99C98.6182 92.1287 98.7869 92.2412 98.995 92.2412Z" fill="white"/>
<path d="M95.0794 93.6834C95.2875 93.6834 95.4563 93.571 95.4563 93.4322C95.4563 93.2935 95.2875 93.181 95.0794 93.181C94.8713 93.181 94.7026 93.2935 94.7026 93.4322C94.7026 93.571 94.8713 93.6834 95.0794 93.6834Z" fill="white"/>
<path d="M89.8304 87.2777C90.0385 87.2777 90.2072 87.1652 90.2072 87.0265C90.2072 86.8877 90.0385 86.7753 89.8304 86.7753C89.6223 86.7753 89.4536 86.8877 89.4536 87.0265C89.4536 87.1652 89.6223 87.2777 89.8304 87.2777Z" fill="white"/>
<path d="M87.5174 100.197C87.7255 100.197 87.8942 100.085 87.8942 99.9463C87.8942 99.8075 87.7255 99.6951 87.5174 99.6951C87.3093 99.6951 87.1406 99.8075 87.1406 99.9463C87.1406 100.085 87.3093 100.197 87.5174 100.197Z" fill="white"/>
<path d="M91.1688 104.117C91.3769 104.117 91.5456 104.005 91.5456 103.866C91.5456 103.727 91.3769 103.615 91.1688 103.615C90.9607 103.615 90.792 103.727 90.792 103.866C90.792 104.005 90.9607 104.117 91.1688 104.117Z" fill="white"/>
<path d="M89.93 96.7282C90.1381 96.7282 90.3068 96.6158 90.3068 96.477C90.3068 96.3383 90.1381 96.2258 89.93 96.2258C89.7219 96.2258 89.5532 96.3383 89.5532 96.477C89.5532 96.6158 89.7219 96.7282 89.93 96.7282Z" fill="white"/>
<path d="M92.078 92.4924C92.2861 92.4924 92.4548 92.3799 92.4548 92.2412C92.4548 92.1025 92.2861 91.99 92.078 91.99C91.8699 91.99 91.7012 92.1025 91.7012 92.2412C91.7012 92.3799 91.8699 92.4924 92.078 92.4924Z" fill="white"/>
<path d="M97.8167 97.3216C98.0249 97.3216 98.1936 97.2092 98.1936 97.0704C98.1936 96.9317 98.0249 96.8192 97.8167 96.8192C97.6086 96.8192 97.4399 96.9317 97.4399 97.0704C97.4399 97.2092 97.6086 97.3216 97.8167 97.3216Z" fill="white"/>
<path d="M98.6009 103.208C98.809 103.208 98.9777 103.095 98.9777 102.956C98.9777 102.818 98.809 102.705 98.6009 102.705C98.3928 102.705 98.2241 102.818 98.2241 102.956C98.2241 103.095 98.3928 103.208 98.6009 103.208Z" fill="white"/>
<path d="M104.21 94.3374C104.418 94.3374 104.587 94.2249 104.587 94.0862C104.587 93.9474 104.418 93.835 104.21 93.835C104.002 93.835 103.833 93.9474 103.833 94.0862C103.833 94.2249 104.002 94.3374 104.21 94.3374Z" fill="white"/>
<path d="M100.429 82.6001C100.637 82.6001 100.805 82.4876 100.805 82.3489C100.805 82.2101 100.637 82.0977 100.429 82.0977C100.22 82.0977 100.052 82.2101 100.052 82.3489C100.052 82.4876 100.22 82.6001 100.429 82.6001Z" fill="white"/>
<path d="M96.6346 87.4162C96.8427 87.4162 97.0114 87.3038 97.0114 87.165C97.0114 87.0263 96.8427 86.9138 96.6346 86.9138C96.4265 86.9138 96.2578 87.0263 96.2578 87.165C96.2578 87.3038 96.4265 87.4162 96.6346 87.4162Z" fill="white"/>
<path d="M50.9281 59.7966C49.5508 60.1215 48.1301 59.4718 47.4675 58.2244C47.4675 58.2244 42.5646 54.6815 39.4289 48.1112C36.9515 42.9225 35.847 36.3738 35.847 36.3738C35.3316 35.3993 35.6392 34.1953 36.5617 33.5933C36.5617 33.5933 46.4756 25.2342 50.1485 22.93C56.7621 18.7808 63.0379 15.1123 65.9051 13.4535C67.0918 12.7692 68.5081 12.6262 69.8031 13.0593C72.3975 13.9256 76.707 16.1215 79.9207 21.5873C84.2778 28.9936 87.6344 37.0885 88.6696 39.6872C88.8905 40.2372 88.7865 40.8566 88.401 41.307C86.8721 43.0828 82.1555 47.7084 71.1761 52.6719C61.6953 56.9597 54.4449 58.9737 50.9194 59.7966H50.9281Z" fill="#FFEDB3"/>
<path d="M50.4945 41.1684C50.8485 41.1684 51.1355 40.8814 51.1355 40.5274C51.1355 40.1733 50.8485 39.8864 50.4945 39.8864C50.1405 39.8864 49.8535 40.1733 49.8535 40.5274C49.8535 40.8814 50.1405 41.1684 50.4945 41.1684Z" fill="#FFC501"/>
<path d="M48.7642 38.0965C49.1128 38.035 49.3446 37.6968 49.2819 37.3411C49.2191 36.9854 48.8857 36.7469 48.537 36.8084C48.1884 36.8698 47.9566 37.208 48.0193 37.5637C48.082 37.9195 48.4155 38.158 48.7642 38.0965Z" fill="#FFC501"/>
<path d="M46.8535 35.5093C47.2022 35.4479 47.4339 35.1097 47.3712 34.754C47.3085 34.3983 46.975 34.1597 46.6264 34.2212C46.2777 34.2827 46.046 34.6209 46.1087 34.9766C46.1714 35.3323 46.5049 35.5708 46.8535 35.5093Z" fill="#FFC501"/>
<path d="M65.0126 32.19C65.3666 32.19 65.6536 31.903 65.6536 31.549C65.6536 31.1949 65.3666 30.908 65.0126 30.908C64.6586 30.908 64.3716 31.1949 64.3716 31.549C64.3716 31.903 64.6586 32.19 65.0126 32.19Z" fill="#FFC501"/>
<path d="M63.2778 29.1207C63.6265 29.0592 63.8583 28.721 63.7955 28.3653C63.7328 28.0096 63.3993 27.7711 63.0507 27.8325C62.7021 27.894 62.4703 28.2322 62.533 28.5879C62.5957 28.9436 62.9292 29.1821 63.2778 29.1207Z" fill="#FFC501"/>
<path d="M61.3672 26.5291C61.7158 26.4676 61.9476 26.1294 61.8849 25.7737C61.8222 25.418 61.4887 25.1795 61.1401 25.241C60.7914 25.3025 60.5596 25.6407 60.6224 25.9964C60.6851 26.3521 61.0186 26.5906 61.3672 26.5291Z" fill="#FFC501"/>
<path d="M58.9067 24.5183C59.2554 24.4568 59.4872 24.1186 59.4244 23.7629C59.3617 23.4072 59.0282 23.1686 58.6796 23.2301C58.331 23.2916 58.0992 23.6298 58.1619 23.9855C58.2246 24.3412 58.5581 24.5797 58.9067 24.5183Z" fill="#FFC501"/>
<path d="M45.1777 33.3941C45.5264 33.3326 45.7582 32.9944 45.6954 32.6387C45.6327 32.283 45.2992 32.0445 44.9506 32.106C44.602 32.1675 44.3702 32.5056 44.4329 32.8614C44.4956 33.2171 44.8291 33.4556 45.1777 33.3941Z" fill="#FFC501"/>
<g style="mix-blend-mode:multiply">
<path d="M37.3458 36.677C37.3458 36.677 45.0379 44.4774 47.9181 57.2326C47.9181 57.2326 37.9219 48.8908 37.2202 36.8546" fill="#FFEDB3"/>
</g>
<g style="mix-blend-mode:multiply">
<path d="M79.1626 65.4011C79.1626 65.4011 77.5385 66.328 77.5688 67.9435C77.807 80.8026 87.7859 90.7642 100.39 90.7642C103.447 90.7642 105.942 89.3826 108.606 88.2912L79.1626 65.4055V65.4011Z" fill="#FF884D"/>
</g>
<path d="M103.525 39.254C89.4363 39.254 78.0107 50.528 78.0107 64.4352C78.0107 78.3425 89.4363 89.6121 103.525 89.6121C117.615 89.6121 129.044 78.3425 129.044 64.4352C129.044 50.528 117.619 39.254 103.525 39.254ZM104.998 70.3862C101.256 70.3862 98.2198 67.3934 98.2198 63.699C98.2198 60.0045 101.256 57.0117 104.998 57.0117C108.74 57.0117 111.772 60.0045 111.772 63.699C111.772 67.3934 108.74 70.3862 104.998 70.3862Z" fill="#FF884D"/>
<path d="M91.3936 48.7695L93.4985 50.2811" stroke="#FFC501" stroke-width="0.944187" stroke-linecap="round" stroke-linejoin="round"/>
<path d="M54.9082 62.1787L57.0131 63.6946" stroke="#FFC501" stroke-width="0.944187" stroke-linecap="round" stroke-linejoin="round"/>
<path d="M55.6313 66.6484L57.7363 68.16" stroke="#FFC501" stroke-width="0.944187" stroke-linecap="round" stroke-linejoin="round"/>
<path d="M98.6572 51.1733L99.3286 53.6767" stroke="#FFC501" stroke-width="0.944187" stroke-linecap="round" stroke-linejoin="round"/>
<path d="M98.9082 43.7758L100.991 45.322" stroke="#FFC501" stroke-width="0.944187" stroke-linecap="round" stroke-linejoin="round"/>
<path d="M96.1709 58.2288L97.0588 60.6672" stroke="#FFFCF5" stroke-width="0.944187" stroke-linecap="round" stroke-linejoin="round"/>
<path d="M88.9424 31.5879L89.8303 34.022" stroke="#FFFCF5" stroke-width="0.944187" stroke-linecap="round" stroke-linejoin="round"/>
<path d="M81.2026 69.1476L83.3509 70.6028" stroke="#FFC501" stroke-width="0.944187" stroke-linecap="round" stroke-linejoin="round"/>
<path d="M103.144 74.5918V77.1861" stroke="#FFFCF5" stroke-width="0.944187" stroke-linecap="round" stroke-linejoin="round"/>
<path d="M95.4131 82.0759V84.6659" stroke="#FFC501" stroke-width="0.944187" stroke-linecap="round" stroke-linejoin="round"/>
<path d="M106.7 83.2194L108.883 84.6183" stroke="#FFC501" stroke-width="0.944187" stroke-linecap="round" stroke-linejoin="round"/>
<path d="M94.1138 69.9878L96.3053 71.3781" stroke="#FFFCF5" stroke-width="0.944187" stroke-linecap="round" stroke-linejoin="round"/>
<path d="M90.3804 30.6914L92.5719 32.0817" stroke="#FFFCF5" stroke-width="0.944187" stroke-linecap="round" stroke-linejoin="round"/>
<path d="M90.8262 76.3416L88.3574 77.1255" stroke="#FFFCF5" stroke-width="0.944187" stroke-linecap="round" stroke-linejoin="round"/>
<path d="M90.0599 59.6104L88.479 61.6633" stroke="#FFFCF5" stroke-width="0.944187" stroke-linecap="round" stroke-linejoin="round"/>
<path d="M54.6917 64.5219L53.1108 66.5748" stroke="#FFFCF5" stroke-width="0.944187" stroke-linecap="round" stroke-linejoin="round"/>
<path d="M84.9882 53.6508L83.8145 55.9592" stroke="#FFC501" stroke-width="0.944187" stroke-linecap="round" stroke-linejoin="round"/>
<path d="M106.912 47.2494L105.548 49.4539" stroke="#FFC501" stroke-width="0.944187" stroke-linecap="round" stroke-linejoin="round"/>
<path d="M116.064 61.1956L114.124 62.915" stroke="#FFFCF5" stroke-width="0.944187" stroke-linecap="round" stroke-linejoin="round"/>
<path d="M123.86 68.7837V71.378" stroke="#FFC501" stroke-width="0.944187" stroke-linecap="round" stroke-linejoin="round"/>
<path d="M122.327 60.7495L124.267 62.469" stroke="#FFC501" stroke-width="0.944187" stroke-linecap="round" stroke-linejoin="round"/>
<path d="M91.7617 36.898L92.5846 34.4379" stroke="#FFC501" stroke-width="0.944187" stroke-linecap="round" stroke-linejoin="round"/>
<path d="M113.729 68.1211L114.284 70.6548" stroke="#FFFCF5" stroke-width="0.944187" stroke-linecap="round" stroke-linejoin="round"/>
<path d="M111.282 76.6881L113.851 77.0649" stroke="#FFC501" stroke-width="0.944187" stroke-linecap="round" stroke-linejoin="round"/>
<path d="M120.824 77.433V80.0273" stroke="#FFC501" stroke-width="0.944187" stroke-linecap="round" stroke-linejoin="round"/>
<path d="M111.928 46.5434L114.518 46.4784" stroke="#FFC501" stroke-width="0.944187" stroke-linecap="round" stroke-linejoin="round"/>
<path d="M110.178 56.0156L107.683 55.3182" stroke="#FFC501" stroke-width="0.944187" stroke-linecap="round" stroke-linejoin="round"/>
<path d="M117.25 52.5333V55.1277" stroke="#FFC501" stroke-width="0.944187" stroke-linecap="round" stroke-linejoin="round"/>
<g style="mix-blend-mode:multiply">
<path d="M57.2123 102.627L62.3231 100.267C63.8086 99.5781 64.1118 97.5987 62.9034 96.4986L61.4785 95.2036L55.4712 98.7335L57.2123 102.632V102.627Z" fill="#FF884D"/>
</g>
<path d="M34.5778 44.6853L34.4175 41.2594C34.3309 39.3927 31.6196 37.7729 29.9435 38.6001C21.4674 42.784 3.06878 57.0724 13.3855 80.8373C26.6908 111.48 51.5775 103.862 60.8245 99.6734C62.6089 98.8635 62.9597 96.4814 61.4741 95.2037L59.9886 93.9217C59.9886 93.9217 49.6934 72.5995 46.3368 66.1028C43.3397 60.2904 34.5735 44.6853 34.5735 44.6853H34.5778Z" fill="#FFEDB3"/>
<path d="M28.38 61.9189C28.5785 61.9189 28.7395 61.758 28.7395 61.5594C28.7395 61.3609 28.5785 61.2 28.38 61.2C28.1815 61.2 28.0205 61.3609 28.0205 61.5594C28.0205 61.758 28.1815 61.9189 28.38 61.9189Z" fill="#FFC501"/>
<path d="M27.4098 64.9551C27.6083 64.9551 27.7693 64.7941 27.7693 64.5956C27.7693 64.397 27.6083 64.2361 27.4098 64.2361C27.2112 64.2361 27.0503 64.397 27.0503 64.5956C27.0503 64.7941 27.2112 64.9551 27.4098 64.9551Z" fill="#FFC501"/>
<path d="M26.5567 67.74C26.7553 67.74 26.9162 67.579 26.9162 67.3805C26.9162 67.1819 26.7553 67.021 26.5567 67.021C26.3582 67.021 26.1973 67.1819 26.1973 67.3805C26.1973 67.579 26.3582 67.74 26.5567 67.74Z" fill="#FFC501"/>
<path d="M25.3395 71.0967C25.538 71.0967 25.6989 70.9357 25.6989 70.7372C25.6989 70.5386 25.538 70.3777 25.3395 70.3777C25.1409 70.3777 24.98 70.5386 24.98 70.7372C24.98 70.9357 25.1409 71.0967 25.3395 71.0967Z" fill="#FFC501"/>
<path d="M36.0201 68.5932C36.2187 68.5932 36.3796 68.4323 36.3796 68.2338C36.3796 68.0352 36.2187 67.8743 36.0201 67.8743C35.8216 67.8743 35.6606 68.0352 35.6606 68.2338C35.6606 68.4323 35.8216 68.5932 36.0201 68.5932Z" fill="#FFC501"/>
<path d="M35.0455 71.6294C35.2441 71.6294 35.405 71.4684 35.405 71.2699C35.405 71.0713 35.2441 70.9104 35.0455 70.9104C34.847 70.9104 34.686 71.0713 34.686 71.2699C34.686 71.4684 34.847 71.6294 35.0455 71.6294Z" fill="#FFC501"/>
<path d="M34.1964 74.4143C34.3949 74.4143 34.5559 74.2533 34.5559 74.0548C34.5559 73.8563 34.3949 73.6953 34.1964 73.6953C33.9979 73.6953 33.8369 73.8563 33.8369 74.0548C33.8369 74.2533 33.9979 74.4143 34.1964 74.4143Z" fill="#FFC501"/>
<path d="M32.9752 77.7708C33.1737 77.7708 33.3347 77.6099 33.3347 77.4114C33.3347 77.2128 33.1737 77.0519 32.9752 77.0519C32.7767 77.0519 32.6157 77.2128 32.6157 77.4114C32.6157 77.6099 32.7767 77.7708 32.9752 77.7708Z" fill="#FFC501"/>
<path d="M42.2657 75.6747C42.4643 75.6747 42.6252 75.5137 42.6252 75.3152C42.6252 75.1166 42.4643 74.9557 42.2657 74.9557C42.0672 74.9557 41.9062 75.1166 41.9062 75.3152C41.9062 75.5137 42.0672 75.6747 42.2657 75.6747Z" fill="#FFC501"/>
<path d="M41.2911 78.7108C41.4897 78.7108 41.6506 78.5498 41.6506 78.3513C41.6506 78.1528 41.4897 77.9918 41.2911 77.9918C41.0926 77.9918 40.9316 78.1528 40.9316 78.3513C40.9316 78.5498 41.0926 78.7108 41.2911 78.7108Z" fill="#FFC501"/>
<path d="M40.442 81.4957C40.6405 81.4957 40.8015 81.3348 40.8015 81.1362C40.8015 80.9377 40.6405 80.7767 40.442 80.7767C40.2435 80.7767 40.0825 80.9377 40.0825 81.1362C40.0825 81.3348 40.2435 81.4957 40.442 81.4957Z" fill="#FFC501"/>
<path d="M39.2208 84.8523C39.4194 84.8523 39.5803 84.6913 39.5803 84.4928C39.5803 84.2942 39.4194 84.1333 39.2208 84.1333C39.0223 84.1333 38.8613 84.2942 38.8613 84.4928C38.8613 84.6913 39.0223 84.8523 39.2208 84.8523Z" fill="#FFC501"/>
<path d="M14.4295 61.4902L11.6489 60.715" stroke="#FFC60C" stroke-width="1.28635" stroke-linecap="round" stroke-linejoin="round"/>
<path d="M13.7927 65.4012L10.9688 65.3232" stroke="#FFC60C" stroke-width="1.28635" stroke-linecap="round" stroke-linejoin="round"/>
<path d="M15.7156 58.2894C15.7156 58.2894 13.1992 57.3886 12.8008 57.0811L15.7156 58.2894Z" fill="#3CFF31"/>
<path d="M15.7156 58.2894C15.7156 58.2894 13.1992 57.3886 12.8008 57.0811" stroke="#FFC60C" stroke-width="1.28635" stroke-linecap="round" stroke-linejoin="round"/>
<path d="M17.4957 54.5473C17.4957 54.5473 14.975 53.3346 14.7324 52.9448L17.4957 54.5473Z" fill="#3CFF31"/>
<path d="M17.4957 54.5473C17.4957 54.5473 14.975 53.3346 14.7324 52.9448" stroke="#FFC60C" stroke-width="1.28635" stroke-linecap="round" stroke-linejoin="round"/>
<path d="M19.2457 51.1561C19.2457 51.1561 17.483 50.0906 17.1538 49.6445L19.2457 51.1561Z" fill="#3CFF31"/>
<path d="M19.2457 51.1561C19.2457 51.1561 17.483 50.0906 17.1538 49.6445" stroke="#FFC60C" stroke-width="1.28635" stroke-linecap="round" stroke-linejoin="round"/>
<path d="M22.5459 44.183C22.5459 44.183 23.5377 45.1445 24.2091 45.4087L22.5459 44.183Z" fill="#3CFF31"/>
<path d="M22.5459 44.183C22.5459 44.183 23.5377 45.1445 24.2091 45.4087" stroke="#FFC60C" stroke-width="1.28635" stroke-linecap="round" stroke-linejoin="round"/>
<path d="M24.9453 42.2729C24.9453 42.2729 25.6946 43.1132 26.2966 43.581L24.9453 42.2729Z" fill="#3CFF31"/>
<path d="M24.9453 42.2729C24.9453 42.2729 25.6946 43.1132 26.2966 43.581" stroke="#FFC60C" stroke-width="1.28635" stroke-linecap="round" stroke-linejoin="round"/>
<path d="M27.7344 40.3542C27.7344 40.3542 27.9379 40.939 28.7392 42.0217L27.7344 40.3542Z" fill="#3CFF31"/>
<path d="M27.7344 40.3542C27.7344 40.3542 27.9379 40.939 28.7392 42.0217" stroke="#FFC60C" stroke-width="1.28635" stroke-linecap="round" stroke-linejoin="round"/>
<path d="M19.7998 46.7167C19.7998 46.7167 20.6444 47.7345 21.5539 48.2282L19.7998 46.7167Z" fill="#3CFF31"/>
<path d="M19.7998 46.7167C19.7998 46.7167 20.6444 47.7345 21.5539 48.2282" stroke="#FFC60C" stroke-width="1.28635" stroke-linecap="round" stroke-linejoin="round"/>
<path d="M10.7998 69.8666C10.7998 69.8666 13.1949 69.6154 14.0135 69.4075L10.7998 69.8666Z" fill="#3CFF31"/>
<path d="M10.7998 69.8666C10.7998 69.8666 13.1949 69.6154 14.0135 69.4075" stroke="#FFC60C" stroke-width="1.28635" stroke-linecap="round" stroke-linejoin="round"/>
<path d="M21.8312 88.1267L19.0029 90.2446" stroke="#FFC60C" stroke-width="1.28635" stroke-linecap="round" stroke-linejoin="round"/>
<path d="M11.3672 73.8859C11.3672 73.8859 13.4981 73.3705 14.7022 72.92L11.3672 73.8859Z" fill="#3CFF31"/>
<path d="M11.3672 73.8859C11.3672 73.8859 13.4981 73.3705 14.7022 72.92" stroke="#FFC60C" stroke-width="1.28635" stroke-linecap="round" stroke-linejoin="round"/>
<path d="M12.6406 77.7406C12.6406 77.7406 14.8235 76.8527 15.5641 76.4889L12.6406 77.7406Z" fill="#3CFF31"/>
<path d="M12.6406 77.7406C12.6406 77.7406 14.8235 76.8527 15.5641 76.4889" stroke="#FFC60C" stroke-width="1.28635" stroke-linecap="round" stroke-linejoin="round"/>
<path d="M13.8618 81.002C13.8618 81.002 15.8325 80.0708 16.5341 79.8282L13.8618 81.002Z" fill="#3CFF31"/>
<path d="M13.8618 81.002C13.8618 81.002 15.8325 80.0708 16.5341 79.8282" stroke="#FFC60C" stroke-width="1.28635" stroke-linecap="round" stroke-linejoin="round"/>
<path d="M15.5552 84.4279L18.3877 82.938" stroke="#FFC60C" stroke-width="1.28635" stroke-linecap="round" stroke-linejoin="round"/>
<path d="M17.2837 87.568L20.3458 85.684" stroke="#FFC60C" stroke-width="1.28635" stroke-linecap="round" stroke-linejoin="round"/>
<path d="M21.1772 92.813C22.1864 92.4059 23.9578 90.5045 23.9578 90.5045L21.1772 92.813Z" fill="#3CFF31"/>
<path d="M21.1772 92.813C22.1864 92.4059 23.9578 90.5045 23.9578 90.5045" stroke="#FFC60C" stroke-width="1.28635" stroke-linecap="round" stroke-linejoin="round"/>
<path d="M23.9619 95.7884L26.1708 93.1161" stroke="#FFC60C" stroke-width="1.28635" stroke-linecap="round" stroke-linejoin="round"/>
<path d="M54.9126 101.376L54.5791 98.6036" stroke="#FFC60C" stroke-width="1.28635" stroke-linecap="round" stroke-linejoin="round"/>
<path d="M59.1483 99.8597L57.3682 97.7072" stroke="#FFC60C" stroke-width="1.28635" stroke-linecap="round" stroke-linejoin="round"/>
<path d="M61.7727 97.5902L59.2866 96.3169" stroke="#FFC60C" stroke-width="1.28635" stroke-linecap="round" stroke-linejoin="round"/>
<path d="M51.0879 102.437L51.1095 99.8987" stroke="#FFC60C" stroke-width="1.28635" stroke-linecap="round" stroke-linejoin="round"/>
<path d="M47.5537 103.082L49.1086 100.28" stroke="#FFC60C" stroke-width="1.28635" stroke-linecap="round" stroke-linejoin="round"/>
<path d="M44.1841 103.19L45.9728 100.15" stroke="#FFC60C" stroke-width="1.28635" stroke-linecap="round" stroke-linejoin="round"/>
<path d="M40.6372 103.008L42.6035 100.024" stroke="#FFC60C" stroke-width="1.28635" stroke-linecap="round" stroke-linejoin="round"/>
<path d="M37.2632 102.523L39.1169 99.8987" stroke="#FFC60C" stroke-width="1.28635" stroke-linecap="round" stroke-linejoin="round"/>
<path d="M34.8291 101.791L36.6742 98.8115" stroke="#FFC60C" stroke-width="1.28635" stroke-linecap="round" stroke-linejoin="round"/>
<path d="M32.3384 101.237L34.1185 97.7245" stroke="#FFC60C" stroke-width="1.28635" stroke-linecap="round" stroke-linejoin="round"/>
<path d="M29.6577 99.8034L31.5071 97.0575" stroke="#FFC60C" stroke-width="1.28635" stroke-linecap="round" stroke-linejoin="round"/>
<path d="M26.7383 98.0146L28.4664 95.1517" stroke="#FFC60C" stroke-width="1.28635" stroke-linecap="round" stroke-linejoin="round"/>
</g>
<defs>
<clipPath id="clip0_4_2612">
<rect width="129.986" height="128.297" fill="white" transform="translate(0.00683594 0.46875)"/>
</clipPath>
</defs>
</svg>