

<svg xmlns="http://www.w3.org/2000/svg" width="50" height="41" viewBox="0 0 50 41" fill="none">
<path d="M39.6474 0.00959189C39.8096 0.00310481 39.9587 0.0841945 40.0171 0.200962L44.8403 9.6656C44.9181 9.80832 44.8857 9.9705 44.7754 10.0938C44.6619 10.2105 44.49 10.2786 44.2986 10.2754L41.6421 10.2365L38.2656 0.0258106L39.6441 0.00634766L39.6474 0.00959189Z" fill="#271386"/>
<path d="M49.7293 38.363L37.6309 31.8111L39.5802 0.00819021C39.5802 0.00819021 39.7521 -0.0112713 39.8819 0.0763042C39.9111 0.0925219 39.9403 0.20929 39.9403 0.20929L49.992 38.2171C50.0406 38.3436 49.859 38.4344 49.7293 38.363Z" fill="black"/>
<path d="M7.4703 1.14198L2.69905 29.0072C2.66662 29.218 2.66337 29.4354 2.68932 29.6462L2.725 29.9057C2.75095 30.1392 2.73798 30.376 2.69581 30.6095L0.0977377 37.6675C-0.0514651 38.1897 0.425333 38.6859 1.10972 38.7378L33.7267 40.658C33.9376 40.6677 34.1192 40.5607 34.1614 40.405L36.4351 31.8064C36.4448 31.7837 36.4448 31.761 36.4351 31.735L36.1886 30.0743V30.0289L39.87 0.237031C39.883 0.113777 39.7532 -0.00623546 39.5911 0.000251619L8.64771 0.344066C8.04441 0.350553 7.5449 0.687882 7.4703 1.14846V1.14198Z" fill="#8C77EC"/>
<path d="M36.444 31.7615L34.1151 40.5872C34.1054 40.6423 34.0437 40.6813 33.9724 40.6715L0.781262 38.7189C0.268783 38.6897 -0.0880084 38.307 0.0190284 37.9178L2.76631 30.2598L36.4407 31.7615H36.444Z" fill="#7565E5"/>
<path d="M49.6622 38.6151L34.3138 40.6456C34.2133 40.6586 34.1224 40.5807 34.1549 40.5094L37.6287 31.8037L49.7271 38.3654C49.8666 38.4367 49.8244 38.5924 49.6622 38.6151Z" fill="black"/>
<path d="M39.8933 0.158691L37.6358 31.8059L34.1425 40.5505C34.1425 40.5505 34.123 40.557 34.123 40.5505L36.4519 31.7572L36.1859 30.0511L39.8998 0.158691H39.8933Z" fill="black"/>
<path d="M18.3391 12.1433L20.0906 14.4365L21.8227 12.1433L23.1558 13.1034L21.4237 15.3966L24.0088 16.2723L23.5093 17.8357L20.9015 16.9794V19.7948H19.2538V16.9794L16.646 17.8357L16.1465 16.2723L18.7316 15.3966L16.9995 13.1034L18.3326 12.1433H18.3391Z" fill="#6B5BD8"/>
<path d="M20.0784 22.5809C16.4327 22.5809 13.4648 19.6131 13.4648 15.9673C13.4648 12.3216 16.4327 9.35376 20.0784 9.35376C23.7241 9.35376 26.692 12.3216 26.692 15.9673C26.692 19.6131 23.7241 22.5809 20.0784 22.5809ZM20.0784 10.6771C17.1625 10.6771 14.7882 13.0514 14.7882 15.9673C14.7882 18.8833 17.1625 21.2575 20.0784 21.2575C22.9944 21.2575 25.3686 18.8833 25.3686 15.9673C25.3686 13.0514 22.9944 10.6771 20.0784 10.6771Z" fill="#6B5BD8"/>
</svg>