<svg xmlns="http://www.w3.org/2000/svg" width="607" height="405" viewBox="0 0 607 405" fill="none">
<mask id="mask0_3008_218" style="mask-type:luminance" maskUnits="userSpaceOnUse" x="0" y="0" width="607" height="405">
<path d="M0 0H607V405H24C10.7452 405 0 394.255 0 381V0Z" fill="white"/>
</mask>
<g mask="url(#mask0_3008_218)">
<path d="M19.9047 193.683C14.6423 195 11.0106 199.679 10.2595 205.692L10.2487 205.778L10.2346 205.864L-34.2703 475.877L-34.2782 475.925L-34.2872 475.973C-36.4061 487.282 -24.996 496.828 -14.114 493.203L-14.1077 493.201L547.581 304.904C553.008 302.525 557.072 298.092 557.74 292.737L557.751 292.651L557.765 292.565L602.27 22.5529L602.278 22.5049L602.287 22.4571C604.406 11.1479 592.996 1.60135 582.114 5.22648C582.112 5.22715 582.11 5.22791 582.108 5.22858L19.9047 193.683Z" stroke="#FFB3CE" stroke-width="8.89954"/>
</g>
</svg>