<svg xmlns="http://www.w3.org/2000/svg" width="674" height="706" viewBox="0 0 674 706" fill="none">
<path d="M0 204.647L202.864 309.359C205.645 310.796 208.293 312.446 210.807 314.308L361.462 425.779C367.995 430.609 372.479 437.714 374.035 445.697L395.483 555.811C396.109 559.031 394.924 562.344 392.383 564.433L377.575 576.633C372.519 580.798 371.96 588.329 376.337 593.198L378.506 595.607C381.406 598.826 385.864 600.144 390.041 599.013L419.845 588.701C426.205 586.506 430.769 580.878 431.594 574.199L433.39 559.749C433.576 558.192 435.638 557.78 436.423 559.124L516.973 696.886C521.004 703.791 529.387 706.838 536.917 704.15L537.317 704.004C546.87 700.584 551.367 689.781 547.043 680.68C536.106 657.662 517.372 617.72 510.839 603.776C509.11 600.077 509.801 595.633 512.715 592.773C513.86 591.655 515.23 590.604 516.88 589.832C520.086 588.329 524.224 588.635 526.992 589.127C528.854 589.446 530.571 590.338 531.955 591.628L621.485 675.305C626.648 680.134 634.564 680.494 640.152 676.169L641.589 675.052C648.388 669.783 649.093 659.751 643.066 653.591L557.807 567.227C557.341 566.748 557.394 565.976 557.926 565.577L559.829 564.153C560.361 564.087 560.907 564.286 561.266 564.685L579.946 585.229L640.724 639.234C646.951 644.769 656.451 644.37 662.199 638.343L662.465 638.063C668.399 631.837 668.28 622.084 662.239 616.07L574.358 528.415C572.535 526.606 571.378 524.238 571.085 521.683C570.646 517.958 570.38 512.808 571.937 511.185C573.946 509.123 581.49 509.708 585.282 510.147C586.679 510.307 588.023 510.72 589.26 511.371L619.383 527.072C621.139 527.99 622.749 529.161 624.173 530.531L648.242 553.948C654.096 559.643 663.463 559.55 669.184 553.722L669.211 553.695C674.826 547.987 674.919 538.86 669.424 533.032L640.392 502.257C639.341 501.14 638.117 500.195 636.773 499.463L590.617 472.214C587.89 470.604 585.428 468.582 583.326 466.227L520.459 412.567L450.979 357.124C445.71 353.998 440.748 350.365 436.157 346.294L0 0V204.647Z" fill="#5A1A0C"/>
<path d="M413.126 291.33C412.873 288.775 410.611 286.913 408.03 287.165C403.333 287.631 397.745 289.707 391.438 293.339C389.203 294.616 388.431 297.464 389.708 299.685C390.573 301.189 392.143 302.027 393.753 302.027C394.538 302.027 395.337 301.828 396.068 301.415C402.508 297.716 406.633 296.665 408.961 296.426C411.516 296.173 413.392 293.884 413.126 291.33ZM423.943 300.058C423.677 297.49 421.361 295.654 418.82 295.92C416.252 296.2 414.416 298.501 414.682 301.056C414.749 301.588 414.775 302.174 414.775 302.786C414.775 305.979 414.004 309.984 412.474 314.694C411.675 317.142 413.019 319.776 415.467 320.561C415.946 320.721 416.425 320.801 416.904 320.801C418.86 320.801 420.696 319.537 421.335 317.568C423.158 311.926 424.089 306.95 424.089 302.786C424.089 301.841 424.036 300.923 423.943 300.058ZM384.333 303.477C383.282 302.134 381.646 301.535 380.062 301.748H380.049C379.251 301.854 378.466 302.174 377.787 302.706C373.769 305.872 369.631 309.478 365.493 313.39C363.63 315.159 363.537 318.113 365.307 319.976C366.225 320.947 367.462 321.426 368.7 321.426C369.844 321.426 371.001 321.014 371.893 320.162C375.831 316.423 379.756 313.017 383.561 310.024C384.852 309.012 385.464 307.442 385.304 305.926C385.238 305.061 384.919 304.209 384.333 303.477ZM360.716 324.659C358.827 322.93 355.873 323.049 354.13 324.939C350.551 328.837 346.999 332.962 343.526 337.233L347.158 340.147L343.513 337.246C341.916 339.242 342.249 342.142 344.245 343.752C345.109 344.444 346.134 344.777 347.158 344.777C348.516 344.777 349.873 344.178 350.804 343.047C354.104 338.976 357.537 334.997 360.996 331.245C362.726 329.356 362.606 326.402 360.716 324.659ZM412.859 326.602C412.181 326.269 411.462 326.11 410.757 326.123L415.334 329.755C415.042 328.425 414.177 327.254 412.859 326.602ZM340.24 348.981C338.138 347.491 335.237 347.97 333.747 350.072C330.527 354.569 327.507 359.106 324.779 363.564C323.435 365.759 324.114 368.62 326.309 369.963C327.068 370.429 327.906 370.655 328.744 370.655C330.301 370.655 331.831 369.87 332.709 368.433C335.33 364.162 338.231 359.798 341.317 355.487C342.821 353.385 342.329 350.485 340.24 348.981ZM323.089 375.698C320.788 374.554 317.994 375.498 316.849 377.8C314.893 381.752 313.23 385.531 311.9 389.096C311.381 390.453 310.915 391.784 310.489 393.075C309.691 395.523 311.035 398.144 313.483 398.942C313.962 399.102 314.441 399.168 314.92 399.168C316.889 399.168 318.712 397.918 319.351 395.948C319.47 395.603 319.577 395.243 319.71 394.884C321.067 390.906 322.903 386.555 325.192 381.938C326.336 379.636 325.391 376.842 323.089 375.698ZM337.605 408.123C336.993 408.495 336.381 408.855 335.783 409.2C333.547 410.478 332.776 413.325 334.066 415.56C334.918 417.064 336.488 417.902 338.111 417.902C338.896 417.902 339.694 417.702 340.426 417.277C342.116 416.305 343.845 415.228 345.615 414.044L337.605 408.123ZM327.986 418.354C327.733 415.787 325.458 413.937 322.877 414.19C321.067 414.376 319.577 414.123 318.725 413.445C317.887 412.753 317.355 411.449 317.142 409.586C316.863 407.032 314.561 405.169 312.006 405.462C309.452 405.741 307.602 408.043 307.882 410.598C308.374 414.988 310.037 418.381 312.858 420.67C315.239 422.599 318.22 423.57 321.746 423.57C322.424 423.57 323.116 423.53 323.834 423.464C326.389 423.197 328.252 420.909 327.986 418.354Z" fill="#FFB3CE"/>
<path d="M343.794 434.161C343.541 431.607 341.279 429.731 338.685 429.997C336.875 430.183 335.399 429.944 334.547 429.252C333.696 428.56 333.163 427.256 332.95 425.393C332.671 422.839 330.369 420.989 327.815 421.269C325.26 421.548 323.411 423.85 323.69 426.404C324.182 430.808 325.859 434.188 328.666 436.476C331.034 438.406 334.028 439.377 337.554 439.377C338.219 439.377 338.924 439.337 339.643 439.27C342.198 439.004 344.06 436.716 343.794 434.161ZM361.463 425.766L356.394 422.014C354.744 423.118 353.148 424.116 351.591 425.007C349.356 426.298 348.597 429.145 349.875 431.367C350.739 432.871 352.296 433.709 353.919 433.709C354.704 433.709 355.503 433.509 356.235 433.084C358.776 431.62 361.424 429.917 364.151 427.988C363.3 427.203 362.408 426.458 361.463 425.766ZM338.898 391.505C336.596 390.361 333.802 391.305 332.658 393.607C331.274 396.401 330.037 399.115 328.959 401.723C327.934 404.211 327.043 406.593 326.298 408.881C325.5 411.33 326.843 413.964 329.292 414.749C329.771 414.909 330.249 414.975 330.728 414.975C332.698 414.975 334.52 413.725 335.159 411.755C335.611 410.372 336.13 408.935 336.702 407.445C337.887 404.384 339.324 401.138 341 397.745C342.144 395.443 341.2 392.649 338.898 391.505ZM356.048 364.788C353.946 363.298 351.045 363.777 349.555 365.879C346.335 370.376 343.315 374.913 340.588 379.371C339.244 381.566 339.922 384.427 342.118 385.77C342.876 386.236 343.714 386.462 344.553 386.462C346.109 386.462 347.639 385.677 348.518 384.24C351.152 379.969 354.039 375.605 357.126 371.294C358.629 369.192 358.137 366.292 356.048 364.788ZM376.525 340.466C374.636 338.737 371.682 338.856 369.939 340.746C366.36 344.644 362.807 348.769 359.375 352.986C359.348 353.013 359.321 353.053 359.295 353.093C357.725 355.089 358.057 358.002 360.053 359.599C360.918 360.278 361.942 360.61 362.967 360.61C364.324 360.61 365.681 360.012 366.599 358.867C366.599 358.854 366.626 358.827 366.639 358.814C369.939 354.756 373.358 350.791 376.804 347.052C378.534 345.163 378.414 342.209 376.525 340.466ZM400.142 319.284C398.545 317.262 395.618 316.929 393.595 318.513C389.577 321.679 385.439 325.285 381.301 329.197C379.439 330.966 379.359 333.92 381.115 335.783C382.033 336.754 383.271 337.233 384.508 337.233C385.652 337.233 386.81 336.821 387.701 335.969C391.64 332.23 395.565 328.824 399.37 325.83C401.392 324.234 401.738 321.307 400.142 319.284ZM439.751 315.865C439.472 313.31 437.183 311.461 434.629 311.74C432.061 312.02 430.225 314.308 430.491 316.863C430.557 317.395 430.584 317.98 430.584 318.592C430.584 321.786 429.812 325.791 428.282 330.514C427.484 332.962 428.828 335.583 431.276 336.382C431.755 336.528 432.234 336.608 432.713 336.608C434.669 336.608 436.505 335.357 437.143 333.388C438.966 327.746 439.898 322.757 439.898 318.592C439.898 317.648 439.844 316.73 439.751 315.865ZM428.934 307.137C428.681 304.582 426.419 302.719 423.838 302.972C419.128 303.438 413.553 305.513 407.247 309.146C405.011 310.423 404.24 313.27 405.517 315.492C406.382 316.996 407.952 317.834 409.562 317.834C410.347 317.834 411.145 317.634 411.877 317.222C418.316 313.523 422.441 312.472 424.77 312.233C427.324 311.98 429.2 309.691 428.934 307.137Z" fill="#FFD1E2"/>
</svg>