<svg width="24" height="24" fill="none" xmlns="http://www.w3.org/2000/svg"><path d="M20.25 14.813a3.754 3.754 0 0 0-3.75 3.75 3.754 3.754 0 0 0 3.75 3.75 3.754 3.754 0 0 0 3.75-3.75 3.754 3.754 0 0 0-3.75-3.75Zm0 5.624a1.877 1.877 0 0 1-1.875-1.875c0-1.033.841-1.875 1.875-1.875s1.875.842 1.875 1.875a1.877 1.877 0 0 1-1.875 1.875Z" fill="#FFB3CE"></path><path d="M22.66 13.48a.938.938 0 0 0 .805-1.693 7.418 7.418 0 0 0-3.396-.722l-.379-1.907c.132.02.267.03.403.03h1.875c.518 0 .938-.42.938-.938V4.5a.938.938 0 0 0-.938-.938h-1.875c-.524 0-1.015.145-1.435.396l-.001-.006a2.82 2.82 0 0 0-2.759-2.264h-2.21a.937.937 0 1 0 0 1.874h2.21a.94.94 0 0 1 .92.755l1.395 7.03a7.531 7.531 0 0 0-5.022 4.68c-.144.4-.492.66-.885.66H11.25V12a2.816 2.816 0 0 0-2.813-2.813H6.562A6.57 6.57 0 0 0 0 15.75c0 1.223.785 2.266 1.878 2.652a3.754 3.754 0 0 0 3.747 3.91 3.754 3.754 0 0 0 3.75-3.75h2.93c1.176 0 2.24-.763 2.65-1.9a5.644 5.644 0 0 1 5.295-3.725c.843 0 1.653.183 2.41.543Zm-3.504-7.105c0-.517.42-.938.938-.938h.937v1.875h-.937a.94.94 0 0 1-.918-.746l-.001-.006a.944.944 0 0 1-.019-.185ZM5.625 20.437a1.877 1.877 0 0 1-1.875-1.875H7.5a1.877 1.877 0 0 1-1.875 1.875Zm-2.813-3.75a.939.939 0 0 1-.937-.937 4.693 4.693 0 0 1 4.687-4.688h1.875c.517 0 .938.42.938.938v4.687H2.812ZM6.562 3.562H.937a.937.937 0 1 1 0-1.874h5.625a.937.937 0 1 1 0 1.874Z" fill="#FFB3CE"></path><path d="M6.562 7.312h-3.75a.937.937 0 1 1 0-1.875h3.75a.937.937 0 1 1 0 1.875Z" fill="#FFB3CE"></path></svg>