<svg xmlns="http://www.w3.org/2000/svg" width="207" height="87" viewBox="0 0 207 87" fill="none">
<rect x="2.60377" y="2.60377" width="201.792" height="81.7924" rx="10.4151" fill="#990038"/>
<rect x="2.60377" y="2.60377" width="201.792" height="81.7924" rx="10.4151" stroke="black" stroke-width="5.20755" stroke-linejoin="round"/>
<circle cx="40.4339" cy="43.5001" r="7.81132" fill="white" stroke="black" stroke-width="5.20755"/>
<path d="M74.1788 61.5V30.463H86.9269C93.3426 30.463 97.9252 33.8792 97.9252 40.3782C97.9252 44.6275 95.8422 47.6271 92.5511 49.1269L99.6333 61.5H92.3844L86.0937 50.2517H80.6362V61.5H74.1788ZM80.6362 44.6275H86.9686C89.6765 44.6275 91.4679 42.9195 91.4679 40.3782C91.4679 37.7952 89.6765 36.0872 86.9686 36.0872H80.6362V44.6275ZM121.745 49.4602C121.745 50.3767 121.662 51.2515 121.454 51.8765H105.456C105.831 54.751 107.872 56.5841 110.955 56.5841C113.163 56.5841 114.788 55.6259 115.663 54.0845L120.662 56.4591C119.287 59.7919 115.538 61.9999 110.872 61.9999C103.665 61.9999 98.957 56.6674 98.957 50.0851C98.957 43.2944 103.956 38.2535 110.455 38.2535C116.829 38.2535 121.745 43.1694 121.745 49.4602ZM105.581 47.2938H115.121C114.871 44.8775 113.038 43.2528 110.455 43.2528C107.997 43.2528 106.206 44.6692 105.581 47.2938ZM122.949 61.5V30.463H129.198V61.5H122.949ZM141.728 38.2535C147.518 38.2535 151.476 41.628 151.476 46.5023V61.5H145.644V59.417C143.936 61.2084 141.853 61.9999 139.228 61.9999C134.062 61.9999 130.813 59.0837 130.813 55.2926C130.813 51.9181 133.479 49.7101 138.103 48.7519L145.227 47.2522V46.5023C145.227 44.7942 143.811 43.6694 141.728 43.6694C139.52 43.6694 137.686 44.9608 137.02 47.0022L131.646 44.4192C132.979 40.6698 136.895 38.2535 141.728 38.2535ZM140.186 57.4173C143.019 57.4173 145.227 55.3759 145.227 52.8346V51.7515L139.228 53.0846C137.936 53.3762 137.27 54.1678 137.27 55.2093C137.27 56.5841 138.395 57.4173 140.186 57.4173ZM168.834 38.7534H175.499L165.626 63.9996C164.793 66.166 162.876 70.7903 156.752 70.7903C155.419 70.7903 154.128 70.582 153.169 70.082V64.9578C153.961 65.2078 155.086 65.3744 156.002 65.3744C158.502 65.3744 159.21 63.9996 159.752 62.7915L160.335 61.5L151.42 38.7534H158.085L163.46 53.5012L168.834 38.7534Z" fill="white"/>
</svg>