<svg width="26" height="26" fill="none" xmlns="http://www.w3.org/2000/svg"><path d="m18.646 24.564-.222.177a1.133 1.133 0 0 1-.94.225l-.33-.069.074.01a.4.4 0 0 0 .48-.39l.08-17.583.238.03.226-.133-.054 17.49a.29.29 0 0 0 .448.243Z" fill="#02C27F" stroke="#231F20" stroke-width="0.094" stroke-miterlimit="10"></path><path d="m17.786 6.935-.08 17.584a.398.398 0 0 1-.48.389l-.073-.01-14.739-3.101a1.13 1.13 0 0 1-.899-1.103l-.049-15.83 16.32 2.07Z" fill="#0C513F"></path><path d="M2.316 21.777 17.54 24.98a1.01 1.01 0 0 0 .838-.2l6.434-5.152a1.008 1.008 0 0 0 .378-.784l.052-16.14-7.215 4.263-16.56-2.101.05 15.928a1.01 1.01 0 0 0 .8.984Z" stroke="#231F20" stroke-width="0.094" stroke-miterlimit="10"></path><path d="m1.444 4.987.018 4.083a.867.867 0 0 0 .75.854l14.086 1.944a1.684 1.684 0 0 0 1.914-1.668V7.114L1.444 4.987Z" fill="#02C27F" style="mix-blend-mode:multiply"></path><path d="M18.164 7.138a1.383 1.383 0 0 0-.155.632l-.004 2.108a1.686 1.686 0 0 1-1.918 1.667L2.467 9.658a1.686 1.686 0 0 1-1.455-1.663L1 5.432c0-.158.031-.314.092-.46l17.072 2.166Z" fill="#02C27F" stroke="#231F20" stroke-width="0.094" stroke-miterlimit="10"></path><path d="M25.246 2.645a.012.012 0 0 1 .01.017.012.012 0 0 1-.005.005l-6.566 3.917a1.385 1.385 0 0 0-.521.552L1.092 4.97a1.201 1.201 0 0 1 .654-.658L9.588 1.09c.186-.077.388-.106.588-.084l15.07 1.638Z" fill="#07D183" stroke="#231F20" stroke-width="0.094" stroke-miterlimit="10"></path><path d="m20.208 21.194.115-.094.071.087-.14.404-.046-.397ZM23.85 18.351l.114-.094.071.088-.14.404-.046-.398Z" fill="#043326"></path><path d="m18.987 22.16.289-.175s.566-.05.962-.476a.394.394 0 0 0 .099-.336l-.014-.073.134-.092.06.69-.024.05v.331a.293.293 0 0 1-.088.21c-.162.16-.54.466-1.082.5l-.313.184-.023-.812ZM22.621 19.32l.29-.176s.566-.05.963-.476a.393.393 0 0 0 .097-.336l-.013-.073.134-.092.06.69-.024.05v.331a.293.293 0 0 1-.088.21c-.162.16-.54.466-1.081.5l-.313.184-.025-.812Z" fill="#000"></path><path d="M24.717 5.732 19.008 9.27a.297.297 0 1 1-.31-.506l5.751-3.47a.256.256 0 0 1 .268.438Z" fill="#02C27F" stroke="#231F20" stroke-width="0.085" stroke-miterlimit="10"></path><g clip-path="url(#Box_svg__a)"><path d="M9.49 16.964a.809.809 0 0 1-1.005-.344.83.83 0 0 1 .14-1.035.819.819 0 0 1 1.063-.064c.318.238.68.409 1.066.503.307.07.62.11.935.165.048-.98-.692-2.309-2.201-2.494a2.514 2.514 0 0 0-2.43 3.808l-.038-.035-.864 1.867 1.702-1.022c.31.195.66.32 1.023.366 1.402.18 2.511-.828 2.726-1.846a.178.178 0 0 0-.038-.017c-.705-.127-1.399-.122-2.078.148" fill="#FFC501"></path></g><defs><clipPath id="Box_svg__a"><path fill="#fff" transform="rotate(5 -150.661 83.12)" d="M0 0h5.238v5.91H0z"></path></clipPath></defs></svg>