<svg xmlns="http://www.w3.org/2000/svg" id="Layer_2" viewBox="0 0 307.24 93.64"><defs><style>.cls-1,.cls-2{fill:#fffeff;}.cls-2{opacity:.4;}</style></defs><g id="Layer_1-2"><g><path class="cls-2" d="M.2,17.13c.69,10.73,6.39,21.85,16.42,25.75,6.56,2.55,13.88,1.7,20.89,2.4,21.47,2.12,35.84,27.42,55.02,37.29,37.27,19.18,86.07,12.97,117.35-14.94,6.72-6,12.97-13.06,21.45-16.1,7.51-2.7,15.88-1.89,23.51-4.24,7.63-2.35,14.83-10.35,11.67-17.68,23.75-.82,45.76-6.62,39.73-29.61C232.28,0,78.54,.69,.81,1.07,.81,1.07-.49,6.4,.2,17.13Z"/><path class="cls-1" d="M32.71,24.18c17.95,20.71,34.95,4.32,54.86,11.58,9.6,2.93,12.96,45.67,70.77,38.77,45.93-5.48,37.36-36.58,48.82-44.21,12.92-9.11,50.15,10.71,72.26-30.25C250.35-.32,57.17,1.21,19.74,1.53c0,0,6.5,15.19,12.96,22.65Z"/></g></g></svg>