<svg xmlns="http://www.w3.org/2000/svg" width="600" height="400" viewBox="0 0 600 400" fill="none">
<g clip-path="url(#clip0_2927_11336)">
<rect width="600" height="400" rx="40" fill="black"/>
<path d="M167.556 187.78L651.543 52.998C663.521 49.6813 675.551 60.5458 672.544 72.9929L622.998 299.642C621.887 305.886 616.932 310.355 611.315 312.427L127.328 447.208C115.349 450.525 103.319 439.66 106.327 427.213L155.873 200.564C156.984 194.32 161.194 189.025 167.556 187.78Z" fill="#990038"/>
<path d="M181.011 56.12H183.531L177.363 65.792V74H175.083V65.792L168.867 56.12H171.387L176.211 63.656L181.011 56.12ZM188.811 74.288C185.139 74.288 182.259 71.48 182.259 67.616C182.259 63.752 185.115 60.992 188.811 60.992C192.507 60.992 195.363 63.752 195.363 67.616C195.363 71.48 192.483 74.288 188.811 74.288ZM188.811 72.296C191.283 72.296 193.179 70.304 193.179 67.64C193.179 64.976 191.283 62.984 188.811 62.984C186.339 62.984 184.443 64.976 184.443 67.64C184.443 70.304 186.339 72.296 188.811 72.296ZM205.95 61.28H208.014V74H205.998V72.536C205.254 73.64 203.886 74.288 202.35 74.288C199.59 74.288 197.574 72.08 197.574 69.368V61.28H199.638V68.984C199.638 71 200.886 72.296 202.806 72.296C204.678 72.296 205.95 70.976 205.95 68.984V61.28ZM216.598 61.136H217.63V63.104H216.286C214.462 63.104 213.238 64.304 213.238 66.416V74H211.174V61.28H213.166V62.864C213.838 61.688 215.062 61.136 216.598 61.136ZM230.547 60.992C234.123 60.992 236.979 63.752 236.979 67.616C236.979 71.48 234.123 74.288 230.499 74.288C228.627 74.288 226.971 73.52 226.035 72.248V78.8H223.971V61.28H225.987V63.224C226.851 61.832 228.579 60.992 230.547 60.992ZM230.427 72.296C232.947 72.296 234.795 70.328 234.795 67.64C234.795 64.952 232.923 62.984 230.427 62.984C227.907 62.984 226.035 64.952 226.035 67.64C226.035 70.328 227.883 72.296 230.427 72.296ZM244.312 60.992C247.216 60.992 249.256 62.792 249.256 65.384V74H247.24V72.224C246.376 73.496 244.864 74.288 243.232 74.288C240.52 74.288 238.696 72.704 238.696 70.472C238.696 68.6 240.208 67.304 242.776 66.728L247.192 65.744V65.384C247.192 63.92 245.992 62.96 244.312 62.96C242.776 62.96 241.576 63.776 241.024 65.024L239.176 64.064C239.896 62.336 241.96 60.992 244.312 60.992ZM243.352 72.44C245.584 72.44 247.192 70.76 247.192 68.528V67.424L243.256 68.336C241.816 68.648 240.88 69.44 240.88 70.472C240.88 71.672 241.84 72.44 243.352 72.44ZM257.595 74.288C253.947 74.288 251.235 71.432 251.235 67.616C251.235 63.8 253.947 60.992 257.595 60.992C260.091 60.992 262.203 62.456 262.995 64.352L261.147 65.312C260.523 63.92 259.251 62.984 257.595 62.984C255.195 62.984 253.419 64.952 253.419 67.64C253.419 70.28 255.195 72.296 257.595 72.296C259.251 72.296 260.523 71.36 261.147 69.968L262.995 70.928C262.203 72.8 260.067 74.288 257.595 74.288ZM275.589 61.28L270.885 66.368L275.589 74H273.213L269.517 67.904L267.261 70.328V74H265.197V56.12H267.261V67.52L273.117 61.28H275.589ZM282.21 60.992C285.114 60.992 287.154 62.792 287.154 65.384V74H285.138V72.224C284.274 73.496 282.762 74.288 281.13 74.288C278.418 74.288 276.594 72.704 276.594 70.472C276.594 68.6 278.106 67.304 280.674 66.728L285.09 65.744V65.384C285.09 63.92 283.89 62.96 282.21 62.96C280.674 62.96 279.474 63.776 278.922 65.024L277.074 64.064C277.794 62.336 279.858 60.992 282.21 60.992ZM281.25 72.44C283.482 72.44 285.09 70.76 285.09 68.528V67.424L281.154 68.336C279.714 68.648 278.778 69.44 278.778 70.472C278.778 71.672 279.738 72.44 281.25 72.44ZM299.67 61.28H301.686V73.472C301.686 76.832 299.07 79.28 295.542 79.28C292.854 79.28 290.766 77.888 289.95 75.968L291.774 74.984C292.278 76.208 293.526 77.288 295.494 77.288C297.726 77.288 299.622 75.896 299.622 73.472V71.504C298.686 72.68 297.15 73.352 295.374 73.352C291.918 73.352 289.134 70.664 289.134 67.16C289.134 63.608 291.894 60.992 295.35 60.992C297.222 60.992 298.782 61.76 299.67 63.032V61.28ZM295.47 71.36C297.942 71.36 299.622 69.56 299.622 67.16C299.622 64.736 297.87 62.984 295.446 62.984C293.118 62.984 291.318 64.64 291.318 67.16C291.318 69.632 293.022 71.36 295.47 71.36ZM316.254 67.088C316.254 67.448 316.23 67.856 316.158 68.264H306.294C306.39 70.784 308.286 72.416 310.518 72.416C312.318 72.416 313.494 71.456 314.166 70.16L315.966 71.12C315.174 72.872 313.11 74.288 310.494 74.288C306.846 74.288 304.134 71.456 304.134 67.616C304.134 63.776 306.774 60.992 310.326 60.992C313.95 60.992 316.254 63.848 316.254 67.088ZM306.342 66.488H313.974C313.95 64.376 312.198 62.816 310.326 62.816C308.334 62.816 306.63 64.184 306.342 66.488ZM318.975 76.856L319.911 71.168H322.191L320.511 76.856H318.975ZM336.068 74.288C332.396 74.288 329.516 71.48 329.516 67.616C329.516 63.752 332.372 60.992 336.068 60.992C339.764 60.992 342.62 63.752 342.62 67.616C342.62 71.48 339.74 74.288 336.068 74.288ZM336.068 72.296C338.54 72.296 340.436 70.304 340.436 67.64C340.436 64.976 338.54 62.984 336.068 62.984C333.596 62.984 331.7 64.976 331.7 67.64C331.7 70.304 333.596 72.296 336.068 72.296ZM353.208 61.28H355.272V74H353.256V72.536C352.512 73.64 351.144 74.288 349.608 74.288C346.848 74.288 344.832 72.08 344.832 69.368V61.28H346.896V68.984C346.896 71 348.144 72.296 350.064 72.296C351.936 72.296 353.208 70.976 353.208 68.984V61.28ZM363.856 61.136H364.888V63.104H363.544C361.72 63.104 360.496 64.304 360.496 66.416V74H358.432V61.28H360.424V62.864C361.096 61.688 362.32 61.136 363.856 61.136ZM381.453 56.12H383.517V74H381.501V72.152C380.565 73.52 378.861 74.288 376.941 74.288C373.317 74.288 370.509 71.48 370.509 67.64C370.509 63.8 373.341 60.992 376.917 60.992C378.837 60.992 380.541 61.808 381.453 63.152V56.12ZM377.061 72.296C379.581 72.296 381.453 70.328 381.453 67.64C381.453 64.976 379.581 62.984 377.061 62.984C374.541 62.984 372.693 64.976 372.693 67.64C372.693 70.328 374.541 72.296 377.061 72.296ZM394.81 61.28H396.874V74H394.858V72.536C394.114 73.64 392.746 74.288 391.21 74.288C388.45 74.288 386.434 72.08 386.434 69.368V61.28H388.498V68.984C388.498 71 389.746 72.296 391.666 72.296C393.538 72.296 394.81 70.976 394.81 68.984V61.28ZM405.361 74.144C402.793 74.144 401.353 72.68 401.353 70.112V63.248H398.881V61.28H399.529C400.633 61.28 401.353 60.536 401.353 59.408V57.152H403.417V61.28H406.489V63.248H403.417V70.112C403.417 70.928 403.561 72.416 405.745 72.416C406.009 72.416 406.369 72.392 406.633 72.344V74.024C406.225 74.12 405.721 74.144 405.361 74.144ZM418.056 61.256H420.456L414.576 75.584C413.928 77.192 413.016 79.208 410.04 79.208C409.464 79.208 408.84 79.136 408.36 78.944V77.096C408.6 77.168 409.176 77.24 409.68 77.24C411.552 77.24 412.032 76.088 412.416 75.2L412.968 73.88L407.88 61.256H410.232L414.144 71.096L418.056 61.256ZM423.184 68.792L423.04 56.12H425.296L425.152 68.792H423.184ZM423.04 74V71.168H425.296V74H423.04ZM218.334 105.288C214.83 105.288 212.118 103.152 211.254 100.44L213.27 99.552C214.11 102 215.958 103.296 218.334 103.296C220.59 103.296 222.078 102.144 222.078 100.488C222.078 98.976 221.214 98.16 219.438 97.632L216.102 96.624C213.246 95.784 211.806 93.984 211.806 91.776C211.806 88.872 214.206 86.832 217.638 86.832C220.926 86.832 223.398 88.776 224.214 91.152L222.222 92.088C221.478 89.976 219.846 88.824 217.662 88.824C215.502 88.824 214.086 89.952 214.086 91.632C214.086 93 215.022 94.056 216.774 94.56L219.966 95.52C222.894 96.408 224.358 97.92 224.358 100.32C224.358 103.272 221.91 105.288 218.334 105.288ZM238.441 98.088C238.441 98.448 238.417 98.856 238.345 99.264H228.481C228.577 101.784 230.473 103.416 232.705 103.416C234.505 103.416 235.681 102.456 236.353 101.16L238.153 102.12C237.361 103.872 235.297 105.288 232.681 105.288C229.033 105.288 226.321 102.456 226.321 98.616C226.321 94.776 228.961 91.992 232.513 91.992C236.137 91.992 238.441 94.848 238.441 98.088ZM228.529 97.488H236.161C236.137 95.376 234.385 93.816 232.513 93.816C230.521 93.816 228.817 95.184 228.529 97.488ZM246.346 91.992C249.106 91.992 251.098 93.96 251.098 96.624V105H249.034V97.296C249.034 95.28 247.81 93.984 245.89 93.984C243.994 93.984 242.722 95.304 242.722 97.296V105H240.658V92.28H242.674V93.744C243.418 92.64 244.786 91.992 246.346 91.992ZM264.242 87.12H266.306V105H264.29V103.152C263.354 104.52 261.65 105.288 259.73 105.288C256.106 105.288 253.298 102.48 253.298 98.64C253.298 94.8 256.13 91.992 259.706 91.992C261.626 91.992 263.33 92.808 264.242 94.152V87.12ZM259.85 103.296C262.37 103.296 264.242 101.328 264.242 98.64C264.242 95.976 262.37 93.984 259.85 93.984C257.33 93.984 255.482 95.976 255.482 98.64C255.482 101.328 257.33 103.296 259.85 103.296ZM289.02 92.28H291.348L286.908 105H284.988L281.892 95.112L278.772 105H276.828L272.388 92.28H274.716L277.812 101.952L280.74 92.28H282.996L285.924 101.904L289.02 92.28ZM293.13 89.928V87.12H295.194V89.928H293.13ZM293.13 105V92.28H295.194V105H293.13ZM303.502 105.144C300.934 105.144 299.494 103.68 299.494 101.112V94.248H297.022V92.28H297.67C298.774 92.28 299.494 91.536 299.494 90.408V88.152H301.558V92.28H304.63V94.248H301.558V101.112C301.558 101.928 301.702 103.416 303.886 103.416C304.15 103.416 304.51 103.392 304.774 103.344V105.024C304.366 105.12 303.862 105.144 303.502 105.144ZM312.909 91.992C315.669 91.992 317.661 93.96 317.661 96.648V105H315.597V97.296C315.597 95.304 314.373 93.984 312.453 93.984C310.557 93.984 309.285 95.304 309.285 97.296V105H307.221V87.12H309.285V93.672C310.053 92.616 311.373 91.992 312.909 91.992ZM324.945 105V87.12H331.329C334.977 87.12 337.473 89.28 337.473 92.64C337.473 95.112 336.129 96.96 333.897 97.728L338.073 105H335.433L331.545 98.136H327.225V105H324.945ZM327.225 96.144H331.329C333.609 96.144 335.121 94.728 335.121 92.616C335.121 90.528 333.609 89.112 331.329 89.112H327.225V96.144ZM351.316 98.088C351.316 98.448 351.292 98.856 351.22 99.264H341.356C341.452 101.784 343.348 103.416 345.58 103.416C347.38 103.416 348.556 102.456 349.228 101.16L351.028 102.12C350.236 103.872 348.172 105.288 345.556 105.288C341.908 105.288 339.196 102.456 339.196 98.616C339.196 94.776 341.836 91.992 345.388 91.992C349.012 91.992 351.316 94.848 351.316 98.088ZM341.404 97.488H349.036C349.012 95.376 347.26 93.816 345.388 93.816C343.396 93.816 341.692 95.184 341.404 97.488ZM353.533 105V87.12H355.597V105H353.533ZM363.656 91.992C366.56 91.992 368.6 93.792 368.6 96.384V105H366.584V103.224C365.72 104.496 364.208 105.288 362.576 105.288C359.864 105.288 358.04 103.704 358.04 101.472C358.04 99.6 359.552 98.304 362.12 97.728L366.536 96.744V96.384C366.536 94.92 365.336 93.96 363.656 93.96C362.12 93.96 360.92 94.776 360.368 96.024L358.52 95.064C359.24 93.336 361.304 91.992 363.656 91.992ZM362.696 103.44C364.928 103.44 366.536 101.76 366.536 99.528V98.424L362.6 99.336C361.16 99.648 360.224 100.44 360.224 101.472C360.224 102.672 361.184 103.44 362.696 103.44ZM380.275 92.256H382.675L376.795 106.584C376.147 108.192 375.235 110.208 372.259 110.208C371.683 110.208 371.059 110.136 370.579 109.944V108.096C370.819 108.168 371.395 108.24 371.899 108.24C373.771 108.24 374.251 107.088 374.635 106.2L375.187 104.88L370.099 92.256H372.451L376.363 102.096L380.275 92.256ZM385.403 99.792L385.259 87.12H387.515L387.371 99.792H385.403ZM385.259 105V102.168H387.515V105H385.259Z" fill="white"/>
<path d="M308.155 123.776C305.321 123.273 302.267 123.005 298.987 123C253.667 122.944 251.648 171.287 259.193 187.94C264.886 200.501 283.059 233.329 292.423 250.083C292.564 250.336 292.718 250.576 292.884 250.8C295.601 251.516 298.708 250.512 300.344 247.763C310.372 230.915 330.071 197.113 334.887 183.685C340.362 168.418 338.033 131.911 308.155 123.776ZM293.245 190.052C281.931 190.052 272.763 179.791 272.763 167.134C272.763 154.478 281.934 144.216 293.245 144.216C304.557 144.216 313.728 154.478 313.728 167.134C313.728 179.791 304.557 190.052 293.245 190.052Z" fill="#FF99BD"/>
<path d="M306.558 123.776C303.724 123.273 300.67 123.005 297.39 123C252.07 122.944 250.051 171.287 257.596 187.94C263.289 200.501 281.462 233.329 290.826 250.083C290.967 250.336 291.121 250.576 291.287 250.8C294.004 251.516 297.111 250.512 298.747 247.763C308.774 230.915 328.474 197.113 333.29 183.685C338.765 168.418 336.436 131.911 306.558 123.776ZM291.648 190.052C280.334 190.052 271.166 179.791 271.166 167.134C271.166 154.478 280.337 144.216 291.648 144.216C302.96 144.216 312.131 154.478 312.131 167.134C312.131 179.791 302.96 190.052 291.648 190.052Z" fill="#FFB3CE"/>
<path d="M205.541 322.236L205.631 357.464L246.376 392.016L246.258 345.685L205.541 322.236Z" fill="#B30041"/>
<path d="M246.258 345.686L393.829 321.345L393.932 361.836L246.376 392.016L246.258 345.686Z" fill="#660025"/>
<path d="M246.259 345.684L246.22 330.586L203.033 308.315L203.065 321.004L246.259 345.684Z" fill="#B20041"/>
<path d="M246.22 330.588L396.312 310.419L396.341 321.868L246.258 345.686L246.22 330.588Z" fill="#80002E"/>
<path d="M203.033 308.317C204.567 308.247 348.627 295.755 348.627 295.755L396.308 310.424L246.22 330.593L203.028 308.317L203.033 308.317Z" fill="#CC004A"/>
<path d="M393.833 322.265L246.265 345.68L246.275 349.905C246.275 349.905 352.306 332.809 370.084 332.447C387.862 332.085 393.861 333.496 393.861 333.496L393.833 322.26L393.833 322.265Z" fill="#330013"/>
<path d="M246.264 345.864L205.349 322.208L205.55 325.031L246.27 349.91L246.264 345.864Z" fill="#80002E"/>
<path d="M275.901 321.92C279.627 322.241 283.354 321.306 286.849 319.985C291.995 318.036 296.812 315.224 301.042 311.696C302.39 310.569 303.727 309.348 305.378 308.749C307.854 307.85 310.646 308.513 313.014 309.669C315.382 310.824 317.492 312.447 319.851 313.626C324.885 316.134 330.815 316.45 336.326 315.331C338.421 314.905 340.827 313.917 341.223 311.82C341.493 310.403 340.668 308.956 339.518 308.085C338.369 307.215 336.942 306.808 335.548 306.443C332.199 305.569 328.817 304.836 325.43 304.118C318.425 302.63 311.274 301.19 304.147 301.906C296.228 302.706 288.848 306.119 281.235 308.452C278.451 309.304 275.611 310.024 272.971 311.249C271.485 311.937 270.062 312.8 268.828 313.879C268.168 314.457 267.561 315.096 267.043 315.801C266.39 316.695 266.366 316.907 267.11 317.755C269.302 320.27 272.62 321.636 275.901 321.92Z" fill="#6748A3"/>
<path d="M296.155 312.218L299.652 311.666C299.652 311.666 306.725 313.881 307.008 313.965C307.287 314.054 329.622 316.018 329.301 315.919C328.984 315.826 306.627 308.882 306.627 308.882C306.627 308.882 300.361 308.421 300.201 308.473C300.041 308.526 296.155 312.213 296.155 312.213L296.155 312.218Z" fill="#AA7F2B"/>
<path d="M338.78 292.15C337.431 289.09 332.558 288.564 326.279 290.346C323.062 291.26 310.191 296.265 307.269 298.25C305.85 299.212 304.465 300.264 303.397 301.607C302.329 302.946 301.592 304.614 301.629 306.328C301.64 306.781 301.712 307.262 302.006 307.611C302.238 307.889 302.583 308.048 302.918 308.185C304.7 308.898 306.631 309.181 308.553 309.195C311.097 309.216 313.622 308.78 316.132 308.344C321.45 307.42 326.835 306.476 331.739 304.226C333.818 303.271 335.836 302.053 337.271 300.269C339.967 296.92 339.929 294.768 338.775 292.155L338.78 292.15Z" fill="#D1A033"/>
<path d="M320.916 300.898C326.973 299.202 339.282 295.861 337.961 290.964C340.388 292.709 341.647 297.828 342.24 300.872C342.814 303.821 342.96 307.101 341.304 309.613C340.129 311.395 338.168 312.557 336.115 313.138C334.059 313.719 331.897 313.782 329.758 313.754C321.916 313.661 314.091 312.453 306.583 310.192C305.345 309.818 304.093 309.405 303.062 308.634C301.62 307.552 300.695 306.138 302.341 305.341C304.067 304.505 306.687 304.442 308.574 304.017C312.712 303.081 316.826 302.041 320.911 300.903L320.916 300.898Z" fill="#F4BE38"/>
<path d="M276.653 275.433C279.145 273.203 283.799 274.73 288.786 278.942C291.341 281.098 301.001 290.969 302.845 293.98C303.741 295.442 304.567 296.974 304.986 298.635C305.406 300.295 305.392 302.118 304.655 303.663C304.457 304.074 304.194 304.476 303.784 304.676C303.454 304.832 303.076 304.838 302.713 304.82C300.796 304.735 298.92 304.197 297.162 303.418C294.832 302.39 292.713 300.951 290.609 299.521C286.144 296.487 281.628 293.407 278.086 289.332C276.585 287.608 275.249 285.662 274.677 283.449C273.599 279.288 274.525 277.341 276.654 275.438L276.653 275.433Z" fill="#D1A033"/>
<path d="M289.326 290.761C284.505 286.718 274.669 278.599 277.888 274.682C274.963 275.27 271.697 279.419 269.905 281.945C268.165 284.394 266.68 287.32 267.155 290.293C267.491 292.403 268.799 294.269 270.431 295.643C272.063 297.022 274.011 297.971 275.967 298.825C283.151 301.97 290.776 304.103 298.549 305.131C299.829 305.303 301.142 305.441 302.402 305.164C304.162 304.777 305.59 303.867 304.415 302.458C303.189 300.984 300.826 299.852 299.284 298.681C295.897 296.126 292.581 293.481 289.331 290.756L289.326 290.761Z" fill="#EFC335"/>
<path d="M264.822 300.546C265.338 297.245 269.903 295.477 276.432 295.579C279.775 295.631 293.502 297.145 296.834 298.307C298.454 298.869 300.061 299.531 301.438 300.552C302.814 301.573 303.96 302.991 304.366 304.656C304.475 305.095 304.524 305.581 304.331 305.992C304.176 306.323 303.884 306.565 303.597 306.783C302.061 307.929 300.264 308.703 298.415 309.213C295.962 309.89 293.408 310.123 290.874 310.346C285.498 310.828 280.051 311.304 274.733 310.397C272.475 310.011 270.212 309.356 268.368 308.006C264.896 305.465 264.381 303.38 264.822 300.556L264.822 300.546Z" fill="#D1A033"/>
<path d="M284.34 304.386C278.052 304.312 265.296 304.26 265.306 299.189C263.415 301.503 263.518 306.776 263.729 309.868C263.935 312.869 264.641 316.068 266.889 318.069C268.484 319.491 270.676 320.104 272.814 320.136C274.948 320.168 277.057 319.667 279.114 319.091C286.662 316.975 293.915 313.794 300.58 309.665C301.678 308.987 302.781 308.262 303.581 307.249C304.696 305.835 305.225 304.229 303.426 303.879C301.546 303.516 298.998 304.136 297.063 304.212C292.824 304.378 288.58 304.436 284.34 304.386Z" fill="#F4BE38"/>
<path d="M298.95 302.841C298.59 304.201 298.806 305.669 299.338 306.971C299.642 307.711 300.05 308.428 300.651 308.959C302.075 310.216 304.185 310.187 306.083 310.093C306.564 310.068 307.065 310.038 307.503 309.829C308.328 309.44 308.741 308.519 309.06 307.663C309.426 306.68 309.749 305.674 309.817 304.626C309.885 303.582 309.68 302.488 309.059 301.644C307.841 299.995 305.272 299.647 303.36 299.544C301.297 299.436 299.478 300.842 298.95 302.836L298.95 302.841Z" fill="#EFC335"/>
<path d="M309.479 301.973C309.19 301.582 308.821 301.262 308.409 301.003C308.5 301.461 308.525 301.938 308.493 302.405C308.425 303.449 308.097 304.46 307.736 305.443C307.417 306.298 307.004 307.22 306.179 307.609C305.741 307.818 305.245 307.843 304.759 307.872C302.998 307.962 301.048 307.995 299.639 306.988C299.677 307.092 299.715 307.196 299.758 307.3C300.062 308.04 300.47 308.757 301.071 309.289C302.495 310.545 304.605 310.516 306.503 310.422C306.984 310.397 307.484 310.367 307.923 310.159C308.748 309.769 309.161 308.848 309.48 307.992C309.846 307.009 310.169 306.003 310.237 304.955C310.305 303.911 310.099 302.817 309.479 301.973Z" fill="#E0B036"/>
<path d="M301.032 301.264C300.716 301.572 300.505 301.964 300.317 302.361C300.063 302.9 299.843 303.476 299.849 304.071C299.855 304.666 300.14 305.293 300.67 305.561C301.284 305.871 302.129 305.562 302.405 304.929C302.509 304.687 302.536 304.418 302.611 304.163C302.836 303.412 303.528 302.82 304.307 302.719C304.845 302.647 305.492 302.754 305.831 302.337C306.156 301.94 305.942 301.303 305.525 301.002C304.334 300.146 302.11 300.223 301.032 301.264Z" fill="#F2D927"/>
<path opacity="0.39" d="M264.973 304.543C265.288 307.705 265.848 310.848 266.645 313.924C266.874 314.806 267.131 315.707 267.666 316.447C268.486 317.573 269.852 318.184 271.207 318.487C271.802 318.622 272.544 318.653 272.897 318.152C273.315 317.552 272.822 316.76 272.391 316.171C271.444 314.865 270.732 313.39 270.303 311.833C270.036 310.861 269.877 309.823 270.158 308.854C270.439 307.886 271.249 307.02 272.249 306.937C272.929 306.878 273.595 307.179 274.28 307.168C274.965 307.161 275.747 306.588 275.537 305.937C275.357 305.376 274.639 305.255 274.053 305.204C271.952 305.012 269.845 304.45 267.954 303.502C267.41 303.229 266.544 302.415 265.893 302.511C264.949 302.65 264.9 303.812 264.973 304.534L264.973 304.543Z" fill="white"/>
<path opacity="0.39" d="M301.699 279.443C301.621 280.402 301.548 281.398 301.89 282.303C301.962 282.487 302.061 282.681 302.241 282.756C302.463 282.85 302.732 282.726 302.878 282.532C303.023 282.338 303.07 282.088 303.112 281.852C303.233 281.162 303.321 280.463 303.38 279.769C303.504 278.282 301.832 277.861 301.704 279.448L301.699 279.443Z" fill="white"/>
<path opacity="0.39" d="M274.516 279.343C271.751 281.937 269.791 285.379 268.965 289.082C268.863 289.545 268.807 290.107 269.167 290.413C269.451 290.653 269.894 290.619 270.21 290.42C270.526 290.225 270.742 289.904 270.94 289.587C272.012 287.837 272.837 285.734 274.667 284.804C275.416 284.425 276.303 284.267 276.92 283.694C277.575 283.083 277.78 282.096 277.589 281.223C277.269 279.761 275.995 277.956 274.516 279.343Z" fill="white"/>
<path opacity="0.39" d="M332.915 299.982C333.914 299.502 334.933 299.013 336.032 298.845C336.519 298.769 337.052 298.767 337.449 299.059C338.107 299.539 338.053 300.507 338.083 301.319C338.114 302.23 338.333 303.136 338.722 303.965C338.822 304.178 338.945 304.399 339.158 304.498C339.446 304.639 339.809 304.496 340.017 304.245C340.219 303.995 340.298 303.669 340.345 303.352C340.707 300.953 339.799 298.567 338.906 296.312C338.782 295.996 338.621 295.647 338.304 295.535C338.115 295.469 337.903 295.503 337.705 295.546C337.148 295.675 336.615 295.908 336.13 296.216C335.687 296.5 335.286 296.85 334.867 297.172C333.854 297.945 332.727 298.552 331.562 299.065C330.638 299.473 329.251 299.694 328.601 300.531C327.961 301.349 328.279 301.887 329.312 301.695C330.497 301.47 331.83 300.513 332.92 299.991L332.915 299.982Z" fill="white"/>
<path d="M224.786 275.614C225.853 275.592 334.269 268.394 334.269 268.394L367.198 277.851L262.803 288.164L224.786 275.614Z" fill="#CC004A"/>
<path d="M361.34 305.33L372.374 309.588L262.586 326.812L223.827 306.611L278.237 301.661L361.34 305.33Z" fill="#80002E"/>
<path d="M226.375 284.057L225.922 306.502L262.222 325.274L262.661 297.287L226.375 284.057Z" fill="#B20041"/>
<path d="M262.66 297.287L365.349 284.42L364.968 308.88L262.221 325.274L262.66 297.287Z" fill="#660025"/>
<path d="M262.66 297.286L262.802 288.165L224.786 275.615L224.66 283.646L262.66 297.286Z" fill="#B20041"/>
<path d="M262.802 288.164L367.198 277.846L367.088 284.763L262.661 297.285L262.802 288.164Z" fill="#80002E"/>
<path d="M365.342 284.978L262.66 297.288L262.619 299.842C262.619 299.842 336.403 290.835 348.744 290.836C361.084 290.838 365.236 291.767 365.236 291.767L365.342 284.978Z" fill="#660025"/>
<path d="M262.661 297.286L226.375 284.057L226.346 285.742L262.62 299.836L262.661 297.286Z" fill="#80002E"/>
</g>
<defs>
<clipPath id="clip0_2927_11336">
<rect width="600" height="400" fill="white"/>
</clipPath>
</defs>
</svg>