<svg xmlns="http://www.w3.org/2000/svg" width="600" height="400" viewBox="0 0 600 400" fill="none">
<g clip-path="url(#clip0_2927_11302)">
<rect width="600" height="400" rx="40" fill="#FFF0F5"/>
<path d="M-113.348 -6.49317L-113.117 -6.53833L-112.891 -6.60139L471.383 -169.311C471.386 -169.312 471.389 -169.313 471.392 -169.314C481.707 -172.163 491.794 -162.675 489.303 -152.364L489.288 -152.301L489.274 -152.237L429.461 121.381L429.436 121.495L429.415 121.611C428.565 126.387 424.675 130.358 419.357 132.386L-164.666 295.026C-174.984 297.883 -185.078 288.392 -182.586 278.079L-182.571 278.015L-182.557 277.951L-122.743 4.33372L-122.718 4.21913L-122.698 4.10366C-121.692 -1.54773 -118.088 -5.56534 -113.348 -6.49317Z" stroke="#FFC2D8" stroke-width="12"/>
<path d="M33.6519 298.507L33.8825 298.462L34.1089 298.399L618.383 135.689C618.386 135.688 618.389 135.687 618.392 135.686C628.707 132.837 638.794 142.325 636.303 152.636L636.288 152.699L636.274 152.763L576.461 426.381L576.436 426.495L576.415 426.611C575.565 431.387 571.675 435.358 566.357 437.386L-17.6657 600.026C-27.9845 602.883 -38.0777 593.392 -35.5859 583.079L-35.5705 583.015L-35.5565 582.951L24.2567 309.334L24.2817 309.219L24.3023 309.104C25.308 303.452 28.9117 299.435 33.6519 298.507Z" stroke="#FFC2D8" stroke-width="12"/>
<path d="M178.777 74V56.12H190.441V58.112H181.057V64.136H189.817V66.128H181.057V74H178.777ZM198.479 74.288C194.807 74.288 191.927 71.48 191.927 67.616C191.927 63.752 194.783 60.992 198.479 60.992C202.175 60.992 205.031 63.752 205.031 67.616C205.031 71.48 202.151 74.288 198.479 74.288ZM198.479 72.296C200.951 72.296 202.847 70.304 202.847 67.64C202.847 64.976 200.951 62.984 198.479 62.984C196.007 62.984 194.111 64.976 194.111 67.64C194.111 70.304 196.007 72.296 198.479 72.296ZM212.906 61.136H213.938V63.104H212.594C210.77 63.104 209.546 64.304 209.546 66.416V74H207.482V61.28H209.474V62.864C210.146 61.688 211.37 61.136 212.906 61.136ZM225.97 61.28H227.986V73.472C227.986 76.832 225.37 79.28 221.842 79.28C219.154 79.28 217.066 77.888 216.25 75.968L218.074 74.984C218.578 76.208 219.826 77.288 221.794 77.288C224.026 77.288 225.922 75.896 225.922 73.472V71.504C224.986 72.68 223.45 73.352 221.674 73.352C218.218 73.352 215.434 70.664 215.434 67.16C215.434 63.608 218.194 60.992 221.65 60.992C223.522 60.992 225.082 61.76 225.97 63.032V61.28ZM221.77 71.36C224.242 71.36 225.922 69.56 225.922 67.16C225.922 64.736 224.17 62.984 221.746 62.984C219.418 62.984 217.618 64.64 217.618 67.16C217.618 69.632 219.322 71.36 221.77 71.36ZM236.986 74.288C233.314 74.288 230.434 71.48 230.434 67.616C230.434 63.752 233.29 60.992 236.986 60.992C240.682 60.992 243.538 63.752 243.538 67.616C243.538 71.48 240.658 74.288 236.986 74.288ZM236.986 72.296C239.458 72.296 241.354 70.304 241.354 67.64C241.354 64.976 239.458 62.984 236.986 62.984C234.514 62.984 232.618 64.976 232.618 67.64C232.618 70.304 234.514 72.296 236.986 72.296ZM251.084 74.144C248.516 74.144 247.076 72.68 247.076 70.112V63.248H244.604V61.28H245.252C246.356 61.28 247.076 60.536 247.076 59.408V57.152H249.14V61.28H252.212V63.248H249.14V70.112C249.14 70.928 249.284 72.416 251.468 72.416C251.732 72.416 252.092 72.392 252.356 72.344V74.024C251.948 74.12 251.444 74.144 251.084 74.144ZM258.736 58.928V56.12H260.8V58.928H258.736ZM258.736 74V61.28H260.8V74H258.736ZM269.107 74.144C266.539 74.144 265.099 72.68 265.099 70.112V63.248H262.627V61.28H263.275C264.379 61.28 265.099 60.536 265.099 59.408V57.152H267.163V61.28H270.235V63.248H267.163V70.112C267.163 70.928 267.307 72.416 269.491 72.416C269.755 72.416 270.115 72.392 270.379 72.344V74.024C269.971 74.12 269.467 74.144 269.107 74.144ZM281.391 74.288C278.895 74.288 276.855 72.968 276.039 70.808L277.791 69.944C278.439 71.552 279.807 72.392 281.391 72.392C282.879 72.392 283.887 71.624 283.887 70.568C283.887 69.656 283.119 69.152 281.943 68.816L279.855 68.24C277.719 67.64 276.615 66.416 276.615 64.688C276.615 62.48 278.391 60.992 281.031 60.992C283.383 60.992 285.255 62.216 285.999 64.208L284.271 65.048C283.743 63.68 282.543 62.888 281.031 62.888C279.663 62.888 278.751 63.56 278.751 64.568C278.751 65.432 279.471 66.008 280.575 66.344L282.735 66.992C284.871 67.616 286.023 68.864 286.023 70.568C286.023 72.776 284.127 74.288 281.391 74.288ZM294.104 74.288C290.432 74.288 287.552 71.48 287.552 67.616C287.552 63.752 290.408 60.992 294.104 60.992C297.8 60.992 300.656 63.752 300.656 67.616C300.656 71.48 297.776 74.288 294.104 74.288ZM294.104 72.296C296.576 72.296 298.472 70.304 298.472 67.64C298.472 64.976 296.576 62.984 294.104 62.984C291.632 62.984 289.736 64.976 289.736 67.64C289.736 70.304 291.632 72.296 294.104 72.296ZM316.715 60.992C319.355 60.992 321.299 62.936 321.299 65.624V74H319.235V66.296C319.235 64.256 318.059 62.984 316.235 62.984C314.435 62.984 313.235 64.28 313.235 66.296V74H311.171V66.296C311.171 64.256 309.995 62.984 308.171 62.984C306.371 62.984 305.171 64.28 305.171 66.296V74H303.107V61.28H305.123V62.744C305.843 61.64 307.139 60.992 308.651 60.992C310.403 60.992 311.867 61.856 312.635 63.248C313.451 61.808 314.939 60.992 316.715 60.992ZM335.625 67.088C335.625 67.448 335.601 67.856 335.529 68.264H325.665C325.761 70.784 327.657 72.416 329.889 72.416C331.689 72.416 332.865 71.456 333.537 70.16L335.337 71.12C334.545 72.872 332.481 74.288 329.865 74.288C326.217 74.288 323.505 71.456 323.505 67.616C323.505 63.776 326.145 60.992 329.697 60.992C333.321 60.992 335.625 63.848 335.625 67.088ZM325.713 66.488H333.345C333.321 64.376 331.569 62.816 329.697 62.816C327.705 62.816 326.001 64.184 325.713 66.488ZM353.274 61.28H355.602L351.162 74H349.242L346.146 64.112L343.026 74H341.082L336.642 61.28H338.97L342.066 70.952L344.994 61.28H347.25L350.178 70.904L353.274 61.28ZM363.264 60.992C366.024 60.992 368.016 62.96 368.016 65.648V74H365.952V66.296C365.952 64.304 364.728 62.984 362.808 62.984C360.912 62.984 359.64 64.304 359.64 66.296V74H357.576V56.12H359.64V62.672C360.408 61.616 361.728 60.992 363.264 60.992ZM382.336 67.088C382.336 67.448 382.312 67.856 382.24 68.264H372.376C372.472 70.784 374.368 72.416 376.6 72.416C378.4 72.416 379.576 71.456 380.248 70.16L382.048 71.12C381.256 72.872 379.192 74.288 376.576 74.288C372.928 74.288 370.216 71.456 370.216 67.616C370.216 63.776 372.856 60.992 376.408 60.992C380.032 60.992 382.336 63.848 382.336 67.088ZM372.424 66.488H380.056C380.032 64.376 378.28 62.816 376.408 62.816C374.416 62.816 372.712 64.184 372.424 66.488ZM389.977 61.136H391.009V63.104H389.665C387.841 63.104 386.617 64.304 386.617 66.416V74H384.553V61.28H386.545V62.864C387.217 61.688 388.441 61.136 389.977 61.136ZM404.625 67.088C404.625 67.448 404.601 67.856 404.529 68.264H394.665C394.761 70.784 396.657 72.416 398.889 72.416C400.689 72.416 401.865 71.456 402.537 70.16L404.337 71.12C403.545 72.872 401.481 74.288 398.865 74.288C395.217 74.288 392.505 71.456 392.505 67.616C392.505 63.776 395.145 60.992 398.697 60.992C402.321 60.992 404.625 63.848 404.625 67.088ZM394.713 66.488H402.345C402.321 64.376 400.569 62.816 398.697 62.816C396.705 62.816 395.001 64.184 394.713 66.488ZM410.226 68.792V68.48C410.226 66.344 411.522 65.024 412.746 63.848C413.898 62.72 415.026 61.736 415.026 60.272C415.026 59 414.162 57.848 412.218 57.848C410.25 57.848 409.002 58.856 408.45 60.704L406.626 59.792C407.37 57.368 409.506 55.832 412.218 55.832C415.41 55.832 417.306 57.944 417.306 60.272C417.306 62.36 415.746 63.656 414.402 64.976C413.37 66.008 412.434 67.064 412.434 68.528V68.792H410.226ZM410.274 74V71.168H412.53V74H410.274ZM202.66 105V87.12H204.94V103.008H212.884V105H202.66ZM226.734 98.088C226.734 98.448 226.71 98.856 226.638 99.264H216.774C216.87 101.784 218.766 103.416 220.998 103.416C222.798 103.416 223.974 102.456 224.646 101.16L226.446 102.12C225.654 103.872 223.59 105.288 220.974 105.288C217.326 105.288 214.614 102.456 214.614 98.616C214.614 94.776 217.254 91.992 220.806 91.992C224.43 91.992 226.734 94.848 226.734 98.088ZM216.822 97.488H224.454C224.43 95.376 222.678 93.816 220.806 93.816C218.814 93.816 217.11 95.184 216.822 97.488ZM234.279 105.144C231.711 105.144 230.271 103.68 230.271 101.112V94.248H227.799V92.28H228.447C229.551 92.28 230.271 91.536 230.271 90.408V88.152H232.335V92.28H235.407V94.248H232.335V101.112C232.335 101.928 232.479 103.416 234.663 103.416C234.927 103.416 235.287 103.392 235.551 103.344V105.024C235.143 105.12 234.639 105.144 234.279 105.144ZM238.502 93.48L239.438 87.12H241.718L240.038 93.48H238.502ZM250.079 105.288C247.583 105.288 245.543 103.968 244.727 101.808L246.479 100.944C247.127 102.552 248.495 103.392 250.079 103.392C251.567 103.392 252.575 102.624 252.575 101.568C252.575 100.656 251.807 100.152 250.631 99.816L248.543 99.24C246.407 98.64 245.303 97.416 245.303 95.688C245.303 93.48 247.079 91.992 249.719 91.992C252.071 91.992 253.943 93.216 254.687 95.208L252.959 96.048C252.431 94.68 251.231 93.888 249.719 93.888C248.351 93.888 247.439 94.56 247.439 95.568C247.439 96.432 248.159 97.008 249.263 97.344L251.423 97.992C253.559 98.616 254.711 99.864 254.711 101.568C254.711 103.776 252.815 105.288 250.079 105.288ZM261.324 105V87.12H267.708C271.356 87.12 273.852 89.28 273.852 92.64C273.852 95.112 272.508 96.96 270.276 97.728L274.452 105H271.812L267.924 98.136H263.604V105H261.324ZM263.604 96.144H267.708C269.988 96.144 271.5 94.728 271.5 92.616C271.5 90.528 269.988 89.112 267.708 89.112H263.604V96.144ZM287.695 98.088C287.695 98.448 287.671 98.856 287.599 99.264H277.735C277.831 101.784 279.727 103.416 281.959 103.416C283.759 103.416 284.935 102.456 285.607 101.16L287.407 102.12C286.615 103.872 284.551 105.288 281.935 105.288C278.287 105.288 275.575 102.456 275.575 98.616C275.575 94.776 278.215 91.992 281.767 91.992C285.391 91.992 287.695 94.848 287.695 98.088ZM277.783 97.488H285.415C285.391 95.376 283.639 93.816 281.767 93.816C279.775 93.816 278.071 95.184 277.783 97.488ZM289.912 105V87.12H291.976V105H289.912ZM300.035 91.992C302.939 91.992 304.979 93.792 304.979 96.384V105H302.963V103.224C302.099 104.496 300.587 105.288 298.955 105.288C296.243 105.288 294.419 103.704 294.419 101.472C294.419 99.6 295.931 98.304 298.499 97.728L302.915 96.744V96.384C302.915 94.92 301.715 93.96 300.035 93.96C298.499 93.96 297.299 94.776 296.747 96.024L294.899 95.064C295.619 93.336 297.683 91.992 300.035 91.992ZM299.075 103.44C301.307 103.44 302.915 101.76 302.915 99.528V98.424L298.979 99.336C297.539 99.648 296.603 100.44 296.603 101.472C296.603 102.672 297.563 103.44 299.075 103.44ZM316.654 92.256H319.054L313.174 106.584C312.526 108.192 311.614 110.208 308.638 110.208C308.062 110.208 307.438 110.136 306.958 109.944V108.096C307.198 108.168 307.774 108.24 308.278 108.24C310.15 108.24 310.63 107.088 311.014 106.2L311.566 104.88L306.478 92.256H308.83L312.742 102.096L316.654 92.256ZM330.467 105.144C327.899 105.144 326.459 103.68 326.459 101.112V94.248H323.987V92.28H324.635C325.739 92.28 326.459 91.536 326.459 90.408V88.152H328.523V92.28H331.595V94.248H328.523V101.112C328.523 101.928 328.667 103.416 330.851 103.416C331.115 103.416 331.475 103.392 331.739 103.344V105.024C331.331 105.12 330.827 105.144 330.467 105.144ZM339.643 105.288C335.971 105.288 333.091 102.48 333.091 98.616C333.091 94.752 335.947 91.992 339.643 91.992C343.339 91.992 346.195 94.752 346.195 98.616C346.195 102.48 343.315 105.288 339.643 105.288ZM339.643 103.296C342.115 103.296 344.011 101.304 344.011 98.64C344.011 95.976 342.115 93.984 339.643 93.984C337.171 93.984 335.275 95.976 335.275 98.64C335.275 101.304 337.171 103.296 339.643 103.296ZM361.748 92.256H364.148L358.268 106.584C357.62 108.192 356.708 110.208 353.732 110.208C353.156 110.208 352.532 110.136 352.052 109.944V108.096C352.292 108.168 352.868 108.24 353.372 108.24C355.244 108.24 355.724 107.088 356.108 106.2L356.66 104.88L351.572 92.256H353.924L357.836 102.096L361.748 92.256ZM371.705 105.288C368.033 105.288 365.153 102.48 365.153 98.616C365.153 94.752 368.009 91.992 371.705 91.992C375.401 91.992 378.257 94.752 378.257 98.616C378.257 102.48 375.377 105.288 371.705 105.288ZM371.705 103.296C374.177 103.296 376.073 101.304 376.073 98.64C376.073 95.976 374.177 93.984 371.705 93.984C369.233 93.984 367.337 95.976 367.337 98.64C367.337 101.304 369.233 103.296 371.705 103.296ZM388.845 92.28H390.909V105H388.893V103.536C388.149 104.64 386.781 105.288 385.245 105.288C382.485 105.288 380.469 103.08 380.469 100.368V92.28H382.533V99.984C382.533 102 383.781 103.296 385.701 103.296C387.573 103.296 388.845 101.976 388.845 99.984V92.28ZM394.836 99.792L394.692 87.12H396.948L396.804 99.792H394.836ZM394.692 105V102.168H396.948V105H394.692Z" fill="black"/>
<g clip-path="url(#clip1_2927_11302)">
<path d="M368.712 208.719C370.086 195.696 374.496 180.018 387.684 179.281C399.553 178.586 404.529 192.931 406.602 205.059L407.736 204.865C404.649 186.811 397.726 177.544 387.616 178.126C373.62 178.909 368.983 195.127 367.561 208.593L368.708 208.716L368.712 208.719Z" fill="#5D4AD1"/>
<path d="M429.647 197.81L313.469 211.735C312.867 211.806 312.411 212.314 312.405 212.922L310.578 374.686C310.572 375.345 311.095 375.888 311.755 375.908L434.827 379.206C434.921 379.206 435.011 379.199 435.102 379.183L448.416 376.451C448.988 376.335 449.396 375.824 449.383 375.238L445.361 209.647C445.345 209.016 444.85 208.505 444.219 208.47L432.198 207.794C431.561 207.758 431.064 207.235 431.057 206.594L431.002 199C430.996 198.279 430.365 197.723 429.651 197.81H429.647Z" fill="#DBD2FC"/>
<path d="M431.096 209.22L435.128 377.528C435.147 378.381 435.936 379.012 436.776 378.837L448.283 376.474C449.053 376.35 449.406 375.82 449.379 375.096L445.367 209.799C445.351 209.084 444.785 208.502 444.074 208.463L432.547 207.817C431.749 207.771 431.08 208.418 431.099 209.22H431.096Z" fill="#9076F4"/>
<path d="M434.897 367.831L435.166 379.167L448.496 376.427C448.814 376.362 448.883 375.938 448.602 375.775L434.897 367.831Z" fill="#5D4AD1"/>
<path d="M412.825 199.824L416.598 378.724L424.397 378.934L420.604 198.89L412.825 199.824Z" fill="#9076F4"/>
<path d="M396.452 201.78L400.177 378.277L407.975 378.487L404.215 200.858L396.452 201.78Z" fill="#9076F4"/>
<path d="M380.086 203.749L383.746 377.831L391.544 378.044L387.852 202.814L380.086 203.749Z" fill="#9076F4"/>
<path d="M363.709 205.709L367.337 377.398L375.122 377.609L371.485 204.774L363.709 205.709Z" fill="#9076F4"/>
<path d="M347.333 207.678L350.915 376.952L358.691 377.165L355.099 206.743L347.333 207.678Z" fill="#9076F4"/>
<path d="M330.97 209.634L334.484 376.519L342.283 376.719L338.736 208.699L330.97 209.634Z" fill="#9076F4"/>
<path d="M316.162 211.415L319.635 376.118L327.433 376.331L323.928 210.48L316.162 211.415Z" fill="#9076F4"/>
<path d="M350.848 211.613C351.152 211.59 351.381 211.331 351.365 211.027C351.158 207.07 350.298 182.653 359.781 171.867C362.571 168.695 366.041 166.972 370.102 166.745C373.626 166.551 376.781 167.722 379.423 170.234C389.229 179.552 389.834 204.008 389.853 208.8C389.853 209.11 390.096 209.362 390.403 209.382H390.409C390.723 209.366 390.965 209.107 390.965 208.793C390.943 203.918 390.316 179.051 380.186 169.429C377.312 166.697 373.904 165.417 370.034 165.636C365.666 165.879 361.934 167.732 358.941 171.136C349.05 182.381 350.007 206.941 350.246 211.089C350.266 211.399 350.534 211.635 350.845 211.613H350.848Z" fill="#5D4AD1"/>
<path d="M255.589 180.529C253.975 165.265 248.809 146.887 233.351 146.024C219.438 145.209 213.605 162.025 211.174 176.242L209.842 176.015C213.463 154.854 221.575 143.994 233.425 144.673C249.833 145.591 255.265 164.602 256.93 180.387L255.585 180.529H255.589Z" fill="#D80058"/>
<path d="M184.161 167.739L320.343 184.063C321.048 184.147 321.585 184.742 321.591 185.453L323.732 375.068C323.741 375.841 323.127 376.481 322.354 376.5L178.095 380.364C177.989 380.364 177.879 380.358 177.772 380.335L162.165 377.134C161.493 376.995 161.017 376.397 161.034 375.711L165.744 181.612C165.764 180.875 166.343 180.274 167.08 180.232L181.17 179.44C181.917 179.398 182.502 178.783 182.509 178.036L182.573 169.135C182.58 168.292 183.32 167.638 184.157 167.739H184.161Z" fill="#FFAECF"/>
<path d="M182.464 181.114L177.74 378.401C177.717 379.403 176.789 380.141 175.81 379.937L162.321 377.166C161.558 377.011 160.998 376.527 161.037 375.553L165.738 181.793C165.758 180.956 166.42 180.273 167.255 180.228L180.766 179.468C181.704 179.417 182.486 180.173 182.464 181.111V181.114Z" fill="#FA0050"/>
<path d="M178.004 367.033L177.691 380.322L161.91 377.081C161.592 377.016 161.522 376.592 161.803 376.429L178.004 367.033Z" fill="#C60047"/>
<path d="M203.876 170.102L199.457 379.801L190.316 380.05L194.762 169.006L203.876 170.102Z" fill="#FF0660"/>
<path d="M223.072 172.394L218.704 379.281L209.563 379.526L213.97 171.314L223.072 172.394Z" fill="#FF0660"/>
<path d="M242.255 174.702L237.964 378.756L228.824 379.005L233.153 173.609L242.255 174.702Z" fill="#FF0660"/>
<path d="M261.45 176.999L257.199 378.25L248.071 378.498L252.336 175.903L261.45 176.999Z" fill="#FF0660"/>
<path d="M280.646 179.307L276.446 377.729L267.331 377.975L271.544 178.211L280.646 179.307Z" fill="#FF0660"/>
<path d="M299.828 181.602L295.706 377.217L286.565 377.453L290.727 180.506L299.828 181.602Z" fill="#FF0660"/>
<path d="M317.184 183.688L313.116 376.749L303.973 376.998L308.082 182.592L317.184 183.688Z" fill="#FF0660"/>
<path d="M276.527 183.921C276.171 183.895 275.903 183.591 275.922 183.235C276.165 178.599 277.173 149.975 266.058 137.333C262.789 133.615 258.718 131.598 253.962 131.329C249.83 131.103 246.135 132.474 243.034 135.416C231.54 146.338 230.832 175.003 230.806 180.619C230.806 180.982 230.521 181.279 230.163 181.302H230.156C229.787 181.282 229.503 180.978 229.503 180.61C229.532 174.893 230.266 145.746 242.135 134.469C245.507 131.271 249.5 129.771 254.033 130.03C259.151 130.314 263.526 132.484 267.034 136.473C278.625 149.655 277.503 178.44 277.225 183.306C277.206 183.672 276.889 183.946 276.523 183.921H276.527Z" fill="#D80058"/>
</g>
</g>
<defs>
<clipPath id="clip0_2927_11302">
<rect width="600" height="400" rx="40" fill="white"/>
</clipPath>
<clipPath id="clip1_2927_11302">
<rect width="288.405" height="250.367" fill="white" transform="translate(161 130)"/>
</clipPath>
</defs>
</svg>