<svg xmlns="http://www.w3.org/2000/svg" width="600" height="400" viewBox="0 0 600 400" fill="none">
<g clip-path="url(#clip0_2927_11382)">
<rect width="600" height="400" rx="40" fill="#FFB3CE"/>
<rect x="40" width="40" height="400" fill="#FFD1E2"/>
<rect x="120" width="40" height="400" fill="#FFD1E2"/>
<rect x="200" width="40" height="400" fill="#FFD1E2"/>
<rect x="280" width="40" height="400" fill="#FFD1E2"/>
<rect x="440" width="40" height="400" fill="#FFD1E2"/>
<rect x="360" width="40" height="400" fill="#FFD1E2"/>
<rect x="520" width="40" height="400" fill="#FFD1E2"/>
<path d="M157.984 56.12H160.504L154.336 65.792V74H152.056V65.792L145.84 56.12H148.36L153.184 63.656L157.984 56.12ZM165.783 74.288C162.111 74.288 159.231 71.48 159.231 67.616C159.231 63.752 162.087 60.992 165.783 60.992C169.479 60.992 172.335 63.752 172.335 67.616C172.335 71.48 169.455 74.288 165.783 74.288ZM165.783 72.296C168.255 72.296 170.151 70.304 170.151 67.64C170.151 64.976 168.255 62.984 165.783 62.984C163.311 62.984 161.415 64.976 161.415 67.64C161.415 70.304 163.311 72.296 165.783 72.296ZM182.923 61.28H184.987V74H182.971V72.536C182.227 73.64 180.859 74.288 179.323 74.288C176.563 74.288 174.547 72.08 174.547 69.368V61.28H176.611V68.984C176.611 71 177.859 72.296 179.779 72.296C181.651 72.296 182.923 70.976 182.923 68.984V61.28ZM193.571 61.136H194.603V63.104H193.259C191.435 63.104 190.211 64.304 190.211 66.416V74H188.146V61.28H190.139V62.864C190.811 61.688 192.035 61.136 193.571 61.136ZM206.583 74.288C202.935 74.288 200.223 71.432 200.223 67.616C200.223 63.8 202.935 60.992 206.583 60.992C209.079 60.992 211.191 62.456 211.983 64.352L210.135 65.312C209.511 63.92 208.239 62.984 206.583 62.984C204.183 62.984 202.407 64.952 202.407 67.64C202.407 70.28 204.183 72.296 206.583 72.296C208.239 72.296 209.511 71.36 210.135 69.968L211.983 70.928C211.191 72.8 209.055 74.288 206.583 74.288ZM222.322 61.28H224.386V74H222.37V72.536C221.626 73.64 220.258 74.288 218.722 74.288C215.962 74.288 213.946 72.08 213.946 69.368V61.28H216.01V68.984C216.01 71 217.258 72.296 219.178 72.296C221.05 72.296 222.322 70.976 222.322 68.984V61.28ZM231.985 74.288C229.489 74.288 227.449 72.968 226.633 70.808L228.385 69.944C229.033 71.552 230.401 72.392 231.985 72.392C233.473 72.392 234.481 71.624 234.481 70.568C234.481 69.656 233.713 69.152 232.537 68.816L230.449 68.24C228.313 67.64 227.209 66.416 227.209 64.688C227.209 62.48 228.985 60.992 231.625 60.992C233.977 60.992 235.849 62.216 236.593 64.208L234.865 65.048C234.337 63.68 233.137 62.888 231.625 62.888C230.257 62.888 229.345 63.56 229.345 64.568C229.345 65.432 230.065 66.008 231.169 66.344L233.329 66.992C235.465 67.616 236.617 68.864 236.617 70.568C236.617 72.776 234.721 74.288 231.985 74.288ZM244.193 74.144C241.625 74.144 240.185 72.68 240.185 70.112V63.248H237.713V61.28H238.361C239.465 61.28 240.185 60.536 240.185 59.408V57.152H242.249V61.28H245.321V63.248H242.249V70.112C242.249 70.928 242.393 72.416 244.577 72.416C244.841 72.416 245.201 72.392 245.465 72.344V74.024C245.057 74.12 244.553 74.144 244.193 74.144ZM253.369 74.288C249.697 74.288 246.817 71.48 246.817 67.616C246.817 63.752 249.673 60.992 253.369 60.992C257.065 60.992 259.921 63.752 259.921 67.616C259.921 71.48 257.041 74.288 253.369 74.288ZM253.369 72.296C255.841 72.296 257.737 70.304 257.737 67.64C257.737 64.976 255.841 62.984 253.369 62.984C250.897 62.984 249.001 64.976 249.001 67.64C249.001 70.304 250.897 72.296 253.369 72.296ZM275.981 60.992C278.621 60.992 280.565 62.936 280.565 65.624V74H278.501V66.296C278.501 64.256 277.325 62.984 275.501 62.984C273.701 62.984 272.501 64.28 272.501 66.296V74H270.437V66.296C270.437 64.256 269.261 62.984 267.437 62.984C265.637 62.984 264.437 64.28 264.437 66.296V74H262.373V61.28H264.389V62.744C265.109 61.64 266.405 60.992 267.917 60.992C269.669 60.992 271.133 61.856 271.901 63.248C272.717 61.808 274.205 60.992 275.981 60.992ZM294.89 67.088C294.89 67.448 294.866 67.856 294.794 68.264H284.93C285.026 70.784 286.922 72.416 289.154 72.416C290.954 72.416 292.13 71.456 292.802 70.16L294.602 71.12C293.81 72.872 291.746 74.288 289.13 74.288C285.482 74.288 282.77 71.456 282.77 67.616C282.77 63.776 285.41 60.992 288.962 60.992C292.586 60.992 294.89 63.848 294.89 67.088ZM284.978 66.488H292.61C292.586 64.376 290.834 62.816 288.962 62.816C286.97 62.816 285.266 64.184 284.978 66.488ZM302.531 61.136H303.563V63.104H302.219C300.395 63.104 299.171 64.304 299.171 66.416V74H297.107V61.28H299.099V62.864C299.771 61.688 300.995 61.136 302.531 61.136ZM310.219 74.288C307.723 74.288 305.683 72.968 304.867 70.808L306.619 69.944C307.267 71.552 308.635 72.392 310.219 72.392C311.707 72.392 312.715 71.624 312.715 70.568C312.715 69.656 311.947 69.152 310.771 68.816L308.683 68.24C306.547 67.64 305.443 66.416 305.443 64.688C305.443 62.48 307.219 60.992 309.859 60.992C312.211 60.992 314.083 62.216 314.827 64.208L313.099 65.048C312.571 63.68 311.371 62.888 309.859 62.888C308.491 62.888 307.579 63.56 307.579 64.568C307.579 65.432 308.299 66.008 309.403 66.344L311.563 66.992C313.699 67.616 314.851 68.864 314.851 70.568C314.851 72.776 312.955 74.288 310.219 74.288ZM317.604 76.856L318.54 71.168H320.82L319.14 76.856H317.604ZM334.697 74.288C331.025 74.288 328.145 71.48 328.145 67.616C328.145 63.752 331.001 60.992 334.697 60.992C338.393 60.992 341.249 63.752 341.249 67.616C341.249 71.48 338.369 74.288 334.697 74.288ZM334.697 72.296C337.169 72.296 339.065 70.304 339.065 67.64C339.065 64.976 337.169 62.984 334.697 62.984C332.225 62.984 330.329 64.976 330.329 67.64C330.329 70.304 332.225 72.296 334.697 72.296ZM351.837 61.28H353.901V74H351.885V72.536C351.141 73.64 349.773 74.288 348.237 74.288C345.477 74.288 343.461 72.08 343.461 69.368V61.28H345.525V68.984C345.525 71 346.773 72.296 348.693 72.296C350.565 72.296 351.837 70.976 351.837 68.984V61.28ZM362.485 61.136H363.517V63.104H362.173C360.349 63.104 359.125 64.304 359.125 66.416V74H357.061V61.28H359.053V62.864C359.725 61.688 360.949 61.136 362.485 61.136ZM376.433 60.992C380.009 60.992 382.865 63.752 382.865 67.616C382.865 71.48 380.009 74.288 376.385 74.288C374.513 74.288 372.857 73.52 371.921 72.248V78.8H369.857V61.28H371.873V63.224C372.737 61.832 374.465 60.992 376.433 60.992ZM376.313 72.296C378.833 72.296 380.681 70.328 380.681 67.64C380.681 64.952 378.809 62.984 376.313 62.984C373.793 62.984 371.921 64.952 371.921 67.64C371.921 70.328 373.769 72.296 376.313 72.296ZM390.727 61.136H391.759V63.104H390.415C388.591 63.104 387.367 64.304 387.367 66.416V74H385.303V61.28H387.295V62.864C387.967 61.688 389.191 61.136 390.727 61.136ZM393.783 58.928V56.12H395.847V58.928H393.783ZM393.783 74V61.28H395.847V74H393.783ZM404.658 74.288C400.986 74.288 398.106 71.48 398.106 67.616C398.106 63.752 400.962 60.992 404.658 60.992C408.354 60.992 411.21 63.752 411.21 67.616C411.21 71.48 408.33 74.288 404.658 74.288ZM404.658 72.296C407.13 72.296 409.026 70.304 409.026 67.64C409.026 64.976 407.13 62.984 404.658 62.984C402.186 62.984 400.29 64.976 400.29 67.64C400.29 70.304 402.186 72.296 404.658 72.296ZM419.086 61.136H420.118V63.104H418.774C416.95 63.104 415.726 64.304 415.726 66.416V74H413.662V61.28H415.654V62.864C416.326 61.688 417.55 61.136 419.086 61.136ZM422.142 58.928V56.12H424.206V58.928H422.142ZM422.142 74V61.28H424.206V74H422.142ZM432.514 74.144C429.946 74.144 428.506 72.68 428.506 70.112V63.248H426.034V61.28H426.682C427.786 61.28 428.506 60.536 428.506 59.408V57.152H430.57V61.28H433.642V63.248H430.57V70.112C430.57 70.928 430.714 72.416 432.898 72.416C433.162 72.416 433.522 72.392 433.786 72.344V74.024C433.378 74.12 432.874 74.144 432.514 74.144ZM445.208 61.256H447.608L441.728 75.584C441.08 77.192 440.168 79.208 437.192 79.208C436.616 79.208 435.992 79.136 435.512 78.944V77.096C435.752 77.168 436.328 77.24 436.832 77.24C438.704 77.24 439.184 76.088 439.568 75.2L440.12 73.88L435.032 61.256H437.384L441.296 71.096L445.208 61.256ZM450.336 68.792L450.192 56.12H452.448L452.304 68.792H450.336ZM450.192 74V71.168H452.448V74H450.192ZM256.409 87.12H258.713V99.168C258.713 102.816 256.121 105.288 252.161 105.288C248.201 105.288 245.609 102.84 245.609 99.168V87.12H247.913V99.168C247.913 101.544 249.713 103.272 252.161 103.272C254.585 103.272 256.409 101.544 256.409 99.168V87.12ZM266.567 105.288C264.071 105.288 262.031 103.968 261.215 101.808L262.967 100.944C263.615 102.552 264.983 103.392 266.567 103.392C268.055 103.392 269.063 102.624 269.063 101.568C269.063 100.656 268.295 100.152 267.119 99.816L265.031 99.24C262.895 98.64 261.791 97.416 261.791 95.688C261.791 93.48 263.567 91.992 266.207 91.992C268.559 91.992 270.431 93.216 271.175 95.208L269.447 96.048C268.919 94.68 267.719 93.888 266.207 93.888C264.839 93.888 263.927 94.56 263.927 95.568C263.927 96.432 264.647 97.008 265.751 97.344L267.911 97.992C270.047 98.616 271.199 99.864 271.199 101.568C271.199 103.776 269.303 105.288 266.567 105.288ZM284.847 98.088C284.847 98.448 284.823 98.856 284.751 99.264H274.887C274.983 101.784 276.879 103.416 279.111 103.416C280.911 103.416 282.087 102.456 282.759 101.16L284.559 102.12C283.767 103.872 281.703 105.288 279.087 105.288C275.439 105.288 272.727 102.456 272.727 98.616C272.727 94.776 275.367 91.992 278.919 91.992C282.543 91.992 284.847 94.848 284.847 98.088ZM274.935 97.488H282.567C282.543 95.376 280.791 93.816 278.919 93.816C276.927 93.816 275.223 95.184 274.935 97.488ZM291.429 105V87.12H297.813C301.461 87.12 303.957 89.28 303.957 92.64C303.957 95.112 302.613 96.96 300.381 97.728L304.557 105H301.917L298.029 98.136H293.709V105H291.429ZM293.709 96.144H297.813C300.093 96.144 301.605 94.728 301.605 92.616C301.605 90.528 300.093 89.112 297.813 89.112H293.709V96.144ZM317.8 98.088C317.8 98.448 317.776 98.856 317.704 99.264H307.84C307.936 101.784 309.832 103.416 312.064 103.416C313.864 103.416 315.04 102.456 315.712 101.16L317.512 102.12C316.72 103.872 314.656 105.288 312.04 105.288C308.392 105.288 305.68 102.456 305.68 98.616C305.68 94.776 308.32 91.992 311.872 91.992C315.496 91.992 317.8 94.848 317.8 98.088ZM307.888 97.488H315.52C315.496 95.376 313.744 93.816 311.872 93.816C309.88 93.816 308.176 95.184 307.888 97.488ZM320.018 105V87.12H322.082V105H320.018ZM330.14 91.992C333.044 91.992 335.084 93.792 335.084 96.384V105H333.068V103.224C332.204 104.496 330.692 105.288 329.06 105.288C326.348 105.288 324.524 103.704 324.524 101.472C324.524 99.6 326.036 98.304 328.604 97.728L333.02 96.744V96.384C333.02 94.92 331.82 93.96 330.14 93.96C328.604 93.96 327.404 94.776 326.852 96.024L325.004 95.064C325.724 93.336 327.788 91.992 330.14 91.992ZM329.18 103.44C331.412 103.44 333.02 101.76 333.02 99.528V98.424L329.084 99.336C327.644 99.648 326.708 100.44 326.708 101.472C326.708 102.672 327.668 103.44 329.18 103.44ZM346.759 92.256H349.159L343.279 106.584C342.631 108.192 341.719 110.208 338.743 110.208C338.167 110.208 337.543 110.136 337.063 109.944V108.096C337.303 108.168 337.879 108.24 338.383 108.24C340.255 108.24 340.735 107.088 341.119 106.2L341.671 104.88L336.583 92.256H338.935L342.847 102.096L346.759 92.256ZM351.887 99.792L351.743 87.12H353.999L353.855 99.792H351.887ZM351.743 105V102.168H353.999V105H351.743Z" fill="black"/>
<path d="M388.903 218.2C388.741 220.783 388.543 225.238 388.431 227.891C388.373 229.305 387.85 230.664 386.945 231.803L381.815 238.242C382.63 235.802 386.413 224.46 387.521 220.638C388.376 217.713 386.608 215.615 385.4 214.574C387.634 215.168 389.021 216.278 388.903 218.2Z" fill="white"/>
<path d="M231.572 279.629C231.572 279.629 237.685 282.548 237.738 284.399C237.777 285.742 236.14 286.884 234.631 287.655C233.092 288.434 232.052 289.852 231.899 291.468L231.427 296.348L273.424 354.568L287.698 360.021L317.722 324.593L295.784 272.107L258.416 272.748L231.572 279.629Z" fill="#0C0000"/>
<path d="M287.822 347.228C292.399 317.199 278.405 290.508 256.565 287.61C234.726 284.712 213.311 306.706 208.734 336.734C204.157 366.763 218.151 393.454 239.991 396.352C261.83 399.25 283.245 377.256 287.822 347.228Z" fill="#303030"/>
<path d="M384.83 308.1C381.536 329.73 368.289 345.889 352.56 343.803C336.83 341.716 326.753 322.492 330.052 300.862C333.346 279.233 348.773 263.394 364.497 265.48C380.226 267.567 388.124 286.475 384.83 308.1Z" fill="#1C1C1C"/>
<path d="M381.136 308.195C378.637 324.59 371.43 337.215 363.72 336.188C356.01 335.166 351.787 321.049 354.287 304.654C356.786 288.259 365.057 275.803 372.767 276.825C380.476 277.847 383.635 291.804 381.136 308.195Z" fill="#0C0000"/>
<path d="M281.101 347.017C287.397 324.244 281.234 303.1 267.336 299.789C253.437 296.478 237.066 312.255 230.769 335.027C224.473 357.8 230.635 378.944 244.534 382.255C258.433 385.566 274.804 369.789 281.101 347.017Z" fill="#0C0000"/>
<path d="M281.11 347.029C274.806 369.802 258.439 385.581 244.543 382.263C239.993 381.179 236.267 378.186 233.551 373.849C234.243 374.062 234.952 374.219 235.682 374.331C249.31 376.45 263.448 360.854 267.268 339.508C270.282 322.655 265.965 307.245 257.311 300.469C260.683 299.296 264.087 299.021 267.355 299.802C281.255 303.111 287.42 324.256 281.115 347.034L281.11 347.029Z" fill="#3D3D3D"/>
<path d="M367.54 250.251L367.412 256.748L390.936 257.055L389.155 242.911L377.811 243.164L367.54 250.251Z" fill="#444444"/>
<path d="M387.52 220.639C386.407 224.461 382.624 235.803 381.814 238.243L380.117 240.37L373.159 237.609L365.668 219.435L367.198 218.078C367.198 218.078 370.284 214.133 376.794 213.956C380.059 213.863 383.155 213.961 385.399 214.574C386.601 215.611 388.374 217.714 387.52 220.639Z" fill="#444444"/>
<path d="M372.997 269.86L375.496 273.554L382.371 273.69L383.217 244.283L372.115 244.952L372.997 269.86Z" fill="#303030"/>
<path d="M357.261 256.874L382.95 244.286L383.123 243.401C383.508 241.415 381.804 239.596 379.612 239.668L375.193 239.817L361.467 250.023L357.266 256.874L357.261 256.874Z" fill="#1C1C1C"/>
<path d="M356.078 223.251L367.198 218.076L371.636 218.261C377.025 218.488 381.312 222.527 381.444 227.503L380.808 235.863C380.72 236.989 380.238 238.058 379.429 238.907L376.921 241.536L360.152 253.532L356.078 223.251Z" fill="#0C0000"/>
<path d="M319.241 165.53L376.743 166.299L376.269 227.405L320.465 223.158L319.241 165.53Z" fill="black"/>
<path d="M404.51 209.847L376.242 227.395L376.716 166.299L405.85 153.875L404.51 209.847Z" fill="#333333"/>
<path d="M319.241 165.53L351.361 153.679L405.852 153.876L376.718 166.299L319.241 165.53Z" fill="#666666"/>
<path d="M405.611 163.33L376.62 176.136L376.714 166.312L405.848 153.871L405.611 163.33Z" fill="#4D4D4D"/>
<path d="M376.306 267.585L354.356 318.816C353.137 321.665 354.657 324.891 357.753 326.016C360.889 327.151 364.416 325.694 365.567 322.779L386.286 270.377L376.306 267.589L376.306 267.585Z" fill="#444444"/>
<path d="M353.941 299.173C353.941 299.173 355.128 309.137 354.602 312.411C354.065 315.745 349.69 320.784 350.21 324.129C351.167 330.263 359.938 328.554 362.471 327.498C371.947 323.559 372.423 315.177 372.423 315.177L374.342 311.163C374.965 309.866 374.949 308.376 374.303 307.087L368.057 294.618L353.946 299.173L353.941 299.173Z" fill="#2B2B2B"/>
<path d="M368.032 223.89C368.032 223.89 376.859 237.863 356.899 259.682C355.895 260.781 355.773 262.351 356.53 263.62C359.32 268.305 365.754 279.386 366.56 283.223C367.591 288.137 369.706 295.006 369.706 295.006C369.706 295.006 367.141 302.819 354.639 300.792C354.639 300.792 342.66 277.353 338.033 270.49C332.252 261.915 332.835 256.737 335.344 252.035L324.332 239.801L321.329 220.748L368.042 223.886L368.032 223.89Z" fill="#666666"/>
<path d="M292.454 180.67L288.225 183.108L279.368 191.981C279.368 191.981 279.347 193.022 274.818 194.412C270.289 195.803 262.668 207.083 262.668 207.083L276.053 213.134L300.447 191.208L292.454 180.666L292.454 180.67Z" fill="#683B28"/>
<path d="M288.222 183.111C288.222 183.111 293.973 168.83 302.029 167.8C310.09 166.775 340.111 160.984 340.111 160.984C340.111 160.984 344.871 159.551 349.788 162.914C354.704 166.277 356.444 168.508 359.524 179.615C359.524 179.615 360.835 189.133 361.747 192.458C362.378 194.765 365.739 204.559 366.704 215.079C366.704 215.079 367.712 221.181 369.554 225.376C371.401 229.566 369.801 229.091 369.801 229.091C369.801 229.091 370.729 222.726 344.657 223.997C318.581 225.263 315.371 225.052 315.371 225.052L317.575 219.308C317.575 219.308 314.953 213.766 315.824 210.226C315.824 210.226 303.871 196.636 303.365 189.502L300.579 192.264C300.579 192.264 293.837 183.375 288.217 183.116L288.222 183.111Z" fill="#333333"/>
<path d="M339.108 247.188L335.399 255.538C335.399 255.538 335.317 254.889 334.841 254.121C334.175 253.044 332.712 251.738 329.555 251.676C325.782 251.601 313.902 251.594 307.029 251.592C304.037 251.593 301.996 251.595 301.996 251.595L294.434 243.887L290.08 239.444L286.09 235.368C286.09 235.368 286.841 234.402 288.072 232.974C291.694 228.776 299.471 220.543 304.635 220.761C311.562 221.055 325.451 219.613 328.888 225.301C332.32 230.979 342.817 238.833 339.103 247.183L339.108 247.188Z" fill="#444444"/>
<path d="M309.768 229.767C309.772 229.558 309.72 228.137 309.663 226.679C309.597 224.971 311.317 223.673 313.124 224.069L322.542 226.147L315.649 237.857C314.497 239.819 312.155 240.92 309.754 240.637C309.754 240.637 304.992 238.85 303.307 238.627C301.322 238.366 295.286 238.922 295.286 238.922L290.674 226.48L291.082 224.828C291.344 223.769 292.341 223.011 293.52 222.97L295.848 222.891L296.108 220.38C296.213 219.355 297.255 218.635 298.359 218.833L304.588 219.964C305.866 220.193 306.722 221.311 306.528 222.505L305.608 228.209L309.768 229.767Z" fill="#333333"/>
<path d="M304.245 250.041L293.29 228.528C292.166 226.313 289.138 225.583 286.984 226.993L282.226 230.123L286.379 246.751L304.245 250.032L304.245 250.041Z" fill="#0C0000"/>
<path d="M308.743 247.696L307.037 251.599L305.221 255.754C304.743 256.855 303.828 257.734 302.666 258.225C300.325 259.21 295.877 261.07 290.249 263.318C281.123 266.963 268.88 271.634 257.489 275.29C244.933 279.321 233.393 282.119 228.183 280.947C217.483 278.548 221.785 264.27 223.475 254.307C226.623 235.765 236.419 225.056 240.096 221.603C240.944 220.811 242.037 220.286 243.238 220.116L291.901 213.087C291.901 213.087 286.451 222.564 288.08 232.995C288.391 235.009 288.972 237.051 289.9 239.072C289.962 239.207 290.025 239.334 290.093 239.46C291.13 241.506 292.676 242.929 294.446 243.903C298.503 246.12 303.759 245.979 306.945 245.616C308.201 245.474 309.186 246.613 308.748 247.705L308.748 247.692L308.743 247.696Z" fill="#333333"/>
<path d="M263.622 342.116C264.425 336.391 261.988 331.372 258.177 330.905C254.367 330.439 250.628 334.703 249.825 340.428C249.021 346.153 251.459 351.172 255.269 351.638C259.079 352.104 262.819 347.841 263.622 342.116Z" fill="#D1CECF"/>
<path d="M283.089 282.825L261.777 341.608C261.486 342.421 261.433 343.294 261.617 344.131L261.732 344.656C261.948 345.654 262.841 346.408 263.936 346.522L268.873 347.054C270.279 347.207 271.579 346.372 271.919 345.111L287.631 284.075L283.094 282.829L283.089 282.825Z" fill="#232522"/>
<path d="M271.962 343.457C272.329 341.895 272.003 340.503 271.234 340.347C270.466 340.192 269.546 341.332 269.18 342.893C268.814 344.455 269.14 345.847 269.908 346.003C270.676 346.158 271.596 345.019 271.962 343.457Z" fill="#FFB3CE"/>
<path d="M230.713 295.678L239.612 289.752L253.916 293.189L259.048 339.275C259.167 340.346 260.032 341.223 261.171 341.426L263.109 341.783L284.186 284.947L242.662 285.603L230.713 295.683L230.713 295.678Z" fill="#1E1E1E"/>
<path d="M258.956 344.234C260.342 344.261 261.492 342.965 261.525 341.338C261.557 339.711 260.459 338.37 259.072 338.343C257.686 338.316 256.536 339.612 256.504 341.239C256.472 342.866 257.569 344.206 258.956 344.234Z" fill="#0C0000"/>
<path d="M309.071 321.783C309.071 321.783 302.436 323.993 302.176 328.512C301.921 333.031 301.272 340.035 294.756 344.588C288.244 349.14 287.694 360.014 287.694 360.014L335.038 342.107C335.038 342.107 349.689 338.344 352.339 327.508C352.449 327.047 351.879 326.703 351.462 326.977L349.847 328.046L350.102 323.527L329.702 316.302C329.702 316.302 334.29 313.441 331.326 301.583L309.061 321.778L309.071 321.783Z" fill="#282828"/>
<path d="M337.01 285.369C337.01 285.369 324.642 329.43 306.794 334.846C306.794 334.846 310.968 302.951 293.799 290.757C279.156 280.356 262.173 276.265 257.496 275.284C256.692 275.116 256.247 275.038 256.247 275.038L276.203 265.921C276.203 265.921 282.066 264.501 290.255 263.316C304.225 261.312 324.969 260.005 334.828 267.698C336.926 269.335 338.152 271.196 338.797 273.082C340.864 279.108 337.016 285.369 337.016 285.369L337.01 285.369Z" fill="#444444"/>
<path d="M339.043 274.593C338.475 272.611 337.311 270.627 335.226 268.833C325.432 260.406 302.162 262.236 287.581 263.66C293.537 261.604 299.961 258.442 302.44 257.524C303.672 257.067 304.667 256.198 305.22 255.085L307.334 250.871C314.445 251.192 326.831 250.72 330.736 250.972C334.001 251.18 335.441 252.601 336.075 253.747C335.402 257.392 334.867 264.182 337.576 268.153C339.719 271.304 339.649 273.342 339.048 274.584L339.043 274.593Z" fill="#303030"/>
<path d="M227.285 207.818L214.884 207.574L214.84 209.765L227.242 210.01L227.285 207.818Z" fill="#333333"/>
<path d="M227.278 207.812L225.309 208.671L237.45 232.242L239.419 231.383L227.278 207.812Z" fill="#333333"/>
<path d="M203.402 210.117L221.266 210.993C221.266 210.993 225.798 210.212 218.616 202.253C211.429 194.294 201.137 191.311 197.874 194.549C194.612 197.783 197.645 206.183 203.402 210.117Z" fill="black"/>
<path d="M308.938 209.874L296.536 209.629L296.493 211.821L308.895 212.065L308.938 209.874Z" fill="#333333"/>
<path d="M296.55 209.618L283.489 232.692L285.422 233.628L298.483 210.554L296.55 209.618Z" fill="#333333"/>
<path d="M320.305 212.862L302.421 213.031C302.421 213.031 297.924 212.073 305.414 204.403C312.909 196.734 323.311 194.159 326.443 197.524C329.575 200.884 326.214 209.157 320.305 212.862Z" fill="black"/>
<path d="M386.588 269.894C386.629 269.74 384.354 269.082 381.506 268.424C378.657 267.765 376.315 267.356 376.274 267.51C376.233 267.663 378.508 268.321 381.356 268.98C384.205 269.638 386.547 270.048 386.588 269.894Z" stroke="black" stroke-width="3.27879" stroke-miterlimit="10"/>
<path d="M225.911 252.143C225.911 252.143 233.28 257.982 258.308 255.493L259.48 264.925C259.48 264.925 242.467 277.333 229.731 274.218C223.794 272.764 221.356 267.026 221.356 267.026L222.176 261.052L225.916 252.138L225.911 252.143Z" fill="white"/>
<path d="M335.017 170.908C337.832 164.296 337.306 157.912 333.843 156.648C330.38 155.384 325.291 159.719 322.477 166.331C319.662 172.942 320.188 179.326 323.651 180.59C327.114 181.855 332.203 177.52 335.017 170.908Z" fill="#683B28"/>
<path d="M340.116 160.984C340.116 160.984 347.867 135.02 329.823 128.581C311.778 122.142 296.97 131.051 296.888 143.362L296.345 143.902C295.86 144.388 295.636 145.054 295.733 145.713L298.176 162.89C298.322 163.91 298.819 164.868 299.597 165.61L300.61 166.583C300.61 166.583 303.606 178.632 312.604 178.097C329.512 177.094 340.116 160.979 340.116 160.979L340.116 160.984Z" fill="black"/>
<path d="M330.868 160.053C323.306 165.764 311.293 171.975 300.64 166.695L300.612 166.593L299.598 165.62C298.821 164.874 298.323 163.921 298.178 162.9L295.735 145.718C295.646 145.134 295.813 144.54 296.193 144.076C296.509 145.091 298.527 146.745 308.564 146.425C317.121 146.15 326.26 145.095 332.236 144.292C332.93 147.516 333.942 154.669 330.873 160.062L330.868 160.053Z" fill="#FFF0F5"/>
<path d="M338.346 153.089C337.843 153.931 335.032 156.914 330.87 160.056C333.939 154.663 332.927 147.515 332.234 144.286C336.27 143.737 338.86 143.307 338.86 143.307C338.86 143.307 339.839 150.593 338.346 153.089Z" fill="black"/>
<path d="M337.244 148.962C337.792 148.973 338.254 148.089 338.276 146.989C338.297 145.888 337.871 144.987 337.323 144.976C336.775 144.965 336.313 145.849 336.291 146.949C336.27 148.05 336.696 148.951 337.244 148.962Z" fill="#FFD1E2"/>
<path d="M240.386 230.167L243.613 217.996C247.328 205.524 256.083 201.349 273.196 204.961L293.23 211.907L270.22 232.823L240.386 230.167Z" fill="#444444"/>
<path d="M348.829 233.218L319.189 227.337L317.985 232.202L347.415 238.32C348.508 238.545 349.579 237.886 349.764 236.872L350.118 234.969C350.269 234.162 349.698 233.383 348.829 233.213L348.829 233.218Z" fill="#333333"/>
<path d="M356.166 190.163C356.166 190.163 357.628 200.156 351.19 215.201C344.753 230.246 342.792 228.218 342.792 228.218L341.732 231.417L337.748 231.338L336.32 236.371L330.86 235.19L330.316 229.198L327.75 232.982L327.36 235.731L324.66 237.672L323.176 237.185L323.566 234.435L321.555 235.469L321.171 229.79L324.461 223.111L333.083 223.891L339.922 205.783L340.819 193.843L356.176 190.159L356.166 190.163Z" fill="#683B28"/>
<path d="M340.751 195.134C340.751 195.134 347.988 190.942 357.566 192.783L356.52 177.701L336.975 182.265L340.747 195.129L340.751 195.134Z" fill="#333333"/>
<path d="M356.295 192.591L356.248 194.935L358.598 193.215C358.598 193.215 357.994 192.833 356.295 192.596L356.295 192.591Z" fill="black"/>
</g>
<defs>
<clipPath id="clip0_2927_11382">
<rect width="600" height="400" fill="white"/>
</clipPath>
</defs>
</svg>