<svg xmlns="http://www.w3.org/2000/svg" width="1268" height="1456" viewBox="0 0 1268 1456" fill="none">
<g style="mix-blend-mode:multiply" opacity="0.5">
<path d="M443.698 578.797L397.792 1058.61C396.921 1067.67 403.556 1075.7 412.601 1076.59L787.91 1113.32C795.612 1114.07 802.412 1108.33 802.959 1100.6L846.528 658.622C849.996 623.438 824.006 592.22 788.777 589.252L464.111 561.899C453.811 560.946 444.69 568.497 443.698 578.784L443.698 578.797Z" fill="#8C77EC"/>
</g>
<path d="M446.921 540.751L808.546 575.699C821.73 576.973 831.409 588.723 830.135 601.907L783.921 1080.1C783.007 1089.56 774.574 1096.52 765.095 1095.61L391.773 1059.53C380.694 1058.46 372.575 1048.6 373.646 1037.52L419.471 563.352C420.805 549.55 433.094 539.415 446.909 540.75L446.921 540.751Z" fill="#FFB3CE"/>
<path d="M783.738 1081.52C782.914 1090.22 775.165 1096.6 766.427 1095.78L387.428 1059.12C378.728 1058.3 372.346 1050.55 373.207 1041.82L757.005 1078.01L783.814 1080.55L783.725 1081.54L783.738 1081.52Z" fill="#FF94BA"/>
<path d="M783.825 1080.53L760.728 1078.35C758.689 1078.16 757.195 1076.34 757.41 1074.3L809.633 575.394L824.968 579.876C829.021 583.118 831.439 588.247 830.92 593.806L783.838 1080.53H783.825Z" fill="#FF94BA"/>
<path d="M823.266 667.508C824.094 660.436 820.143 654.162 814.44 653.495C808.737 652.827 803.442 658.018 802.614 665.089C801.786 672.16 805.738 678.434 811.441 679.102C817.144 679.77 822.438 674.579 823.266 667.508Z" fill="#FFB5D2"/>
<path d="M788.357 1007.81C789.185 1000.74 785.233 994.462 779.531 993.794C773.828 993.126 768.533 998.317 767.705 1005.39C766.877 1012.46 770.829 1018.73 776.531 1019.4C782.234 1020.07 787.529 1014.88 788.357 1007.81Z" fill="#FFB5D2"/>
<path d="M799.296 893.407C800.125 886.336 796.173 880.062 790.47 879.394C784.767 878.726 779.473 883.917 778.645 890.988C777.816 898.06 781.768 904.333 787.471 905.001C793.174 905.669 798.468 900.478 799.296 893.407Z" fill="#FFB5D2"/>
<path d="M809.914 781.467C810.742 774.395 806.79 768.121 801.087 767.454C795.384 766.786 790.09 771.977 789.262 779.048C788.434 786.119 792.385 792.393 798.088 793.061C803.791 793.729 809.086 788.538 809.914 781.467Z" fill="#FFB5D2"/>
<path d="M447.409 586.827C454.528 586.827 460.3 581.056 460.3 573.936C460.3 566.817 454.528 561.045 447.409 561.045C440.289 561.045 434.518 566.817 434.518 573.936C434.518 581.056 440.289 586.827 447.409 586.827Z" fill="#FFE5EF"/>
<path d="M516.585 593.435C523.704 593.435 529.476 587.663 529.476 580.544C529.476 573.424 523.704 567.652 516.585 567.652C509.465 567.652 503.693 573.424 503.693 580.544C503.693 587.663 509.465 593.435 516.585 593.435Z" fill="#FFE5EF"/>
<path d="M585.774 600.035C592.894 600.035 598.665 594.264 598.665 587.144C598.665 580.025 592.894 574.253 585.774 574.253C578.654 574.253 572.883 580.025 572.883 587.144C572.883 594.264 578.654 600.035 585.774 600.035Z" fill="#FFE5EF"/>
<path d="M654.983 606.645C662.103 606.645 667.874 600.873 667.874 593.754C667.874 586.634 662.103 580.862 654.983 580.862C647.863 580.862 642.092 586.634 642.092 593.754C642.092 600.873 647.863 606.645 654.983 606.645Z" fill="#FFE5EF"/>
<path d="M724.173 613.262C731.293 613.262 737.064 607.49 737.064 600.371C737.064 593.251 731.293 587.479 724.173 587.479C717.053 587.479 711.282 593.251 711.282 600.371C711.282 607.49 717.053 613.262 724.173 613.262Z" fill="#FFE5EF"/>
<path d="M793.348 619.867C800.468 619.867 806.239 614.096 806.239 606.976C806.239 599.857 800.468 594.085 793.348 594.085C786.229 594.085 780.457 599.857 780.457 606.976C780.457 614.096 786.229 619.867 793.348 619.867Z" fill="#FFE5EF"/>
<path d="M434.232 699.301C441.352 699.301 447.123 693.529 447.123 686.41C447.123 679.29 441.352 673.519 434.232 673.519C427.112 673.519 421.341 679.29 421.341 686.41C421.341 693.529 427.112 699.301 434.232 699.301Z" fill="#FFE5EF"/>
<path d="M503.424 705.906C510.544 705.906 516.315 700.135 516.315 693.015C516.315 685.896 510.544 680.124 503.424 680.124C496.304 680.124 490.533 685.896 490.533 693.015C490.533 700.135 496.304 705.906 503.424 705.906Z" fill="#FFE5EF"/>
<path d="M572.616 712.509C579.736 712.509 585.508 706.737 585.508 699.618C585.508 692.498 579.736 686.727 572.616 686.727C565.497 686.727 559.725 692.498 559.725 699.618C559.725 706.737 565.497 712.509 572.616 712.509Z" fill="#FFE5EF"/>
<path d="M641.806 719.116C648.925 719.116 654.697 713.345 654.697 706.225C654.697 699.106 648.925 693.334 641.806 693.334C634.686 693.334 628.915 699.106 628.915 706.225C628.915 713.345 634.686 719.116 641.806 719.116Z" fill="#FFE5EF"/>
<path d="M710.998 725.734C718.118 725.734 723.889 719.962 723.889 712.842C723.889 705.723 718.118 699.951 710.998 699.951C703.879 699.951 698.107 705.723 698.107 712.842C698.107 719.962 703.879 725.734 710.998 725.734Z" fill="#FFE5EF"/>
<path d="M780.191 732.341C787.31 732.341 793.082 726.569 793.082 719.45C793.082 712.33 787.31 706.559 780.191 706.559C773.071 706.559 767.299 712.33 767.299 719.45C767.299 726.569 773.071 732.341 780.191 732.341Z" fill="#FFE5EF"/>
<path d="M421.074 811.78C428.193 811.78 433.965 806.009 433.965 798.889C433.965 791.77 428.193 785.998 421.074 785.998C413.954 785.998 408.183 791.77 408.183 798.889C408.183 806.009 413.954 811.78 421.074 811.78Z" fill="#FFE5EF"/>
<path d="M490.264 818.39C497.383 818.39 503.155 812.618 503.155 805.499C503.155 798.379 497.383 792.607 490.264 792.607C483.144 792.607 477.373 798.379 477.373 805.499C477.373 812.618 483.144 818.39 490.264 818.39Z" fill="#FFE5EF"/>
<path d="M559.456 824.984C566.575 824.984 572.347 819.212 572.347 812.092C572.347 804.973 566.575 799.201 559.456 799.201C552.336 799.201 546.564 804.973 546.564 812.092C546.564 819.212 552.336 824.984 559.456 824.984Z" fill="#FFE5EF"/>
<path d="M628.648 831.6C635.768 831.6 641.539 825.828 641.539 818.709C641.539 811.589 635.768 805.817 628.648 805.817C621.528 805.817 615.757 811.589 615.757 818.709C615.757 825.828 621.528 831.6 628.648 831.6Z" fill="#FFE5EF"/>
<path d="M697.838 838.205C704.958 838.205 710.729 832.434 710.729 825.314C710.729 818.194 704.958 812.423 697.838 812.423C690.718 812.423 684.947 818.194 684.947 825.314C684.947 832.434 690.718 838.205 697.838 838.205Z" fill="#FFE5EF"/>
<path d="M767.03 844.818C774.149 844.818 779.921 839.046 779.921 831.926C779.921 824.807 774.149 819.035 767.03 819.035C759.91 819.035 754.139 824.807 754.139 831.926C754.139 839.046 759.91 844.818 767.03 844.818Z" fill="#FFE5EF"/>
<path d="M407.897 924.254C415.017 924.254 420.788 918.483 420.788 911.363C420.788 904.243 415.017 898.472 407.897 898.472C400.777 898.472 395.006 904.243 395.006 911.363C395.006 918.483 400.777 924.254 407.897 924.254Z" fill="#FFE5EF"/>
<path d="M477.106 930.853C484.225 930.853 489.997 925.081 489.997 917.962C489.997 910.842 484.225 905.07 477.106 905.07C469.986 905.07 464.214 910.842 464.214 917.962C464.214 925.081 469.986 930.853 477.106 930.853Z" fill="#FFE5EF"/>
<path d="M546.281 937.464C553.401 937.464 559.173 931.692 559.173 924.573C559.173 917.453 553.401 911.682 546.281 911.682C539.162 911.682 533.39 917.453 533.39 924.573C533.39 931.692 539.162 937.464 546.281 937.464Z" fill="#FFE5EF"/>
<path d="M615.487 944.072C622.607 944.072 628.379 938.3 628.379 931.18C628.379 924.061 622.607 918.289 615.487 918.289C608.368 918.289 602.596 924.061 602.596 931.18C602.596 938.3 608.368 944.072 615.487 944.072Z" fill="#FFE5EF"/>
<path d="M684.68 950.679C691.799 950.679 697.571 944.907 697.571 937.788C697.571 930.668 691.799 924.896 684.68 924.896C677.56 924.896 671.789 930.668 671.789 937.788C671.789 944.907 677.56 950.679 684.68 950.679Z" fill="#FFE5EF"/>
<path d="M753.872 957.289C760.992 957.289 766.763 951.518 766.763 944.398C766.763 937.278 760.992 931.507 753.872 931.507C746.753 931.507 740.981 937.278 740.981 944.398C740.981 951.518 746.753 957.289 753.872 957.289Z" fill="#FFE5EF"/>
<path d="M394.739 1036.72C401.859 1036.72 407.63 1030.95 407.63 1023.83C407.63 1016.71 401.859 1010.94 394.739 1010.94C387.619 1010.94 381.848 1016.71 381.848 1023.83C381.848 1030.95 387.619 1036.72 394.739 1036.72Z" fill="#FFE5EF"/>
<path d="M463.931 1043.33C471.051 1043.33 476.822 1037.55 476.822 1030.43C476.822 1023.31 471.051 1017.54 463.931 1017.54C456.812 1017.54 451.04 1023.31 451.04 1030.43C451.04 1037.55 456.812 1043.33 463.931 1043.33Z" fill="#FFE5EF"/>
<path d="M533.123 1049.93C540.243 1049.93 546.014 1044.16 546.014 1037.04C546.014 1029.92 540.243 1024.15 533.123 1024.15C526.004 1024.15 520.232 1029.92 520.232 1037.04C520.232 1044.16 526.004 1049.93 533.123 1049.93Z" fill="#FFE5EF"/>
<path d="M602.313 1056.54C609.433 1056.54 615.204 1050.77 615.204 1043.65C615.204 1036.53 609.433 1030.76 602.313 1030.76C595.193 1030.76 589.422 1036.53 589.422 1043.65C589.422 1050.77 595.193 1056.54 602.313 1056.54Z" fill="#FFE5EF"/>
<path d="M671.505 1063.16C678.625 1063.16 684.397 1057.38 684.397 1050.26C684.397 1043.14 678.625 1037.37 671.505 1037.37C664.386 1037.37 658.614 1043.14 658.614 1050.26C658.614 1057.38 664.386 1063.16 671.505 1063.16Z" fill="#FFE5EF"/>
<path d="M740.697 1069.76C747.817 1069.76 753.589 1063.99 753.589 1056.87C753.589 1049.75 747.817 1043.98 740.697 1043.98C733.578 1043.98 727.806 1049.75 727.806 1056.87C727.806 1063.99 733.578 1069.76 740.697 1069.76Z" fill="#FFE5EF"/>
<path d="M474.724 647.026C481.843 647.026 487.615 641.254 487.615 634.134C487.615 627.015 481.843 621.243 474.724 621.243C467.604 621.243 461.833 627.015 461.833 634.134C461.833 641.254 467.604 647.026 474.724 647.026Z" fill="#FFE5EF"/>
<path d="M543.932 653.645C551.052 653.645 556.823 647.873 556.823 640.754C556.823 633.634 551.052 627.862 543.932 627.862C536.813 627.862 531.041 633.634 531.041 640.754C531.041 647.873 536.813 653.645 543.932 653.645Z" fill="#FFE5EF"/>
<path d="M613.122 660.25C620.242 660.25 626.013 654.479 626.013 647.359C626.013 640.239 620.242 634.468 613.122 634.468C606.003 634.468 600.231 640.239 600.231 647.359C600.231 654.479 606.003 660.25 613.122 660.25Z" fill="#FFE5EF"/>
<path d="M682.315 666.858C689.434 666.858 695.206 661.086 695.206 653.966C695.206 646.847 689.434 641.075 682.315 641.075C675.195 641.075 669.423 646.847 669.423 653.966C669.423 661.086 675.195 666.858 682.315 666.858Z" fill="#FFE5EF"/>
<path d="M751.506 673.472C758.626 673.472 764.398 667.7 764.398 660.581C764.398 653.461 758.626 647.689 751.506 647.689C744.387 647.689 738.615 653.461 738.615 660.581C738.615 667.7 744.387 673.472 751.506 673.472Z" fill="#FFE5EF"/>
<path d="M461.582 759.499C468.702 759.499 474.473 753.728 474.473 746.608C474.473 739.488 468.702 733.717 461.582 733.717C454.463 733.717 448.691 739.488 448.691 746.608C448.691 753.728 454.463 759.499 461.582 759.499Z" fill="#FFE5EF"/>
<path d="M530.756 766.116C537.875 766.116 543.647 760.345 543.647 753.225C543.647 746.106 537.875 740.334 530.756 740.334C523.636 740.334 517.864 746.106 517.864 753.225C517.864 760.345 523.636 766.116 530.756 766.116Z" fill="#FFE5EF"/>
<path d="M599.948 772.724C607.067 772.724 612.839 766.952 612.839 759.833C612.839 752.713 607.067 746.941 599.948 746.941C592.828 746.941 587.057 752.713 587.057 759.833C587.057 766.952 592.828 772.724 599.948 772.724Z" fill="#FFE5EF"/>
<path d="M669.14 779.333C676.259 779.333 682.031 773.562 682.031 766.442C682.031 759.322 676.259 753.551 669.14 753.551C662.02 753.551 656.249 759.322 656.249 766.442C656.249 773.562 662.02 779.333 669.14 779.333Z" fill="#FFE5EF"/>
<path d="M738.33 785.934C745.449 785.934 751.221 780.162 751.221 773.043C751.221 765.923 745.449 760.151 738.33 760.151C731.21 760.151 725.438 765.923 725.438 773.043C725.438 780.162 731.21 785.934 738.33 785.934Z" fill="#FFE5EF"/>
<path d="M448.405 871.983C455.525 871.983 461.297 866.211 461.297 859.091C461.297 851.972 455.525 846.2 448.405 846.2C441.286 846.2 435.514 851.972 435.514 859.091C435.514 866.211 441.286 871.983 448.405 871.983Z" fill="#FFE5EF"/>
<path d="M517.612 878.59C524.732 878.59 530.503 872.818 530.503 865.699C530.503 858.579 524.732 852.808 517.612 852.808C510.492 852.808 504.721 858.579 504.721 865.699C504.721 872.818 510.492 878.59 517.612 878.59Z" fill="#FFE5EF"/>
<path d="M586.79 885.2C593.909 885.2 599.681 879.429 599.681 872.309C599.681 865.19 593.909 859.418 586.79 859.418C579.67 859.418 573.898 865.19 573.898 872.309C573.898 879.429 579.67 885.2 586.79 885.2Z" fill="#FFE5EF"/>
<path d="M655.98 891.808C663.099 891.808 668.871 886.036 668.871 878.917C668.871 871.797 663.099 866.025 655.98 866.025C648.86 866.025 643.088 871.797 643.088 878.917C643.088 886.036 648.86 891.808 655.98 891.808Z" fill="#FFE5EF"/>
<path d="M725.171 898.404C732.291 898.404 738.063 892.632 738.063 885.512C738.063 878.393 732.291 872.621 725.171 872.621C718.052 872.621 712.28 878.393 712.28 885.512C712.28 892.632 718.052 898.404 725.171 898.404Z" fill="#FFE5EF"/>
<path d="M435.245 984.454C442.364 984.454 448.136 978.683 448.136 971.563C448.136 964.443 442.364 958.672 435.245 958.672C428.125 958.672 422.354 964.443 422.354 971.563C422.354 978.683 428.125 984.454 435.245 984.454Z" fill="#FFE5EF"/>
<path d="M504.437 991.062C511.557 991.062 517.328 985.29 517.328 978.171C517.328 971.051 511.557 965.279 504.437 965.279C497.317 965.279 491.546 971.051 491.546 978.171C491.546 985.29 497.317 991.062 504.437 991.062Z" fill="#FFE5EF"/>
<path d="M573.629 997.672C580.749 997.672 586.521 991.9 586.521 984.781C586.521 977.661 580.749 971.89 573.629 971.89C566.51 971.89 560.738 977.661 560.738 984.781C560.738 991.9 566.51 997.672 573.629 997.672Z" fill="#FFE5EF"/>
<path d="M642.821 1004.29C649.941 1004.29 655.713 998.515 655.713 991.395C655.713 984.275 649.941 978.504 642.821 978.504C635.702 978.504 629.93 984.275 629.93 991.395C629.93 998.515 635.702 1004.29 642.821 1004.29Z" fill="#FFE5EF"/>
<path d="M712.011 1010.88C719.131 1010.88 724.903 1005.11 724.903 997.993C724.903 990.873 719.131 985.102 712.011 985.102C704.892 985.102 699.12 990.873 699.12 997.993C699.12 1005.11 704.892 1010.88 712.011 1010.88Z" fill="#FFE5EF"/>
<path d="M592.856 555.132L650.765 560.729L602.847 1054.22C602.847 1054.22 601.834 1064.45 601.163 1078.86L544.394 1073.36L592.843 555.132H592.856Z" fill="#E50354"/>
<path d="M382.927 813.228C382.927 813.228 395.527 808.998 409.318 810.1C423.108 811.202 758.077 844.709 758.077 844.709L763.294 784.672L392.083 745.365L382.927 813.228Z" fill="#E50354"/>
<path d="M583.263 774.911L602.65 781.522C602.65 781.522 585.606 810.546 551.377 811.496C526.899 812.18 440.712 781.8 440.712 781.8L469.914 733.73L583.263 774.911Z" fill="#E50354"/>
<path d="M619.864 780.13L599.477 782.08C599.477 782.08 605.656 819.221 643.102 825.338C676.583 830.808 758.236 806.254 758.236 806.254L739.659 766.238L619.864 780.13Z" fill="#E50354"/>
<path d="M0.79248 1157.98L99.1625 1050.5L230.93 1115.47L114.343 1405.72H0.79248V1157.98Z" fill="#990038"/>
<path d="M360.111 736.013C360.111 736.013 360.225 762.884 358.3 779.334C357.173 788.996 355.287 796.746 353.919 801.495C352.969 804.774 350.968 807.636 348.221 809.65L327.782 824.592L283.106 816.918L315.841 752.804L360.124 736.013H360.111Z" fill="#4C1809"/>
<path d="M307.088 788.522C321.03 784.989 331.351 787.864 343.064 795.778C341.646 795.095 340.24 794.411 338.797 793.778C334.567 791.84 330.186 790.017 325.678 788.902C319.625 787.585 313.242 787.99 307.075 788.522H307.088Z" fill="#380E05"/>
<path d="M458.529 721.963L427.504 739.793C427.504 739.793 449.868 761.865 465.304 770.666C480.741 779.454 534.446 810.099 559.342 807.161C585.757 804.046 591.165 792.282 591.165 792.282L458.529 721.976V721.963Z" fill="#290507"/>
<path d="M176.365 920.482C167.045 911.783 163.968 906.882 164.095 904.767C164.285 901.652 176.555 905.033 176.555 905.033L176.365 920.482Z" fill="#6B0027"/>
<path d="M308.273 979.025C306.678 978.975 303.613 979.874 300.093 980.785L308.121 970.465C308.577 973.529 308.615 976.366 308.273 979.025Z" fill="#6B0027"/>
<path d="M480.12 743.121L436.748 808.261L410.738 840.539L391.148 879.466L326.704 943.897L269.34 1026.16L174.644 985.66L179.823 772.322C180.101 760.849 187.459 750.744 198.286 746.958L242.962 731.331L286.979 712.931L320.512 692.632C326.869 688.783 334.555 687.807 341.672 689.948L392.11 705.08C394.01 705.65 395.96 706.03 397.935 706.207L449.449 710.994C449.449 710.994 454.882 712.121 451.627 719.073C448.373 726.013 418.26 746.907 418.26 746.907L359.489 739.296C356.134 738.866 352.93 740.854 351.841 744.045C351.056 746.325 349.599 748.313 347.675 749.744L312.775 775.665L312.813 781.111C312.838 783.922 312.002 786.657 310.419 788.974C305.468 796.205 294.679 812.072 294.577 812.997C294.438 814.2 345.256 825.027 355.475 817.669C365.694 810.325 409.851 752.821 409.851 752.821C409.851 752.821 428.492 732.623 443.688 734.801C458.896 736.979 480.145 743.133 480.145 743.133L480.12 743.121Z" fill="#662B15"/>
<path d="M477.978 731.307L475.179 750.745L467.619 762.192C467.619 762.192 463.099 749.833 454.462 746.376C445.826 742.919 418.271 745.312 418.271 745.312L435.315 734.371L477.965 731.294L477.978 731.307Z" fill="#56200F"/>
<path d="M286.989 712.909C274.098 725.42 260.675 737.362 246.732 748.696C259.611 736.184 273.059 724.243 286.989 712.909Z" fill="#4C1809"/>
<path d="M308.348 978.559C306.828 992.514 295.685 1001.04 290.024 1005.49C282.502 1011.47 288.365 1024.24 283.68 1037.37C278.969 1050.5 267.458 1050.18 255.251 1064.54C243.069 1078.88 235.306 1113.73 235.306 1113.73C235.306 1113.73 229.304 1133.53 163.429 1107.67C97.5804 1081.84 94.4399 1054.91 94.4399 1054.91C92.3632 1041.01 114.878 1019.44 121.337 1009.15C127.795 998.871 122.616 975.647 129.226 964.351C135.811 953.018 156.908 943.406 159.251 936.821C161.593 930.274 164.063 904.796 164.063 904.796C164.063 904.796 167.71 913.597 189.098 929.021C214.842 947.585 249.654 967.302 266.471 971.911C280.919 975.875 304.258 979.015 308.361 978.572L308.348 978.559Z" fill="#940036"/>
<path d="M603.537 778.853C603.537 778.853 464.963 658.349 458.504 696.516C458.39 697.213 457.238 713.498 452.35 719.247C450.033 721.969 432.266 736.418 432.266 736.418C432.266 736.418 452.299 728.225 465.343 744.713C478.386 761.213 533.737 812.588 568.764 803.217C603.79 793.846 603.55 778.853 603.55 778.853H603.537Z" fill="#FA0050"/>
<path d="M1122.33 1332.25L1023.57 1144.51L880.252 1176.81L929.232 1411.19L1122.33 1411.19L1122.33 1332.25Z" fill="#990038"/>
<path d="M845.382 792.83C845.382 792.83 839.076 818.942 837.138 835.404C836.011 845.066 836.049 853.044 836.29 857.983C836.454 861.389 837.733 864.631 839.949 867.239L856.386 886.488L901.62 889.337L884.575 819.398L845.369 792.83H845.382Z" fill="#4C1809"/>
<path d="M884.854 856.155C878.991 854.217 872.862 852.343 866.67 852.229C862.035 852.267 857.35 853.039 852.778 853.939C851.233 854.217 849.701 854.572 848.169 854.901C861.44 849.912 872.077 849.494 884.854 856.155Z" fill="#380E05"/>
<path d="M751.888 755.828L778.949 780.927C778.949 780.927 752.091 797.237 735.046 802.226C718.001 807.216 661.953 825.413 636.095 816.447C610.465 807.558 602.613 785.055 602.613 785.055L751.888 755.828Z" fill="#290507"/>
<path d="M981.581 1014.74C992.661 1008.42 996.789 1004.37 997.144 1002.28C997.676 999.199 984.962 999.655 984.962 999.655L981.581 1014.72V1014.74Z" fill="#6B0027"/>
<path d="M839.692 1041.23C841.249 1041.56 844.023 1043.13 847.239 1044.83L841.819 1032.94C840.667 1035.81 839.983 1038.56 839.692 1041.23Z" fill="#6B0027"/>
<path d="M726.981 772.047L754.144 845.431L772.012 882.851L782.092 925.248L829.921 1002.81L866.759 1096.09L968.242 1078.54L1012.44 869.77C1014.82 858.538 1009.99 847.014 1000.33 840.834L960.467 815.318L921.882 787.256L893.947 759.764C888.653 754.559 881.397 751.824 873.977 752.267L821.412 755.345C819.436 755.459 817.448 755.383 815.485 755.104L764.262 747.873C764.262 747.873 758.716 747.721 760.286 755.231C761.843 762.74 786.322 790.017 786.322 790.017L845.256 796.171C848.625 796.526 851.271 799.198 851.601 802.566C851.841 804.959 852.791 807.239 854.336 809.075L882.309 842.354L881.005 847.647C880.334 850.37 880.511 853.232 881.524 855.853C884.665 864.033 891.503 881.952 891.401 882.889C891.262 884.092 839.317 882.889 831.074 873.392C822.83 863.882 793.134 797.741 793.134 797.741C793.134 797.741 779.661 773.782 764.363 772.402C749.066 771.022 726.969 772.098 726.969 772.098L726.981 772.047Z" fill="#662B15"/>
<path d="M731.105 758.768L729.332 778.332L734.043 791.224C734.043 791.224 741.299 780.245 750.492 778.877C759.686 777.509 782.923 785.601 782.923 785.601L769.804 771L731.105 758.78V758.768Z" fill="#56200F"/>
<path d="M921.881 787.229C932.822 801.475 943.143 816.189 952.792 831.335C941.838 817.101 931.53 802.374 921.881 787.229Z" fill="#4C1809"/>
<path d="M839.756 1040.77C838.008 1054.7 846.885 1065.56 851.368 1071.2C857.307 1078.74 848.658 1089.81 850.177 1103.67C851.735 1117.53 862.993 1119.89 871.566 1136.68C880.113 1153.43 879.607 1189.14 879.607 1189.14C879.607 1189.14 880.873 1209.8 950.939 1199.86C1020.98 1189.94 1030.25 1164.45 1030.25 1164.45C1035.48 1151.41 1018.55 1125.22 1014.65 1113.72C1010.74 1102.22 1021.14 1080.83 1017.32 1068.3C1013.53 1055.75 995.223 1041.53 994.463 1034.59C993.703 1027.67 997.173 1002.32 997.173 1002.32C997.173 1002.32 991.588 1010.05 967.224 1020.11C937.896 1032.23 899.476 1043.38 882.038 1043.97C867.058 1044.49 843.63 1042.16 839.743 1040.78L839.756 1040.77Z" fill="#940036"/>
<path d="M598.655 778.277C598.655 778.277 761.302 693.041 758.782 731.664C758.731 732.36 756.085 748.48 759.516 755.205C761.137 758.383 774.826 776.58 774.826 776.58C774.826 776.58 757.49 763.942 740.99 776.985C724.49 790.029 658.767 827.233 626.856 810.024C594.944 792.814 598.642 778.277 598.642 778.277H598.655Z" fill="#FA0050"/>
<path d="M582.541 785.546C582.541 785.546 493.189 852.091 455.857 874.556C454.439 875.404 453.793 877.291 454.376 878.849C458.01 888.536 470.547 920.372 480.158 925.817C491.53 932.263 584.554 848.571 595.027 797.563L582.541 785.546Z" fill="#FA0050"/>
<path d="M609.508 785.436C609.508 785.436 681.081 870.811 712.207 901.305C713.385 902.457 713.587 904.445 712.65 905.813C706.876 914.398 687.324 942.473 676.712 945.55C664.162 949.197 592.982 846.283 594.565 794.237L609.495 785.423L609.508 785.436Z" fill="#FA0050"/>
<path d="M612.285 786.389C613.197 778.609 607.724 771.575 600.062 770.677C592.401 769.78 585.451 775.359 584.54 783.139C583.629 790.919 589.101 797.953 596.763 798.85C604.425 799.748 611.374 794.168 612.285 786.389Z" fill="#290507"/>
<path d="M611.868 784.621C612.779 776.841 607.307 769.807 599.645 768.91C591.983 768.012 585.034 773.592 584.122 781.371C583.211 789.151 588.684 796.185 596.345 797.083C604.007 797.98 610.957 792.401 611.868 784.621Z" fill="#FFB3CE"/>
<path d="M606.244 780.077C606.82 775.159 603.362 770.713 598.521 770.146C593.679 769.579 589.287 773.106 588.711 778.024C588.135 782.942 591.593 787.388 596.435 787.955C601.276 788.522 605.668 784.995 606.244 780.077Z" fill="#FFC8DC"/>
<g style="mix-blend-mode:multiply" opacity="0.5">
<path d="M1019.77 630.398L648.373 397.216C639.661 391.746 636.888 380.349 642.092 371.485L835.461 42.7332C840.754 33.7423 852.303 30.6904 861.344 35.9077L1257.7 264.72C1267.16 270.178 1270.08 282.462 1264.1 291.592L1045.77 624.712C1040.1 633.374 1028.54 635.894 1019.77 630.385V630.398Z" fill="#8C77EC"/>
</g>
<path d="M790.262 71.3946L922.416 42.8389L985.923 79.5117L756.312 129.126L790.262 71.3946Z" fill="#990038"/>
<path d="M999.277 589.647L1044.6 579.858L1037.06 591.357C1031.39 600.018 1019.83 602.551 1011.05 597.042L999.277 589.647Z" fill="#990038"/>
<path d="M933.931 548.644L1086.68 515.644L1055.92 562.586L981.671 578.618L933.931 548.644Z" fill="#990038"/>
<path d="M860.347 502.432L1134.1 443.282L1098 498.355L916.37 537.598L860.347 502.432Z" fill="#990038"/>
<path d="M786.507 456.064L1181.68 370.714L1145.42 426.002L842.783 491.395L786.507 456.064Z" fill="#990038"/>
<path d="M714.404 410.792L1228.13 299.823L1193.01 353.414L768.932 445.046L714.404 410.792Z" fill="#990038"/>
<path d="M641.318 364.916L1251.47 233.091C1258.89 239.119 1260.79 249.958 1255.37 258.253L1239.46 282.528L696.834 399.752L641.318 364.903V364.916Z" fill="#990038"/>
<path d="M657.273 297.479L1171.16 186.447L1233.11 222.221L631.25 352.235C630.136 347.6 630.743 342.547 633.339 338.128L657.248 297.479H657.273Z" fill="#990038"/>
<path d="M702.068 221.325L1087.36 138.076L1152.46 175.661L667.269 280.475L702.068 221.325Z" fill="#990038"/>
<path d="M746.288 146.115H746.313L1004.62 90.3076L1068.67 127.297L712.072 204.315L746.288 146.115Z" fill="#990038"/>
<path d="M852.609 2.55221L903.68 32.045L800.247 54.383L826.713 9.37772C832.006 0.38679 843.555 -2.66506 852.609 2.55221Z" fill="#990038"/>
<path d="M981.68 578.628L1055.92 562.597L1044.58 579.869L999.269 589.658L981.68 578.628Z" fill="#FFE5EF"/>
<path d="M696.838 399.759L1239.46 282.535L1228.13 299.833L714.402 410.801L696.838 399.759Z" fill="#FFE5EF"/>
<path d="M768.924 445.052L1193 353.421L1181.67 370.719L786.501 456.069L768.924 445.052Z" fill="#FFE5EF"/>
<path d="M842.783 491.401L1145.42 426.008L1134.1 443.293L860.347 502.443L842.783 491.401Z" fill="#FFE5EF"/>
<path d="M916.365 537.607L1097.99 498.363L1086.69 515.649L933.941 548.649L916.365 537.607Z" fill="#FFE5EF"/>
<path d="M631.266 352.241L1233.13 222.228L1248.98 231.37C1249.87 231.89 1250.7 232.459 1251.49 233.093L641.333 364.917L639.662 363.866C635.306 361.118 632.418 356.902 631.291 352.254L631.266 352.241Z" fill="#FFE5EF"/>
<path d="M667.268 280.481L1152.46 175.667L1171.15 186.456L657.264 297.488L667.268 280.481Z" fill="#FFE5EF"/>
<path d="M712.087 204.324L1068.69 127.306L1087.38 138.082L702.083 221.33L712.087 204.324Z" fill="#FFE5EF"/>
<path d="M756.302 129.128L985.913 79.5137L1004.63 90.3154L746.324 146.123L756.302 129.128Z" fill="#FFE5EF"/>
<path d="M800.262 54.3917L903.696 32.0537L922.412 42.8428L790.258 71.3985L800.262 54.3917Z" fill="#FFE5EF"/>
<path d="M889.337 335.124C873.571 347.281 855.5 357.715 842.027 355.449C835.049 354.271 829.68 349.813 826.489 342.557C823.855 336.58 824.159 330.629 827.363 325.361C841.558 301.972 912.245 296.666 920.26 296.134L931.429 295.399L923.806 303.593C920.995 306.619 906.533 321.878 889.349 335.124H889.337ZM839.532 325.12C837.493 326.69 835.948 328.311 834.948 329.97C833.251 332.769 833.15 335.631 834.619 338.974C836.632 343.545 839.456 346.002 843.508 346.686C852.93 348.281 868.999 340.278 888.754 324.132C896.58 317.737 903.659 311.153 908.8 306.138C901.544 306.948 891.755 308.253 881.637 310.215C861.655 314.103 847.117 319.282 839.532 325.12Z" fill="#FFC501"/>
<path d="M925.665 307.052L920.764 296.985C917.243 289.767 886.788 225.741 900.072 201.82C903.061 196.426 908.075 193.222 914.571 192.538C922.448 191.715 928.982 194.172 933.478 199.642C941.418 209.33 943.001 228.743 938.201 257.311C934.731 277.901 929.248 295.617 929.008 296.352L925.677 307.04L925.665 307.052ZM910.215 203.302C909.266 204.037 908.48 204.974 907.835 206.139C903.402 214.129 905.53 231.997 913.824 256.475C917.129 266.239 920.852 275.381 923.752 282.093C925.551 275.128 927.754 265.719 929.438 255.753C933.668 230.604 932.655 212.673 926.589 205.278C923.98 202.099 920.46 200.858 915.483 201.377C913.331 201.605 911.596 202.226 910.203 203.289L910.215 203.302Z" fill="#FFC501"/>
<path d="M1038.47 108.374L812.553 472.464L820.096 477.144L1046.02 113.055L1038.47 108.374Z" fill="#FFC501"/>
<path d="M1145.57 426.782L722.271 187.13L726.64 179.405L1150.68 418.842L1145.57 426.782Z" fill="#FFC501"/>
</svg>