<svg xmlns="http://www.w3.org/2000/svg" width="1123" height="1119" viewBox="0 0 1123 1119" fill="none">
<path d="M133.091 789.881C126.122 788.644 118.613 787.984 110.545 787.972C-0.897857 787.834 -5.86196 906.711 12.6919 947.662C26.6898 978.55 71.3788 1059.27 94.4046 1100.47C94.7527 1101.1 95.1309 1101.68 95.539 1102.24C102.22 1104 109.861 1101.53 113.883 1094.77C138.541 1053.34 186.982 970.217 198.825 937.197C212.289 899.657 206.562 809.885 133.091 789.881ZM96.4274 952.855C68.6056 952.855 46.0601 927.622 46.0601 896.499C46.0601 865.376 68.6116 840.143 96.4274 840.143C124.243 840.143 146.795 865.376 146.795 896.499C146.795 927.622 124.243 952.855 96.4274 952.855Z" fill="#FF99BD"/>
<path d="M129.162 789.881C122.193 788.644 114.684 787.984 106.617 787.972C-4.82657 787.834 -9.79068 906.711 8.7632 947.662C22.7611 978.55 67.4501 1059.27 90.4758 1100.47C90.824 1101.1 91.2022 1101.68 91.6103 1102.24C98.2912 1104 105.932 1101.53 109.954 1094.77C134.613 1053.34 183.053 970.217 194.896 937.197C208.36 899.657 202.633 809.885 129.162 789.881ZM92.4987 952.855C64.6769 952.855 42.1314 927.622 42.1314 896.499C42.1314 865.376 64.6829 840.143 92.4987 840.143C120.314 840.143 142.866 865.376 142.866 896.499C142.866 927.622 120.314 952.855 92.4987 952.855Z" fill="#990038"/>
<path d="M1052.28 382.933C1051.51 393.139 1050.49 410.75 1049.9 421.236C1049.59 426.827 1047.59 432.175 1044.21 436.632L1025.05 461.838C1028.19 452.229 1042.77 407.566 1047.07 392.506C1050.39 380.98 1044.08 372.592 1039.74 368.411C1047.85 370.877 1052.84 375.337 1052.28 382.933Z" fill="white"/>
<path d="M473.838 617.852C473.838 617.852 495.953 629.71 496.024 637.035C496.074 642.346 490.022 646.782 484.462 649.752C478.79 652.754 474.896 658.31 474.23 664.693L472.175 683.97L621.508 916.381L673.238 938.679L785.236 800.094L708.728 591.387L572.288 592.011L473.838 617.852Z" fill="#0C0000"/>
<path d="M674.565 888.08C693.312 769.55 644.046 663.267 564.527 650.69C485.008 638.113 405.348 724.005 386.6 842.535C367.853 961.065 417.119 1067.35 496.638 1079.93C576.157 1092.5 655.818 1006.61 674.565 888.08Z" fill="#303030"/>
<path d="M1031.31 738.289C1017.82 823.667 968.365 886.903 911.095 877.846C853.824 868.789 818.348 792.24 831.86 706.863C845.354 621.485 902.737 559.628 959.989 568.684C1017.26 577.741 1044.8 652.93 1031.31 738.289Z" fill="#1C1C1C"/>
<path d="M1017.82 738.476C1007.58 803.191 980.419 852.755 952.349 848.301C924.278 843.866 909.823 787.813 920.059 723.097C930.295 658.381 961.333 609.541 989.404 613.976C1017.47 618.412 1028.05 673.778 1017.82 738.476Z" fill="#0C0000"/>
<path d="M650.044 886.9C674.574 797.155 653.517 713.212 603.012 699.407C552.506 685.602 491.678 747.163 467.147 836.907C442.617 926.651 463.674 1010.59 514.179 1024.4C564.685 1038.2 625.513 976.644 650.044 886.9Z" fill="#0C0000"/>
<path d="M650.086 886.951C625.527 976.696 564.713 1038.27 514.22 1024.43C497.685 1019.91 484.289 1007.89 474.668 990.595C477.182 991.471 479.758 992.13 482.414 992.608C532.013 1001.69 584.678 940.725 600.072 856.494C612.22 789.997 597.507 728.828 566.381 701.585C578.768 697.117 591.212 696.203 603.087 699.461C653.599 713.258 674.663 797.205 650.103 886.969L650.086 886.951Z" fill="#3D3D3D"/>
<path d="M972.13 508.607L971.221 534.295L1057.06 536.711L1051.52 480.682L1010.1 481.101L972.13 508.607Z" fill="#444444"/>
<path d="M1047.07 392.516C1042.75 407.575 1028.17 452.239 1025.05 461.849L1018.71 470.173L993.502 458.901L967.393 386.638L973.072 381.347C973.072 381.347 984.603 365.902 1008.38 365.536C1020.3 365.336 1031.6 365.882 1039.74 368.422C1044.06 372.584 1050.39 380.991 1047.07 392.516Z" fill="#444444"/>
<path d="M990.714 586.442L999.583 601.181L1024.67 602.069L1029.75 485.804L989.188 487.882L990.714 586.442Z" fill="#303030"/>
<path d="M934.163 534.276L1028.78 485.802L1029.47 482.311C1031.01 474.476 1024.92 467.194 1016.91 467.368L1000.77 467.73L949.979 507.395L934.181 534.277L934.163 534.276Z" fill="#1C1C1C"/>
<path d="M932.13 401.237L973.071 381.342L989.256 382.299C1008.91 383.471 1024.28 399.667 1024.43 419.351L1021.54 452.383C1021.14 456.836 1019.31 461.036 1016.3 464.353L1006.97 474.622L944.943 521.212L932.13 401.237Z" fill="#0C0000"/>
<path d="M801.594 171.063L1011.43 177.046L1005.54 418.698L802.145 399.049L801.594 171.063Z" fill="black"/>
<path d="M1109.83 350.701L1005.46 418.656L1011.34 177.04L1118.52 129.394L1109.83 350.701Z" fill="#333333"/>
<path d="M801.598 171.065L919.644 125.836L1118.52 129.399L1011.34 177.045L801.598 171.065Z" fill="#666666"/>
<path d="M1117 166.774L1010.32 215.938L1011.32 177.092L1118.51 129.373L1117 166.774Z" fill="#4D4D4D"/>
<path d="M1002.95 577.612L919.35 779.114C914.706 790.317 920.036 803.156 931.26 807.764C942.628 812.413 955.603 806.831 960 795.363L1039.19 589.165L1002.95 577.631L1002.95 577.612Z" fill="#444444"/>
<path d="M919.171 701.408C919.171 701.408 922.826 740.877 920.684 753.799C918.497 766.957 902.185 786.663 903.857 799.92C906.932 824.23 939.063 817.917 948.378 813.872C983.236 798.777 985.544 765.651 985.544 765.651L992.821 749.873C995.18 744.775 995.224 738.882 992.953 733.749L971.003 684.113L919.189 701.409L919.171 701.408Z" fill="#2B2B2B"/>
<path d="M975.714 404.378C975.714 404.378 1006.99 460.092 932.646 545.366C928.906 549.664 928.357 555.869 931.033 560.924C940.898 579.598 963.627 623.752 966.311 638.968C969.739 658.457 976.993 685.733 976.993 685.733C976.993 685.733 967.099 716.504 921.603 707.845C921.603 707.845 879.471 614.53 863.05 587.148C842.531 552.94 845.013 532.488 854.49 514.024L815.126 465.071L805.461 389.563L975.751 404.361L975.714 404.378Z" fill="#666666"/>
<path d="M702.789 229.567L687.188 238.991L654.256 273.632C654.256 273.632 654.11 277.746 637.485 283.015C620.859 288.285 592.274 332.507 592.274 332.507L640.719 357.123L731.248 271.653L702.79 229.548L702.789 229.567Z" fill="#683B28"/>
<path d="M687.179 239.007C687.179 239.007 709.141 182.816 738.615 179.155C768.107 175.513 878.078 154.144 878.078 154.144C878.078 154.144 895.551 148.721 913.267 162.273C930.984 175.824 937.185 184.739 947.67 228.825C947.67 228.825 951.808 266.536 954.911 279.735C957.058 288.891 968.659 327.799 971.468 369.453C971.468 369.453 974.731 393.641 981.17 410.327C987.627 426.994 981.821 425.031 981.821 425.031C981.821 425.031 985.639 399.904 890.39 403.598C795.123 407.273 783.424 406.273 783.424 406.273L791.858 383.671C791.858 383.671 782.662 361.616 786.085 347.659C786.085 347.659 743.379 293.298 742.018 265.058L731.659 275.84C731.659 275.84 707.653 240.336 687.16 239.025L687.179 239.007Z" fill="#333333"/>
<path d="M868.559 495.036L854.454 527.872C854.454 527.872 854.197 525.3 852.511 522.238C850.155 517.944 844.904 512.706 833.386 512.298C819.618 511.81 776.255 511.172 751.17 510.815C740.247 510.666 732.8 510.567 732.8 510.567L705.72 479.696L690.13 461.9L675.844 445.578C675.844 445.578 678.65 441.796 683.242 436.211C696.747 419.792 725.693 387.628 744.526 388.752C769.79 390.269 820.583 385.276 832.741 407.948C844.882 430.584 882.664 462.181 868.541 495.017L868.559 495.036Z" fill="#444444"/>
<path d="M762.651 424.636C762.68 423.814 762.587 418.19 762.48 412.42C762.353 405.661 768.719 400.614 775.287 402.274L809.523 410.973L783.567 456.936C779.23 464.636 770.604 468.871 761.861 467.628C761.861 467.628 744.601 460.317 738.466 459.349C731.239 458.214 709.168 460.106 709.168 460.106L693.18 410.662L694.784 404.147C695.81 399.973 699.502 397.028 703.808 396.924L712.309 396.731L713.429 386.812C713.883 382.764 717.735 379.972 721.751 380.81L744.409 385.602C749.061 386.573 752.106 391.037 751.317 395.751L747.573 418.263L762.651 424.636Z" fill="#333333"/>
<path d="M741.113 504.542L702.59 418.897C698.637 410.08 687.633 407.036 679.678 412.502L662.095 424.639L676.125 490.617L741.114 504.506L741.113 504.542Z" fill="#0C0000"/>
<path d="M757.691 495.499L751.198 510.848L744.285 527.188C742.466 531.517 739.068 534.949 734.791 536.829C726.182 540.607 709.82 547.734 689.122 556.338C655.567 570.289 610.562 588.136 568.735 602.014C522.629 617.315 480.319 627.79 461.381 622.89C422.488 612.855 439.161 556.604 446.008 517.287C458.759 444.111 495.242 402.256 508.899 388.79C512.047 385.698 516.073 383.68 520.47 383.067L698.569 357.758C698.569 357.758 678.031 394.961 683.267 436.298C684.266 444.279 686.249 452.385 689.497 460.427C689.716 460.965 689.936 461.467 690.175 461.97C693.822 470.117 699.368 475.824 705.764 479.766C720.421 488.743 739.616 488.452 751.267 487.18C755.861 486.684 759.379 491.239 757.708 495.536L757.71 495.482L757.691 495.499Z" fill="#333333"/>
<path d="M586.579 866.627C589.899 844.025 581.343 824.05 567.468 822.011C553.593 819.973 539.653 836.643 536.332 859.245C533.012 881.848 541.568 901.823 555.443 903.861C569.318 905.9 583.258 889.229 586.579 866.627Z" fill="#D1CECF"/>
<path d="M661.669 633.119L579.886 864.524C578.765 867.724 578.515 871.175 579.13 874.492L579.514 876.574C580.234 880.536 583.44 883.56 587.431 884.067L605.416 886.425C610.536 887.1 615.337 883.865 616.666 878.897L678.162 638.298L661.686 633.138L661.669 633.119Z" fill="#232522"/>
<path d="M616.925 872.356C618.368 866.198 617.273 860.675 614.48 860.02C611.686 859.366 608.251 863.827 606.808 869.985C605.365 876.144 606.46 881.666 609.254 882.321C612.048 882.976 615.482 878.514 616.925 872.356Z" fill="#FFB3CE"/>
<path d="M469.613 681.28L502.499 658.298L554.476 672.623L570.072 855.157C570.435 859.398 573.532 862.913 577.676 863.774L584.725 865.286L665.522 641.572L513.912 642.044L469.613 681.298L469.613 681.28Z" fill="#1E1E1E"/>
<path d="M569.403 874.762C574.461 874.941 578.747 869.872 578.975 863.44C579.203 857.007 575.286 851.648 570.227 851.469C565.168 851.29 560.883 856.359 560.655 862.791C560.427 869.223 564.344 874.583 569.403 874.762Z" fill="#0C0000"/>
<path d="M753.854 788.536C753.854 788.536 729.484 796.936 728.229 814.795C726.993 832.654 724.146 860.324 700.052 877.997C675.976 895.67 673.228 938.647 673.228 938.647L847.251 870.247C847.251 870.247 900.986 856.114 911.395 813.389C911.825 811.574 909.769 810.183 908.231 811.245L902.263 815.391L903.499 797.532L829.529 767.911C829.529 767.911 846.47 756.832 836.457 709.778L753.818 788.516L753.854 788.536Z" fill="#282828"/>
<path d="M858.307 645.941C858.307 645.941 810.165 819.573 744.654 840.082C744.654 840.082 762.055 714.147 700.216 665.039C647.476 623.155 585.766 606.106 568.759 601.989C565.836 601.281 564.219 600.949 564.219 600.949L637.677 565.913C637.677 565.913 659.174 560.596 689.145 556.33C740.273 549.115 816.078 545.008 851.54 575.937C859.087 582.52 863.438 589.942 865.662 597.434C872.796 621.375 858.325 645.942 858.325 645.942L858.307 645.941Z" fill="#444444"/>
<path d="M866.455 603.426C864.518 595.56 860.404 587.652 852.916 580.449C817.739 546.619 732.676 552.669 679.361 557.554C701.239 549.725 724.901 537.547 734.013 534.044C738.542 532.3 742.231 528.916 744.326 524.542L752.327 507.983C778.264 509.616 823.505 508.38 837.741 509.58C849.642 510.568 854.804 516.261 857.041 520.825C854.335 535.21 851.92 562.034 861.538 577.88C869.147 590.451 868.752 598.51 866.474 603.391L866.455 603.426Z" fill="#303030"/>
<path d="M463.075 333.61L417.824 332.008L417.517 340.674L462.768 342.276L463.075 333.61Z" fill="#333333"/>
<path d="M463.037 333.582L455.794 336.879L498.507 430.724L505.75 427.428L463.037 333.582Z" fill="#333333"/>
<path d="M375.739 341.481L440.882 345.856C440.882 345.856 457.477 343.002 431.804 311.155C406.114 279.308 368.748 266.983 356.621 279.625C344.495 292.248 354.992 325.625 375.739 341.481Z" fill="black"/>
<path d="M760.974 345.915L715.723 344.312L715.416 352.979L760.667 354.581L760.974 345.915Z" fill="#333333"/>
<path d="M715.774 344.269L666.531 434.859L673.523 438.66L722.766 348.07L715.774 344.269Z" fill="#333333"/>
<path d="M802.257 358.31L736.968 358.067C736.968 358.067 720.616 354.047 748.477 324.096C776.355 294.145 814.499 284.494 825.702 297.961C836.905 311.41 824.073 343.962 802.257 358.31Z" fill="black"/>
<path d="M1040.32 587.273C1040.48 586.668 1032.22 583.948 1021.87 581.198C1011.52 578.448 1003 576.709 1002.84 577.315C1002.68 577.92 1010.94 580.64 1021.29 583.39C1031.64 586.14 1040.16 587.879 1040.32 587.273Z" stroke="black" stroke-width="33.3232" stroke-miterlimit="10"/>
<path d="M455.044 508.844C455.044 508.844 481.544 532.317 573.067 523.75L576.705 561.113C576.705 561.113 513.765 609.318 467.488 596.348C445.918 590.294 437.408 567.476 437.408 567.476L440.806 543.89L455.063 508.826L455.044 508.844Z" fill="white"/>
<path d="M858.813 193.141C869.536 167.136 868.051 141.858 855.497 136.682C842.942 131.505 824.073 148.391 813.35 174.396C802.627 200.401 804.112 225.679 816.667 230.855C829.221 236.032 848.09 219.147 858.813 193.141Z" fill="#683B28"/>
<path d="M878.1 154.151C878.1 154.151 908.155 51.8585 842.73 25.4697C777.305 -0.919213 722.649 33.5566 721.51 82.2472L719.495 84.3543C717.689 86.2491 716.828 88.873 717.138 91.4835L724.888 159.545C725.349 163.589 727.099 167.404 729.887 170.377L733.52 174.276C733.52 174.276 743.634 222.084 776.516 220.429C838.299 217.326 878.101 154.133 878.101 154.133L878.1 154.151Z" fill="black"/>
<path d="M844.401 149.993C816.412 172.196 772.142 196.148 733.616 174.72L733.52 174.314L729.888 170.414C727.101 167.423 725.35 163.627 724.889 159.583L717.139 91.5029C716.855 89.1862 717.506 86.8478 718.925 85.0308C720.008 89.0599 727.26 95.7055 763.917 94.953C795.171 94.3021 828.601 90.5979 850.468 87.7292C852.78 100.515 855.987 128.857 844.418 150.03L844.401 149.993Z" fill="#FFF0F5"/>
<path d="M872.177 122.837C870.285 126.138 859.822 137.795 844.415 150.009C855.983 128.835 852.776 100.512 850.465 87.7075C865.234 85.7407 874.717 84.1727 874.717 84.1727C874.717 84.1727 877.796 113.041 872.177 122.837Z" fill="black"/>
<path d="M868.434 106.458C870.433 106.528 872.179 103.058 872.333 98.7057C872.487 94.3537 870.991 90.7683 868.992 90.6975C866.992 90.6267 865.247 94.0974 865.093 98.4494C864.939 102.801 866.434 106.387 868.434 106.458Z" fill="#FFD1E2"/>
<path d="M509.378 422.674L521.987 374.701C536.394 325.565 568.633 309.498 630.849 324.662L703.504 353.156L618.093 434.706L509.378 422.674Z" fill="#444444"/>
<path d="M904.99 440.289L797.202 415.512L792.477 434.695L899.482 460.395C903.458 461.342 907.41 458.79 908.156 454.79L909.575 447.279C910.182 444.097 908.151 440.987 904.991 440.271L904.99 440.289Z" fill="#333333"/>
<path d="M934.694 270.375C934.694 270.375 939.351 309.971 914.831 369.147C890.311 428.323 883.295 420.203 883.295 420.203L879.206 432.799L864.671 432.284L859.117 452.115L839.266 447.165L837.689 423.439L828.066 438.274L826.455 449.128L816.468 456.664L811.083 454.661L812.694 443.808L805.286 447.793L804.269 425.313L816.731 399.064L848.148 402.593L874.341 331.321L878.428 284.144L934.731 270.358L934.694 270.375Z" fill="#683B28"/>
<path d="M878.096 289.241C878.096 289.241 904.793 273.033 939.629 280.802L936.837 221.098L865.187 238.149L878.078 289.222L878.096 289.241Z" fill="#333333"/>
<path d="M935.005 279.981L934.677 289.251L943.371 282.566C943.371 282.566 941.193 281.024 935.005 280L935.005 279.981Z" fill="black"/>
</svg>