<svg xmlns="http://www.w3.org/2000/svg" width="1231" height="907" viewBox="0 0 1231 907" fill="none">
<path d="M124.804 133.914L79.2158 45.5259" stroke="#FF2121" stroke-width="24.2946" stroke-linecap="round"/>
<path d="M84.6608 162.248L21.7393 145.015" stroke="#FF2121" stroke-width="24.2946" stroke-linecap="round"/>
<path d="M184.755 61.9668L168.629 125.181" stroke="#FF2121" stroke-width="24.2946" stroke-linecap="round"/>
<path d="M1230.94 443.835V647.976L928.315 552.237V398.656C928.315 398.656 960.793 408.154 1049.35 421.058C1121.2 431.525 1230.94 443.835 1230.94 443.835Z" fill="#873B1A"/>
<path d="M740.773 592.198C739.086 591.073 630.78 577.701 630.78 577.701H418.058L440.882 611.319L578.682 633.174L740.773 592.214V592.198Z" fill="#77290E"/>
<path d="M983.694 298.289L997.128 276.341C998.706 273.763 998.8 270.561 997.378 267.889L955.824 189.937C954.34 187.14 951.419 185.391 948.232 185.391H144.818C142.897 185.391 141.022 186.031 139.507 187.218L37.7308 266.78C33.9346 269.748 33.3411 275.232 36.403 278.934L46.7758 291.463C48.3848 293.415 50.7906 294.556 53.3369 294.571L976.289 302.382C979.304 302.414 982.131 300.851 983.694 298.274V298.289Z" fill="#FA0050"/>
<path d="M50.4349 359.588H982.432C985.633 359.588 988.228 362.183 988.228 365.384V586.526C988.228 589.727 985.633 592.322 982.432 592.322H50.4349C47.234 592.322 44.6392 589.727 44.6392 586.526V365.384C44.6392 362.183 47.234 359.588 50.4349 359.588Z" fill="#FA0050"/>
<path d="M44.6392 365.387H988.228V375.135H44.6392V365.387Z" fill="#C60047"/>
<path d="M1230.94 683.947C1230.94 683.947 992.72 648.516 929.373 606.822C917.173 598.792 895.943 571.141 884.554 555.629C879.274 548.427 872.479 542.491 864.621 538.242L726.852 463.398C725.493 462.664 724.165 461.836 722.915 460.914L642.885 403.269C633.059 396.193 619.687 396.771 610.501 404.644L610.032 405.05C598.488 414.939 597.3 432.232 607.298 443.527C623.889 462.257 645.775 487.096 645.775 487.096L699.951 543.85C706.356 550.567 709.106 559.941 707.403 569.064C705.7 578.234 702.935 588.841 698.967 592.325C664.302 622.693 516.411 617.804 516.411 617.804L430.007 583.951C418.4 579.405 405.371 580.233 394.436 586.232L385.781 590.981C377.08 595.761 377.595 608.431 386.656 612.477L434.037 633.644C435.349 634.222 436.615 634.894 437.833 635.628L492.228 672.308C497.852 676.104 504.398 678.323 511.177 678.729L594.145 686.868C602.081 687.649 609.829 689.711 617.093 692.991L661.99 713.237C671.379 717.471 681.377 720.173 691.609 721.251C691.609 721.251 812.85 718.846 890.709 747.418C978.879 779.786 1230.94 906.588 1230.94 906.588V683.947Z" fill="#873B1A"/>
<path d="M981.71 786.236C985.084 787.783 988.505 789.345 991.942 790.939C1006.7 776.27 1017.34 742.167 1017.34 703.581C1017.34 677.962 1012.66 654.326 1005.19 637.048C999.206 635.299 993.364 633.518 987.74 631.721C996.285 649.936 1001.5 675.228 1001.5 703.581C1001.5 738.09 993.786 768.053 981.71 786.236Z" fill="#873B1A"/>
<path d="M36.5736 269.484H996.268C997.433 269.484 998.377 270.429 998.377 271.593V365.996C998.377 367.161 997.433 368.105 996.268 368.105H36.5736C35.4089 368.105 34.4646 367.161 34.4646 365.996V271.593C34.4646 270.429 35.4089 269.484 36.5736 269.484Z" fill="#FA0050"/>
<path d="M935.031 610.258C940.78 605.134 947.138 602.307 953.871 602.307C957.682 602.307 961.385 603.213 964.915 604.931C967.149 606.025 969.321 607.446 971.43 609.165C977.631 614.242 983.162 621.959 987.739 631.722C984.802 630.785 981.912 629.832 979.1 628.864C974.913 621.318 970.102 615.57 964.915 612.133C962.806 610.742 960.619 609.743 958.401 609.165C956.917 608.758 955.402 608.555 953.871 608.555C949.403 608.555 945.076 610.289 940.998 613.461C924.627 626.208 912.473 662.326 912.473 703.583C912.473 724.188 915.519 743.528 920.596 759.29C928.204 782.942 940.42 798.595 953.871 798.595C955.402 798.595 956.917 798.392 958.401 797.985C960.619 797.407 962.806 796.408 964.915 795.017C968.805 792.44 972.492 788.55 975.851 783.566C977.788 784.457 979.74 785.332 981.709 786.238C978.569 791.002 975.116 794.97 971.43 797.985C969.321 799.704 967.149 801.125 964.915 802.219C961.385 803.937 957.682 804.843 953.871 804.843C936.265 804.843 921.174 785.535 912.942 756.119C908.661 740.888 906.224 722.954 906.224 703.583C906.224 661.091 917.941 625.489 935.031 610.258Z" fill="#FFC200"/>
<path d="M950.277 617.835C952.808 614.414 955.526 611.508 958.4 609.165C960.494 607.446 962.681 606.025 964.915 604.931C968.445 603.213 972.148 602.307 975.959 602.307C991.097 602.307 1004.36 616.585 1013.03 639.283C1010.39 638.534 1007.77 637.799 1005.19 637.05C997.642 619.553 987.238 608.555 975.959 608.555C974.428 608.555 972.913 608.758 971.429 609.165C969.195 609.743 967.024 610.742 964.915 612.133C961.884 614.132 958.994 616.929 956.276 620.397C943.45 636.753 934.561 668.293 934.561 703.583C934.561 729.452 939.342 753.307 946.95 770.632C951.917 781.957 958.088 790.503 964.915 795.017C967.024 796.408 969.195 797.407 971.429 797.985C972.913 798.392 974.428 798.595 975.959 798.595C981.583 798.595 986.988 795.861 991.94 790.94C993.956 791.862 995.971 792.783 998.002 793.721C991.456 800.844 983.958 804.843 975.959 804.843C972.148 804.843 968.445 803.937 964.915 802.219C962.681 801.125 960.494 799.704 958.4 797.985C950.496 791.518 943.685 780.755 938.545 766.96C932.109 749.73 928.313 727.781 928.313 703.583C928.313 667.043 936.967 635.612 950.277 617.835Z" fill="#FFC200"/>
</svg>