<svg xmlns="http://www.w3.org/2000/svg" width="1342" height="1245" viewBox="0 0 1342 1245" fill="none">
<rect x="0.0996094" y="855.402" width="1341.06" height="388.714" rx="29.1535" fill="white"/>
<path d="M284.832 955.466L303.199 1006.14H296.396L292.179 994.036H270.071L265.853 1006.14H259.051L277.417 955.466H284.832ZM272.043 988.39H290.206L281.159 962.473L272.043 988.39ZM327.783 969.275C337.919 969.275 346.014 977.098 346.014 988.05C346.014 999.002 337.919 1006.96 327.647 1006.96C322.341 1006.96 317.648 1004.78 314.995 1001.18V1019.75H309.145V970.091H314.859V975.601C317.308 971.656 322.205 969.275 327.783 969.275ZM327.443 1001.31C334.586 1001.31 339.824 995.737 339.824 988.118C339.824 980.499 334.518 974.921 327.443 974.921C320.301 974.921 314.995 980.499 314.995 988.118C314.995 995.737 320.233 1001.31 327.443 1001.31ZM371.561 969.275C381.697 969.275 389.792 977.098 389.792 988.05C389.792 999.002 381.697 1006.96 371.425 1006.96C366.119 1006.96 361.425 1004.78 358.772 1001.18V1019.75H352.922V970.091H358.636V975.601C361.085 971.656 365.983 969.275 371.561 969.275ZM371.221 1001.31C378.364 1001.31 383.602 995.737 383.602 988.118C383.602 980.499 378.296 974.921 371.221 974.921C364.078 974.921 358.772 980.499 358.772 988.118C358.772 995.737 364.01 1001.31 371.221 1001.31ZM396.7 1006.14V955.466H402.55V1006.14H396.7ZM436.955 970.023H443.758L427.092 1010.63C425.255 1015.19 422.67 1020.91 414.235 1020.91C412.602 1020.91 410.834 1020.7 409.473 1020.16V1014.92C410.154 1015.12 411.786 1015.33 413.215 1015.33C418.521 1015.33 419.881 1012.06 420.97 1009.55L422.534 1005.8L408.113 970.023H414.779L425.867 997.914L436.955 970.023ZM479.644 969.275C489.779 969.275 497.874 977.098 497.874 988.05C497.874 999.002 489.779 1006.96 479.508 1006.96C474.202 1006.96 469.508 1004.78 466.855 1001.18V1019.75H461.005V970.091H466.719V975.601C469.168 971.656 474.066 969.275 479.644 969.275ZM479.304 1001.31C486.446 1001.31 491.684 995.737 491.684 988.118C491.684 980.499 486.378 974.921 479.304 974.921C472.161 974.921 466.855 980.499 466.855 988.118C466.855 995.737 472.093 1001.31 479.304 1001.31ZM518.66 969.275C526.891 969.275 532.673 974.377 532.673 981.724V1006.14H526.959V1001.11C524.51 1004.72 520.224 1006.96 515.599 1006.96C507.912 1006.96 502.742 1002.47 502.742 996.145C502.742 990.839 507.027 987.166 514.306 985.533L526.823 982.744V981.724C526.823 977.574 523.421 974.853 518.66 974.853C514.306 974.853 510.905 977.166 509.34 980.703L504.102 977.982C506.143 973.084 511.993 969.275 518.66 969.275ZM515.939 1001.72C522.265 1001.72 526.823 996.961 526.823 990.635V987.506L515.667 990.091C511.585 990.975 508.932 993.22 508.932 996.145C508.932 999.546 511.653 1001.72 515.939 1001.72ZM556.309 1006.96C545.969 1006.96 538.282 998.866 538.282 988.05C538.282 977.234 545.969 969.275 556.309 969.275C563.383 969.275 569.37 973.425 571.614 978.799L566.376 981.52C564.608 977.574 561.002 974.921 556.309 974.921C549.506 974.921 544.472 980.499 544.472 988.118C544.472 995.601 549.506 1001.31 556.309 1001.31C561.002 1001.31 564.608 998.662 566.376 994.716L571.614 997.437C569.37 1002.74 563.315 1006.96 556.309 1006.96ZM607.311 970.091L593.978 984.513L607.311 1006.14H600.576L590.101 988.866L583.706 995.737V1006.14H577.856V955.466H583.706V987.778L600.304 970.091H607.311ZM626.078 969.275C634.309 969.275 640.091 974.377 640.091 981.724V1006.14H634.377V1001.11C631.928 1004.72 627.642 1006.96 623.017 1006.96C615.33 1006.96 610.16 1002.47 610.16 996.145C610.16 990.839 614.446 987.166 621.724 985.533L634.241 982.744V981.724C634.241 977.574 630.84 974.853 626.078 974.853C621.724 974.853 618.323 977.166 616.758 980.703L611.521 977.982C613.561 973.084 619.411 969.275 626.078 969.275ZM623.357 1001.72C629.683 1001.72 634.241 996.961 634.241 990.635V987.506L623.085 990.091C619.003 990.975 616.35 993.22 616.35 996.145C616.35 999.546 619.071 1001.72 623.357 1001.72ZM675.563 970.091H681.277V1004.65C681.277 1014.17 673.863 1021.11 663.863 1021.11C656.244 1021.11 650.326 1017.16 648.013 1011.72L653.183 1008.93C654.612 1012.4 658.149 1015.46 663.727 1015.46C670.053 1015.46 675.427 1011.52 675.427 1004.65V999.07C672.774 1002.4 668.421 1004.31 663.387 1004.31C653.591 1004.31 645.7 996.689 645.7 986.757C645.7 976.69 653.523 969.275 663.319 969.275C668.625 969.275 673.046 971.452 675.563 975.057V970.091ZM663.659 998.662C670.666 998.662 675.427 993.56 675.427 986.757C675.427 979.887 670.461 974.921 663.591 974.921C656.993 974.921 651.891 979.615 651.891 986.757C651.891 993.764 656.72 998.662 663.659 998.662ZM722.568 986.553C722.568 987.574 722.5 988.73 722.296 989.887H694.338C694.61 997.029 699.984 1001.65 706.311 1001.65C711.412 1001.65 714.746 998.934 716.65 995.261L721.752 997.982C719.507 1002.95 713.657 1006.96 706.243 1006.96C695.903 1006.96 688.216 998.934 688.216 988.05C688.216 977.166 695.699 969.275 705.766 969.275C716.038 969.275 722.568 977.37 722.568 986.553ZM694.474 984.853H716.106C716.038 978.867 711.072 974.445 705.766 974.445C700.12 974.445 695.291 978.322 694.474 984.853ZM759.183 969.275C769.319 969.275 777.414 977.098 777.414 988.05C777.414 999.002 769.319 1006.96 759.047 1006.96C753.741 1006.96 749.048 1004.78 746.395 1001.18V1019.75H740.545V970.091H746.259V975.601C748.708 971.656 753.605 969.275 759.183 969.275ZM758.843 1001.31C765.986 1001.31 771.224 995.737 771.224 988.118C771.224 980.499 765.918 974.921 758.843 974.921C751.701 974.921 746.395 980.499 746.395 988.118C746.395 995.737 751.633 1001.31 758.843 1001.31ZM799.696 969.683H802.621V975.261H798.812C793.642 975.261 790.172 978.662 790.172 984.649V1006.14H784.322V970.091H789.968V974.581C791.873 971.248 795.342 969.683 799.696 969.683ZM825.432 1006.96C815.024 1006.96 806.861 999.002 806.861 988.05C806.861 977.098 814.956 969.275 825.432 969.275C835.908 969.275 844.003 977.098 844.003 988.05C844.003 999.002 835.84 1006.96 825.432 1006.96ZM825.432 1001.31C832.438 1001.31 837.812 995.669 837.812 988.118C837.812 980.567 832.438 974.921 825.432 974.921C818.425 974.921 813.051 980.567 813.051 988.118C813.051 995.669 818.425 1001.31 825.432 1001.31ZM865.389 1006.55C858.111 1006.55 854.029 1002.4 854.029 995.124V975.669H847.023V970.091H848.859C851.989 970.091 854.029 967.983 854.029 964.785V958.391H859.879V970.091H868.587V975.669H859.879V995.124C859.879 997.437 860.288 1001.65 866.478 1001.65C867.226 1001.65 868.246 1001.59 868.995 1001.45V1006.21C867.838 1006.48 866.41 1006.55 865.389 1006.55ZM907.179 986.553C907.179 987.574 907.111 988.73 906.907 989.887H878.949C879.221 997.029 884.595 1001.65 890.921 1001.65C896.023 1001.65 899.356 998.934 901.261 995.261L906.363 997.982C904.118 1002.95 898.268 1006.96 890.853 1006.96C880.513 1006.96 872.826 998.934 872.826 988.05C872.826 977.166 880.309 969.275 890.377 969.275C900.649 969.275 907.179 977.37 907.179 986.553ZM879.085 984.853H900.717C900.649 978.867 895.683 974.445 890.377 974.445C884.731 974.445 879.901 978.322 879.085 984.853ZM929.449 1006.96C919.109 1006.96 911.423 998.866 911.423 988.05C911.423 977.234 919.109 969.275 929.449 969.275C936.524 969.275 942.51 973.425 944.755 978.799L939.517 981.52C937.748 977.574 934.143 974.921 929.449 974.921C922.647 974.921 917.613 980.499 917.613 988.118C917.613 995.601 922.647 1001.31 929.449 1001.31C934.143 1001.31 937.748 998.662 939.517 994.716L944.755 997.437C942.51 1002.74 936.456 1006.96 929.449 1006.96ZM966.098 1006.55C958.82 1006.55 954.738 1002.4 954.738 995.124V975.669H947.731V970.091H949.568C952.697 970.091 954.738 967.983 954.738 964.785V958.391H960.588V970.091H969.295V975.669H960.588V995.124C960.588 997.437 960.996 1001.65 967.187 1001.65C967.935 1001.65 968.955 1001.59 969.704 1001.45V1006.21C968.547 1006.48 967.119 1006.55 966.098 1006.55ZM976.095 963.425V955.466H981.945V963.425H976.095ZM976.095 1006.14V970.091H981.945V1006.14H976.095ZM1006.92 1006.96C996.512 1006.96 988.349 999.002 988.349 988.05C988.349 977.098 996.444 969.275 1006.92 969.275C1017.4 969.275 1025.49 977.098 1025.49 988.05C1025.49 999.002 1017.33 1006.96 1006.92 1006.96ZM1006.92 1001.31C1013.93 1001.31 1019.3 995.669 1019.3 988.118C1019.3 980.567 1013.93 974.921 1006.92 974.921C999.913 974.921 994.539 980.567 994.539 988.118C994.539 995.669 999.913 1001.31 1006.92 1001.31ZM1048.56 969.275C1056.39 969.275 1062.03 974.853 1062.03 982.404V1006.14H1056.18V984.309C1056.18 978.594 1052.71 974.921 1047.27 974.921C1041.9 974.921 1038.29 978.662 1038.29 984.309V1006.14H1032.44V970.091H1038.15V974.241C1040.26 971.112 1044.14 969.275 1048.56 969.275Z" fill="black"/>
<path d="M278.068 1060.94H281.8V1080.45C281.8 1086.36 277.602 1090.37 271.188 1090.37C264.774 1090.37 260.576 1086.4 260.576 1080.45V1060.94H264.308V1080.45C264.308 1084.3 267.223 1087.1 271.188 1087.1C275.114 1087.1 278.068 1084.3 278.068 1080.45V1060.94ZM294.52 1090.37C290.478 1090.37 287.174 1088.23 285.852 1084.73L288.69 1083.33C289.739 1085.93 291.955 1087.3 294.52 1087.3C296.93 1087.3 298.563 1086.05 298.563 1084.34C298.563 1082.86 297.319 1082.05 295.414 1081.5L292.033 1080.57C288.573 1079.6 286.785 1077.62 286.785 1074.82C286.785 1071.24 289.661 1068.83 293.937 1068.83C297.747 1068.83 300.779 1070.81 301.984 1074.04L299.185 1075.4C298.33 1073.18 296.386 1071.9 293.937 1071.9C291.722 1071.9 290.245 1072.99 290.245 1074.62C290.245 1076.02 291.411 1076.96 293.199 1077.5L296.697 1078.55C300.157 1079.56 302.023 1081.58 302.023 1084.34C302.023 1087.92 298.952 1090.37 294.52 1090.37ZM324.128 1078.7C324.128 1079.29 324.089 1079.95 323.972 1080.61H307.996C308.152 1084.69 311.223 1087.33 314.838 1087.33C317.753 1087.33 319.658 1085.78 320.746 1083.68L323.661 1085.23C322.379 1088.07 319.036 1090.37 314.799 1090.37C308.89 1090.37 304.498 1085.78 304.498 1079.56C304.498 1073.34 308.774 1068.83 314.527 1068.83C320.396 1068.83 324.128 1073.46 324.128 1078.7ZM308.074 1077.73H320.435C320.396 1074.31 317.559 1071.79 314.527 1071.79C311.3 1071.79 308.541 1074 308.074 1077.73ZM343.846 1090.37C337.898 1090.37 333.234 1085.82 333.234 1079.56C333.234 1073.3 337.86 1068.83 343.846 1068.83C349.832 1068.83 354.458 1073.3 354.458 1079.56C354.458 1085.82 349.793 1090.37 343.846 1090.37ZM343.846 1087.14C347.85 1087.14 350.92 1083.91 350.92 1079.6C350.92 1075.28 347.85 1072.06 343.846 1072.06C339.842 1072.06 336.771 1075.28 336.771 1079.6C336.771 1083.91 339.842 1087.14 343.846 1087.14ZM371.606 1069.3H374.949V1089.9H371.684V1087.53C370.479 1089.32 368.263 1090.37 365.776 1090.37C361.305 1090.37 358.04 1086.79 358.04 1082.4V1069.3H361.383V1081.78C361.383 1085.04 363.404 1087.14 366.514 1087.14C369.546 1087.14 371.606 1085 371.606 1081.78V1069.3ZM388.851 1069.06H390.523V1072.25H388.346C385.392 1072.25 383.409 1074.2 383.409 1077.62V1089.9H380.066V1069.3H383.293V1071.86C384.381 1069.96 386.363 1069.06 388.851 1069.06ZM400.482 1065.49V1060.94H403.825V1065.49H400.482ZM400.482 1089.9V1069.3H403.825V1089.9H400.482ZM417.863 1068.83C422.333 1068.83 425.559 1072.02 425.559 1076.33V1089.9H422.217V1077.42C422.217 1074.16 420.234 1072.06 417.124 1072.06C414.054 1072.06 411.993 1074.2 411.993 1077.42V1089.9H408.65V1069.3H411.916V1071.67C413.121 1069.88 415.336 1068.83 417.863 1068.83ZM437.479 1090.37C433.436 1090.37 430.132 1088.23 428.811 1084.73L431.648 1083.33C432.698 1085.93 434.913 1087.3 437.479 1087.3C439.889 1087.3 441.522 1086.05 441.522 1084.34C441.522 1082.86 440.278 1082.05 438.373 1081.5L434.991 1080.57C431.532 1079.6 429.744 1077.62 429.744 1074.82C429.744 1071.24 432.62 1068.83 436.896 1068.83C440.705 1068.83 443.737 1070.81 444.942 1074.04L442.144 1075.4C441.288 1073.18 439.345 1071.9 436.896 1071.9C434.68 1071.9 433.203 1072.99 433.203 1074.62C433.203 1076.02 434.369 1076.96 436.157 1077.5L439.656 1078.55C443.115 1079.56 444.981 1081.58 444.981 1084.34C444.981 1087.92 441.91 1090.37 437.479 1090.37ZM461.8 1069.3H465.143V1089.9H461.878V1087.53C460.673 1089.32 458.457 1090.37 455.969 1090.37C451.499 1090.37 448.234 1086.79 448.234 1082.4V1069.3H451.577V1081.78C451.577 1085.04 453.598 1087.14 456.708 1087.14C459.74 1087.14 461.8 1085 461.8 1081.78V1069.3ZM479.045 1069.06H480.716V1072.25H478.54C475.585 1072.25 473.603 1074.2 473.603 1077.62V1089.9H470.26V1069.3H473.486V1071.86C474.575 1069.96 476.557 1069.06 479.045 1069.06ZM492.235 1068.83C496.939 1068.83 500.243 1071.75 500.243 1075.94V1089.9H496.977V1087.02C495.578 1089.08 493.129 1090.37 490.486 1090.37C486.093 1090.37 483.139 1087.8 483.139 1084.19C483.139 1081.15 485.588 1079.05 489.747 1078.12L496.9 1076.53V1075.94C496.9 1073.57 494.956 1072.02 492.235 1072.02C489.747 1072.02 487.804 1073.34 486.91 1075.36L483.917 1073.81C485.083 1071.01 488.426 1068.83 492.235 1068.83ZM490.68 1087.37C494.295 1087.37 496.9 1084.65 496.9 1081.04V1079.25L490.525 1080.73C488.192 1081.23 486.676 1082.51 486.676 1084.19C486.676 1086.13 488.231 1087.37 490.68 1087.37ZM513.827 1068.83C518.297 1068.83 521.523 1072.02 521.523 1076.33V1089.9H518.18V1077.42C518.18 1074.16 516.198 1072.06 513.088 1072.06C510.017 1072.06 507.957 1074.2 507.957 1077.42V1089.9H504.614V1069.3H507.879V1071.67C509.084 1069.88 511.3 1068.83 513.827 1068.83ZM535.386 1090.37C529.478 1090.37 525.085 1085.74 525.085 1079.56C525.085 1073.38 529.478 1068.83 535.386 1068.83C539.429 1068.83 542.85 1071.2 544.132 1074.27L541.139 1075.83C540.129 1073.57 538.068 1072.06 535.386 1072.06C531.499 1072.06 528.623 1075.24 528.623 1079.6C528.623 1083.87 531.499 1087.14 535.386 1087.14C538.068 1087.14 540.129 1085.62 541.139 1083.37L544.132 1084.92C542.85 1087.96 539.39 1090.37 535.386 1090.37ZM566.163 1078.7C566.163 1079.29 566.124 1079.95 566.007 1080.61H550.031C550.187 1084.69 553.258 1087.33 556.873 1087.33C559.788 1087.33 561.693 1085.78 562.781 1083.68L565.697 1085.23C564.414 1088.07 561.071 1090.37 556.834 1090.37C550.925 1090.37 546.533 1085.78 546.533 1079.56C546.533 1073.34 550.809 1068.83 556.562 1068.83C562.431 1068.83 566.163 1073.46 566.163 1078.7ZM550.109 1077.73H562.47C562.431 1074.31 559.594 1071.79 556.562 1071.79C553.335 1071.79 550.576 1074 550.109 1077.73ZM585.064 1090.13C580.905 1090.13 578.573 1087.76 578.573 1083.6V1072.49H574.569V1069.3H575.619C577.407 1069.3 578.573 1068.09 578.573 1066.27V1062.61H581.916V1069.3H586.891V1072.49H581.916V1083.6C581.916 1084.92 582.149 1087.33 585.686 1087.33C586.114 1087.33 586.697 1087.3 587.125 1087.22V1089.94C586.464 1090.09 585.648 1090.13 585.064 1090.13ZM599.926 1090.37C593.979 1090.37 589.314 1085.82 589.314 1079.56C589.314 1073.3 593.94 1068.83 599.926 1068.83C605.912 1068.83 610.538 1073.3 610.538 1079.56C610.538 1085.82 605.873 1090.37 599.926 1090.37ZM599.926 1087.14C603.93 1087.14 607.001 1083.91 607.001 1079.6C607.001 1075.28 603.93 1072.06 599.926 1072.06C595.922 1072.06 592.851 1075.28 592.851 1079.6C592.851 1083.91 595.922 1087.14 599.926 1087.14ZM628.381 1090.37C624.339 1090.37 621.035 1088.23 619.713 1084.73L622.551 1083.33C623.6 1085.93 625.816 1087.3 628.381 1087.3C630.791 1087.3 632.424 1086.05 632.424 1084.34C632.424 1082.86 631.18 1082.05 629.275 1081.5L625.894 1080.57C622.434 1079.6 620.646 1077.62 620.646 1074.82C620.646 1071.24 623.523 1068.83 627.798 1068.83C631.608 1068.83 634.64 1070.81 635.845 1074.04L633.046 1075.4C632.191 1073.18 630.247 1071.9 627.798 1071.9C625.583 1071.9 624.106 1072.99 624.106 1074.62C624.106 1076.02 625.272 1076.96 627.06 1077.5L630.558 1078.55C634.018 1079.56 635.884 1081.58 635.884 1084.34C635.884 1087.92 632.813 1090.37 628.381 1090.37ZM647.455 1068.83C652.158 1068.83 655.462 1071.75 655.462 1075.94V1089.9H652.197V1087.02C650.798 1089.08 648.349 1090.37 645.706 1090.37C641.313 1090.37 638.359 1087.8 638.359 1084.19C638.359 1081.15 640.808 1079.05 644.967 1078.12L652.119 1076.53V1075.94C652.119 1073.57 650.176 1072.02 647.455 1072.02C644.967 1072.02 643.023 1073.34 642.129 1075.36L639.136 1073.81C640.303 1071.01 643.645 1068.83 647.455 1068.83ZM645.9 1087.37C649.515 1087.37 652.119 1084.65 652.119 1081.04V1079.25L645.744 1080.73C643.412 1081.23 641.896 1082.51 641.896 1084.19C641.896 1086.13 643.451 1087.37 645.9 1087.37ZM661.894 1089.9V1072.49H657.89V1069.3H661.894V1067.43C661.894 1063 664.926 1060.59 668.658 1060.59C669.28 1060.59 670.212 1060.67 670.679 1060.78V1063.74C670.251 1063.66 669.396 1063.62 669.046 1063.62C666.792 1063.62 665.237 1064.91 665.237 1067.43V1069.3H670.135V1072.49H665.237V1089.9H661.894ZM691.394 1078.7C691.394 1079.29 691.355 1079.95 691.239 1080.61H675.262C675.418 1084.69 678.489 1087.33 682.104 1087.33C685.019 1087.33 686.924 1085.78 688.012 1083.68L690.928 1085.23C689.645 1088.07 686.302 1090.37 682.065 1090.37C676.156 1090.37 671.764 1085.78 671.764 1079.56C671.764 1073.34 676.04 1068.83 681.793 1068.83C687.662 1068.83 691.394 1073.46 691.394 1078.7ZM675.34 1077.73H687.701C687.662 1074.31 684.825 1071.79 681.793 1071.79C678.566 1071.79 675.807 1074 675.34 1077.73ZM710.883 1069.3H714.149V1089.04C714.149 1094.49 709.912 1098.45 704.198 1098.45C699.844 1098.45 696.462 1096.2 695.141 1093.09L698.095 1091.49C698.911 1093.48 700.932 1095.22 704.12 1095.22C707.735 1095.22 710.806 1092.97 710.806 1089.04V1085.86C709.29 1087.76 706.802 1088.85 703.926 1088.85C698.328 1088.85 693.819 1084.5 693.819 1078.82C693.819 1073.07 698.289 1068.83 703.887 1068.83C706.919 1068.83 709.445 1070.08 710.883 1072.14V1069.3ZM704.081 1085.62C708.085 1085.62 710.806 1082.71 710.806 1078.82C710.806 1074.9 707.968 1072.06 704.042 1072.06C700.272 1072.06 697.356 1074.74 697.356 1078.82C697.356 1082.82 700.116 1085.62 704.081 1085.62ZM732.457 1069.3H735.8V1089.9H732.535V1087.53C731.33 1089.32 729.114 1090.37 726.626 1090.37C722.156 1090.37 718.891 1086.79 718.891 1082.4V1069.3H722.234V1081.78C722.234 1085.04 724.255 1087.14 727.365 1087.14C730.397 1087.14 732.457 1085 732.457 1081.78V1069.3ZM748.847 1068.83C753.55 1068.83 756.854 1071.75 756.854 1075.94V1089.9H753.589V1087.02C752.19 1089.08 749.741 1090.37 747.098 1090.37C742.705 1090.37 739.751 1087.8 739.751 1084.19C739.751 1081.15 742.2 1079.05 746.359 1078.12L753.511 1076.53V1075.94C753.511 1073.57 751.568 1072.02 748.847 1072.02C746.359 1072.02 744.415 1073.34 743.521 1075.36L740.528 1073.81C741.695 1071.01 745.037 1068.83 748.847 1068.83ZM747.292 1087.37C750.907 1087.37 753.511 1084.65 753.511 1081.04V1079.25L747.136 1080.73C744.804 1081.23 743.288 1082.51 743.288 1084.19C743.288 1086.13 744.843 1087.37 747.292 1087.37ZM770.011 1069.06H771.682V1072.25H769.505C766.551 1072.25 764.569 1074.2 764.569 1077.62V1089.9H761.226V1069.3H764.452V1071.86C765.541 1069.96 767.523 1069.06 770.011 1069.06ZM791.83 1060.94H795.173V1089.9H791.908V1086.91C790.392 1089.12 787.632 1090.37 784.523 1090.37C778.653 1090.37 774.105 1085.82 774.105 1079.6C774.105 1073.38 778.692 1068.83 784.484 1068.83C787.593 1068.83 790.353 1070.15 791.83 1072.33V1060.94ZM784.717 1087.14C788.798 1087.14 791.83 1083.95 791.83 1079.6C791.83 1075.28 788.798 1072.06 784.717 1072.06C780.635 1072.06 777.642 1075.28 777.642 1079.6C777.642 1083.95 780.635 1087.14 784.717 1087.14ZM821.506 1069.26H825.393L815.87 1092.46C814.82 1095.07 813.343 1098.33 808.523 1098.33C807.59 1098.33 806.579 1098.22 805.802 1097.91V1094.91C806.191 1095.03 807.124 1095.15 807.94 1095.15C810.972 1095.15 811.749 1093.28 812.371 1091.84L813.265 1089.71L805.024 1069.26H808.834L815.17 1085.2L821.506 1069.26ZM837.634 1090.37C831.686 1090.37 827.022 1085.82 827.022 1079.56C827.022 1073.3 831.647 1068.83 837.634 1068.83C843.62 1068.83 848.246 1073.3 848.246 1079.56C848.246 1085.82 843.581 1090.37 837.634 1090.37ZM837.634 1087.14C841.637 1087.14 844.708 1083.91 844.708 1079.6C844.708 1075.28 841.637 1072.06 837.634 1072.06C833.63 1072.06 830.559 1075.28 830.559 1079.6C830.559 1083.91 833.63 1087.14 837.634 1087.14ZM865.394 1069.3H868.737V1089.9H865.472V1087.53C864.267 1089.32 862.051 1090.37 859.563 1090.37C855.093 1090.37 851.828 1086.79 851.828 1082.4V1069.3H855.171V1081.78C855.171 1085.04 857.192 1087.14 860.302 1087.14C863.334 1087.14 865.394 1085 865.394 1081.78V1069.3ZM882.639 1069.06H884.311V1072.25H882.134C879.18 1072.25 877.197 1074.2 877.197 1077.62V1089.9H873.854V1069.3H877.08V1071.86C878.169 1069.96 880.151 1069.06 882.639 1069.06ZM905.231 1068.83C911.023 1068.83 915.649 1073.3 915.649 1079.56C915.649 1085.82 911.023 1090.37 905.153 1090.37C902.122 1090.37 899.439 1089.12 897.923 1087.06V1097.67H894.58V1069.3H897.846V1072.45C899.245 1070.19 902.044 1068.83 905.231 1068.83ZM905.037 1087.14C909.118 1087.14 912.111 1083.95 912.111 1079.6C912.111 1075.24 909.079 1072.06 905.037 1072.06C900.955 1072.06 897.923 1075.24 897.923 1079.6C897.923 1083.95 900.916 1087.14 905.037 1087.14ZM927.526 1068.83C932.23 1068.83 935.534 1071.75 935.534 1075.94V1089.9H932.268V1087.02C930.869 1089.08 928.42 1090.37 925.777 1090.37C921.384 1090.37 918.43 1087.8 918.43 1084.19C918.43 1081.15 920.879 1079.05 925.038 1078.12L932.191 1076.53V1075.94C932.191 1073.57 930.247 1072.02 927.526 1072.02C925.038 1072.02 923.095 1073.34 922.201 1075.36L919.208 1073.81C920.374 1071.01 923.717 1068.83 927.526 1068.83ZM925.971 1087.37C929.586 1087.37 932.191 1084.65 932.191 1081.04V1079.25L925.816 1080.73C923.483 1081.23 921.967 1082.51 921.967 1084.19C921.967 1086.13 923.522 1087.37 925.971 1087.37ZM949.04 1090.37C943.131 1090.37 938.739 1085.74 938.739 1079.56C938.739 1073.38 943.131 1068.83 949.04 1068.83C953.083 1068.83 956.503 1071.2 957.786 1074.27L954.793 1075.83C953.782 1073.57 951.722 1072.06 949.04 1072.06C945.153 1072.06 942.276 1075.24 942.276 1079.6C942.276 1083.87 945.153 1087.14 949.04 1087.14C951.722 1087.14 953.782 1085.62 954.793 1083.37L957.786 1084.92C956.503 1087.96 953.044 1090.37 949.04 1090.37ZM978.184 1069.3L970.565 1077.54L978.184 1089.9H974.336L968.35 1080.03L964.696 1083.95V1089.9H961.353V1060.94H964.696V1079.4L974.18 1069.3H978.184ZM988.908 1068.83C993.611 1068.83 996.915 1071.75 996.915 1075.94V1089.9H993.65V1087.02C992.251 1089.08 989.802 1090.37 987.159 1090.37C982.766 1090.37 979.812 1087.8 979.812 1084.19C979.812 1081.15 982.261 1079.05 986.42 1078.12L993.572 1076.53V1075.94C993.572 1073.57 991.629 1072.02 988.908 1072.02C986.42 1072.02 984.477 1073.34 983.583 1075.36L980.589 1073.81C981.756 1071.01 985.099 1068.83 988.908 1068.83ZM987.353 1087.37C990.968 1087.37 993.572 1084.65 993.572 1081.04V1079.25L987.198 1080.73C984.865 1081.23 983.349 1082.51 983.349 1084.19C983.349 1086.13 984.904 1087.37 987.353 1087.37ZM1017.19 1069.3H1020.45V1089.04C1020.45 1094.49 1016.21 1098.45 1010.5 1098.45C1006.15 1098.45 1002.76 1096.2 1001.44 1093.09L1004.4 1091.49C1005.21 1093.48 1007.23 1095.22 1010.42 1095.22C1014.04 1095.22 1017.11 1092.97 1017.11 1089.04V1085.86C1015.59 1087.76 1013.1 1088.85 1010.23 1088.85C1004.63 1088.85 1000.12 1084.5 1000.12 1078.82C1000.12 1073.07 1004.59 1068.83 1010.19 1068.83C1013.22 1068.83 1015.75 1070.08 1017.19 1072.14V1069.3ZM1010.38 1085.62C1014.39 1085.62 1017.11 1082.71 1017.11 1078.82C1017.11 1074.9 1014.27 1072.06 1010.34 1072.06C1006.57 1072.06 1003.66 1074.74 1003.66 1078.82C1003.66 1082.82 1006.42 1085.62 1010.38 1085.62ZM1044.05 1078.7C1044.05 1079.29 1044.01 1079.95 1043.89 1080.61H1027.91C1028.07 1084.69 1031.14 1087.33 1034.76 1087.33C1037.67 1087.33 1039.58 1085.78 1040.66 1083.68L1043.58 1085.23C1042.3 1088.07 1038.95 1090.37 1034.72 1090.37C1028.81 1090.37 1024.42 1085.78 1024.42 1079.56C1024.42 1073.34 1028.69 1068.83 1034.44 1068.83C1040.31 1068.83 1044.05 1073.46 1044.05 1078.7ZM1027.99 1077.73H1040.35C1040.31 1074.31 1037.48 1071.79 1034.44 1071.79C1031.22 1071.79 1028.46 1074 1027.99 1077.73ZM1054.83 1090.37C1050.79 1090.37 1047.48 1088.23 1046.16 1084.73L1049 1083.33C1050.05 1085.93 1052.26 1087.3 1054.83 1087.3C1057.24 1087.3 1058.87 1086.05 1058.87 1084.34C1058.87 1082.86 1057.63 1082.05 1055.72 1081.5L1052.34 1080.57C1048.88 1079.6 1047.09 1077.62 1047.09 1074.82C1047.09 1071.24 1049.97 1068.83 1054.24 1068.83C1058.05 1068.83 1061.09 1070.81 1062.29 1074.04L1059.49 1075.4C1058.64 1073.18 1056.69 1071.9 1054.24 1071.9C1052.03 1071.9 1050.55 1072.99 1050.55 1074.62C1050.55 1076.02 1051.72 1076.96 1053.51 1077.5L1057 1078.55C1060.46 1079.56 1062.33 1081.58 1062.33 1084.34C1062.33 1087.92 1059.26 1090.37 1054.83 1090.37ZM1080.58 1068.83C1085.29 1068.83 1088.59 1071.75 1088.59 1075.94V1089.9H1085.32V1087.02C1083.92 1089.08 1081.48 1090.37 1078.83 1090.37C1074.44 1090.37 1071.49 1087.8 1071.49 1084.19C1071.49 1081.15 1073.94 1079.05 1078.09 1078.12L1085.25 1076.53V1075.94C1085.25 1073.57 1083.3 1072.02 1080.58 1072.02C1078.09 1072.02 1076.15 1073.34 1075.26 1075.36L1072.26 1073.81C1073.43 1071.01 1076.77 1068.83 1080.58 1068.83ZM1079.03 1087.37C1082.64 1087.37 1085.25 1084.65 1085.25 1081.04V1079.25L1078.87 1080.73C1076.54 1081.23 1075.02 1082.51 1075.02 1084.19C1075.02 1086.13 1076.58 1087.37 1079.03 1087.37ZM1108.86 1069.3H1112.12V1089.04C1112.12 1094.49 1107.89 1098.45 1102.17 1098.45C1097.82 1098.45 1094.44 1096.2 1093.12 1093.09L1096.07 1091.49C1096.89 1093.48 1098.91 1095.22 1102.1 1095.22C1105.71 1095.22 1108.78 1092.97 1108.78 1089.04V1085.86C1107.27 1087.76 1104.78 1088.85 1101.9 1088.85C1096.3 1088.85 1091.79 1084.5 1091.79 1078.82C1091.79 1073.07 1096.27 1068.83 1101.86 1068.83C1104.89 1068.83 1107.42 1070.08 1108.86 1072.14V1069.3ZM1102.06 1085.62C1106.06 1085.62 1108.78 1082.71 1108.78 1078.82C1108.78 1074.9 1105.94 1072.06 1102.02 1072.06C1098.25 1072.06 1095.33 1074.74 1095.33 1078.82C1095.33 1082.82 1098.09 1085.62 1102.06 1085.62ZM1125.19 1068.83C1129.89 1068.83 1133.19 1071.75 1133.19 1075.94V1089.9H1129.93V1087.02C1128.53 1089.08 1126.08 1090.37 1123.44 1090.37C1119.04 1090.37 1116.09 1087.8 1116.09 1084.19C1116.09 1081.15 1118.54 1079.05 1122.7 1078.12L1129.85 1076.53V1075.94C1129.85 1073.57 1127.91 1072.02 1125.19 1072.02C1122.7 1072.02 1120.75 1073.34 1119.86 1075.36L1116.87 1073.81C1118.03 1071.01 1121.38 1068.83 1125.19 1068.83ZM1123.63 1087.37C1127.25 1087.37 1129.85 1084.65 1129.85 1081.04V1079.25L1123.48 1080.73C1121.14 1081.23 1119.63 1082.51 1119.63 1084.19C1119.63 1086.13 1121.18 1087.37 1123.63 1087.37ZM1137.25 1065.49V1060.94H1140.6V1065.49H1137.25ZM1137.25 1089.9V1069.3H1140.6V1089.9H1137.25ZM1154.63 1068.83C1159.1 1068.83 1162.33 1072.02 1162.33 1076.33V1089.9H1158.99V1077.42C1158.99 1074.16 1157.01 1072.06 1153.9 1072.06C1150.83 1072.06 1148.77 1074.2 1148.77 1077.42V1089.9H1145.42V1069.3H1148.69V1071.67C1149.89 1069.88 1152.11 1068.83 1154.63 1068.83ZM1174.25 1090.37C1170.21 1090.37 1166.9 1088.23 1165.58 1084.73L1168.42 1083.33C1169.47 1085.93 1171.69 1087.3 1174.25 1087.3C1176.66 1087.3 1178.29 1086.05 1178.29 1084.34C1178.29 1082.86 1177.05 1082.05 1175.14 1081.5L1171.76 1080.57C1168.3 1079.6 1166.52 1077.62 1166.52 1074.82C1166.52 1071.24 1169.39 1068.83 1173.67 1068.83C1177.48 1068.83 1180.51 1070.81 1181.71 1074.04L1178.92 1075.4C1178.06 1073.18 1176.12 1071.9 1173.67 1071.9C1171.45 1071.9 1169.98 1072.99 1169.98 1074.62C1169.98 1076.02 1171.14 1076.96 1172.93 1077.5L1176.43 1078.55C1179.89 1079.56 1181.75 1081.58 1181.75 1084.34C1181.75 1087.92 1178.68 1090.37 1174.25 1090.37ZM1194.02 1090.13C1189.86 1090.13 1187.53 1087.76 1187.53 1083.6V1072.49H1183.53V1069.3H1184.58C1186.37 1069.3 1187.53 1068.09 1187.53 1066.27V1062.61H1190.88V1069.3H1195.85V1072.49H1190.88V1083.6C1190.88 1084.92 1191.11 1087.33 1194.65 1087.33C1195.07 1087.33 1195.66 1087.3 1196.08 1087.22V1089.94C1195.42 1090.09 1194.61 1090.13 1194.02 1090.13ZM268.117 1126.83C272.821 1126.83 276.125 1129.75 276.125 1133.94V1147.9H272.86V1145.02C271.46 1147.08 269.011 1148.37 266.368 1148.37C261.976 1148.37 259.021 1145.8 259.021 1142.19C259.021 1139.15 261.47 1137.05 265.63 1136.12L272.782 1134.53V1133.94C272.782 1131.57 270.838 1130.02 268.117 1130.02C265.63 1130.02 263.686 1131.34 262.792 1133.36L259.799 1131.81C260.965 1129.01 264.308 1126.83 268.117 1126.83ZM266.562 1145.37C270.178 1145.37 272.782 1142.65 272.782 1139.04V1137.25L266.407 1138.73C264.075 1139.23 262.559 1140.51 262.559 1142.19C262.559 1144.13 264.114 1145.37 266.562 1145.37ZM289.709 1126.83C294.179 1126.83 297.405 1130.02 297.405 1134.33V1147.9H294.062V1135.42C294.062 1132.16 292.08 1130.06 288.97 1130.06C285.899 1130.06 283.839 1132.2 283.839 1135.42V1147.9H280.496V1127.3H283.762V1129.67C284.967 1127.88 287.182 1126.83 289.709 1126.83ZM316.292 1127.26H320.179L310.656 1150.46C309.606 1153.07 308.129 1156.33 303.309 1156.33C302.376 1156.33 301.365 1156.22 300.588 1155.91V1152.91C300.977 1153.03 301.91 1153.15 302.726 1153.15C305.758 1153.15 306.535 1151.28 307.157 1149.84L308.051 1147.71L299.811 1127.26H303.62L309.956 1143.2L316.292 1127.26ZM329.724 1123.49V1118.94H333.067V1123.49H329.724ZM329.724 1147.9V1127.3H333.067V1147.9H329.724ZM347.105 1126.83C351.575 1126.83 354.801 1130.02 354.801 1134.33V1147.9H351.458V1135.42C351.458 1132.16 349.476 1130.06 346.366 1130.06C343.295 1130.06 341.235 1132.2 341.235 1135.42V1147.9H337.892V1127.3H341.158V1129.67C342.363 1127.88 344.578 1126.83 347.105 1126.83ZM368.665 1148.37C362.756 1148.37 358.364 1143.74 358.364 1137.56C358.364 1131.38 362.756 1126.83 368.665 1126.83C372.707 1126.83 376.128 1129.2 377.411 1132.27L374.417 1133.83C373.407 1131.57 371.347 1130.06 368.665 1130.06C364.777 1130.06 361.901 1133.24 361.901 1137.6C361.901 1141.87 364.777 1145.14 368.665 1145.14C371.347 1145.14 373.407 1143.62 374.417 1141.37L377.411 1142.92C376.128 1145.96 372.668 1148.37 368.665 1148.37ZM380.666 1123.49V1118.94H384.009V1123.49H380.666ZM380.666 1147.9V1127.3H384.009V1147.9H380.666ZM405.394 1118.94H408.737V1147.9H405.472V1144.91C403.956 1147.12 401.196 1148.37 398.086 1148.37C392.217 1148.37 387.669 1143.82 387.669 1137.6C387.669 1131.38 392.256 1126.83 398.048 1126.83C401.157 1126.83 403.917 1128.15 405.394 1130.33V1118.94ZM398.281 1145.14C402.362 1145.14 405.394 1141.95 405.394 1137.6C405.394 1133.28 402.362 1130.06 398.281 1130.06C394.199 1130.06 391.206 1133.28 391.206 1137.6C391.206 1141.95 394.199 1145.14 398.281 1145.14ZM432.315 1136.7C432.315 1137.29 432.276 1137.95 432.159 1138.61H416.183C416.339 1142.69 419.41 1145.33 423.025 1145.33C425.94 1145.33 427.845 1143.78 428.933 1141.68L431.848 1143.23C430.566 1146.07 427.223 1148.37 422.986 1148.37C417.077 1148.37 412.685 1143.78 412.685 1137.56C412.685 1131.34 416.961 1126.83 422.714 1126.83C428.583 1126.83 432.315 1131.46 432.315 1136.7ZM416.261 1135.73H428.622C428.583 1132.31 425.746 1129.79 422.714 1129.79C419.487 1129.79 416.727 1132 416.261 1135.73ZM445.118 1126.83C449.589 1126.83 452.815 1130.02 452.815 1134.33V1147.9H449.472V1135.42C449.472 1132.16 447.49 1130.06 444.38 1130.06C441.309 1130.06 439.249 1132.2 439.249 1135.42V1147.9H435.906V1127.3H439.171V1129.67C440.376 1127.88 442.592 1126.83 445.118 1126.83ZM466.173 1148.13C462.014 1148.13 459.681 1145.76 459.681 1141.6V1130.49H455.677V1127.3H456.727C458.515 1127.3 459.681 1126.09 459.681 1124.27V1120.61H463.024V1127.3H468V1130.49H463.024V1141.6C463.024 1142.92 463.257 1145.33 466.795 1145.33C467.222 1145.33 467.805 1145.3 468.233 1145.22V1147.94C467.572 1148.09 466.756 1148.13 466.173 1148.13ZM479.387 1148.37C475.345 1148.37 472.04 1146.23 470.719 1142.73L473.556 1141.33C474.606 1143.93 476.822 1145.3 479.387 1145.3C481.797 1145.3 483.43 1144.05 483.43 1142.34C483.43 1140.86 482.186 1140.05 480.281 1139.5L476.899 1138.57C473.44 1137.6 471.652 1135.62 471.652 1132.82C471.652 1129.24 474.528 1126.83 478.804 1126.83C482.614 1126.83 485.645 1128.81 486.85 1132.04L484.052 1133.4C483.197 1131.18 481.253 1129.9 478.804 1129.9C476.588 1129.9 475.111 1130.99 475.111 1132.62C475.111 1134.02 476.277 1134.96 478.066 1135.5L481.564 1136.55C485.024 1137.56 486.889 1139.58 486.889 1142.34C486.889 1145.92 483.819 1148.37 479.387 1148.37ZM491.736 1147.9V1143.31H495.39V1147.9H491.736ZM541.062 1118.94H544.833L536.747 1147.9H532.51L525.941 1123.68L519.333 1147.9H515.135L507.05 1118.94H510.898L517.389 1143.08L523.764 1118.94H528.196L534.571 1143L541.062 1118.94ZM565.897 1136.7C565.897 1137.29 565.858 1137.95 565.742 1138.61H549.766C549.921 1142.69 552.992 1145.33 556.607 1145.33C559.522 1145.33 561.427 1143.78 562.515 1141.68L565.431 1143.23C564.148 1146.07 560.805 1148.37 556.568 1148.37C550.66 1148.37 546.267 1143.78 546.267 1137.56C546.267 1131.34 550.543 1126.83 556.296 1126.83C562.166 1126.83 565.897 1131.46 565.897 1136.7ZM549.843 1135.73H562.204C562.166 1132.31 559.328 1129.79 556.296 1129.79C553.07 1129.79 550.31 1132 549.843 1135.73ZM570.693 1129.24V1118.94H574.192V1129.24H570.693ZM594.451 1127.3H598.182L589.903 1147.9H586.832L578.591 1127.3H582.323L588.387 1143.31L594.451 1127.3ZM619.459 1136.7C619.459 1137.29 619.42 1137.95 619.304 1138.61H603.328C603.483 1142.69 606.554 1145.33 610.169 1145.33C613.084 1145.33 614.989 1143.78 616.077 1141.68L618.993 1143.23C617.71 1146.07 614.367 1148.37 610.13 1148.37C604.222 1148.37 599.829 1143.78 599.829 1137.56C599.829 1131.34 604.105 1126.83 609.858 1126.83C615.728 1126.83 619.459 1131.46 619.459 1136.7ZM603.405 1135.73H615.766C615.728 1132.31 612.89 1129.79 609.858 1129.79C606.632 1129.79 603.872 1132 603.405 1135.73ZM645.63 1127.3H648.895V1147.04C648.895 1152.49 644.658 1156.45 638.944 1156.45C634.59 1156.45 631.208 1154.2 629.887 1151.09L632.841 1149.49C633.657 1151.48 635.679 1153.22 638.866 1153.22C642.481 1153.22 645.552 1150.97 645.552 1147.04V1143.86C644.036 1145.76 641.548 1146.85 638.672 1146.85C633.074 1146.85 628.565 1142.5 628.565 1136.82C628.565 1131.07 633.035 1126.83 638.633 1126.83C641.665 1126.83 644.191 1128.08 645.63 1130.14V1127.3ZM638.827 1143.62C642.831 1143.62 645.552 1140.71 645.552 1136.82C645.552 1132.9 642.714 1130.06 638.788 1130.06C635.018 1130.06 632.102 1132.74 632.102 1136.82C632.102 1140.82 634.862 1143.62 638.827 1143.62ZM663.472 1148.37C657.524 1148.37 652.86 1143.82 652.86 1137.56C652.86 1131.3 657.485 1126.83 663.472 1126.83C669.458 1126.83 674.084 1131.3 674.084 1137.56C674.084 1143.82 669.419 1148.37 663.472 1148.37ZM663.472 1145.14C667.475 1145.14 670.546 1141.91 670.546 1137.6C670.546 1133.28 667.475 1130.06 663.472 1130.06C659.468 1130.06 656.397 1133.28 656.397 1137.6C656.397 1141.91 659.468 1145.14 663.472 1145.14ZM686.305 1148.13C682.145 1148.13 679.813 1145.76 679.813 1141.6V1130.49H675.809V1127.3H676.859C678.647 1127.3 679.813 1126.09 679.813 1124.27V1120.61H683.156V1127.3H688.132V1130.49H683.156V1141.6C683.156 1142.92 683.389 1145.33 686.927 1145.33C687.354 1145.33 687.937 1145.3 688.365 1145.22V1147.94C687.704 1148.09 686.888 1148.13 686.305 1148.13ZM713.547 1127.26H717.434L707.91 1150.46C706.861 1153.07 705.384 1156.33 700.564 1156.33C699.631 1156.33 698.62 1156.22 697.843 1155.91V1152.91C698.231 1153.03 699.164 1153.15 699.981 1153.15C703.013 1153.15 703.79 1151.28 704.412 1149.84L705.306 1147.71L697.065 1127.26H700.875L707.211 1143.2L713.547 1127.26ZM729.674 1148.37C723.727 1148.37 719.063 1143.82 719.063 1137.56C719.063 1131.3 723.688 1126.83 729.674 1126.83C735.661 1126.83 740.286 1131.3 740.286 1137.56C740.286 1143.82 735.622 1148.37 729.674 1148.37ZM729.674 1145.14C733.678 1145.14 736.749 1141.91 736.749 1137.6C736.749 1133.28 733.678 1130.06 729.674 1130.06C725.671 1130.06 722.6 1133.28 722.6 1137.6C722.6 1141.91 725.671 1145.14 729.674 1145.14ZM757.435 1127.3H760.778V1147.9H757.513V1145.53C756.308 1147.32 754.092 1148.37 751.604 1148.37C747.134 1148.37 743.869 1144.79 743.869 1140.4V1127.3H747.212V1139.78C747.212 1143.04 749.233 1145.14 752.343 1145.14C755.375 1145.14 757.435 1143 757.435 1139.78V1127.3ZM781.711 1148.37C775.802 1148.37 771.41 1143.74 771.41 1137.56C771.41 1131.38 775.802 1126.83 781.711 1126.83C785.753 1126.83 789.174 1129.2 790.457 1132.27L787.464 1133.83C786.453 1131.57 784.393 1130.06 781.711 1130.06C777.824 1130.06 774.947 1133.24 774.947 1137.6C774.947 1141.87 777.824 1145.14 781.711 1145.14C784.393 1145.14 786.453 1143.62 787.464 1141.37L790.457 1142.92C789.174 1145.96 785.715 1148.37 781.711 1148.37ZM803.469 1148.37C797.522 1148.37 792.857 1143.82 792.857 1137.56C792.857 1131.3 797.483 1126.83 803.469 1126.83C809.456 1126.83 814.081 1131.3 814.081 1137.56C814.081 1143.82 809.417 1148.37 803.469 1148.37ZM803.469 1145.14C807.473 1145.14 810.544 1141.91 810.544 1137.6C810.544 1133.28 807.473 1130.06 803.469 1130.06C799.466 1130.06 796.395 1133.28 796.395 1137.6C796.395 1141.91 799.466 1145.14 803.469 1145.14ZM831.589 1127.3H835.32L827.041 1147.9H823.97L815.729 1127.3H819.461L825.525 1143.31L831.589 1127.3ZM856.597 1136.7C856.597 1137.29 856.558 1137.95 856.442 1138.61H840.466C840.621 1142.69 843.692 1145.33 847.307 1145.33C850.222 1145.33 852.127 1143.78 853.216 1141.68L856.131 1143.23C854.848 1146.07 851.505 1148.37 847.268 1148.37C841.36 1148.37 836.967 1143.78 836.967 1137.56C836.967 1131.34 841.243 1126.83 846.996 1126.83C852.866 1126.83 856.597 1131.46 856.597 1136.7ZM840.543 1135.73H852.905C852.866 1132.31 850.028 1129.79 846.996 1129.79C843.77 1129.79 841.01 1132 840.543 1135.73ZM868.973 1127.06H870.645V1130.25H868.468C865.514 1130.25 863.531 1132.2 863.531 1135.62V1147.9H860.188V1127.3H863.415V1129.86C864.503 1127.96 866.486 1127.06 868.973 1127.06ZM892.698 1136.7C892.698 1137.29 892.659 1137.95 892.542 1138.61H876.566C876.721 1142.69 879.792 1145.33 883.407 1145.33C886.323 1145.33 888.227 1143.78 889.316 1141.68L892.231 1143.23C890.948 1146.07 887.605 1148.37 883.368 1148.37C877.46 1148.37 873.068 1143.78 873.068 1137.56C873.068 1131.34 877.343 1126.83 883.096 1126.83C888.966 1126.83 892.698 1131.46 892.698 1136.7ZM876.644 1135.73H889.005C888.966 1132.31 886.128 1129.79 883.096 1129.79C879.87 1129.79 877.11 1132 876.644 1135.73ZM912.848 1118.94H916.191V1147.9H912.926V1144.91C911.41 1147.12 908.65 1148.37 905.54 1148.37C899.67 1148.37 895.123 1143.82 895.123 1137.6C895.123 1131.38 899.709 1126.83 905.501 1126.83C908.611 1126.83 911.371 1128.15 912.848 1130.33V1118.94ZM905.734 1145.14C909.816 1145.14 912.848 1141.95 912.848 1137.6C912.848 1133.28 909.816 1130.06 905.734 1130.06C901.653 1130.06 898.66 1133.28 898.66 1137.6C898.66 1141.95 901.653 1145.14 905.734 1145.14ZM922.548 1139.46L922.315 1118.94H925.969L925.736 1139.46H922.548ZM922.315 1147.9V1143.31H925.969V1147.9H922.315Z" fill="#666666"/>
<path d="M183.118 1020.61H137.768C135.979 1020.61 134.529 1022.06 134.529 1023.84V1043.81C134.529 1067.73 154.853 1076.81 159.503 1078.58C160.119 1078.81 160.767 1078.81 161.383 1078.58C166.034 1076.81 186.357 1067.73 186.357 1043.81V1023.84C186.357 1022.06 184.907 1020.61 183.118 1020.61Z" stroke="#990038" stroke-width="9.71784" stroke-linecap="round" stroke-linejoin="round"/>
<path d="M170.161 1040.04L157.204 1053L150.726 1046.52" stroke="#990038" stroke-width="9.71784" stroke-linecap="round" stroke-linejoin="round"/>
<path d="M694.874 2.74422C685.706 1.11719 675.827 0.248376 665.213 0.23258C518.601 0.0509211 512.07 156.443 536.479 210.317C554.895 250.953 613.687 357.153 643.979 411.35C644.437 412.172 644.934 412.946 645.471 413.672C654.261 415.987 664.313 412.74 669.604 403.847C702.044 349.342 765.772 239.991 781.352 196.551C799.065 147.163 791.531 29.0611 694.874 2.74422ZM646.64 217.149C610.038 217.149 580.378 183.953 580.378 143.009C580.378 102.064 610.046 68.8681 646.64 68.8681C683.234 68.8681 712.902 102.064 712.902 143.009C712.902 183.953 683.234 217.149 646.64 217.149Z" fill="#FF99BD"/>
<path d="M689.707 2.74422C680.539 1.11719 670.66 0.248376 660.046 0.23258C513.434 0.0509211 506.903 156.443 531.312 210.317C549.728 250.953 608.52 357.153 638.812 411.35C639.27 412.172 639.767 412.946 640.304 413.672C649.094 415.987 659.146 412.74 664.437 403.847C696.877 349.342 760.605 239.991 776.185 196.551C793.898 147.163 786.364 29.0611 689.707 2.74422ZM641.473 217.149C604.871 217.149 575.211 183.953 575.211 143.009C575.211 102.064 604.879 68.8681 641.473 68.8681C678.067 68.8681 707.735 102.064 707.735 143.009C707.735 183.953 678.067 217.149 641.473 217.149Z" fill="#FFB3CE"/>
<path d="M332.101 669.097L332.423 795.092L478.152 918.672L477.728 752.964L332.101 669.097Z" fill="#B30041"/>
<path d="M477.731 752.959L1005.54 665.901L1005.91 810.723L478.155 918.667L477.731 752.959Z" fill="#660025"/>
<path d="M477.73 752.959L477.592 698.962L323.127 619.305L323.243 664.691L477.73 752.959Z" fill="#B20041"/>
<path d="M477.593 698.964L1014.42 626.827L1014.52 667.772L477.732 752.961L477.593 698.964Z" fill="#80002E"/>
<path d="M323.128 619.314C328.615 619.063 843.864 574.385 843.864 574.385L1014.4 626.85L477.593 698.987L323.111 619.314L323.128 619.314Z" fill="#CC004A"/>
<path d="M1005.55 669.198L477.756 752.946L477.795 768.058C477.795 768.058 857.027 706.911 920.613 705.617C984.198 704.323 1005.65 709.368 1005.65 709.368L1005.55 669.182L1005.55 669.198Z" fill="#330013"/>
<path d="M477.752 753.602L331.413 668.994L332.131 679.089L477.772 768.073L477.752 753.602Z" fill="#80002E"/>
<path d="M583.752 667.962C597.077 669.11 610.408 665.766 622.907 661.04C641.311 654.07 658.542 644.014 673.672 631.396C678.491 627.365 683.275 622.996 689.18 620.854C698.036 617.64 708.021 620.012 716.491 624.144C724.961 628.276 732.506 634.082 740.943 638.299C758.948 647.269 780.159 648.397 799.87 644.395C807.363 642.873 815.965 639.339 817.381 631.839C818.348 626.771 815.397 621.595 811.286 618.481C807.175 615.368 802.072 613.912 797.087 612.608C785.108 609.481 773.011 606.861 760.898 604.292C735.844 598.969 710.267 593.817 684.778 596.382C656.452 599.24 630.058 611.448 602.827 619.791C592.873 622.839 582.714 625.414 573.27 629.795C567.958 632.257 562.866 635.343 558.452 639.204C556.094 641.27 553.921 643.555 552.07 646.076C549.732 649.273 549.649 650.033 552.308 653.065C560.148 662.062 572.014 666.945 583.752 667.962Z" fill="#6748A3"/>
<path d="M656.192 633.263L668.699 631.289C668.699 631.289 693.996 639.211 695.01 639.512C696.007 639.83 775.891 646.853 774.742 646.501C773.61 646.167 693.647 621.33 693.647 621.33C693.647 621.33 671.236 619.682 670.662 619.87C670.089 620.057 656.192 633.246 656.192 633.246L656.192 633.263Z" fill="#AA7F2B"/>
<path d="M808.65 561.485C803.826 550.539 786.396 548.659 763.939 555.031C752.431 558.303 706.398 576.2 695.947 583.302C690.874 586.743 685.919 590.504 682.099 595.309C678.278 600.097 675.642 606.064 675.776 612.193C675.814 613.814 676.072 615.535 677.122 616.782C677.952 617.776 679.186 618.347 680.386 618.834C686.758 621.384 693.667 622.396 700.539 622.446C709.64 622.525 718.67 620.965 727.648 619.405C746.669 616.098 765.926 612.722 783.466 604.674C790.904 601.261 798.119 596.903 803.253 590.525C812.898 578.545 812.76 570.846 808.633 561.502L808.65 561.485Z" fill="#D1A033"/>
<path d="M744.755 592.77C766.42 586.704 810.443 574.755 805.721 557.24C814.399 563.482 818.903 581.791 821.025 592.676C823.078 603.224 823.597 614.958 817.677 623.939C813.472 630.316 806.458 634.47 799.119 636.549C791.762 638.628 784.029 638.85 776.38 638.751C748.334 638.418 720.344 634.099 693.493 626.013C689.066 624.673 684.588 623.199 680.9 620.439C675.74 616.569 672.434 611.512 678.32 608.66C684.492 605.672 693.863 605.446 700.613 603.926C715.412 600.578 730.127 596.86 744.739 592.787L744.755 592.77Z" fill="#F4BE38"/>
<path d="M586.446 501.697C595.357 493.721 612.003 499.183 629.838 514.249C638.976 521.959 673.529 557.262 680.124 568.035C683.329 573.261 686.281 578.741 687.782 584.681C689.283 590.62 689.232 597.138 686.595 602.666C685.89 604.137 684.948 605.575 683.481 606.287C682.3 606.848 680.95 606.868 679.649 606.804C672.793 606.501 666.085 604.576 659.797 601.789C651.463 598.113 643.885 592.965 636.358 587.851C620.391 577.001 604.238 565.983 591.571 551.41C586.202 545.244 581.423 538.282 579.377 530.368C575.523 515.486 578.831 508.521 586.446 501.714L586.446 501.697Z" fill="#D1A033"/>
<path d="M631.77 556.518C614.527 542.058 579.349 513.021 590.863 499.011C580.399 501.115 568.719 515.953 562.309 524.986C556.084 533.748 550.775 544.213 552.474 554.847C553.675 562.391 558.352 569.066 564.19 573.981C570.028 578.913 576.993 582.306 583.992 585.362C609.686 596.609 636.957 604.239 664.76 607.916C669.337 608.529 674.032 609.024 678.538 608.033C684.833 606.649 689.94 603.394 685.74 598.356C681.353 593.082 672.9 589.035 667.385 584.845C655.272 575.707 643.412 566.248 631.787 556.501L631.77 556.518Z" fill="#EFC335"/>
<path d="M544.127 591.511C545.971 579.704 562.299 573.381 585.652 573.744C597.607 573.932 646.706 579.345 658.62 583.502C664.417 585.514 670.164 587.88 675.087 591.531C680.009 595.183 684.109 600.255 685.559 606.211C685.951 607.781 686.125 609.519 685.436 610.99C684.882 612.173 683.837 613.037 682.809 613.817C677.315 617.917 670.889 620.685 664.275 622.509C655.501 624.929 646.368 625.763 637.303 626.563C618.075 628.284 598.595 629.988 579.574 626.744C571.499 625.363 563.405 623.02 556.808 618.191C544.391 609.105 542.548 601.646 544.127 591.545L544.127 591.511Z" fill="#D1A033"/>
<path d="M613.939 605.247C591.447 604.984 545.823 604.797 545.861 586.662C539.095 594.936 539.464 613.796 540.218 624.853C540.955 635.59 543.483 647.032 551.522 654.188C557.225 659.272 565.065 661.464 572.714 661.58C580.347 661.695 587.89 659.903 595.246 657.841C622.243 650.275 648.183 638.896 672.021 624.128C675.949 621.704 679.893 619.11 682.754 615.489C686.743 610.431 688.636 604.685 682.2 603.435C675.476 602.135 666.364 604.353 659.442 604.624C644.281 605.22 629.102 605.428 613.939 605.247Z" fill="#F4BE38"/>
<path d="M666.189 599.72C664.901 604.587 665.675 609.836 667.578 614.491C668.665 617.139 670.124 619.702 672.273 621.605C677.367 626.1 684.914 625.996 691.701 625.658C693.423 625.569 695.213 625.463 696.781 624.716C699.732 623.324 701.21 620.028 702.35 616.969C703.658 613.453 704.814 609.854 705.058 606.105C705.302 602.373 704.565 598.457 702.346 595.441C697.991 589.542 688.803 588.299 681.963 587.928C674.584 587.542 668.079 592.573 666.189 599.704L666.189 599.72Z" fill="#EFC335"/>
<path d="M703.847 596.626C702.814 595.228 701.494 594.083 700.022 593.158C700.347 594.795 700.436 596.5 700.322 598.172C700.078 601.904 698.906 605.521 697.615 609.036C696.474 612.095 694.997 615.392 692.046 616.784C690.477 617.531 688.704 617.62 686.966 617.725C680.668 618.045 673.695 618.164 668.654 614.564C668.79 614.935 668.926 615.306 669.079 615.677C670.166 618.325 671.625 620.888 673.774 622.791C678.868 627.286 686.416 627.182 693.203 626.844C694.925 626.755 696.714 626.649 698.282 625.902C701.234 624.51 702.711 621.214 703.852 618.155C705.16 614.639 706.316 611.04 706.559 607.291C706.803 603.559 706.067 599.643 703.847 596.626Z" fill="#E0B036"/>
<path d="M673.636 594.089C672.507 595.189 671.751 596.593 671.08 598.013C670.173 599.94 669.384 602.002 669.407 604.13C669.429 606.257 670.448 608.5 672.341 609.458C674.539 610.567 677.559 609.461 678.549 607.196C678.918 606.334 679.017 605.371 679.285 604.459C680.089 601.772 682.565 599.655 685.351 599.293C687.275 599.035 689.589 599.418 690.801 597.929C691.962 596.507 691.197 594.23 689.708 593.153C685.445 590.091 677.493 590.364 673.636 594.089Z" fill="#F2D927"/>
<path opacity="0.39" d="M544.67 605.812C545.797 617.122 547.801 628.362 550.649 639.364C551.468 642.519 552.388 645.742 554.302 648.388C557.234 652.416 562.119 654.599 566.968 655.684C569.097 656.168 571.748 656.279 573.01 654.486C574.507 652.338 572.744 649.506 571.202 647.399C567.813 642.731 565.267 637.452 563.733 631.884C562.778 628.408 562.212 624.695 563.216 621.231C564.22 617.767 567.116 614.67 570.695 614.373C573.126 614.165 575.51 615.239 577.958 615.199C580.406 615.176 583.204 613.126 582.455 610.798C581.808 608.79 579.24 608.357 577.146 608.177C569.631 607.487 562.095 605.48 555.332 602.087C553.388 601.112 550.291 598.199 547.961 598.543C544.586 599.041 544.41 603.195 544.67 605.778L544.67 605.812Z" fill="white"/>
<path opacity="0.39" d="M676.023 516.039C675.745 519.467 675.483 523.03 676.707 526.269C676.962 526.927 677.319 527.618 677.961 527.887C678.756 528.223 679.717 527.781 680.239 527.088C680.76 526.394 680.927 525.499 681.077 524.654C681.509 522.188 681.824 519.688 682.037 517.205C682.479 511.885 676.498 510.381 676.04 516.056L676.023 516.039Z" fill="white"/>
<path opacity="0.39" d="M578.799 515.681C568.911 524.959 561.901 537.27 558.946 550.515C558.579 552.171 558.382 554.181 559.668 555.275C560.683 556.133 562.27 556.011 563.399 555.299C564.529 554.604 565.303 553.454 566.009 552.321C569.843 546.063 572.795 538.542 579.338 535.216C582.019 533.858 585.192 533.293 587.399 531.244C589.74 529.06 590.474 525.529 589.791 522.407C588.646 517.176 584.088 510.72 578.799 515.681Z" fill="white"/>
<path opacity="0.39" d="M787.669 589.502C791.245 587.788 794.887 586.039 798.82 585.438C800.558 585.163 802.466 585.159 803.887 586.202C806.239 587.918 806.045 591.38 806.154 594.284C806.263 597.542 807.048 600.782 808.441 603.751C808.797 604.509 809.238 605.302 809.999 605.655C811.03 606.159 812.329 605.649 813.07 604.752C813.793 603.855 814.077 602.689 814.243 601.558C815.538 592.977 812.292 584.441 809.097 576.378C808.655 575.248 808.078 574 806.945 573.598C806.269 573.363 805.51 573.483 804.801 573.637C802.81 574.098 800.904 574.93 799.167 576.032C797.583 577.049 796.151 578.303 794.651 579.455C791.028 582.216 786.998 584.388 782.832 586.222C779.526 587.682 774.564 588.472 772.242 591.466C769.953 594.393 771.089 596.315 774.785 595.631C779.021 594.826 783.791 591.403 787.686 589.536L787.669 589.502Z" fill="white"/>
<path d="M400.929 502.342C404.745 502.265 792.51 476.52 792.51 476.52L910.285 510.344L536.9 547.23L400.929 502.342Z" fill="#CC004A"/>
<path d="M889.324 608.627L928.79 623.858L536.118 685.462L397.493 613.211L592.098 595.507L889.324 608.627Z" fill="#80002E"/>
<path d="M406.609 532.544L404.99 612.819L534.822 679.96L536.389 579.862L406.609 532.544Z" fill="#B20041"/>
<path d="M536.387 579.86L903.67 533.838L902.306 621.323L534.819 679.958L536.387 579.86Z" fill="#660025"/>
<path d="M536.388 579.864L536.896 547.24L400.924 502.353L400.474 531.076L536.388 579.864Z" fill="#B20041"/>
<path d="M536.896 547.237L910.281 510.335L909.888 535.072L536.389 579.86L536.896 547.237Z" fill="#80002E"/>
<path d="M903.642 535.833L536.388 579.862L536.242 588.997C536.242 588.997 800.14 556.782 844.277 556.787C888.415 556.792 903.265 560.115 903.265 560.115L903.642 535.833Z" fill="#660025"/>
<path d="M536.392 579.859L406.611 532.542L406.509 538.57L536.247 588.978L536.392 579.859Z" fill="#80002E"/>
</svg>