<svg xmlns="http://www.w3.org/2000/svg" width="1269" height="878" viewBox="0 0 1269 878" fill="none">
<path d="M620.145 414.868C622.279 413.445 759.277 396.53 759.277 396.53H1028.35L999.484 439.055L825.178 466.699L620.145 414.888V414.868Z" fill="#77290E"/>
<path d="M24.5283 181.183L25.8918 397.697L375.63 353.118L393.335 160.355C393.335 160.355 351.562 167.845 238.75 173.694C147.24 178.436 24.5283 181.183 24.5283 181.183Z" fill="#873B1A"/>
<path d="M352.019 360.984C355.201 360.53 357.789 358.198 358.521 355.056C362.235 339.287 372.392 291.388 366.168 263.506C359.825 235.13 334.61 184.129 326.746 168.617C325.323 165.811 322.379 164.151 319.257 164.369L164.948 175.118L203.619 381.792L352.039 360.984H352.019Z" fill="#002D23"/>
<path d="M0.129395 472.352C0.129395 472.352 134.302 451.031 172.756 420.56C197.97 400.602 203.602 381.81 203.602 381.81L203.088 271.626L164.931 175.137C164.931 175.137 146.04 140.892 92.6671 126.23C39.3142 111.568 0.129395 115.144 0.129395 115.144V472.352Z" fill="#002D23"/>
<path d="M242.625 109.611L732.998 1.85743C741.218 0.0592413 750.565 0.0592413 758.785 1.85743L1249.16 109.611C1260.8 112.16 1268.31 117.91 1268.31 124.273V344.561C1268.31 350.825 1260.97 356.536 1249.57 359.124L759.279 470.889C750.782 472.825 741.04 472.806 732.563 470.849L242.111 357.702C230.769 355.093 223.497 349.402 223.497 343.158V124.273C223.497 117.93 231.006 112.179 242.645 109.611H242.625Z" fill="#FFAECF"/>
<path d="M1268.27 124.274V344.562C1268.27 350.826 1260.96 356.517 1249.54 359.125L759.242 470.909C754.657 471.957 749.717 472.431 744.797 472.332L745.864 236.493L745.212 234.339C751.476 234.398 757.76 233.766 763.589 232.422L1265.13 117.357C1267.16 119.472 1268.27 121.823 1268.27 124.274Z" fill="#FA0050"/>
<path d="M745.882 236.494L744.815 472.334C740.606 472.275 736.456 471.761 732.544 470.872L242.092 357.724C230.77 355.096 223.478 349.425 223.478 343.181V124.276C223.478 120.956 225.533 117.794 229.209 115.166L728.236 232.365C733.591 233.629 739.401 234.281 745.23 234.341L745.882 236.494Z" fill="#E50354"/>
<path d="M1044.73 64.6971L528.966 185.551L519.126 421.628L438.405 403.014L441.902 165.119L953.122 44.5811L1044.73 64.6971Z" fill="white"/>
<path d="M526.085 47.3281L1048.05 165.12L1054.6 403.568L963.401 424.355L967.887 185.552L441.906 65.8238L526.085 47.3281Z" fill="white"/>
<path d="M0.124512 530.94C0.124512 530.94 301.45 486.123 381.578 433.383C397.011 423.226 423.865 388.25 438.271 368.628C444.949 359.519 453.545 352.01 463.485 346.635L637.751 251.963C639.47 251.034 641.15 249.987 642.731 248.821L743.963 175.906C756.392 166.954 773.307 167.685 784.926 177.644L785.519 178.158C800.122 190.667 801.624 212.541 788.977 226.828C767.992 250.521 740.307 281.94 740.307 281.94L671.778 353.729C663.677 362.226 660.199 374.082 662.353 385.622C664.507 397.221 668.004 410.639 673.023 415.045C716.872 453.459 903.943 447.274 903.943 447.274L1013.24 404.454C1027.92 398.703 1044.4 399.751 1058.23 407.339L1069.18 413.346C1080.19 419.392 1079.53 435.418 1068.07 440.536L1008.14 467.311C1006.48 468.042 1004.88 468.892 1003.34 469.821L934.532 516.218C927.418 521.02 919.138 523.826 910.562 524.34L805.615 534.635C795.577 535.623 785.776 538.231 776.587 542.381L719.796 567.99C707.92 573.345 695.273 576.764 682.33 578.127C682.33 578.127 528.97 575.084 430.485 611.226C318.958 652.15 0.124512 812.564 0.124512 812.564V530.94Z" fill="#873B1A"/>
<path d="M372.456 431.388C375.499 430.321 378.858 431.21 380.952 433.661C391.485 445.952 422.528 483.832 429.8 511.477C437.19 539.596 438.238 596.486 438.376 613.875C438.396 617.017 436.538 619.843 433.673 621.087L291.675 682.443L231.07 481.105L372.456 431.408V431.388Z" fill="#002D23"/>
<path d="M0.129395 508.078C0.129395 508.078 137.721 451.445 185.877 460.831C217.434 466.977 231.069 481.086 231.069 481.086L281.24 579.196L291.673 682.424C291.673 682.424 290.626 721.529 249.959 759.054C209.293 796.579 0.129395 877.932 0.129395 877.932V508.078Z" fill="#002D23"/>
</svg>