<svg xmlns="http://www.w3.org/2000/svg" width="1390" height="1347" viewBox="0 0 1390 1347" fill="none">
<g clip-path="url(#clip0_3075_1442)">
<path d="M255.615 447.454L1787.88 -33.5821C1825.81 -45.4268 1865.39 -12.0009 1857.08 28.0535L1722.62 754.345C1719.72 774.397 1704.36 789.184 1686.63 796.386L154.365 1277.42C116.439 1289.27 76.8608 1255.84 85.1632 1215.79L219.675 486.983C222.522 469.444 237.932 452.144 255.615 447.454Z" fill="#FFD1E2"/>
<mask id="mask0_3075_1442" style="mask-type:alpha" maskUnits="userSpaceOnUse" x="-96" y="-4" width="1750" height="1351">
<path d="M60.064 511.568L1582.08 -0.972474C1619.76 -13.5969 1660.02 19.0054 1652.54 59.2226L1533.09 788.134C1530.61 808.24 1515.55 823.341 1497.97 830.908L-24.0446 1343.45C-61.7184 1356.07 -101.977 1323.47 -94.5028 1283.25L24.9471 551.829C27.4319 534.235 42.4815 516.621 60.064 511.568Z" fill="#990038"/>
</mask>
<g mask="url(#mask0_3075_1442)">
<path d="M757.891 176.599L753.278 215.956L775.532 209.063L776.649 185.985L757.891 176.599Z" fill="#160906"/>
<path d="M474.388 895.839L451.936 963.55C433.856 1017.17 424.055 1059.73 419.256 1102.89L375.131 1476.76L755.571 1525.8C755.571 1525.8 821.541 1182.93 813.504 955.089L474.383 895.875L474.388 895.839Z" fill="#0E0D19"/>
<path d="M824.937 904.741L819.494 946.969C818.844 952.011 814.792 955.94 809.726 956.423C790.741 958.196 737.555 959.782 620.552 942.888C465.775 920.541 480.291 911.039 480.291 911.039L480.211 873.441L824.937 904.741Z" fill="black"/>
<path d="M540.638 882.138L534.903 926.63C534.806 927.385 534.861 928.144 535.082 928.817C535.657 930.779 537.362 932.319 539.521 932.597L583.908 938.319L583.4 942.259L530.966 935.5C528.037 935.123 525.99 932.434 526.367 929.505L533.202 876.482C533.58 873.553 536.258 871.474 539.171 871.849L591.605 878.608L591.009 883.228L546.623 877.506C544.917 877.286 543.272 877.903 542.142 879.047C541.335 879.833 540.783 880.898 540.625 882.12L540.638 882.138Z" fill="#1E1E1E"/>
<path d="M626.159 389.212L636.39 366.879L640.931 396.902L626.159 389.212Z" fill="#532315"/>
<path d="M862.943 622.443L833.739 902.208C833.739 902.208 833.263 914.717 820.87 922.267C808.463 929.815 678.693 923.263 632.47 917.734C579.099 911.345 422.974 881.35 422.974 881.35L380.98 569.169L862.941 622.458L862.943 622.443Z" fill="#161522"/>
<path d="M745.241 342.112L779.462 345.25L772.909 366.2L756.432 364.72L745.241 342.112Z" fill="#5F50C9"/>
<path d="M379.972 569.929L439.645 483.382C469.434 440.179 515.608 411.076 567.429 402.822L688.245 383.586L770.685 375.934L860.18 413.808C923.522 440.606 937.497 482.329 928.774 577.024C928.774 577.024 907.999 697.348 875.093 713.535C759.435 770.394 379.972 569.929 379.972 569.929Z" fill="#161522"/>
<path d="M881.628 696.789C881.547 703.011 877.392 711.668 875.732 713.235L875.717 713.233C872.357 714.887 868.781 716.314 864.656 717.716L881.628 696.789Z" fill="black"/>
<path d="M783.311 382.443C783.311 382.443 750.522 323.069 759.696 256.427L648.02 292.988L630.804 395.23L643.698 436.291L680.09 421.045L783.309 382.458L783.311 382.443Z" fill="#77402B"/>
<path d="M636.17 362.401C636.17 362.401 633.141 364.113 630.282 367.95C628.407 370.471 626.598 373.906 625.779 378.359C624.038 387.697 585.121 396.217 571.824 398.878C569.761 399.287 568.905 401.755 570.28 403.36C574.178 407.883 583.056 410.931 590.52 411.724C603.42 413.096 614.004 405.052 617.711 406.174C621.419 407.297 638.946 444.213 638.946 444.213L653.286 428.226C653.286 428.226 628.283 399.295 632.235 383.044C635.335 370.305 636.185 362.403 636.185 362.403L636.17 362.401Z" fill="#FFCCDE"/>
<path d="M635.55 442.085C626.159 451.48 623.956 453.329 610.517 489.001C597.078 524.672 594.923 541.385 594.923 541.385L625.692 545.352C625.692 545.352 639.822 483.247 656.94 466.422C674.075 449.584 730.548 422.867 730.548 422.867L698.03 416.634L663.554 420.355C664.252 419.34 644.15 433.478 635.535 442.083L635.55 442.085Z" fill="#FFB3CE"/>
<path d="M896.941 686.285C901.141 669.652 903.587 635.679 862.106 616.226C818.497 595.778 781.873 609.736 767.506 617.124C767.687 615.244 767.921 613.309 768.191 611.333C785.056 603.378 821.472 591.757 864.198 611.784C897.183 627.256 904.15 651.79 903.764 670.742C901.617 676.205 899.346 681.438 896.956 686.287L896.941 686.285Z" fill="#FFCCDE"/>
<path d="M92.7603 698.021L78.2377 810.679L193.97 938.27L213.07 790.103L92.7603 698.021Z" fill="#038B5C"/>
<path d="M213.071 790.104L695.078 774.33L678.386 903.821L193.971 938.27L213.071 790.104Z" fill="#0C513F"/>
<path d="M213.071 790.104L219.295 741.822L90.5913 652.465L85.3599 693.047L213.071 790.104Z" fill="#038B5C"/>
<path d="M219.296 741.821L707.613 740.445L702.894 777.056L213.072 790.103L219.296 741.821Z" fill="#0C513F"/>
<path d="M90.5926 652.463C95.5265 652.884 561.33 673.516 561.33 673.516L707.596 740.457L219.294 741.836L90.5774 652.461L90.5926 652.463Z" fill="#02C27F"/>
<path d="M694.7 777.274L213.089 790.09L211.348 803.602C211.348 803.602 557.509 793.524 614.497 799.842C671.484 806.16 690.07 813.191 690.07 813.191L694.702 777.259L694.7 777.274Z" fill="#033023"/>
<path d="M213.016 790.679L92.1572 697.851L91.6124 706.959L211.333 803.615L213.016 790.679Z" fill="#0C513F"/>
<path d="M317.831 726.589C329.606 729.182 341.915 727.76 353.643 725.005C370.912 720.939 387.496 713.975 402.504 704.475C407.285 701.438 412.074 698.096 417.604 696.875C425.898 695.043 434.544 698.337 441.629 703.026C448.714 707.715 454.776 713.792 461.821 718.552C476.861 728.687 495.687 732.188 513.776 730.929C520.653 730.449 528.757 728.301 530.905 721.764C532.364 717.347 530.335 712.374 527.026 709.108C523.718 705.842 519.327 703.941 515.026 702.189C504.685 697.986 494.181 694.222 483.656 690.501C461.887 682.799 439.631 675.188 416.546 674.483C390.891 673.709 365.864 681.518 340.543 685.774C331.287 687.329 321.905 688.437 312.948 691.242C307.91 692.818 302.996 694.978 298.597 697.91C296.246 699.48 294.036 701.267 292.085 703.302C289.619 705.885 289.456 706.555 291.476 709.578C297.426 718.541 307.459 724.301 317.831 726.589Z" fill="#6748A3"/>
<path d="M386.655 704.09L398.066 703.796C398.066 703.796 419.746 713.851 420.617 714.239C421.471 714.641 492.049 730.308 491.063 729.859C490.091 729.427 421.535 697.828 421.535 697.828C421.535 697.828 401.698 693.72 401.163 693.82C400.628 693.92 386.657 704.075 386.657 704.075L386.655 704.09Z" fill="#AA7F2B"/>
<path d="M531.366 657.854C528.341 647.503 512.982 643.773 492.16 646.829C481.49 648.401 438.239 658.987 428.063 664.106C423.124 666.585 418.253 669.365 414.273 673.211C410.295 677.041 407.238 682.065 406.637 687.559C406.481 689.013 406.509 690.582 407.301 691.819C407.926 692.806 408.962 693.461 409.977 694.037C415.373 697.065 421.429 698.782 427.566 699.635C435.692 700.775 443.946 700.442 452.155 700.103C469.546 699.383 487.155 698.629 503.779 693.497C510.828 691.321 517.79 688.274 523.129 683.176C533.157 673.602 533.939 666.704 531.349 657.867L531.366 657.854Z" fill="#D1A033"/>
<path d="M470.575 678.303C490.653 675.427 531.406 669.921 529.245 653.711C536.267 660.311 538.142 677.205 538.758 687.184C539.354 696.854 538.439 707.403 532.091 714.735C527.583 719.94 520.826 722.829 514.021 723.825C507.201 724.818 500.263 724.108 493.437 723.12C468.407 719.525 443.897 712.375 420.847 701.991C417.047 700.273 413.217 698.429 410.245 695.528C406.088 691.462 403.728 686.554 409.324 684.696C415.192 682.752 423.595 683.651 429.807 683.085C443.429 681.833 457.018 680.239 470.558 678.316L470.575 678.303Z" fill="#F4BE38"/>
<path d="M339.772 578.282C348.676 572.201 362.912 579.04 377.083 594.603C384.344 602.569 411.079 638.185 415.708 648.59C417.959 653.638 419.953 658.883 420.596 664.369C421.24 669.854 420.428 675.674 417.422 680.305C416.618 681.537 415.607 682.711 414.212 683.176C413.091 683.538 411.881 683.398 410.727 683.187C404.634 682.11 398.864 679.602 393.571 676.371C386.554 672.106 380.386 666.614 374.259 661.158C361.262 649.583 348.119 637.836 338.51 623.32C334.436 617.178 330.982 610.394 330.083 603.079C328.388 589.324 332.164 583.487 339.77 578.297L339.772 578.282Z" fill="#D1A033"/>
<path d="M373.844 632.617C360.132 617.666 332.101 587.576 344.04 576.407C334.44 577.057 322.255 588.947 315.464 596.267C308.87 603.368 302.894 612.098 303.163 621.802C303.35 628.687 306.746 635.203 311.386 640.283C316.024 645.378 321.852 649.229 327.748 652.783C349.392 665.856 372.872 675.882 397.29 682.437C401.31 683.523 405.448 684.517 409.592 684.161C415.381 683.664 420.329 681.355 417.167 676.358C413.866 671.129 406.786 666.517 402.349 662.123C392.596 652.532 383.107 642.683 373.861 632.604L373.844 632.617Z" fill="#EFC335"/>
<path d="M291.391 653.592C294.427 643.255 309.765 639.523 330.597 642.592C341.26 644.166 384.51 654.776 394.671 659.892C399.616 662.371 404.475 665.162 408.446 669.004C412.417 672.847 415.485 677.862 416.081 683.357C416.247 684.806 416.198 686.38 415.41 687.614C414.775 688.606 413.74 689.256 412.729 689.832C407.337 692.851 401.267 694.57 395.141 695.423C387.014 696.554 378.753 696.226 370.556 695.876C353.167 695.153 335.554 694.387 318.934 689.252C311.878 687.068 304.919 684.022 299.59 678.93C289.559 669.349 288.789 662.466 291.387 653.623L291.391 653.592Z" fill="#D1A033"/>
<path d="M352.17 674.074C332.097 671.195 291.339 665.665 293.504 649.46C286.483 656.06 284.596 672.961 283.971 682.934C283.367 692.617 284.282 703.142 290.626 710.482C295.126 715.698 301.877 718.578 308.7 719.581C315.509 720.581 322.462 719.866 329.28 718.888C354.3 715.298 378.824 708.176 401.867 697.778C405.663 696.073 409.493 694.218 412.476 691.318C416.636 687.266 419.004 682.352 413.398 680.478C407.541 678.526 399.135 679.438 392.916 678.867C379.294 677.617 365.702 676.018 352.17 674.074Z" fill="#F4BE38"/>
<path d="M399.532 675.284C397.809 679.482 397.883 684.265 399.037 688.65C399.698 691.145 400.7 693.607 402.398 695.56C406.422 700.177 413.181 700.971 419.287 701.467C420.836 701.59 422.448 701.705 423.938 701.222C426.74 700.325 428.448 697.552 429.827 694.952C431.409 691.963 432.865 688.882 433.524 685.559C434.181 682.252 433.983 678.666 432.353 675.708C429.155 669.924 421.088 667.733 415.018 666.598C408.467 665.385 402.061 669.117 399.534 675.269L399.532 675.284Z" fill="#EFC335"/>
<path d="M433.562 676.939C432.803 675.568 431.757 674.389 430.551 673.389C430.649 674.891 430.528 676.426 430.23 677.907C429.573 681.214 428.1 684.309 426.532 687.299C425.154 689.899 423.445 692.672 420.644 693.569C419.154 694.053 417.559 693.924 415.992 693.814C410.326 693.36 404.079 692.647 399.997 688.836C400.075 689.183 400.152 689.531 400.246 689.881C400.906 692.376 401.909 694.838 403.606 696.791C407.631 701.408 414.389 702.202 420.495 702.698C422.045 702.821 423.657 702.937 425.147 702.453C427.948 701.556 429.657 698.783 431.035 696.183C432.618 693.194 434.074 690.113 434.733 686.79C435.389 683.483 435.192 679.897 433.562 676.939Z" fill="#E0B036"/>
<path d="M406.852 671.116C405.714 671.967 404.873 673.133 404.105 674.323C403.068 675.939 402.121 677.69 401.891 679.594C401.661 681.498 402.308 683.623 403.888 684.701C405.722 685.951 408.551 685.318 409.703 683.41C410.134 682.682 410.336 681.834 410.682 681.049C411.716 678.742 414.179 677.141 416.711 677.145C418.461 677.141 420.485 677.755 421.743 676.566C422.948 675.432 422.532 673.307 421.328 672.169C417.877 668.931 410.737 668.241 406.852 671.116Z" fill="#F2D927"/>
<path opacity="0.39" d="M290.195 666.439C289.873 676.681 290.343 686.964 291.595 697.132C291.956 700.049 292.399 703.038 293.8 705.628C295.947 709.573 300.057 712.098 304.263 713.638C306.109 714.321 308.466 714.732 309.804 713.278C311.395 711.533 310.152 708.795 309.021 706.73C306.541 702.159 304.886 697.142 304.169 691.984C303.725 688.765 303.654 685.38 304.959 682.402C306.264 679.423 309.217 676.995 312.451 677.151C314.648 677.25 316.652 678.491 318.845 678.743C321.036 679.01 323.778 677.506 323.382 675.337C323.04 673.467 320.796 672.778 318.945 672.371C312.309 670.871 305.809 668.191 300.163 664.363C298.54 663.263 296.114 660.295 293.991 660.329C290.915 660.377 290.27 664.07 290.199 666.409L290.195 666.439Z" fill="white"/>
<path opacity="0.39" d="M418.156 601.633C417.504 604.665 416.852 607.82 417.565 610.858C417.716 611.476 417.953 612.136 418.496 612.452C419.166 612.845 420.077 612.564 420.625 612.005C421.173 611.446 421.427 610.666 421.66 609.928C422.337 607.775 422.912 605.577 423.394 603.383C424.415 598.68 419.246 596.632 418.169 601.651L418.156 601.633Z" fill="white"/>
<path opacity="0.39" d="M331.296 589.883C321.367 597.014 313.655 607.194 309.457 618.686C308.934 620.123 308.521 621.896 309.542 623.025C310.349 623.912 311.782 623.989 312.875 623.485C313.966 622.997 314.793 622.06 315.557 621.13C319.72 615.988 323.243 609.612 329.482 607.408C332.038 606.509 334.941 606.377 337.154 604.805C339.504 603.128 340.575 600.058 340.331 597.187C339.923 592.377 336.607 586.071 331.296 589.883Z" fill="white"/>
<path opacity="0.39" d="M509.316 680.425C512.713 679.313 516.175 678.178 519.761 678.103C521.347 678.062 523.053 678.282 524.2 679.382C526.1 681.192 525.52 684.264 525.276 686.872C524.991 689.798 525.312 692.786 526.207 695.603C526.437 696.323 526.738 697.083 527.377 697.488C528.239 698.059 529.46 697.756 530.227 697.042C530.98 696.325 531.371 695.317 531.652 694.325C533.818 686.807 531.919 678.796 530.011 671.213C529.749 670.151 529.38 668.968 528.415 668.475C527.839 668.186 527.145 668.204 526.494 668.258C524.66 668.436 522.859 668.956 521.177 669.737C519.641 670.46 518.214 671.411 516.738 672.265C513.174 674.307 509.317 675.775 505.378 676.924C502.251 677.841 497.723 677.964 495.295 680.367C492.905 682.715 493.695 684.566 497.079 684.388C500.96 684.167 505.626 681.668 509.327 680.457L509.316 680.425Z" fill="white"/>
<path d="M525.308 779.368C525.308 779.368 545.006 802.888 538.89 830.095C532.774 857.302 462.539 906.833 466.578 916.102C470.617 925.372 515.642 915.428 515.642 915.428L583.849 861.262L575.841 787.647L525.306 779.383L525.308 779.368Z" fill="#033023"/>
<path d="M881.47 696.814L839.579 749.6C834.631 755.838 828.528 761.037 821.596 764.917L649.988 860.993C646.067 863.189 642.616 866.028 639.704 869.444C627.763 883.499 594.978 921.726 590.355 923.77C584.694 926.248 554.289 921.254 543.994 926.343C533.712 931.448 531.357 924.714 524.91 924.957C518.463 925.2 506.099 921.458 506.099 921.458C506.099 921.458 487.666 923.363 480.149 923.454C472.643 923.576 474.001 913.038 479.813 909.505C485.612 905.955 556.668 853.03 560.652 847.128C564.62 841.224 562.761 814.217 559.619 805.248C556.491 796.295 533.875 789.098 524.031 782.472C514.17 775.86 520.825 757.455 520.825 757.455L554.902 767.189L590.55 770.925C596.262 771.508 601.739 773.549 606.475 776.815L612.296 780.835C623.359 788.477 637.785 789.201 649.487 782.605C665.474 773.6 688.172 759.213 705.901 741.699C736.574 711.396 762.206 686.873 762.206 686.873L771.112 644.57C780.424 639.37 800.194 632.096 829.363 640.614C835.072 642.286 841.133 644.556 847.545 647.562C874.941 660.426 881.772 677.207 881.912 690.532C881.918 692.743 881.77 694.842 881.485 696.816L881.47 696.814Z" fill="#77402B"/>
<path d="M881.573 697.242L875.938 703.929C877.407 696.459 855.831 666.542 829.36 649.838C802.889 633.134 771.102 644.569 771.102 644.569C780.398 639.367 800.183 632.094 829.352 640.612C835.061 642.285 841.109 644.538 847.534 647.561C874.931 660.424 881.762 677.206 881.901 690.531C881.916 692.559 881.809 695.415 881.558 697.24L881.573 697.242Z" fill="#532315"/>
<path d="M586.12 897.103L586.149 896.874" stroke="#FF22B0" stroke-width="7.00711" stroke-miterlimit="10"/>
<path d="M643.016 435.359C643.016 435.359 660.581 411.977 682.019 414.74C703.458 417.504 710.598 406.882 710.598 406.882L779.448 345.232C779.448 345.232 788.796 362.844 796.544 371.794C802.007 378.115 806.772 383.181 809.847 386.355C812.068 388.652 812.507 392.147 810.922 394.92C807.223 401.35 798.854 413.762 781.974 430.173C773.199 438.711 766.091 443.366 762.038 445.637C760.117 446.725 757.676 446.257 756.285 444.543C752.05 439.3 740.572 428.443 715.456 423.486C696.703 419.779 689.11 421.287 680.088 421.03C668.436 420.694 643.031 435.361 643.031 435.361L643.016 435.359Z" fill="#FFCCDE"/>
<path d="M629.715 490.358C634.151 490.93 638.191 487.946 638.74 483.693C639.288 479.441 636.136 475.53 631.7 474.958C627.264 474.386 623.224 477.37 622.676 481.623C622.128 485.875 625.279 489.786 629.715 490.358Z" fill="white"/>
<path d="M609.904 127.639L768.624 148.099L750.536 288.415C745.267 329.284 707.805 358.191 666.936 352.922L656.308 351.552C615.439 346.284 586.532 308.822 591.801 267.953L609.889 127.637L609.904 127.639Z" fill="#77402B"/>
<path d="M751.464 283.945C756.656 320.944 725.466 354.419 693.399 359.449C672.564 362.718 656.464 354.979 647.742 349.174C652.195 350.592 656.851 351.622 661.637 352.239C701.283 357.349 737.883 332.506 748.683 295.282L751.464 283.945Z" fill="#532315"/>
<path d="M755.849 191.623C755.849 191.623 714.895 196.657 700.253 194.509C686.17 192.433 660.704 173.648 625.592 165.269C624.998 165.116 624.402 164.978 623.806 164.84C617.677 163.451 611.527 162.459 605.481 161.971C604.298 161.864 603.109 161.803 601.92 161.742C599.66 161.65 597.509 161.665 595.447 161.829L595.575 160.832C598.76 159.938 602.243 159.113 605.949 158.348C624.839 154.444 649.588 152.6 673.397 158.048C716.588 167.929 755.849 191.623 755.849 191.623Z" fill="#660025"/>
<path d="M605.481 161.971L600.451 200.998C600.451 200.998 576.515 217.129 563.24 216.999C550.333 216.87 531.822 167.824 589.768 162.54C591.6 162.377 593.483 161.944 595.447 161.829C597.509 161.665 599.66 161.651 601.919 161.742C603.094 161.802 604.283 161.863 605.481 161.971Z" fill="#330013"/>
<path d="M625.589 165.27C608.143 171.186 602.995 181.235 602.995 181.235L605.478 161.971C611.524 162.459 617.672 163.466 623.803 164.84C624.399 164.978 624.995 165.116 625.589 165.27Z" fill="#330013"/>
<path d="M780.292 213.437C780.292 213.437 773.871 203.355 762.505 195.566C760.446 194.15 758.223 192.819 755.843 191.638C755.843 191.638 716.582 167.944 673.392 158.063C649.581 152.63 624.832 154.474 605.943 158.362C602.239 159.113 598.77 159.955 595.57 160.847L597.627 144.889C598.506 138.065 601.543 131.657 606.327 126.687C620.384 112.061 643.157 81.0152 690.003 84.9207C729.745 88.2173 774.993 120.956 778.801 141.538C782.594 162.118 780.29 213.453 780.29 213.453L780.292 213.437Z" fill="#80002E"/>
<path d="M758.647 264.426C769.945 265.883 780.916 253.01 783.15 235.676C785.385 218.341 778.038 203.107 766.739 201.651C755.441 200.194 744.471 213.066 742.236 230.401C740.001 247.736 747.349 262.97 758.647 264.426Z" fill="#77402B"/>
<path d="M800.799 484.646C800.799 484.646 753.51 624.912 770.298 647.797L767.593 660.325C767.593 660.325 755.893 639.524 760.143 615.131C765.217 586.009 773.969 548.598 785.258 513.769C788.47 503.854 792.677 494.312 799.384 486.336L800.814 484.648L800.799 484.646Z" fill="black"/>
<path d="M173.877 557.067C177.297 557.447 526.924 580.016 526.924 580.016L628.22 624.093L290.137 613.173L173.877 557.067Z" fill="#CCF3E5"/>
<path d="M597.939 709.474L631.425 727.727L273.197 736.633L157.781 655.757L333.808 662.809L597.939 709.474Z" fill="#0C513F"/>
<path d="M175.407 584.724L164.524 656.287L272.681 731.562L285.848 642.274L175.407 584.724Z" fill="#02C27F"/>
<path d="M285.852 642.275L619.555 644.312L608.052 722.35L272.685 731.563L285.852 642.275Z" fill="#038B5C"/>
<path d="M285.851 642.276L290.14 613.175L173.879 557.07L170.101 582.691L285.851 642.276Z" fill="#02C27F"/>
<path d="M290.14 613.175L628.225 624.081L624.966 646.146L285.851 642.276L290.14 613.175Z" fill="#038B5C"/>
<path d="M619.297 646.09L285.855 642.275L284.651 650.423C284.651 650.423 524.321 652.648 563.772 657.841C603.223 663.034 616.106 667.749 616.106 667.749L619.297 646.09Z" fill="#0C513F"/>
<path d="M285.851 642.274L175.41 584.725L174.609 590.101L284.649 650.408L285.851 642.274Z" fill="#038B5C"/>
</g>
<path d="M757.892 176.599L753.279 215.956L775.532 209.063L776.65 185.985L757.892 176.599Z" fill="#160906"/>
<path d="M474.118 889.527L451.666 957.238C433.585 1010.86 423.785 1053.41 418.986 1096.58L409.89 1196.81L816.906 1070.35C816.906 1070.35 817.85 1057.88 813.234 948.778L474.113 889.563L474.118 889.527Z" fill="#0E0D19"/>
<path d="M824.938 904.741L819.494 946.969C818.844 952.011 814.792 955.94 809.726 956.423C790.742 958.196 737.555 959.782 620.553 942.888C465.775 920.541 480.291 911.039 480.291 911.039L480.211 873.441L824.938 904.741Z" fill="black"/>
<path d="M540.639 882.138L534.904 926.63C534.806 927.385 534.862 928.144 535.082 928.817C535.658 930.779 537.363 932.319 539.522 932.597L583.908 938.319L583.4 942.259L530.967 935.5C528.038 935.123 525.99 932.434 526.368 929.505L533.203 876.482C533.58 873.553 536.258 871.474 539.172 871.849L591.605 878.608L591.01 883.228L546.623 877.506C544.917 877.286 543.272 877.903 542.143 879.047C541.335 879.833 540.783 880.898 540.626 882.12L540.639 882.138Z" fill="#1E1E1E"/>
<path d="M626.16 389.212L636.39 366.879L640.931 396.902L626.16 389.212Z" fill="#532315"/>
<path d="M862.948 622.443L833.744 902.208C833.744 902.208 833.267 914.717 820.875 922.267C808.467 929.815 678.697 923.263 632.475 917.734C579.103 911.345 422.979 881.35 422.979 881.35L380.985 569.169L862.946 622.458L862.948 622.443Z" fill="#161522"/>
<path d="M745.246 342.11L779.467 345.248L772.914 366.198L756.436 364.718L745.246 342.11Z" fill="#5F50C9"/>
<path d="M379.977 569.929L439.65 483.382C469.439 440.179 515.614 411.076 567.435 402.822L688.25 383.586L770.691 375.934L860.185 413.808C923.527 440.606 937.503 482.329 928.78 577.024C928.78 577.024 908.005 697.348 875.098 713.535C759.44 770.394 379.977 569.929 379.977 569.929Z" fill="#161522"/>
<path d="M881.633 696.789C881.552 703.011 877.397 711.668 875.737 713.235L875.722 713.233C872.363 714.887 868.787 716.314 864.661 717.716L881.633 696.789Z" fill="black"/>
<path d="M783.314 382.443C783.314 382.443 750.525 323.069 759.699 256.427L648.023 292.988L630.806 395.23L643.701 436.291L680.093 421.045L783.312 382.458L783.314 382.443Z" fill="#77402B"/>
<path d="M636.171 362.401C636.171 362.401 633.141 364.113 630.283 367.95C628.408 370.471 626.599 373.906 625.779 378.359C624.038 387.697 585.122 396.217 571.825 398.878C569.761 399.287 568.906 401.755 570.28 403.36C574.179 407.883 583.056 410.931 590.521 411.724C603.421 413.096 614.004 405.052 617.712 406.174C621.42 407.297 638.947 444.213 638.947 444.213L653.286 428.226C653.286 428.226 628.284 399.295 632.236 383.044C635.336 370.305 636.186 362.403 636.186 362.403L636.171 362.401Z" fill="#FFCCDE"/>
<path d="M635.555 442.085C626.164 451.48 623.961 453.329 610.522 489.001C597.082 524.672 594.928 541.385 594.928 541.385L625.697 545.352C625.697 545.352 639.826 483.247 656.945 466.422C674.08 449.584 730.553 422.867 730.553 422.867L698.035 416.634L663.559 420.355C664.257 419.34 644.155 433.478 635.54 442.083L635.555 442.085Z" fill="#FFB3CE"/>
<path d="M896.941 686.285C901.141 669.652 903.587 635.679 862.106 616.226C818.497 595.778 781.873 609.736 767.506 617.124C767.687 615.244 767.921 613.309 768.191 611.333C785.056 603.378 821.472 591.757 864.198 611.784C897.183 627.256 904.15 651.79 903.764 670.742C901.617 676.205 899.346 681.438 896.956 686.287L896.941 686.285Z" fill="#FFCCDE"/>
<path d="M92.7646 698.026L78.2421 810.684L193.975 938.275L213.075 790.108L92.7646 698.026Z" fill="#038B5C"/>
<path d="M213.076 790.108L695.083 774.335L678.391 903.826L193.976 938.275L213.076 790.108Z" fill="#0C513F"/>
<path d="M213.076 790.108L219.3 741.826L90.5962 652.469L85.3648 693.051L213.076 790.108Z" fill="#038B5C"/>
<path d="M219.301 741.826L707.618 740.45L702.898 777.061L213.077 790.108L219.301 741.826Z" fill="#0C513F"/>
<path d="M90.597 652.47C95.5309 652.891 561.334 673.523 561.334 673.523L707.601 740.464L219.299 741.843L90.5818 652.468L90.597 652.47Z" fill="#02C27F"/>
<path d="M694.705 777.278L213.094 790.094L211.353 803.606C211.353 803.606 557.514 793.528 614.502 799.846C671.489 806.164 690.075 813.195 690.075 813.195L694.707 777.263L694.705 777.278Z" fill="#033023"/>
<path d="M213.021 790.683L92.1621 697.855L91.6173 706.964L211.338 803.62L213.021 790.683Z" fill="#0C513F"/>
<path d="M317.836 726.596C329.611 729.189 341.92 727.767 353.648 725.012C370.917 720.945 387.501 713.982 402.508 704.482C407.29 701.445 412.079 698.103 417.609 696.882C425.903 695.05 434.549 698.344 441.634 703.033C448.719 707.722 454.781 713.799 461.826 718.559C476.866 728.694 495.692 732.195 513.781 730.936C520.658 730.456 528.762 728.308 530.91 721.77C532.369 717.354 530.34 712.381 527.031 709.115C523.722 705.849 519.332 703.947 515.03 702.196C504.69 697.993 494.186 694.229 483.661 690.508C461.892 682.806 439.636 675.194 416.551 674.49C390.896 673.715 365.869 681.525 340.548 685.781C331.292 687.335 321.91 688.444 312.953 691.249C307.915 692.825 303.001 694.985 298.602 697.917C296.251 699.487 294.041 701.274 292.09 703.309C289.624 705.892 289.461 706.562 291.481 709.585C297.431 718.548 307.463 724.308 317.836 726.596Z" fill="#6748A3"/>
<path d="M386.66 704.094L398.071 703.8C398.071 703.8 419.751 713.855 420.622 714.243C421.476 714.645 492.054 730.312 491.068 729.863C490.095 729.431 421.54 697.832 421.54 697.832C421.54 697.832 401.703 693.724 401.168 693.824C400.633 693.924 386.662 704.079 386.662 704.079L386.66 704.094Z" fill="#AA7F2B"/>
<path d="M531.371 657.853C528.346 647.502 512.987 643.772 492.165 646.828C481.494 648.4 438.244 658.986 428.068 664.105C423.129 666.584 418.258 669.364 414.278 673.21C410.3 677.04 407.243 682.064 406.642 687.558C406.486 689.012 406.514 690.581 407.306 691.818C407.93 692.805 408.966 693.46 409.982 694.036C415.378 697.064 421.434 698.782 427.571 699.634C435.697 700.774 443.951 700.441 452.16 700.102C469.55 699.382 487.16 698.628 503.784 693.496C510.833 691.32 517.795 688.273 523.133 683.175C533.162 673.601 533.944 666.703 531.354 657.866L531.371 657.853Z" fill="#D1A033"/>
<path d="M470.579 678.304C490.657 675.428 531.411 669.922 529.249 653.712C536.272 660.312 538.146 677.206 538.763 687.185C539.358 696.855 538.443 707.404 532.096 714.736C527.587 719.941 520.83 722.83 514.025 723.826C507.205 724.819 500.267 724.109 493.442 723.121C468.412 719.526 443.901 712.376 420.851 701.992C417.051 700.274 413.222 698.43 410.25 695.529C406.093 691.463 403.732 686.555 409.328 684.697C415.197 682.753 423.599 683.652 429.811 683.086C443.433 681.834 457.023 680.24 470.562 678.317L470.579 678.304Z" fill="#F4BE38"/>
<path d="M339.782 578.288C348.685 572.207 362.921 579.046 377.092 594.609C384.354 602.575 411.088 638.191 415.718 648.596C417.968 653.644 419.962 658.889 420.606 664.375C421.249 669.86 420.438 675.68 417.431 680.311C416.628 681.543 415.617 682.717 414.221 683.182C413.1 683.544 411.891 683.404 410.736 683.193C404.643 682.116 398.873 679.607 393.58 676.377C386.563 672.111 380.395 666.62 374.268 661.164C361.272 649.589 348.128 637.841 338.519 623.326C334.445 617.184 330.992 610.4 330.093 603.085C328.397 589.329 332.173 583.493 339.78 578.303L339.782 578.288Z" fill="#D1A033"/>
<path d="M373.854 632.623C360.141 617.671 332.111 587.582 344.049 576.413C334.449 577.063 322.265 588.953 315.473 596.273C308.879 603.374 302.903 612.104 303.172 621.808C303.359 628.693 306.755 635.209 311.395 640.289C316.034 645.384 321.861 649.235 327.757 652.789C349.401 665.862 372.881 675.888 397.299 682.443C401.319 683.529 405.458 684.523 409.601 684.167C415.39 683.67 420.339 681.361 417.176 676.364C413.875 671.134 406.796 666.523 402.358 662.129C392.605 652.538 383.116 642.689 373.871 632.61L373.854 632.623Z" fill="#EFC335"/>
<path d="M291.4 653.594C294.436 643.257 309.775 639.525 330.606 642.594C341.27 644.168 384.52 654.778 394.681 659.894C399.626 662.373 404.484 665.164 408.455 669.006C412.426 672.849 415.494 677.864 416.09 683.359C416.257 684.808 416.207 686.382 415.419 687.616C414.784 688.608 413.749 689.258 412.739 689.833C407.346 692.853 401.277 694.572 395.15 695.425C387.023 696.556 378.762 696.228 370.565 695.877C353.176 695.155 335.563 694.389 318.943 689.254C311.888 687.07 304.929 684.024 299.599 678.932C289.568 669.351 288.798 662.468 291.396 653.625L291.4 653.594Z" fill="#D1A033"/>
<path d="M352.179 674.076C332.106 671.197 291.348 665.667 293.514 649.462C286.493 656.062 284.606 672.963 283.98 682.936C283.376 692.619 284.291 703.143 290.636 710.484C295.136 715.7 301.886 718.58 308.71 719.583C315.518 720.583 322.471 719.868 329.289 718.89C354.309 715.3 378.833 708.178 401.876 697.78C405.672 696.075 409.502 694.22 412.486 691.32C416.646 687.267 419.013 682.354 413.407 680.48C407.55 678.528 399.144 679.44 392.925 678.869C379.304 677.619 365.711 676.02 352.179 674.076Z" fill="#F4BE38"/>
<path d="M399.542 675.288C397.819 679.486 397.893 684.269 399.047 688.654C399.707 691.149 400.71 693.611 402.407 695.564C406.432 700.181 413.19 700.975 419.297 701.471C420.846 701.594 422.458 701.709 423.948 701.226C426.75 700.329 428.458 697.556 429.837 694.956C431.419 691.967 432.875 688.886 433.534 685.563C434.19 682.256 433.993 678.67 432.363 675.712C429.164 669.928 421.097 667.737 415.028 666.601C408.477 665.389 402.071 669.121 399.544 675.273L399.542 675.288Z" fill="#EFC335"/>
<path d="M433.571 676.94C432.812 675.569 431.767 674.39 430.56 673.39C430.658 674.892 430.537 676.426 430.239 677.908C429.582 681.215 428.109 684.309 426.542 687.3C425.163 689.9 423.455 692.673 420.653 693.57C419.163 694.054 417.568 693.925 416.002 693.815C410.335 693.361 404.088 692.648 400.006 688.837C400.084 689.184 400.162 689.532 400.255 689.882C400.915 692.377 401.918 694.839 403.616 696.792C407.64 701.409 414.399 702.203 420.505 702.699C422.054 702.822 423.666 702.938 425.156 702.454C427.958 701.557 429.666 698.784 431.045 696.184C432.627 693.195 434.083 690.114 434.742 686.791C435.399 683.484 435.201 679.898 433.571 676.94Z" fill="#E0B036"/>
<path d="M406.862 671.12C405.723 671.971 404.883 673.137 404.115 674.327C403.078 675.943 402.131 677.694 401.901 679.598C401.671 681.502 402.318 683.627 403.898 684.705C405.732 685.955 408.561 685.322 409.712 683.413C410.144 682.686 410.345 681.837 410.692 681.053C411.726 678.746 414.189 677.145 416.721 677.149C418.471 677.145 420.495 677.758 421.753 676.57C422.958 675.436 422.541 673.31 421.337 672.173C417.887 668.935 410.747 668.244 406.862 671.12Z" fill="#F2D927"/>
<path opacity="0.39" d="M290.204 666.441C289.882 676.683 290.352 686.966 291.604 697.134C291.965 700.051 292.409 703.04 293.809 705.63C295.956 709.575 300.066 712.1 304.273 713.64C306.118 714.323 308.475 714.734 309.814 713.28C311.404 711.535 310.161 708.797 309.031 706.732C306.55 702.161 304.895 697.144 304.178 691.986C303.734 688.767 303.664 685.382 304.969 682.403C306.273 679.425 309.226 676.997 312.46 677.153C314.657 677.252 316.662 678.493 318.855 678.745C321.046 679.012 323.787 677.508 323.392 675.339C323.05 673.469 320.805 672.78 318.955 672.373C312.318 670.873 305.818 668.193 300.172 664.365C298.549 663.265 296.123 660.297 294 660.331C290.924 660.379 290.28 664.072 290.208 666.411L290.204 666.441Z" fill="white"/>
<path opacity="0.39" d="M418.165 601.638C417.513 604.67 416.861 607.825 417.575 610.863C417.725 611.481 417.962 612.141 418.505 612.457C419.176 612.85 420.087 612.569 420.635 612.01C421.182 611.451 421.436 610.67 421.67 609.933C422.346 607.78 422.921 605.582 423.404 603.388C424.424 598.685 419.255 596.637 418.178 601.655L418.165 601.638Z" fill="white"/>
<path opacity="0.39" d="M331.306 589.888C321.377 597.019 313.665 607.199 309.467 618.691C308.944 620.127 308.531 621.901 309.552 623.03C310.358 623.917 311.791 623.994 312.885 623.49C313.976 623.002 314.803 622.065 315.567 621.135C319.73 615.992 323.253 609.616 329.492 607.412C332.048 606.514 334.951 606.382 337.164 604.81C339.514 603.133 340.585 600.063 340.341 597.192C339.933 592.382 336.617 586.076 331.306 589.888Z" fill="white"/>
<path opacity="0.39" d="M509.325 680.43C512.723 679.318 516.184 678.183 519.77 678.108C521.356 678.067 523.062 678.287 524.21 679.386C526.11 681.197 525.53 684.269 525.285 686.877C525 689.802 525.321 692.791 526.217 695.607C526.446 696.328 526.747 697.088 527.386 697.493C528.248 698.064 529.469 697.761 530.237 697.047C530.989 696.33 531.38 695.321 531.661 694.329C533.828 686.812 531.929 678.801 530.021 671.218C529.759 670.156 529.389 668.973 528.424 668.48C527.848 668.191 527.155 668.209 526.503 668.263C524.669 668.441 522.868 668.961 521.186 669.742C519.65 670.465 518.223 671.416 516.747 672.27C513.184 674.312 509.326 675.78 505.387 676.929C502.261 677.846 497.732 677.969 495.304 680.372C492.915 682.719 493.704 684.571 497.088 684.393C500.969 684.172 505.635 681.673 509.337 680.462L509.325 680.43Z" fill="white"/>
<path d="M525.313 779.368C525.313 779.368 545.012 802.888 538.895 830.095C532.779 857.302 462.545 906.833 466.584 916.102C470.623 925.372 515.647 915.428 515.647 915.428L583.854 861.262L575.847 787.647L525.311 779.383L525.313 779.368Z" fill="#033023"/>
<path d="M881.476 696.814L839.585 749.6C834.636 755.838 828.533 761.037 821.602 764.917L649.993 860.993C646.072 863.189 642.621 866.028 639.71 869.444C627.768 883.499 594.983 921.726 590.361 923.77C584.7 926.248 554.294 921.254 543.999 926.343C533.718 931.448 531.363 924.714 524.916 924.957C518.469 925.2 506.104 921.458 506.104 921.458C506.104 921.458 487.671 923.363 480.154 923.454C472.648 923.576 474.007 913.038 479.819 909.505C485.618 905.955 556.673 853.03 560.657 847.128C564.626 841.224 562.766 814.217 559.625 805.248C556.497 796.295 533.88 789.098 524.036 782.472C514.175 775.86 520.83 757.455 520.83 757.455L554.907 767.189L590.556 770.925C596.267 771.508 601.744 773.549 606.48 776.815L612.301 780.835C623.364 788.477 637.79 789.201 649.492 782.605C665.479 773.6 688.177 759.213 705.906 741.699C736.58 711.396 762.211 686.873 762.211 686.873L771.118 644.57C780.429 639.37 800.199 632.096 829.368 640.614C835.077 642.286 841.139 644.556 847.55 647.562C874.947 660.426 881.778 677.207 881.917 690.532C881.924 692.743 881.776 694.842 881.491 696.816L881.476 696.814Z" fill="#77402B"/>
<path d="M881.573 697.241L875.938 703.928C877.407 696.458 855.831 666.541 829.36 649.837C802.889 633.133 771.102 644.568 771.102 644.568C780.398 639.366 800.183 632.093 829.352 640.611C835.061 642.284 841.109 644.537 847.534 647.56C874.931 660.423 881.762 677.205 881.901 690.53C881.916 692.558 881.809 695.414 881.558 697.239L881.573 697.241Z" fill="#532315"/>
<path d="M586.125 897.103L586.154 896.874" stroke="#FF22B0" stroke-width="7.00711" stroke-miterlimit="10"/>
<path d="M643.021 435.359C643.021 435.359 660.586 411.977 682.024 414.74C703.463 417.504 710.603 406.882 710.603 406.882L779.452 345.232C779.452 345.232 788.801 362.844 796.549 371.794C802.012 378.115 806.777 383.181 809.852 386.355C812.073 388.652 812.512 392.147 810.927 394.92C807.228 401.35 798.859 413.762 781.979 430.173C773.204 438.711 766.096 443.366 762.043 445.637C760.122 446.725 757.681 446.257 756.29 444.543C752.055 439.3 740.577 428.443 715.461 423.486C696.708 419.779 689.115 421.287 680.093 421.03C668.441 420.694 643.036 435.361 643.036 435.361L643.021 435.359Z" fill="#FFCCDE"/>
<path d="M629.715 490.358C634.151 490.93 638.191 487.946 638.74 483.693C639.288 479.441 636.136 475.53 631.7 474.958C627.264 474.386 623.224 477.37 622.676 481.623C622.128 485.875 625.279 489.786 629.715 490.358Z" fill="white"/>
<path d="M609.909 127.639L768.629 148.099L750.541 288.415C745.272 329.284 707.81 358.191 666.941 352.922L656.313 351.552C615.444 346.284 586.537 308.822 591.806 267.953L609.894 127.637L609.909 127.639Z" fill="#77402B"/>
<path d="M751.465 283.945C756.656 320.944 725.466 354.419 693.4 359.449C672.565 362.718 656.465 354.979 647.743 349.174C652.195 350.592 656.851 351.622 661.637 352.239C701.283 357.349 737.884 332.506 748.683 295.282L751.465 283.945Z" fill="#532315"/>
<path d="M755.849 191.623C755.849 191.623 714.895 196.657 700.254 194.509C686.171 192.433 660.704 173.648 625.593 165.269C624.999 165.116 624.403 164.978 623.806 164.84C617.677 163.451 611.528 162.459 605.482 161.971C604.299 161.864 603.109 161.803 601.92 161.742C599.66 161.65 597.51 161.665 595.447 161.829L595.576 160.832C598.761 159.938 602.243 159.113 605.949 158.348C624.84 154.444 649.589 152.6 673.398 158.048C716.588 167.929 755.849 191.623 755.849 191.623Z" fill="#720029"/>
<path d="M605.486 161.969L600.455 200.996C600.455 200.996 576.52 217.127 563.245 216.997C550.338 216.868 531.827 167.822 589.773 162.538C591.605 162.375 593.487 161.942 595.452 161.827C597.514 161.663 599.665 161.649 601.924 161.74C603.099 161.8 604.288 161.861 605.486 161.969Z" fill="#330013"/>
<path d="M625.595 165.267C608.148 171.183 603 181.233 603 181.233L605.484 161.968C611.529 162.456 617.677 163.463 623.808 164.837C624.404 164.975 625 165.113 625.595 165.267Z" fill="#330013"/>
<path d="M780.297 213.437C780.297 213.437 773.877 203.355 762.51 195.566C760.452 194.15 758.229 192.819 755.849 191.638C755.849 191.638 716.588 167.944 673.397 158.063C649.586 152.63 624.837 154.474 605.948 158.362C602.245 159.113 598.775 159.955 595.575 160.847L597.632 144.889C598.512 138.065 601.548 131.657 606.333 126.687C620.389 112.061 643.162 81.0152 690.009 84.9207C729.75 88.2173 774.998 120.956 778.806 141.538C782.6 162.118 780.295 213.453 780.295 213.453L780.297 213.437Z" fill="#80002E"/>
<path d="M758.65 264.426C769.948 265.883 780.919 253.01 783.153 235.676C785.388 218.341 778.04 203.107 766.742 201.651C755.444 200.194 744.474 213.066 742.239 230.401C740.004 247.736 747.352 262.97 758.65 264.426Z" fill="#77402B"/>
<path d="M800.805 484.646C800.805 484.646 753.515 624.912 770.303 647.797L767.598 660.325C767.598 660.325 755.899 639.524 760.148 615.131C765.222 586.009 773.974 548.598 785.263 513.769C788.475 503.854 792.683 494.312 799.39 486.336L800.82 484.648L800.805 484.646Z" fill="black"/>
<path d="M173.887 557.066C177.306 557.446 526.934 580.015 526.934 580.015L628.23 624.092L290.147 613.172L173.887 557.066Z" fill="#CCF3E5"/>
<path d="M597.95 709.476L631.435 727.729L273.207 736.635L157.792 655.759L333.819 662.811L597.95 709.476Z" fill="#0C513F"/>
<path d="M175.417 584.726L164.534 656.289L272.691 731.564L285.859 642.276L175.417 584.726Z" fill="#02C27F"/>
<path d="M285.862 642.277L619.565 644.314L608.062 722.352L272.695 731.565L285.862 642.277Z" fill="#038B5C"/>
<path d="M285.861 642.278L290.15 613.177L173.889 557.072L170.111 582.693L285.861 642.278Z" fill="#02C27F"/>
<path d="M290.15 613.177L628.235 624.083L624.976 646.148L285.862 642.278L290.15 613.177Z" fill="#038B5C"/>
<path d="M619.308 646.091L285.865 642.277L284.661 650.425C284.661 650.425 524.331 652.65 563.782 657.843C603.233 663.036 616.117 667.751 616.117 667.751L619.308 646.091Z" fill="#0C513F"/>
<path d="M285.862 642.276L175.42 584.727L174.62 590.103L284.66 650.41L285.862 642.276Z" fill="#038B5C"/>
</g>
<defs>
<clipPath id="clip0_3075_1442">
<rect width="1389.65" height="1345.92" fill="white" transform="translate(0.15332 0.743164)"/>
</clipPath>
</defs>
</svg>