<svg xmlns="http://www.w3.org/2000/svg" width="51" height="52" viewBox="0 0 51 52" fill="none">
<path d="M31.4245 4.1074L32.8974 5.36533C34.1036 6.39238 35.6004 7.0134 37.1808 7.14078L39.1115 7.29604C42.7938 7.59062 45.7197 10.5165 46.0143 14.1988L46.1695 16.1295C46.2969 17.7099 46.9179 19.2066 47.9449 20.4128L49.2029 21.8857C51.5993 24.6962 51.5993 28.8363 49.2029 31.6467L47.9449 33.1196C46.9179 34.3258 46.2969 35.8226 46.1695 37.403L46.0143 39.3337C45.7197 43.0159 42.7938 45.9418 39.1115 46.2364L37.1808 46.3917C35.6004 46.519 34.1036 47.1401 32.8974 48.1671L31.4245 49.425C28.6141 51.8215 24.474 51.8215 21.6636 49.425L20.1907 48.1671C18.9845 47.1401 17.4877 46.519 15.9073 46.3917L13.9766 46.2364C10.2944 45.9418 7.36845 43.0159 7.07387 39.3337L6.91861 37.403C6.79123 35.8226 6.17024 34.3258 5.14318 33.1196L3.88523 31.6467C1.48878 28.8363 1.48878 24.6962 3.88523 21.8857L5.14318 20.4128C6.17024 19.2066 6.79123 17.7099 6.91861 16.1295L7.07387 14.1988C7.36845 10.5165 10.2944 7.59062 13.9766 7.29604L15.9073 7.14078C17.4877 7.0134 18.9845 6.39238 20.1907 5.36533L21.6636 4.1074C24.474 1.71095 28.6141 1.71095 31.4245 4.1074Z" fill="black"/>
<path d="M29.3367 1.79734L30.8095 3.05529C32.0157 4.08234 33.5125 4.70334 35.0929 4.83072L37.0236 4.98598C40.7059 5.28056 43.6318 8.20647 43.9263 11.8887L44.0816 13.8194C44.209 15.3998 44.83 16.8966 45.8571 18.1028L47.115 19.5757C49.5114 22.3862 49.5114 26.5262 47.115 29.3366L45.8571 30.8096C44.83 32.0157 44.209 33.5125 44.0816 35.0929L43.9263 37.0236C43.6318 40.7059 40.7059 43.6318 37.0236 43.9264L35.0929 44.0816C33.5125 44.209 32.0157 44.83 30.8095 45.8571L29.3367 47.115C26.5262 49.5115 22.3861 49.5115 19.5757 47.115L18.1028 45.8571C16.8966 44.83 15.3998 44.209 13.8194 44.0816L11.8887 43.9264C8.20645 43.6318 5.28054 40.7059 4.98596 37.0236L4.83072 35.0929C4.70334 33.5125 4.08232 32.0157 3.05527 30.8096L1.79734 29.3366C-0.599113 26.5262 -0.599113 22.3862 1.79734 19.5757L3.05527 18.1028C4.08232 16.8966 4.70334 15.3998 4.83072 13.8194L4.98596 11.8887C5.28054 8.20647 8.20645 5.28056 11.8887 4.98598L13.8194 4.83072C15.3998 4.70334 16.8966 4.08234 18.1028 3.05529L19.5757 1.79734C22.3861 -0.599113 26.5262 -0.599113 29.3367 1.79734Z" fill="#8C77EC"/>
<path d="M21.6212 12.1541L15.4668 24.833H24.0455L19.1968 39.9362L35.0445 19.6141H25.9085L30.1958 12.1541H21.6212Z" fill="#180D68"/>
</svg>