<svg width="40" height="45" fill="none" xmlns="http://www.w3.org/2000/svg" class="text-[#FFC501] mb-4" viewBox="0 0 25 20"><path d="m13.733 1.223.579 1.627a1.84 1.84 0 0 0 2.523 1.045l1.56-.741c1.563-.743 3.194.888 2.451 2.451l-.741 1.56a1.838 1.838 0 0 0 1.045 2.523l1.627.578c1.63.58 1.63 2.886 0 3.467l-1.627.579a1.84 1.84 0 0 0-1.045 2.523l.741 1.56c.743 1.563-.888 3.194-2.451 2.451l-1.56-.741a1.839 1.839 0 0 0-2.523 1.044l-.579 1.628c-.58 1.63-2.886 1.63-3.466 0l-.579-1.628a1.84 1.84 0 0 0-2.523-1.044l-1.56.74c-1.563.744-3.194-.887-2.451-2.45l.741-1.56A1.84 1.84 0 0 0 2.85 14.31l-1.627-.578c-1.63-.58-1.63-2.887 0-3.467l1.627-.578a1.84 1.84 0 0 0 1.048-2.523l-.742-1.56c-.743-1.564.888-3.195 2.452-2.452l1.56.742A1.84 1.84 0 0 0 9.69 2.85l.578-1.627c.578-1.63 2.884-1.63 3.464 0Z" fill="#ffc501"></path></svg>