<svg xmlns="http://www.w3.org/2000/svg" width="1440" height="241" viewBox="0 0 1440 241" fill="none">
<path d="M123.78 77.7386L354.793 13.4058C360.51 11.8227 366.252 17.0085 364.817 22.9496L341.168 131.132C340.638 134.112 338.273 136.245 335.592 137.234L104.579 201.567C98.8616 203.15 93.1196 197.964 94.5551 192.023L118.204 83.8408C118.734 80.8605 120.744 78.3329 123.78 77.7386Z" fill="white"/>
<path d="M-44.1494 85.5825L186.863 21.2497C192.581 19.6666 198.323 24.8523 196.887 30.7935L173.238 138.976C172.708 141.956 170.343 144.089 167.662 145.078L-63.3505 209.411C-69.0682 210.994 -74.8102 205.808 -73.3747 199.867L-49.7259 91.6846C-49.1955 88.7044 -47.1859 86.1768 -44.1494 85.5825Z" fill="white"/>
<path d="M248.927 103.766L479.939 39.4332C485.657 37.8501 491.399 43.0359 489.963 48.977L466.315 157.159C465.784 160.14 463.419 162.273 460.738 163.261L229.726 227.594C224.008 229.177 218.266 223.992 219.702 218.05L243.35 109.868C243.881 106.888 245.89 104.36 248.927 103.766Z" fill="white"/>
<path d="M618.78 77.7386L849.793 13.4058C855.51 11.8227 861.252 17.0085 859.817 22.9496L836.168 131.132C835.638 134.112 833.273 136.245 830.592 137.234L599.579 201.567C593.862 203.15 588.12 197.964 589.555 192.023L613.204 83.8408C613.734 80.8605 615.744 78.3329 618.78 77.7386Z" fill="white"/>
<path d="M450.851 85.5825L681.863 21.2497C687.581 19.6666 693.323 24.8523 691.887 30.7935L668.238 138.976C667.708 141.956 665.343 144.089 662.662 145.078L431.649 209.411C425.932 210.994 420.19 205.808 421.625 199.867L445.274 91.6846C445.804 88.7044 447.814 86.1768 450.851 85.5825Z" fill="white"/>
<path d="M743.927 103.766L974.939 39.4332C980.657 37.8501 986.399 43.0359 984.963 48.977L961.315 157.159C960.784 160.14 958.419 162.273 955.738 163.261L724.726 227.594C719.008 229.177 713.266 223.992 714.702 218.05L738.35 109.868C738.881 106.888 740.89 104.36 743.927 103.766Z" fill="white"/>
<path d="M1108.78 77.7386L1339.79 13.4058C1345.51 11.8227 1351.25 17.0085 1349.82 22.9496L1326.17 131.132C1325.64 134.112 1323.27 136.245 1320.59 137.234L1089.58 201.567C1083.86 203.15 1078.12 197.964 1079.56 192.023L1103.2 83.8408C1103.73 80.8605 1105.74 78.3329 1108.78 77.7386Z" fill="white"/>
<path d="M940.851 85.5825L1171.86 21.2497C1177.58 19.6666 1183.32 24.8523 1181.89 30.7935L1158.24 138.976C1157.71 141.956 1155.34 144.089 1152.66 145.078L921.649 209.411C915.932 210.994 910.19 205.808 911.625 199.867L935.274 91.6846C935.804 88.7044 937.814 86.1768 940.851 85.5825Z" fill="white"/>
<path d="M1233.93 103.766L1464.94 39.4332C1470.66 37.8501 1476.4 43.0359 1474.96 48.977L1451.31 157.159C1450.78 160.14 1448.42 162.273 1445.74 163.261L1214.73 227.594C1209.01 229.177 1203.27 223.992 1204.7 218.05L1228.35 109.868C1228.88 106.888 1230.89 104.36 1233.93 103.766Z" fill="white"/>
</svg>