<svg xmlns="http://www.w3.org/2000/svg" width="1440" height="241" viewBox="0 0 1440 241" fill="none">
<path d="M142.78 77.7386L373.793 13.4058C379.51 11.8227 385.252 17.0085 383.817 22.9496L360.168 131.132C359.638 134.112 357.273 136.245 354.592 137.234L123.579 201.567C117.862 203.15 112.12 197.964 113.555 192.023L137.204 83.8408C137.734 80.8605 139.744 78.3329 142.78 77.7386Z" fill="white"/>
<path d="M-25.1494 85.5823L205.863 21.2496C211.581 19.6665 217.323 24.8522 215.887 30.7934L192.238 138.976C191.708 141.956 189.343 144.089 186.662 145.078L-44.3505 209.411C-50.0682 210.994 -55.8102 205.808 -54.3747 199.867L-30.7259 91.6845C-30.1955 88.7042 -28.1859 86.1767 -25.1494 85.5823Z" fill="white"/>
<path d="M267.927 103.766L498.939 39.4332C504.657 37.8501 510.399 43.0358 508.963 48.977L485.315 157.159C484.784 160.139 482.419 162.273 479.738 163.261L248.726 227.594C243.008 229.177 237.266 223.991 238.702 218.05L262.35 109.868C262.881 106.888 264.89 104.36 267.927 103.766Z" fill="white"/>
<path d="M637.78 77.7386L868.793 13.4058C874.51 11.8227 880.252 17.0085 878.817 22.9496L855.168 131.132C854.638 134.112 852.273 136.245 849.592 137.234L618.579 201.567C612.862 203.15 607.12 197.964 608.555 192.023L632.204 83.8408C632.734 80.8605 634.744 78.3329 637.78 77.7386Z" fill="white"/>
<path d="M469.851 85.5823L700.863 21.2496C706.581 19.6665 712.323 24.8522 710.887 30.7934L687.238 138.976C686.708 141.956 684.343 144.089 681.662 145.078L450.649 209.411C444.932 210.994 439.19 205.808 440.625 199.867L464.274 91.6845C464.804 88.7042 466.814 86.1767 469.851 85.5823Z" fill="white"/>
<path d="M762.927 103.766L993.939 39.4332C999.657 37.8501 1005.4 43.0358 1003.96 48.977L980.315 157.159C979.784 160.139 977.419 162.273 974.738 163.261L743.726 227.594C738.008 229.177 732.266 223.991 733.702 218.05L757.35 109.868C757.881 106.888 759.89 104.36 762.927 103.766Z" fill="white"/>
<path d="M1127.78 77.7386L1358.79 13.4058C1364.51 11.8227 1370.25 17.0085 1368.82 22.9496L1345.17 131.132C1344.64 134.112 1342.27 136.245 1339.59 137.234L1108.58 201.567C1102.86 203.15 1097.12 197.964 1098.56 192.023L1122.2 83.8408C1122.73 80.8605 1124.74 78.3329 1127.78 77.7386Z" fill="white"/>
<path d="M959.851 85.5823L1190.86 21.2496C1196.58 19.6665 1202.32 24.8522 1200.89 30.7934L1177.24 138.976C1176.71 141.956 1174.34 144.089 1171.66 145.078L940.649 209.411C934.932 210.994 929.19 205.808 930.625 199.867L954.274 91.6845C954.804 88.7042 956.814 86.1767 959.851 85.5823Z" fill="white"/>
<path d="M1252.93 103.766L1483.94 39.4332C1489.66 37.8501 1495.4 43.0358 1493.96 48.977L1470.31 157.159C1469.78 160.139 1467.42 162.273 1464.74 163.261L1233.73 227.594C1228.01 229.177 1222.27 223.991 1223.7 218.05L1247.35 109.868C1247.88 106.888 1249.89 104.36 1252.93 103.766Z" fill="white"/>
</svg>