<svg xmlns="http://www.w3.org/2000/svg" width="1440" height="242" viewBox="0 0 1440 242" fill="none">
<path d="M163.78 78.5672L394.793 14.2344C400.51 12.6513 406.252 17.8371 404.817 23.7782L381.168 131.96C380.638 134.941 378.273 137.074 375.592 138.063L144.579 202.395C138.862 203.979 133.12 198.793 134.555 192.852L158.204 84.6694C158.734 81.6891 160.744 79.1616 163.78 78.5672Z" fill="#FFE1EB"/>
<path d="M-4.14942 86.411L226.863 22.0782C232.581 20.4951 238.323 25.6808 236.887 31.622L213.238 139.804C212.708 142.784 210.343 144.918 207.662 145.906L-23.3505 210.239C-29.0682 211.822 -34.8102 206.636 -33.3747 200.695L-9.72591 92.5131C-9.19552 89.5328 -7.18586 87.0053 -4.14942 86.411Z" fill="#FFE1EB"/>
<path d="M288.927 104.595L519.939 40.2618C525.657 38.6787 531.399 43.8644 529.963 49.8056L506.315 157.988C505.784 160.968 503.419 163.101 500.738 164.09L269.726 228.423C264.008 230.006 258.266 224.82 259.702 218.879L283.35 110.697C283.881 107.716 285.89 105.189 288.927 104.595Z" fill="#FFE1EB"/>
<path d="M658.78 78.5672L889.793 14.2344C895.51 12.6513 901.252 17.8371 899.817 23.7782L876.168 131.96C875.638 134.941 873.273 137.074 870.592 138.063L639.579 202.395C633.862 203.979 628.12 198.793 629.555 192.852L653.204 84.6694C653.734 81.6891 655.744 79.1616 658.78 78.5672Z" fill="#FFE1EB"/>
<path d="M490.851 86.411L721.863 22.0782C727.581 20.4951 733.323 25.6808 731.887 31.622L708.238 139.804C707.708 142.784 705.343 144.918 702.662 145.906L471.649 210.239C465.932 211.822 460.19 206.636 461.625 200.695L485.274 92.5131C485.804 89.5328 487.814 87.0053 490.851 86.411Z" fill="#FFE1EB"/>
<path d="M783.927 104.595L1014.94 40.2618C1020.66 38.6787 1026.4 43.8644 1024.96 49.8056L1001.31 157.988C1000.78 160.968 998.419 163.101 995.738 164.09L764.726 228.423C759.008 230.006 753.266 224.82 754.702 218.879L778.35 110.697C778.881 107.716 780.89 105.189 783.927 104.595Z" fill="#FFE1EB"/>
<path d="M1148.78 78.5672L1379.79 14.2344C1385.51 12.6513 1391.25 17.8371 1389.82 23.7782L1366.17 131.96C1365.64 134.941 1363.27 137.074 1360.59 138.063L1129.58 202.395C1123.86 203.979 1118.12 198.793 1119.56 192.852L1143.2 84.6694C1143.73 81.6891 1145.74 79.1616 1148.78 78.5672Z" fill="#FFE1EB"/>
<path d="M980.851 86.411L1211.86 22.0782C1217.58 20.4951 1223.32 25.6808 1221.89 31.622L1198.24 139.804C1197.71 142.784 1195.34 144.918 1192.66 145.906L961.649 210.239C955.932 211.822 950.19 206.636 951.625 200.695L975.274 92.5131C975.804 89.5328 977.814 87.0053 980.851 86.411Z" fill="#FFE1EB"/>
<path d="M1273.93 104.595L1504.94 40.2618C1510.66 38.6787 1516.4 43.8644 1514.96 49.8056L1491.31 157.988C1490.78 160.968 1488.42 163.101 1485.74 164.09L1254.73 228.423C1249.01 230.006 1243.27 224.82 1244.7 218.879L1268.35 110.697C1268.88 107.716 1270.89 105.189 1273.93 104.595Z" fill="#FFE1EB"/>
</svg>