<svg width="26" height="26" fill="none" xmlns="http://www.w3.org/2000/svg"><path d="M13 25c6.627 0 12-5.373 12-12S19.627 1 13 1 1 6.373 1 13s5.373 12 12 12Z" fill="#99C8FF" stroke="#CCF3E5" stroke-width="0.368" stroke-miterlimit="10"></path><path d="M13 23.291c5.684 0 10.291-4.607 10.291-10.291S18.684 2.709 13 2.709 2.709 7.316 2.709 13 7.316 23.291 13 23.291Z" stroke="#CCF3E5" stroke-width="0.368" stroke-miterlimit="10"></path><path d="m7.32 15.729 1.188-.238 12.954 3.269a.42.42 0 0 0 .52-.353l.364-2.725.392-.56a.488.488 0 0 0-.29-.756L7.447 8.857l-1.414.265-.654 1.213.064.823-.738.328-.186-.016s-.228.265.151.778c.38.513-.817 1.083.418 1.9 1.235.816 1.536.759 1.536.759l.217.557a.425.425 0 0 0 .479.265Z" fill="#99C8FF" style="mix-blend-mode:multiply"></path><path d="m7.966 14.836-.735.143s-.503-.11.287-.428.774-.35.774-.35l-.017.489-.31.146Z" fill="#DC9A5D"></path><path d="M5.877 9.998c-.208-.239.466-.65.348-.944-.118-.294-.501-.138-.62-.433-.12-.294.014-.122.175-.396.16-.273-.021-.181.304-.235.325-.053.126-.317.386-.52.219-.172.322.049.406-.216.084-.265-.26-.375-.175-.64.085-.266.39-.107.626-.251.22-.135.121.024.373.084.251.06.09.06.21-.172.134-.263-.134-.082-.02-.354.09-.22.272.069.49.17.22.102.263.006.481.109.218.102.272-.015.49.09.216.106.345.216.39.454.053.273-.128.318-.282.553-.153.236-.435.052-.588.287-.154.236.032.356-.122.591-.153.236.197.464.045.699-.153.235-.147.24-.3.476-.152.236-.296.142-.45.378-.153.236-.295.156-.55.273-.236.11-.221-.05-.477-.091-.256-.041-.285-.17-.545-.125-.32.05-.471.355-.595.213Z" fill="#02C27F"></path><path d="M5.149 12.444s-.382-.426-.439-.857a.117.117 0 0 1 .061-.119l.425-.222a.047.047 0 0 1 .07.036c.021.155.092.3.2.412l.23.255-.547.495Z" fill="#FFC501"></path><path d="M7.892 12.819c0 .152-.086.284-.125.421a1.435 1.435 0 0 1-.162.395c-.08.127-.134.273-.245.364-.11.102-.237.186-.375.248a1.327 1.327 0 0 1-.448.057 1.29 1.29 0 0 1-.44-.079c-.137-.051-.235-.174-.349-.272a1.369 1.369 0 0 1-.292-.316c-.077-.12-.182-.236-.227-.38-.046-.145.015-.293.015-.444a1.554 1.554 0 0 1 .047-.425c.038-.137.096-.267.172-.386.08-.127.129-.285.24-.377.117-.096.25-.172.391-.226.135-.05.295-.006.446-.006.143-.002.286.021.42.07.13.058.25.139.353.238.11.089.205.195.282.313.077.122.214.22.255.364.034.144.048.293.042.44Z" fill="#CCF3E5"></path><path d="M7.892 12.819c0 .152-.086.284-.125.421a1.435 1.435 0 0 1-.162.395c-.08.127-.134.273-.245.364-.11.102-.237.186-.375.248a1.327 1.327 0 0 1-.448.057 1.29 1.29 0 0 1-.44-.079c-.137-.051-.235-.174-.349-.272a1.369 1.369 0 0 1-.292-.316c-.077-.12-.182-.236-.227-.38-.046-.145.015-.293.015-.444a1.554 1.554 0 0 1 .047-.425c.038-.137.096-.267.172-.386.08-.127.129-.285.24-.377.117-.096.25-.172.391-.226.135-.05.295-.006.446-.006.143-.002.286.021.42.07.13.058.25.139.353.238.11.089.205.195.282.313.077.122.214.22.255.364.034.144.048.293.042.44Z" stroke="#0C513F" stroke-width="0.184" stroke-miterlimit="10"></path><path d="M7.434 14.63a1.679 1.679 0 1 0 0-3.358 1.679 1.679 0 0 0 0 3.357Z" fill="#CCF3E5" style="mix-blend-mode:multiply"></path><path d="M7.645 14.661a1.726 1.726 0 1 0 0-3.452 1.726 1.726 0 0 0 0 3.452Z" fill="#ED5E3B"></path><path d="M7.774 14.661c.882 0 1.596-.753 1.596-1.682 0-.93-.714-1.683-1.596-1.683-.882 0-1.596.753-1.596 1.683 0 .929.714 1.682 1.596 1.682Z" fill="#FFB3CE"></path><path d="m10.57 13.173-.068 1.033L7.455 13.2l.273-1.003 2.842.976Z" fill="#FFC501"></path><path d="M7.728 12.197 7.454 13.2l-.496-.164.207-1.032.563.193Z" fill="#FFD150"></path><path d="m8.68 14.607-3.166-1.569a.039.039 0 0 1 .012-.073l.643-.083a.445.445 0 0 1 .195.017l3.372.938-1.056.77ZM10.32 8.595a.95.95 0 0 1-.14.248l.014-.036c.252-.662-.283-1.479-1.194-1.824-.786-.299-1.596-.149-1.963.324.272-.635 1.195-.876 2.088-.537.911.346 1.445 1.163 1.194 1.825Z" fill="#FF884D"></path><path d="M10.194 8.808a.586.586 0 0 0-.014.035c-.368.473-1.18.623-1.965.324-.908-.346-1.444-1.162-1.194-1.824l.016-.036C7.4 6.834 8.217 6.685 9 6.983c.913.345 1.446 1.163 1.194 1.825Z" fill="#FFDBC9"></path><path d="M9.898 8.64c0 .145-.083.273-.124.402a1.288 1.288 0 0 1-.173.37c-.083.114-.144.25-.257.333a1.394 1.394 0 0 1-.371.219c-.14.037-.285.052-.429.045-.143 0-.285-.022-.421-.066-.136-.045-.237-.154-.349-.237a1.292 1.292 0 0 1-.298-.286c-.081-.113-.19-.22-.233-.355-.044-.135.004-.28.004-.424-.007-.277.074-.55.233-.777.083-.114.14-.26.252-.344.118-.085.248-.15.385-.196.131-.044.283 0 .427 0 .138-.002.275.018.407.06a1.7 1.7 0 0 1 .636.493c.081.113.214.203.257.338.04.138.058.282.054.426Z" fill="#CCF3E5"></path><path d="M9.898 8.64c0 .145-.083.273-.124.402a1.288 1.288 0 0 1-.173.37c-.083.114-.144.25-.257.333a1.394 1.394 0 0 1-.371.219c-.14.037-.285.052-.429.045-.143 0-.285-.022-.421-.066-.136-.045-.237-.154-.349-.237a1.292 1.292 0 0 1-.298-.286c-.081-.113-.19-.22-.233-.355-.044-.135.004-.28.004-.424-.007-.277.074-.55.233-.777.083-.114.14-.26.252-.344.118-.085.248-.15.385-.196.131-.044.283 0 .427 0 .138-.002.275.018.407.06a1.7 1.7 0 0 1 .636.493c.081.113.214.203.257.338.04.138.058.282.054.426Z" stroke="#0C513F" stroke-width="0.184" stroke-miterlimit="10"></path><path d="M8.642 11.961 6.13 11.46l.107-.396 2.452.473-.047.425Z" fill="#FFB3CE" style="mix-blend-mode:multiply"></path><path d="M9.132 7.983a2.345 2.345 0 0 0-.835 2.279c.056.325.383 1.098.383 1.098l1.308-1.592-.856-1.785Z" fill="#ED5E3B"></path><path d="m22.088 12.884.259-.222.58.643a.23.23 0 0 1 .036.253l-.894 1.858.019-2.532Z" fill="#FFEDB3"></path><path d="m8.51 11.741-2.962-.621-.086-.165.026-.157-.018-.151.011-.286.158-.15.264-.184.507.03.278-.054 2.242.638-.42 1.1Z" fill="#FFC501"></path><path d="m9.387 11.575-2.962-.622-.085-.165.026-.157-.018-.15.011-.286.158-.15.264-.184.506.03.28-.055 2.24.64-.42 1.099Z" fill="#FFC501" style="mix-blend-mode:multiply"></path><path d="m9.478 11.392-2.962-.622-.085-.165.026-.156-.018-.151.011-.286.158-.15.264-.183.506.029.279-.055 2.241.64-.42 1.1Z" fill="#FFC501"></path><path d="M10.329 12.86c-.149.057-.307.138-.475.138a1.396 1.396 0 0 1-.422-.091c-.135-.045-.236-.156-.348-.24-.113-.082-.254-.142-.336-.256a1.391 1.391 0 0 1-.157-.395 1.363 1.363 0 0 1-.096-.412c.015-.17.062-.335.14-.486.06-.16.097-.343.21-.465.114-.123.308-.149.461-.222.15-.088.316-.146.489-.172-.171.073-.325.18-.454.313-.129.125-.295.235-.364.403-.057.176-.08.36-.067.545a1.41 1.41 0 0 0 .031.427c.044.135.153.242.235.356.083.111.184.208.298.288.114.076.24.133.373.17.13.04.266.06.402.058.027-.001.052.042.08.04Z" fill="#0C513F"></path><path d="M11.068 11.588a1.282 1.282 0 0 1-.39.936c-.13.125-.24.286-.41.351-.028 0-.065-.02-.091-.02a1.299 1.299 0 0 1-.404-.102 1.324 1.324 0 0 1-.387-.157.942.942 0 0 1-.454-.685 1.398 1.398 0 0 1 .034-.926c.075-.161.183-.304.315-.422.122-.126.27-.226.432-.293.027 0 .046-.01.074-.01.137.01.272.04.4.091.135.045.297.037.408.12.112.082.151.242.234.356.082.115.231.196.272.33.041.136-.033.287-.033.431Z" fill="#CCF3E5"></path><path d="m22.205 14.423.758-.865-.796 1.32.038-.455Z" fill="#DC9A5D"></path><path d="m9.398 6.72-.313-.422-.148-.06s-.215 2.163.17 3.898c.385 1.734 1.03 2.784 1.03 2.784l.11-.052-.85-6.149Z" fill="#FFEDB3" style="mix-blend-mode:multiply"></path><path d="M18.304 11.075 9.196 6.12l-.357.09.246.092s-.5 3.933 1.24 6.657l7.98-1.884Z" fill="#FFEDB3"></path><path d="m10.172 12.714.076.155 7.9-1.88-.176-.095s-1.863-.426-4.343.239c-2.821.756-3.457 1.58-3.457 1.58ZM22.134 15.288l.074-.158.191-2.41-.056-.061-.025-.007-.184 2.636Z" fill="#FFEDB3" style="mix-blend-mode:multiply"></path><path d="m7.231 14.98 1.528-.08 12.565 3.019a.512.512 0 0 0 .63-.44l.393-4.813s-3.233-3.054-9.7-1.148c-1.906.562-3.111 1.98-4.33 2.905a3.202 3.202 0 0 1-1.086.556Z" fill="#FFEDB3"></path><g style="mix-blend-mode:multiply" fill="#FFDBC9"><path d="M14.461 15.867c.248 0 .45-.161.45-.36 0-.198-.202-.36-.45-.36s-.45.162-.45.36c0 .199.202.36.45.36ZM17.87 12.15c.249 0 .45-.161.45-.36 0-.198-.201-.36-.45-.36-.248 0-.449.162-.449.36 0 .199.201.36.45.36ZM21.042 16.666c.248 0 .45-.16.45-.36 0-.198-.202-.359-.45-.359s-.45.161-.45.36c0 .199.202.36.45.36ZM12.62 10.172c.248 0 .449-.16.449-.36 0-.198-.201-.359-.45-.359-.248 0-.45.161-.45.36 0 .198.202.36.45.36ZM17.154 13.979c.17 0 .306-.11.306-.245 0-.136-.137-.246-.306-.246-.169 0-.306.11-.306.245 0 .136.137.246.306.246ZM10.539 7.881c.169 0 .306-.11.306-.245 0-.136-.137-.245-.306-.245-.17 0-.306.11-.306.245s.137.245.306.245ZM10.232 14.559c.169 0 .306-.11.306-.245 0-.136-.137-.246-.306-.246-.169 0-.306.11-.306.245 0 .136.137.246.306.246ZM18.314 15.78c.11 0 .198-.097.198-.216 0-.12-.089-.216-.198-.216-.11 0-.198.096-.198.216s.089.216.198.216ZM20.394 14.314c.11 0 .198-.097.198-.216 0-.12-.089-.216-.198-.216-.11 0-.198.097-.198.216 0 .12.089.216.198.216ZM21.86 13.336c.11 0 .199-.097.199-.217 0-.119-.089-.216-.198-.216-.11 0-.198.097-.198.216 0 .12.088.217.198.217ZM13.813 12.836c.109 0 .198-.097.198-.217 0-.119-.089-.216-.198-.216-.11 0-.198.097-.198.216 0 .12.088.217.198.217ZM15.34 10.471c.11 0 .198-.097.198-.216 0-.12-.089-.216-.198-.216-.11 0-.198.097-.198.216 0 .12.089.216.198.216ZM10.505 11.335c.109 0 .198-.097.198-.217 0-.119-.09-.216-.198-.216-.11 0-.198.097-.198.216 0 .12.088.217.198.217Z"></path></g></svg>